<svg xmlns="http://www.w3.org/2000/svg" viewBox="0 0 80.44 85.16"><defs><style>.cls-1{fill:#989898;fill-rule:evenodd;}</style></defs><title>homs</title><g id="Слой_2" data-name="Слой 2"><g id="Слой_1-2" data-name="Слой 1"><path class="cls-1" d="M37.67,9.48h0l-.09,0-.14,0-.2,0-.26,0-.27.07-.35.1L36,9.9l-.41.09-.46.11-1,.26-1.08.3L31.85,11l-1.22.34-1.25.37-2.5.83-1.2.42-1.13.43-1.06.46-.92.44.85-.51.44-.3.44-.32.48-.37.53-.43.58-.46.64-.53.69-.6.78-.67.88-.71,1-.83.53-.44L31,7.64l.6-.48.62-.51.64-.53.69-.55L34.22,5,35,4.4l.53-.21.56-.11.55,0,.55.11.51.21.46.3.41.39.32.48.21.53.12.58v.55l-.12.53-.21.51-.32.46-.39.41ZM70.3,24.35l-.76-.62-.72-.58-.69-.55-.67-.53-.62-.53-.57-.48-.58-.46-.53-.44-1-.83-.9-.73-.78-.67-.69-.6-.65-.53-.57-.48-.53-.42-.48-.39-.46-.32-.44-.3-.85-.53L57,14l-.51-.21-.53-.21-.57-.18-.65-.21L54,12.91l-.8-.23-.88-.25-1-.3-1.1-.32L49,11.44l-.67-.18-.69-.21-.74-.23-.76-.23-.8-.25-.85-.28-.9-.28-.92-.3-.48-.32-.39-.39-.33-.46-.2-.53-.1-.53,0-.55.12-.58.23-.53.32-.48.39-.39.46-.3.53-.21.53-.11h.55l.58.11.53.21.75.6.72.6.69.55.67.53.62.51.57.48.58.48.53.44,1,.8.9.76.78.65.72.6.62.55.57.46.53.44.49.36.46.35.43.3.85.5.9.42.51.21.53.2.57.19.65.2.71.23.81.23.87.26,1,.3,1.1.32,1.22.37.67.18.69.21.74.23.76.23.8.25.85.28.9.27.92.3.48.32.39.42.33.46.2.51.1.55,0,.55-.12.55-.23.53-.32.48-.39.42-.46.3-.53.23-.53.09-.55,0-.58-.11ZM72.62,57l.18-.88.16-.83.17-.8.16-.76.16-.71.16-.69L73.88,51l.26-1.15.23-1,.23-.92.18-.83.16-.75.16-.67.12-.6.09-.55L75.4,44l0-.48,0-.9,0-.92,0-.49-.09-.5-.09-.55-.12-.63-.16-.66-.16-.74-.18-.83-.23-.94-.23-1-.26-1.15-.27-1.27-.16-.69-.16-.71-.16-.76L73,30l-.16-.83-.18-.87.07-.58.16-.55.25-.48.37-.44.41-.34.49-.26.55-.16.58-.07.57.07.55.16.49.26.41.34.37.44.25.48.16.55.07.58-.18.87L78,30l-.16.81-.16.76-.17.71-.13.69-.28,1.27-.28,1.15-.23,1-.2.94-.19.83-.18.74-.14.66-.11.63-.12.55-.07.5-.07.49,0,.92,0,.9.07.48.07.53.12.55.11.6.14.67.18.75.19.83.2.92.23,1L77.13,51l.28,1.27.13.69.17.71.16.76.16.8.16.83.18.88-.07.57-.16.55-.25.49-.37.41-.41.37-.49.25-.55.16-.57.07-.58-.07-.55-.16-.49-.25L73.47,59l-.37-.41-.25-.49-.16-.55ZM42.75,75.64l.92-.3.9-.28.83-.25.8-.25.76-.23.74-.23.69-.21.67-.21,1.22-.34,1.1-.33,1-.29.89-.26.79-.23.71-.23.65-.18.59-.21.53-.18.49-.21.89-.44.85-.5.44-.3.46-.33.49-.39.5-.41.58-.48.64-.53.71-.58.79-.67.87-.73,1-.83.53-.44.55-.46.6-.48.62-.51.64-.53.69-.55.72-.6.76-.6.52-.23.58-.11.55,0,.53.09.53.23.46.3.39.42.32.48.23.53.12.58,0,.55-.1.53-.2.5-.33.46-.39.42L73,66l-.92.3-.9.28-.83.25-.8.25-.76.23-.74.23-.69.21-.66.18-1.22.37-1.09.32-1,.28-.9.28-.78.23-.72.2-.64.21L59.8,70l-.53.18-.5.21-.88.41-.85.51-.44.3-.46.34-.48.37-.53.42-.57.48-.65.53-.69.6-.78.66-.87.74-1,.8-.53.44-.56.46-.59.49-.62.5-.65.53-.69.55-.71.6-.76.6-.53.23-.55.11-.58,0-.53-.09-.5-.21-.46-.32L41.9,80l-.32-.48L41.35,79l-.12-.58,0-.55.09-.53.21-.53.32-.46.39-.39ZM10.15,60.93l.76.6.71.6.69.55.67.53.6.51.59.48.56.46.53.44,1,.8.87.74.78.67.72.6.64.52.57.46.53.44.49.37.46.32.43.3.88.51-.9-.42-.5-.2L20.69,70l-.58-.2-.64-.19-.74-.23L18,69.17l-.9-.25-1-.28L15,68.32,13.74,68l-.67-.21-.69-.21-.71-.21-.79-.23-.8-.25-.83-.25-.9-.28L7.43,66,7,65.72l-.39-.39-.32-.46L6,64.34l-.09-.53,0-.55L6,62.68l.23-.53.32-.48L7,61.26l.46-.3L8,60.73l.53-.12H9l.58.12Zm12.47,9.9.9.44.48.18.53.21.6.18.62.21.71.23.81.23.87.25,1,.28,1.11.32,1.21.34.67.21.69.21.74.21.76.23.8.25.83.25.9.28.92.3.48.32.39.39.33.46.2.53.12.53v.55l-.12.58-.2.53-.33.48-.39.39-.46.32-.53.21-.53.11h-.55l-.57-.11-.53-.21-.76-.6-.72-.57L32.9,79l-.66-.53L31.62,78,31,77.48,30.47,77l-.53-.44-1-.83L28.1,75l-.81-.67-.69-.6L26,73.24l-.58-.48-.53-.41L24.37,72l-.46-.35-.44-.3ZM7.8,28.05l-.18.88-.16.85-.17.8-.16.76L7,32.08l-.14.69-.27,1.29-.28,1.15-.23,1-.21.95L5.66,38l-.18.76-.14.66-.12.62-.11.56L5,41.15,5,41.63l0,.92,0,.92L5,44l.07.53.11.55.12.62.14.7.18.73.18.85.21.92.23,1.06.28,1.15.27,1.29L7,53l.16.71.16.79.17.8.16.83.18.9,0,.57-.18.56-.25.48L7,59.09l-.41.37-.51.25-.53.17L5,59.94l-.58-.06-.55-.17-.48-.25-.44-.37-.35-.41L2.3,58.2l-.16-.56-.07-.57.18-.9.17-.83.16-.8.16-.79L2.9,53,3,52.35l.27-1.29.28-1.15.23-1.06L4,47.93l.18-.85.18-.73.14-.7L4.65,45l.11-.55L4.83,44l.07-.48,0-.92,0-.92-.07-.48-.07-.53-.11-.56-.12-.62-.14-.66L4.21,38,4,37.19l-.21-.95-.23-1-.28-1.15L3,32.77l-.14-.69-.16-.74-.16-.76-.16-.8-.17-.85-.18-.88.07-.57.16-.56.25-.48L2.9,26l.44-.37.48-.25.55-.16L5,25.18l.57.07.53.16.51.25L7,26l.35.41.25.48.18.56ZM22.57,14.27h0L10.15,24.16l-.53.23L9,24.51l-.55,0L8,24.39l-.53-.23L7,23.86l-.39-.41L6.26,23,6,22.44l-.12-.58,0-.55L6,20.78l.21-.53.32-.46L7,19.4l.48-.32.92-.3.88-.28.85-.25.8-.25.76-.23.74-.21.69-.21.64-.2,1.22-.35L16,16.48l1-.3.87-.25.81-.23.71-.21.64-.21.58-.21.53-.18.51-.21Z"/><path class="cls-1" d="M8.79,20.16l.85.05.81,0,.76.05.73,0,1.36.12,1.22.09,1.1.07,1,.09.9.07.81.09.71.05.64,0,.58,0,.53,0h.48l.46,0,.85-.07-.83.19-.43.11-.49.16-.48.16-.55.23-.6.23-.67.28-.73.3-.83.34-.92.4-1,.41-1.12.46-1.27.51-.67.27-.71.28-.76.3-.78.3-.6,0-.55-.07L8,25.64l-.46-.28L7.13,25l-.34-.44L6.53,24l-.13-.58,0-.6.07-.55.21-.53.28-.46.36-.41.44-.35.51-.25ZM45,16l.78.3.76.3.69.3.69.27,1.25.51,1.12.46,1,.44.9.39.82.34.74.32.67.28.6.23.55.23.48.18.46.14.44.14.85.18-.9-.09-1,0-1.06,0-1.11,0L51.57,21l-1.15.07-1.11.09-1,.09-1,.1-.88.09-.78.09-.32.05-.3,0-.28,0-.21.05-.18,0h-.11l-.1,0h0l-.55-.16-.51-.23L42.61,21l-.36-.42L42,20.09l-.18-.53-.1-.55.05-.6.16-.55.23-.51.35-.43.41-.37.48-.28.53-.21.56-.06Zm12.84,5,.85.1.46,0,.48,0h.53l.58-.05.64,0,.72,0,.8-.07.9-.07,1-.07,1.1-.09,1.22-.09,1.36-.07.71-.05.79,0,.78-.05.85-.05.55.17.51.23.44.34.36.41.28.49.18.53.1.55,0,.6-.16.55-.23.51-.35.46-.41.36-.48.28-.53.18-.56.07-.57,0Zm-35.3-.11.85-.18.44-.12.46-.16.51-.16.55-.23.6-.23.67-.28.73-.3.83-.34.92-.39,1-.42,1.15-.46,1.25-.5.69-.28.71-.28.76-.3.78-.29.58,0,.55.07.53.21.48.27.42.37.34.44.23.51.16.55,0,.6-.07.55-.21.53-.28.48-.37.42-.43.34-.51.25-.57.14-.86,0-.78-.05-.78-.05-.71,0-1.36-.12-1.22-.09-1.11-.09-1-.07-.9-.09L26.85,21l-.71-.07-.64-.05-.58,0-.55,0h-.95Z"/><path class="cls-1" d="M43.05,9.23l-.67.55-.71.6L41,11l-.76.55,2.9,2.26-.05.57-.18.55-.26.49-.34.43-.41.35-.51.28-.53.16-.58.07-.57-.05-.55-.18-.49-.26-.43-.34-.35-.42-.28-.5-.16-.53-.06-.58,2.85-2.3-.39-.14-.35-.18L39.19,11l-.3-.25-.3-.3-.35-.35-.41-.39-.53-.44.05-.57.18-.55.25-.49.35-.41.41-.37.51-.25.53-.16.57-.07.6,0,.53.19.51.25.41.35.37.41.25.51.16.52ZM17.1,49.5l.71-.81.67-.73.64-.74.62-.69.6-.64.58-.63.53-.57.5-.55.48-.53.49-.51.85-.92.76-.8.71-.74.6-.67.58-.62.48-.55.46-.51.39-.48.37-.46.62-.9-.48.85-.49,1-.5,1-.51,1.08-1,2.26-.94,2.32-.46,1.11L24,47.15l-.39,1-.37,1-.32.88-.3.76-.11.34-.12.32-.09.28-.09.23,18,2.92,1.08,0,1.17-.07,1.24-.09L45,54.56l1.34-.18,1.36-.19,2.71-.41,1.31-.23L53,53.32l1.17-.23,1.08-.21,1-.21.44-.09.41-.07.37-.09.35-.07.27-.07.26,0L51.68,36.41l-.57-.9-.67-.95-.76-1-.83-1-1.75-2-.9-1-.89-1-.88-.92-.83-.87L42.8,26l-.72-.72L41.76,25l-.3-.28-.27-.27-.26-.26-.2-.2-.19-.19-.16-.14-.11-.11L28.74,36.45l.55-.94.25-.53.26-.55.27-.62.28-.69.32-.76L31,31.5l.37-.94.42-1.06.46-1.17.25-.62.25-.67.28-.71.3-.74.32-.78L34,24l.35-.85.37-.9.39-.94.41-1,.37-.46.41-.37.49-.27.53-.16.55-.07.55,0,.55.16.53.25.44.35.34.39.37-.39.44-.35.53-.25.53-.14.55,0,.55.07.53.18.49.28.41.36.37.46.41,1,.39.92.35.9.34.85.35.81.3.78.3.74.27.69.26.66.25.65.46,1.15.41,1.06.35.94.34.83.3.76.28.69.27.6.26.57.25.51.55.94.63.9.34.46.39.48.44.51.48.55.55.6.62.67.7.73.75.83.86.9.46.51.48.52.53.56.53.57.55.62.6.65.62.69.64.71.67.76.71.78.26.53.16.53,0,.55-.07.56-.16.52-.27.49-.37.41-.46.37-.49.23-.5.16.14.3.09.32,0,.32,0,.35-.07.58-.16.52-.26.51-.36.42-.42.34-.51.25-.52.19-.6,0-1.13-.18-1.08-.18-1-.17-1-.18L53.61,57l-.89-.14-.86-.16-.78-.14-.76-.14-.73-.13-.69-.12-.65-.11-1.19-.23L46,55.64l-1-.18-.87-.16-.79-.12-.71-.11L42,55l-.64-.07-1.17,0-1.18,0-.62.06-.67.07-.73.1-.79.11-.87.14-1,.16-1.08.18-1.19.21-.65.12-.69.11-.71.12-.78.13-.79.12-.85.14-.9.16-.94.14-1,.16-1,.16-1.11.16-1.12.16L21,57.55l-.53-.16-.5-.25-.42-.37-.34-.41-.26-.49-.18-.55-.05-.58.05-.48.12-.44-.44-.13L18,53.46l-.46-.35-.36-.44-.26-.48-.18-.53-.07-.55.05-.55.13-.53Z"/><polygon class="cls-1" points="9.2 26.67 9.2 26.7 9.2 26.79 9.23 26.9 9.23 27.09 9.25 27.29 9.27 27.55 9.3 27.84 9.32 28.19 9.39 28.95 9.46 29.8 9.55 30.75 9.66 31.76 9.92 33.85 10.08 34.89 10.26 35.92 10.45 36.87 10.63 37.76 10.86 38.55 10.98 38.89 11.09 39.21 18.29 49.64 18.45 50.19 18.5 50.76 18.43 51.32 18.25 51.84 17.99 52.33 17.63 52.74 17.19 53.09 16.68 53.36 16.11 53.52 15.55 53.57 15 53.5 14.47 53.34 13.99 53.06 13.55 52.72 13.21 52.26 12.93 51.75 11.09 39.21 10.75 38.48 10.33 37.67 9.85 36.84 9.32 35.99 8.12 34.24 7.5 33.39 6.88 32.59 6.28 31.8 5.73 31.09 5.22 30.45 4.76 29.89 4.56 29.64 4.37 29.43 4.23 29.25 4.1 29.09 3.98 28.95 3.91 28.86 3.87 28.81 3.84 28.79 3.68 28.21 3.66 27.66 3.73 27.11 3.89 26.58 4.17 26.1 4.51 25.66 4.95 25.31 5.48 25.04 6.03 24.88 6.6 24.85 7.16 24.92 7.66 25.08 8.15 25.36 8.58 25.7 8.93 26.14 9.2 26.67"/><path class="cls-1" d="M76.53,29l-.44.62-.43.6-.79,1.11-.73,1-.67.89-.6.81-.55.74-.48.64-.44.6-.39.5-.37.49-.3.43-.27.4-.23.39-.21.34-.32.72-.26.73-.09.39-.09.44-.09.48-.07.53-.09.58-.07.64-.1.74-.09.8-.11.9-.12,1L68,47.56l-.16,1.22-.18,1.36-.12.72-.11.75-.28.53-.34.44-.44.37-.48.25-.53.19-.55.07-.58-.05-.55-.16L63.16,53l-.43-.37-.37-.43-.26-.49-.16-.53-.07-.55.05-.57.16-.56.44-.62.44-.59.78-1.11.73-1,.67-.9.6-.8.55-.71.48-.67.44-.58L67.6,42l.35-.46.32-.43.25-.39.26-.4L69,40l.33-.71.25-.74.09-.39.09-.44.07-.48.09-.53.07-.58.1-.64.06-.74.12-.8.09-.9.14-1,.14-1.11.16-1.22L71,28.31l.12-.72.11-.76.28-.5.34-.44.42-.37.48-.25.53-.16.55-.07.58,0,.55.17.51.27.43.35.37.41.25.48.19.53.07.56,0,.57ZM68.32,54.19l.23.92.25,1L69.28,58,73,56.72l.48.33.39.41.3.46.21.53.12.53v.55l-.12.58-.23.52-.32.49-.42.39-.46.3-.5.21-.53.11h-.55L70.8,62l-.53-.24-1-3.79-.2.07-.17.07-.27.09-.23.07-.23.09-.16,0-.19.06-.23.07-.27.1-.32.09-.4.14-.48.16-.55.18-.48-.32-.4-.42L64.4,58l-.2-.5L64.08,57v-.56l.12-.55.23-.53.32-.48.41-.39.46-.3.51-.21.55-.11h.56l.55.11Z"/><path class="cls-1" d="M62.38,59.76l0,0-.07,0-.12.07L62,60l-.21.14-.23.14-.27.18-.3.18-.67.44-.78.51-.83.57-.9.6L56,64l-.9.65-.85.62-.78.6-.72.57-.6.51-.25.25-.21.21.51-.64.25-.37.26-.39.25-.44.25-.48.3-.56.32-.59.35-.7.39-.75.44-.83.48-.95.55-1,.6-1.13.35-.62.34-.62.37-.69.39-.69.44-.39.48-.28.51-.18.55-.1.55,0,.53.14.53.23.46.34.39.44.3.48.18.51.1.55,0,.55-.13.53-.23.53Zm-47.63-.44-.39-.14L14,59.07l-.58-.25L13,58.63l-.39-.18-.35-.14-.34-.11-.4-.1-.43,0-1,3.79-.52.23L9,62.2H8.49l-.55-.12-.51-.2L7,61.58l-.41-.39-.32-.49L6,60.17l-.1-.57v-.55l.1-.53.2-.53.3-.46.39-.42.49-.32,3.68,1.27,0-.21,0-.18,0-.23.05-.21L11.3,57l0-.14.05-.18,0-.23.09-.28.07-.34.11-.44.14-.51.14-.6.53-.23.57-.09h.55l.56.09.5.21.46.3.42.39.32.48.23.53.12.56v.55l-.12.55-.21.51-.3.46-.39.41ZM35.21,78.9l-.4-.69-.36-.66-.37-.65-.32-.62-.63-1.13-.55-1-.5-.92-.44-.85-.39-.74-.35-.69-.32-.6-.3-.55L30,69.29l-.25-.44-.25-.39-.25-.35-.51-.64.57.57.33.28.36.3.42.3.46.32.51.35L32,70l.62.44.72.46.8.53L35,72l1,.64,1.06.74.57.39.6.41.63.44.66.46.35.46L40,76l.14.53,0,.55-.09.55-.19.53-.27.48-.39.44-.46.35-.53.23-.53.14-.56,0-.55-.09-.5-.19-.49-.27ZM28.74,67.47l-.58-.58-.32-.3-.37-.27-.41-.3-.46-.32-.51-.37L25.52,65l-.65-.41-.69-.49-.8-.53L22.5,63l-1-.65-1.08-.73-.58-.39-.6-.42-.62-.43L18,59.88l-.34-.46-.23-.53-.14-.53,0-.56.09-.55.18-.5.28-.49.39-.43.46-.35.53-.25.53-.14.57,0,.53.09.56.18.48.28.44.39.39.69.37.69.36.62.33.62.62,1.13.55,1,.48.94.44.83.41.76.35.66.32.63.28.52.27.49.26.44.25.39.25.36Zm23-.07h0L45.31,78.86l-.44.39-.48.3-.51.18-.55.1-.55,0-.53-.14-.53-.23-.46-.34-.39-.44-.3-.48-.19-.51-.09-.55,0-.55.14-.53.23-.53L41,75l.64-.46.62-.44.6-.44.58-.39,1.05-.73,1-.65.88-.6.8-.52.69-.47.65-.43.57-.37.51-.35.46-.32.39-.32.37-.28.32-.29Z"/><polygon class="cls-1" points="40.24 13.83 40.7 13.86 41.14 13.93 41.56 14.02 41.97 14.18 42.34 14.36 42.71 14.57 43.05 14.82 43.35 15.1 43.65 15.42 43.9 15.74 44.11 16.11 44.3 16.48 44.43 16.89 44.55 17.31 44.62 17.74 44.64 18.18 44.62 18.64 44.55 19.08 44.43 19.49 44.3 19.91 44.11 20.27 43.9 20.64 43.65 20.99 43.35 21.29 43.05 21.59 42.71 21.84 42.34 22.05 41.97 22.23 41.56 22.37 41.14 22.48 40.7 22.55 40.24 22.58 39.81 22.55 39.37 22.48 38.96 22.37 38.54 22.23 38.17 22.05 37.8 21.84 37.48 21.59 37.16 21.29 36.88 20.99 36.63 20.64 36.42 20.27 36.24 19.91 36.08 19.49 35.99 19.08 35.92 18.64 35.9 18.18 35.92 17.74 35.99 17.31 36.08 16.89 36.24 16.48 36.42 16.11 36.63 15.74 36.88 15.42 37.16 15.1 37.48 14.82 37.8 14.57 38.17 14.36 38.54 14.18 38.96 14.02 39.37 13.93 39.81 13.86 40.24 13.83"/><polygon class="cls-1" points="40.24 13.83 40.24 13.26 40.75 13.28 41.26 13.35 41.72 13.46 42.18 13.63 41.97 14.18 41.74 14.71 41.4 14.59 41.03 14.5 40.64 14.45 40.24 14.43 40.24 13.83"/><polygon class="cls-1" points="41.97 14.18 42.18 13.63 42.61 13.83 43.03 14.09 43.42 14.36 43.77 14.68 43.35 15.1 42.94 15.51 42.66 15.26 42.38 15.05 41.74 14.71 41.97 14.18"/><polygon class="cls-1" points="43.35 15.1 43.77 14.68 44.09 15.03 44.39 15.4 44.64 15.81 44.85 16.25 44.3 16.48 43.77 16.71 43.4 16.09 43.19 15.79 42.94 15.51 43.35 15.1"/><polygon class="cls-1" points="44.3 16.48 44.85 16.25 45.01 16.71 45.12 17.19 45.21 17.68 45.24 18.18 44.64 18.18 44.06 18.18 44.04 17.79 43.99 17.42 43.77 16.71 44.3 16.48"/><polygon class="cls-1" points="44.64 18.18 45.24 18.18 45.21 18.69 45.12 19.19 45.01 19.68 44.85 20.11 44.3 19.91 43.77 19.68 43.88 19.33 43.99 18.96 44.04 18.57 44.06 18.18 44.64 18.18"/><polygon class="cls-1" points="44.3 19.91 44.85 20.11 44.64 20.55 44.39 20.97 44.09 21.36 43.77 21.7 43.35 21.29 42.94 20.87 43.19 20.6 43.4 20.32 43.77 19.68 44.3 19.91"/><polygon class="cls-1" points="43.35 21.29 43.77 21.7 43.42 22.02 43.03 22.32 42.61 22.58 42.18 22.78 41.97 22.23 41.74 21.7 42.38 21.33 42.66 21.13 42.94 20.87 43.35 21.29"/><polygon class="cls-1" points="41.97 22.23 42.18 22.78 41.74 22.94 41.26 23.06 40.75 23.15 40.24 23.17 40.24 22.58 40.24 22 40.64 21.98 41.03 21.93 41.4 21.82 41.74 21.7 41.97 22.23"/><polygon class="cls-1" points="40.24 22.58 40.24 23.17 39.74 23.15 39.26 23.06 38.77 22.94 38.31 22.78 38.54 22.23 38.77 21.7 39.48 21.93 39.85 21.98 40.24 22 40.24 22.58"/><polygon class="cls-1" points="38.54 22.23 38.31 22.78 37.87 22.58 37.46 22.32 37.09 22.02 36.75 21.7 37.16 21.29 37.58 20.87 37.85 21.13 38.15 21.33 38.77 21.7 38.54 22.23"/><polygon class="cls-1" points="37.16 21.29 36.75 21.7 36.42 21.36 36.15 20.97 35.9 20.55 35.69 20.11 36.24 19.91 36.77 19.68 37.12 20.32 37.32 20.6 37.58 20.87 37.16 21.29"/><polygon class="cls-1" points="36.24 19.91 35.69 20.11 35.53 19.65 35.41 19.19 35.34 18.69 35.32 18.18 35.9 18.18 36.49 18.18 36.52 18.57 36.56 18.96 36.66 19.33 36.77 19.68 36.24 19.91"/><polygon class="cls-1" points="35.9 18.18 35.32 18.18 35.34 17.68 35.41 17.19 35.53 16.71 35.69 16.25 36.24 16.48 36.77 16.71 36.66 17.05 36.56 17.42 36.52 17.79 36.49 18.18 35.9 18.18"/><polygon class="cls-1" points="36.24 16.48 35.69 16.25 35.9 15.83 36.15 15.42 36.42 15.03 36.75 14.68 37.16 15.1 37.58 15.51 37.32 15.79 37.12 16.06 36.93 16.39 36.77 16.71 36.24 16.48"/><polygon class="cls-1" points="37.16 15.1 36.75 14.68 37.09 14.36 37.48 14.09 37.9 13.83 38.31 13.63 38.54 14.18 38.77 14.71 38.45 14.87 38.13 15.05 37.85 15.26 37.58 15.51 37.16 15.1"/><polygon class="cls-1" points="38.54 14.18 38.31 13.63 38.77 13.46 39.26 13.35 39.74 13.28 40.24 13.26 40.24 13.83 40.24 14.43 39.85 14.45 39.48 14.5 39.12 14.59 38.77 14.71 38.54 14.18"/><polygon class="cls-1" points="17.21 50.35 17.67 50.37 18.11 50.44 18.52 50.53 18.94 50.69 19.3 50.88 19.67 51.09 20.02 51.34 20.32 51.62 20.62 51.94 20.87 52.26 21.08 52.63 21.26 52.99 21.4 53.41 21.51 53.82 21.58 54.26 21.61 54.7 21.58 55.16 21.51 55.59 21.4 56.01 21.26 56.42 21.08 56.79 20.87 57.16 20.62 57.51 20.32 57.8 20.02 58.1 19.67 58.36 19.3 58.56 18.94 58.75 18.52 58.89 18.11 59 17.67 59.07 17.21 59.09 16.77 59.07 16.34 59 15.92 58.89 15.51 58.75 15.14 58.56 14.77 58.36 14.45 58.1 14.13 57.8 13.85 57.51 13.6 57.16 13.39 56.79 13.21 56.42 13.05 56.01 12.96 55.59 12.89 55.16 12.86 54.7 12.89 54.26 12.96 53.82 13.05 53.41 13.21 52.99 13.39 52.63 13.6 52.26 13.85 51.94 14.13 51.62 14.45 51.34 14.77 51.09 15.14 50.88 15.51 50.69 15.92 50.53 16.34 50.44 16.77 50.37 17.21 50.35"/><polygon class="cls-1" points="17.21 50.35 17.21 49.77 17.72 49.8 18.22 49.87 18.68 49.98 19.14 50.14 18.94 50.69 18.71 51.22 18.36 51.11 17.99 51.02 17.6 50.97 17.21 50.95 17.21 50.35"/><polygon class="cls-1" points="18.94 50.69 19.14 50.14 19.58 50.35 20 50.6 20.39 50.88 20.73 51.2 20.32 51.62 19.9 52.03 19.63 51.78 19.35 51.57 18.71 51.22 18.94 50.69"/><polygon class="cls-1" points="20.32 51.62 20.73 51.2 21.05 51.55 21.35 51.91 21.61 52.33 21.81 52.77 21.26 52.99 20.73 53.23 20.36 52.6 20.16 52.3 19.9 52.03 20.32 51.62"/><polygon class="cls-1" points="21.26 52.99 21.81 52.77 21.97 53.23 22.09 53.71 22.18 54.19 22.2 54.7 21.61 54.7 21.03 54.7 21.01 54.31 20.96 53.94 20.73 53.23 21.26 52.99"/><polygon class="cls-1" points="21.61 54.7 22.2 54.7 22.18 55.2 22.09 55.71 21.97 56.19 21.81 56.63 21.26 56.42 20.73 56.19 20.85 55.85 20.96 55.48 21.01 55.09 21.03 54.7 21.61 54.7"/><polygon class="cls-1" points="21.26 56.42 21.81 56.63 21.61 57.07 21.35 57.48 21.05 57.87 20.73 58.22 20.32 57.8 19.9 57.39 20.16 57.11 20.36 56.84 20.73 56.19 21.26 56.42"/><polygon class="cls-1" points="20.32 57.8 20.73 58.22 20.39 58.54 20 58.84 19.58 59.09 19.14 59.3 18.94 58.75 18.71 58.22 19.35 57.85 19.63 57.64 19.9 57.39 20.32 57.8"/><polygon class="cls-1" points="18.94 58.75 19.14 59.3 18.71 59.46 18.22 59.58 17.72 59.67 17.21 59.69 17.21 59.09 17.21 58.52 17.6 58.49 17.99 58.45 18.36 58.33 18.71 58.22 18.94 58.75"/><polygon class="cls-1" points="17.21 59.09 17.21 59.69 16.7 59.67 16.22 59.58 15.74 59.46 15.28 59.3 15.51 58.75 15.74 58.22 16.45 58.45 16.82 58.49 17.21 58.52 17.21 59.09"/><polygon class="cls-1" points="15.51 58.75 15.28 59.3 14.84 59.09 14.43 58.84 14.06 58.54 13.71 58.22 14.13 57.8 14.54 57.39 14.82 57.64 15.12 57.85 15.74 58.22 15.51 58.75"/><polygon class="cls-1" points="14.13 57.8 13.71 58.22 13.39 57.87 13.12 57.48 12.86 57.07 12.65 56.63 13.21 56.42 13.74 56.19 14.08 56.84 14.29 57.11 14.54 57.39 14.13 57.8"/><polygon class="cls-1" points="13.21 56.42 12.65 56.63 12.49 56.17 12.38 55.71 12.31 55.2 12.29 54.7 12.86 54.7 13.46 54.7 13.48 55.09 13.53 55.48 13.62 55.85 13.74 56.19 13.21 56.42"/><polygon class="cls-1" points="12.86 54.7 12.29 54.7 12.31 54.19 12.38 53.71 12.49 53.23 12.65 52.77 13.21 52.99 13.74 53.23 13.62 53.57 13.53 53.94 13.48 54.31 13.46 54.7 12.86 54.7"/><polygon class="cls-1" points="13.21 52.99 12.65 52.77 12.86 52.35 13.12 51.94 13.39 51.55 13.71 51.2 14.13 51.62 14.54 52.03 14.29 52.3 14.08 52.58 13.9 52.9 13.74 53.23 13.21 52.99"/><polygon class="cls-1" points="14.13 51.62 13.71 51.2 14.06 50.88 14.45 50.6 14.86 50.35 15.28 50.14 15.51 50.69 15.74 51.22 15.42 51.38 15.09 51.57 14.82 51.78 14.54 52.03 14.13 51.62"/><polygon class="cls-1" points="15.51 50.69 15.28 50.14 15.74 49.98 16.22 49.87 16.7 49.8 17.21 49.77 17.21 50.35 17.21 50.95 16.82 50.97 16.45 51.02 16.08 51.11 15.74 51.22 15.51 50.69"/><polygon class="cls-1" points="63.09 50.23 63.55 50.26 63.99 50.33 64.41 50.42 64.82 50.58 65.19 50.76 65.56 50.97 65.9 51.22 66.2 51.5 66.5 51.82 66.75 52.14 66.96 52.51 67.14 52.88 67.28 53.29 67.4 53.71 67.47 54.15 67.49 54.58 67.47 55.04 67.4 55.48 67.28 55.9 67.14 56.31 66.96 56.68 66.75 57.05 66.5 57.39 66.2 57.69 65.9 57.99 65.56 58.24 65.19 58.45 64.82 58.63 64.41 58.77 63.99 58.89 63.55 58.95 63.09 58.98 62.66 58.95 62.22 58.89 61.8 58.77 61.39 58.63 61.02 58.45 60.65 58.24 60.33 57.99 60.01 57.69 59.73 57.39 59.48 57.05 59.27 56.68 59.09 56.31 58.93 55.9 58.84 55.48 58.77 55.04 58.74 54.58 58.77 54.15 58.84 53.71 58.93 53.29 59.09 52.88 59.27 52.51 59.48 52.14 59.73 51.82 60.01 51.5 60.33 51.22 60.65 50.97 61.02 50.76 61.39 50.58 61.8 50.42 62.22 50.33 62.66 50.26 63.09 50.23"/><polygon class="cls-1" points="63.09 50.23 63.09 49.66 63.6 49.68 64.11 49.75 64.57 49.87 65.03 50.03 64.82 50.58 64.59 51.11 64.24 50.99 63.88 50.9 63.48 50.86 63.09 50.83 63.09 50.23"/><polygon class="cls-1" points="64.82 50.58 65.03 50.03 65.46 50.23 65.88 50.49 66.27 50.76 66.61 51.09 66.2 51.5 65.78 51.91 65.51 51.66 65.23 51.45 64.59 51.11 64.82 50.58"/><polygon class="cls-1" points="66.2 51.5 66.61 51.09 66.94 51.43 67.23 51.8 67.49 52.21 67.69 52.65 67.14 52.88 66.61 53.11 66.25 52.49 66.04 52.19 65.78 51.91 66.2 51.5"/><polygon class="cls-1" points="67.14 52.88 67.69 52.65 67.86 53.11 67.97 53.59 68.06 54.08 68.09 54.58 67.49 54.58 66.91 54.58 66.89 54.19 66.84 53.82 66.61 53.11 67.14 52.88"/><polygon class="cls-1" points="67.49 54.58 68.09 54.58 68.06 55.09 67.97 55.59 67.86 56.08 67.69 56.52 67.14 56.31 66.61 56.08 66.73 55.73 66.84 55.37 66.89 54.97 66.91 54.58 67.49 54.58"/><polygon class="cls-1" points="67.14 56.31 67.69 56.52 67.49 56.95 67.23 57.37 66.94 57.76 66.61 58.1 66.2 57.69 65.78 57.27 66.04 57 66.25 56.72 66.61 56.08 67.14 56.31"/><polygon class="cls-1" points="66.2 57.69 66.61 58.1 66.27 58.43 65.88 58.73 65.46 58.98 65.03 59.19 64.82 58.63 64.59 58.1 65.23 57.73 65.51 57.53 65.78 57.27 66.2 57.69"/><polygon class="cls-1" points="64.82 58.63 65.03 59.19 64.59 59.35 64.11 59.46 63.6 59.55 63.09 59.58 63.09 58.98 63.09 58.4 63.48 58.38 63.88 58.33 64.24 58.22 64.59 58.1 64.82 58.63"/><polygon class="cls-1" points="63.09 58.98 63.09 59.58 62.59 59.55 62.1 59.46 61.62 59.35 61.16 59.19 61.39 58.63 61.62 58.1 62.33 58.33 62.7 58.38 63.09 58.4 63.09 58.98"/><polygon class="cls-1" points="61.39 58.63 61.16 59.19 60.72 58.98 60.31 58.73 59.94 58.43 59.6 58.1 60.01 57.69 60.42 57.27 60.7 57.53 61 57.73 61.62 58.1 61.39 58.63"/><polygon class="cls-1" points="60.01 57.69 59.6 58.1 59.27 57.76 59 57.37 58.74 56.95 58.54 56.52 59.09 56.31 59.62 56.08 59.96 56.72 60.17 57 60.42 57.27 60.01 57.69"/><polygon class="cls-1" points="59.09 56.31 58.54 56.52 58.38 56.06 58.26 55.59 58.19 55.09 58.17 54.58 58.74 54.58 59.34 54.58 59.37 54.97 59.41 55.37 59.5 55.73 59.62 56.08 59.09 56.31"/><polygon class="cls-1" points="58.74 54.58 58.17 54.58 58.19 54.08 58.26 53.59 58.38 53.11 58.54 52.65 59.09 52.88 59.62 53.11 59.5 53.46 59.41 53.82 59.37 54.19 59.34 54.58 58.74 54.58"/><polygon class="cls-1" points="59.09 52.88 58.54 52.65 58.74 52.24 59 51.82 59.27 51.43 59.6 51.09 60.01 51.5 60.42 51.91 60.17 52.19 59.96 52.47 59.78 52.79 59.62 53.11 59.09 52.88"/><polygon class="cls-1" points="60.01 51.5 59.6 51.09 59.94 50.76 60.33 50.49 60.75 50.23 61.16 50.03 61.39 50.58 61.62 51.11 61.3 51.27 60.98 51.45 60.7 51.66 60.42 51.91 60.01 51.5"/><polygon class="cls-1" points="61.39 50.58 61.16 50.03 61.62 49.87 62.1 49.75 62.59 49.68 63.09 49.66 63.09 50.23 63.09 50.83 62.7 50.86 62.33 50.9 61.97 50.99 61.62 51.11 61.39 50.58"/><polygon class="cls-1" points="75.45 19.49 75.91 19.52 76.35 19.59 76.76 19.68 77.18 19.84 77.54 20.02 77.91 20.23 78.26 20.48 78.56 20.76 78.86 21.08 79.11 21.4 79.32 21.77 79.5 22.14 79.64 22.55 79.75 22.97 79.82 23.4 79.84 23.84 79.82 24.3 79.75 24.74 79.64 25.15 79.5 25.57 79.32 25.94 79.11 26.3 78.86 26.65 78.56 26.95 78.26 27.25 77.91 27.5 77.54 27.71 77.18 27.89 76.76 28.03 76.35 28.14 75.91 28.21 75.45 28.24 75.01 28.21 74.58 28.14 74.16 28.03 73.75 27.89 73.38 27.71 73.01 27.5 72.69 27.25 72.37 26.95 72.09 26.65 71.84 26.3 71.63 25.94 71.45 25.57 71.28 25.15 71.19 24.74 71.12 24.3 71.1 23.84 71.12 23.4 71.19 22.97 71.28 22.55 71.45 22.14 71.63 21.77 71.84 21.4 72.09 21.08 72.37 20.76 72.69 20.48 73.01 20.23 73.38 20.02 73.75 19.84 74.16 19.68 74.58 19.59 75.01 19.52 75.45 19.49"/><polygon class="cls-1" points="75.45 19.49 75.45 18.92 75.96 18.94 76.46 19.01 76.92 19.13 77.38 19.29 77.18 19.84 76.94 20.37 76.6 20.25 76.23 20.16 75.84 20.11 75.45 20.09 75.45 19.49"/><polygon class="cls-1" points="77.18 19.84 77.38 19.29 77.82 19.49 78.23 19.75 78.63 20.02 78.97 20.34 78.56 20.76 78.14 21.17 77.87 20.92 77.59 20.71 76.94 20.37 77.18 19.84"/><polygon class="cls-1" points="78.56 20.76 78.97 20.34 79.29 20.69 79.59 21.06 79.84 21.47 80.05 21.91 79.5 22.14 78.97 22.37 78.6 21.75 78.39 21.45 78.14 21.17 78.56 20.76"/><polygon class="cls-1" points="79.5 22.14 80.05 21.91 80.21 22.37 80.33 22.85 80.42 23.34 80.44 23.84 79.84 23.84 79.27 23.84 79.25 23.45 79.2 23.08 78.97 22.37 79.5 22.14"/><polygon class="cls-1" points="79.84 23.84 80.44 23.84 80.42 24.35 80.33 24.85 80.21 25.34 80.05 25.77 79.5 25.57 78.97 25.34 79.08 24.99 79.2 24.62 79.25 24.23 79.27 23.84 79.84 23.84"/><polygon class="cls-1" points="79.5 25.57 80.05 25.77 79.84 26.21 79.59 26.63 79.29 27.02 78.97 27.36 78.56 26.95 78.14 26.53 78.39 26.26 78.6 25.98 78.97 25.34 79.5 25.57"/><polygon class="cls-1" points="78.56 26.95 78.97 27.36 78.63 27.68 78.23 27.98 77.82 28.24 77.38 28.44 77.18 27.89 76.94 27.36 77.59 26.99 77.87 26.79 78.14 26.53 78.56 26.95"/><polygon class="cls-1" points="77.18 27.89 77.38 28.44 76.94 28.61 76.46 28.72 75.96 28.81 75.45 28.84 75.45 28.24 75.45 27.66 75.84 27.64 76.23 27.59 76.6 27.48 76.94 27.36 77.18 27.89"/><polygon class="cls-1" points="75.45 28.24 75.45 28.84 74.94 28.81 74.46 28.72 73.98 28.61 73.52 28.44 73.75 27.89 73.98 27.36 74.69 27.59 75.06 27.64 75.45 27.66 75.45 28.24"/><polygon class="cls-1" points="73.75 27.89 73.52 28.44 73.08 28.24 72.67 27.98 72.3 27.68 71.95 27.36 72.37 26.95 72.78 26.53 73.06 26.79 73.36 26.99 73.98 27.36 73.75 27.89"/><polygon class="cls-1" points="72.37 26.95 71.95 27.36 71.63 27.02 71.35 26.63 71.1 26.21 70.89 25.77 71.45 25.57 71.97 25.34 72.32 25.98 72.53 26.26 72.78 26.53 72.37 26.95"/><polygon class="cls-1" points="71.45 25.57 70.89 25.77 70.73 25.31 70.62 24.85 70.55 24.35 70.53 23.84 71.1 23.84 71.7 23.84 71.72 24.23 71.77 24.62 71.86 24.99 71.97 25.34 71.45 25.57"/><polygon class="cls-1" points="71.1 23.84 70.53 23.84 70.55 23.34 70.62 22.85 70.73 22.37 70.89 21.91 71.45 22.14 71.97 22.37 71.86 22.71 71.77 23.08 71.72 23.45 71.7 23.84 71.1 23.84"/><polygon class="cls-1" points="71.45 22.14 70.89 21.91 71.1 21.5 71.35 21.08 71.63 20.69 71.95 20.34 72.37 20.76 72.78 21.17 72.53 21.45 72.32 21.73 72.14 22.05 71.97 22.37 71.45 22.14"/><polygon class="cls-1" points="72.37 20.76 71.95 20.34 72.3 20.02 72.69 19.75 73.1 19.49 73.52 19.29 73.75 19.84 73.98 20.37 73.66 20.53 73.33 20.71 73.06 20.92 72.78 21.17 72.37 20.76"/><polygon class="cls-1" points="73.75 19.84 73.52 19.29 73.98 19.13 74.46 19.01 74.94 18.94 75.45 18.92 75.45 19.49 75.45 20.09 75.06 20.11 74.69 20.16 74.32 20.25 73.98 20.37 73.75 19.84"/><polygon class="cls-1" points="4.92 19.31 5.38 19.33 5.82 19.4 6.24 19.49 6.65 19.65 7.02 19.84 7.39 20.05 7.73 20.3 8.03 20.57 8.33 20.9 8.58 21.22 8.79 21.59 8.97 21.95 9.11 22.37 9.23 22.78 9.3 23.22 9.32 23.66 9.3 24.12 9.23 24.55 9.11 24.97 8.97 25.38 8.79 25.75 8.58 26.12 8.33 26.46 8.03 26.76 7.73 27.06 7.39 27.32 7.02 27.52 6.65 27.71 6.24 27.84 5.82 27.96 5.38 28.03 4.92 28.05 4.49 28.03 4.05 27.96 3.64 27.84 3.22 27.71 2.85 27.52 2.48 27.32 2.16 27.06 1.84 26.76 1.56 26.46 1.31 26.12 1.1 25.75 0.92 25.38 0.76 24.97 0.67 24.55 0.6 24.12 0.57 23.66 0.6 23.22 0.67 22.78 0.76 22.37 0.92 21.95 1.1 21.59 1.31 21.22 1.56 20.9 1.84 20.57 2.16 20.3 2.48 20.05 2.85 19.84 3.22 19.65 3.64 19.49 4.05 19.4 4.49 19.33 4.92 19.31"/><polygon class="cls-1" points="4.92 19.31 4.92 18.73 5.43 18.76 5.94 18.82 6.4 18.94 6.86 19.1 6.65 19.65 6.42 20.18 6.08 20.07 5.71 19.98 5.32 19.93 4.92 19.91 4.92 19.31"/><polygon class="cls-1" points="6.65 19.65 6.86 19.1 7.29 19.31 7.71 19.56 8.1 19.84 8.45 20.16 8.03 20.57 7.62 20.99 7.34 20.73 7.06 20.53 6.42 20.18 6.65 19.65"/><polygon class="cls-1" points="8.03 20.57 8.45 20.16 8.77 20.5 9.07 20.87 9.32 21.29 9.53 21.73 8.97 21.95 8.45 22.18 8.08 21.56 7.87 21.26 7.62 20.99 8.03 20.57"/><polygon class="cls-1" points="8.97 21.95 9.53 21.73 9.69 22.18 9.8 22.67 9.89 23.15 9.92 23.66 9.32 23.66 8.74 23.66 8.72 23.27 8.68 22.9 8.45 22.18 8.97 21.95"/><polygon class="cls-1" points="9.32 23.66 9.92 23.66 9.89 24.16 9.8 24.67 9.69 25.15 9.53 25.59 8.97 25.38 8.45 25.15 8.56 24.81 8.68 24.44 8.72 24.05 8.74 23.66 9.32 23.66"/><polygon class="cls-1" points="8.97 25.38 9.53 25.59 9.32 26.03 9.07 26.44 8.77 26.83 8.45 27.18 8.03 26.76 7.62 26.35 7.87 26.07 8.08 25.8 8.45 25.15 8.97 25.38"/><polygon class="cls-1" points="8.03 26.76 8.45 27.18 8.1 27.5 7.71 27.8 7.29 28.05 6.86 28.26 6.65 27.71 6.42 27.18 7.06 26.81 7.34 26.6 7.62 26.35 8.03 26.76"/><polygon class="cls-1" points="6.65 27.71 6.86 28.26 6.42 28.42 5.94 28.54 5.43 28.63 4.92 28.65 4.92 28.05 4.92 27.48 5.32 27.45 5.71 27.41 6.08 27.29 6.42 27.18 6.65 27.71"/><polygon class="cls-1" points="4.92 28.05 4.92 28.65 4.42 28.63 3.94 28.54 3.45 28.42 2.99 28.26 3.22 27.71 3.45 27.18 4.17 27.41 4.53 27.45 4.92 27.48 4.92 28.05"/><polygon class="cls-1" points="3.22 27.71 2.99 28.26 2.55 28.05 2.14 27.8 1.77 27.5 1.43 27.18 1.84 26.76 2.25 26.35 2.53 26.6 2.83 26.81 3.45 27.18 3.22 27.71"/><polygon class="cls-1" points="1.84 26.76 1.43 27.18 1.1 26.83 0.83 26.44 0.57 26.03 0.37 25.59 0.92 25.38 1.45 25.15 1.79 25.8 2 26.07 2.25 26.35 1.84 26.76"/><polygon class="cls-1" points="0.92 25.38 0.37 25.59 0.21 25.13 0.09 24.67 0.02 24.16 0 23.66 0.57 23.66 1.17 23.66 1.2 24.05 1.24 24.44 1.33 24.81 1.45 25.15 0.92 25.38"/><polygon class="cls-1" points="0.57 23.66 0 23.66 0.02 23.15 0.09 22.67 0.21 22.18 0.37 21.73 0.92 21.95 1.45 22.18 1.33 22.53 1.24 22.9 1.2 23.27 1.17 23.66 0.57 23.66"/><polygon class="cls-1" points="0.92 21.95 0.37 21.73 0.57 21.31 0.83 20.9 1.1 20.5 1.43 20.16 1.84 20.57 2.25 20.99 2 21.26 1.79 21.54 1.61 21.86 1.45 22.18 0.92 21.95"/><polygon class="cls-1" points="1.84 20.57 1.43 20.16 1.77 19.84 2.16 19.56 2.58 19.31 2.99 19.1 3.22 19.65 3.45 20.18 3.13 20.34 2.81 20.53 2.53 20.73 2.25 20.99 1.84 20.57"/><polygon class="cls-1" points="3.22 19.65 2.99 19.1 3.45 18.94 3.94 18.82 4.42 18.76 4.92 18.73 4.92 19.31 4.92 19.91 4.53 19.93 4.17 19.98 3.8 20.07 3.45 20.18 3.22 19.65"/><polygon class="cls-1" points="4.92 57.05 5.38 57.07 5.82 57.14 6.24 57.23 6.65 57.39 7.02 57.57 7.39 57.78 7.73 58.03 8.03 58.31 8.33 58.63 8.58 58.95 8.79 59.32 8.97 59.69 9.11 60.1 9.23 60.52 9.3 60.96 9.32 61.39 9.3 61.85 9.23 62.29 9.11 62.7 8.97 63.12 8.79 63.49 8.58 63.86 8.33 64.2 8.03 64.5 7.73 64.8 7.39 65.05 7.02 65.26 6.65 65.44 6.24 65.58 5.82 65.7 5.38 65.77 4.92 65.79 4.49 65.77 4.05 65.7 3.64 65.58 3.22 65.44 2.85 65.26 2.48 65.05 2.16 64.8 1.84 64.5 1.56 64.2 1.31 63.86 1.1 63.49 0.92 63.12 0.76 62.7 0.67 62.29 0.6 61.85 0.57 61.39 0.6 60.96 0.67 60.52 0.76 60.1 0.92 59.69 1.1 59.32 1.31 58.95 1.56 58.63 1.84 58.31 2.16 58.03 2.48 57.78 2.85 57.57 3.22 57.39 3.64 57.23 4.05 57.14 4.49 57.07 4.92 57.05"/><polygon class="cls-1" points="4.92 57.05 4.92 56.47 5.43 56.49 5.94 56.56 6.4 56.68 6.86 56.84 6.65 57.39 6.42 57.92 6.08 57.8 5.71 57.71 5.32 57.67 4.92 57.64 4.92 57.05"/><polygon class="cls-1" points="6.65 57.39 6.86 56.84 7.29 57.05 7.71 57.3 8.1 57.57 8.45 57.9 8.03 58.31 7.62 58.73 7.34 58.47 7.06 58.26 6.42 57.92 6.65 57.39"/><polygon class="cls-1" points="8.03 58.31 8.45 57.9 8.77 58.24 9.07 58.61 9.32 59.02 9.53 59.46 8.97 59.69 8.45 59.92 8.08 59.3 7.87 59 7.62 58.73 8.03 58.31"/><polygon class="cls-1" points="8.97 59.69 9.53 59.46 9.69 59.92 9.8 60.41 9.89 60.89 9.92 61.39 9.32 61.39 8.74 61.39 8.72 61 8.68 60.63 8.45 59.92 8.97 59.69"/><polygon class="cls-1" points="9.32 61.39 9.92 61.39 9.89 61.9 9.8 62.41 9.69 62.89 9.53 63.33 8.97 63.12 8.45 62.89 8.56 62.55 8.68 62.18 8.72 61.78 8.74 61.39 9.32 61.39"/><polygon class="cls-1" points="8.97 63.12 9.53 63.33 9.32 63.76 9.07 64.18 8.77 64.57 8.45 64.91 8.03 64.5 7.62 64.09 7.87 63.81 8.08 63.53 8.45 62.89 8.97 63.12"/><polygon class="cls-1" points="8.03 64.5 8.45 64.91 8.1 65.24 7.71 65.54 7.29 65.79 6.86 66 6.65 65.44 6.42 64.91 7.06 64.55 7.34 64.34 7.62 64.09 8.03 64.5"/><polygon class="cls-1" points="6.65 65.44 6.86 66 6.42 66.16 5.94 66.27 5.43 66.36 4.92 66.39 4.92 65.79 4.92 65.21 5.32 65.19 5.71 65.14 6.08 65.03 6.42 64.91 6.65 65.44"/><polygon class="cls-1" points="4.92 65.79 4.92 66.39 4.42 66.36 3.94 66.27 3.45 66.16 2.99 66 3.22 65.44 3.45 64.91 4.17 65.14 4.53 65.19 4.92 65.21 4.92 65.79"/><polygon class="cls-1" points="3.22 65.44 2.99 66 2.55 65.79 2.14 65.54 1.77 65.24 1.43 64.91 1.84 64.5 2.25 64.09 2.53 64.34 2.83 64.55 3.45 64.91 3.22 65.44"/><polygon class="cls-1" points="1.84 64.5 1.43 64.91 1.1 64.57 0.83 64.18 0.57 63.76 0.37 63.33 0.92 63.12 1.45 62.89 1.79 63.53 2 63.81 2.25 64.09 1.84 64.5"/><polygon class="cls-1" points="0.92 63.12 0.37 63.33 0.21 62.87 0.09 62.41 0.02 61.9 0 61.39 0.57 61.39 1.17 61.39 1.2 61.78 1.24 62.18 1.33 62.55 1.45 62.89 0.92 63.12"/><polygon class="cls-1" points="0.57 61.39 0 61.39 0.02 60.89 0.09 60.41 0.21 59.92 0.37 59.46 0.92 59.69 1.45 59.92 1.33 60.27 1.24 60.63 1.2 61 1.17 61.39 0.57 61.39"/><polygon class="cls-1" points="0.92 59.69 0.37 59.46 0.57 59.05 0.83 58.63 1.1 58.24 1.43 57.9 1.84 58.31 2.25 58.73 2 59 1.79 59.28 1.61 59.6 1.45 59.92 0.92 59.69"/><polygon class="cls-1" points="1.84 58.31 1.43 57.9 1.77 57.57 2.16 57.3 2.58 57.05 2.99 56.84 3.22 57.39 3.45 57.92 3.13 58.08 2.81 58.26 2.53 58.47 2.25 58.73 1.84 58.31"/><polygon class="cls-1" points="3.22 57.39 2.99 56.84 3.45 56.68 3.94 56.56 4.42 56.49 4.92 56.47 4.92 57.05 4.92 57.64 4.53 57.67 4.17 57.71 3.8 57.8 3.45 57.92 3.22 57.39"/><polygon class="cls-1" points="75.45 56.95 75.91 56.98 76.35 57.05 76.76 57.14 77.18 57.3 77.54 57.48 77.91 57.69 78.26 57.94 78.56 58.22 78.86 58.54 79.11 58.86 79.32 59.23 79.5 59.6 79.64 60.01 79.75 60.43 79.82 60.86 79.84 61.3 79.82 61.76 79.75 62.2 79.64 62.61 79.5 63.03 79.32 63.4 79.11 63.76 78.86 64.11 78.56 64.41 78.26 64.71 77.91 64.96 77.54 65.17 77.18 65.35 76.76 65.49 76.35 65.61 75.91 65.67 75.45 65.7 75.01 65.67 74.58 65.61 74.16 65.49 73.75 65.35 73.38 65.17 73.01 64.96 72.69 64.71 72.37 64.41 72.09 64.11 71.84 63.76 71.63 63.4 71.45 63.03 71.28 62.61 71.19 62.2 71.12 61.76 71.1 61.3 71.12 60.86 71.19 60.43 71.28 60.01 71.45 59.6 71.63 59.23 71.84 58.86 72.09 58.54 72.37 58.22 72.69 57.94 73.01 57.69 73.38 57.48 73.75 57.3 74.16 57.14 74.58 57.05 75.01 56.98 75.45 56.95"/><polygon class="cls-1" points="75.45 56.95 75.45 56.38 75.96 56.4 76.46 56.47 76.92 56.59 77.38 56.75 77.18 57.3 76.94 57.83 76.6 57.71 76.23 57.62 75.84 57.57 75.45 57.55 75.45 56.95"/><polygon class="cls-1" points="77.18 57.3 77.38 56.75 77.82 56.95 78.23 57.21 78.63 57.48 78.97 57.8 78.56 58.22 78.14 58.63 77.87 58.38 77.59 58.17 76.94 57.83 77.18 57.3"/><polygon class="cls-1" points="78.56 58.22 78.97 57.8 79.29 58.15 79.59 58.52 79.84 58.93 80.05 59.37 79.5 59.6 78.97 59.83 78.6 59.21 78.39 58.91 78.14 58.63 78.56 58.22"/><polygon class="cls-1" points="79.5 59.6 80.05 59.37 80.21 59.83 80.33 60.31 80.42 60.8 80.44 61.3 79.84 61.3 79.27 61.3 79.25 60.91 79.2 60.54 78.97 59.83 79.5 59.6"/><polygon class="cls-1" points="79.84 61.3 80.44 61.3 80.42 61.81 80.33 62.31 80.21 62.8 80.05 63.23 79.5 63.03 78.97 62.8 79.08 62.45 79.2 62.08 79.25 61.69 79.27 61.3 79.84 61.3"/><polygon class="cls-1" points="79.5 63.03 80.05 63.23 79.84 63.67 79.59 64.09 79.29 64.48 78.97 64.82 78.56 64.41 78.14 63.99 78.39 63.72 78.6 63.44 78.97 62.8 79.5 63.03"/><polygon class="cls-1" points="78.56 64.41 78.97 64.82 78.63 65.14 78.23 65.44 77.82 65.7 77.38 65.9 77.18 65.35 76.94 64.82 77.59 64.45 77.87 64.25 78.14 63.99 78.56 64.41"/><polygon class="cls-1" points="77.18 65.35 77.38 65.9 76.94 66.06 76.46 66.18 75.96 66.27 75.45 66.3 75.45 65.7 75.45 65.12 75.84 65.1 76.23 65.05 76.6 64.94 76.94 64.82 77.18 65.35"/><polygon class="cls-1" points="75.45 65.7 75.45 66.3 74.94 66.27 74.46 66.18 73.98 66.06 73.52 65.9 73.75 65.35 73.98 64.82 74.69 65.05 75.06 65.1 75.45 65.12 75.45 65.7"/><polygon class="cls-1" points="73.75 65.35 73.52 65.9 73.08 65.7 72.67 65.44 72.3 65.14 71.95 64.82 72.37 64.41 72.78 63.99 73.06 64.25 73.36 64.45 73.98 64.82 73.75 65.35"/><polygon class="cls-1" points="72.37 64.41 71.95 64.82 71.63 64.48 71.35 64.09 71.1 63.67 70.89 63.23 71.45 63.03 71.97 62.8 72.32 63.44 72.53 63.72 72.78 63.99 72.37 64.41"/><polygon class="cls-1" points="71.45 63.03 70.89 63.23 70.73 62.77 70.62 62.31 70.55 61.81 70.53 61.3 71.1 61.3 71.7 61.3 71.72 61.69 71.77 62.08 71.86 62.45 71.97 62.8 71.45 63.03"/><polygon class="cls-1" points="71.1 61.3 70.53 61.3 70.55 60.8 70.62 60.31 70.73 59.83 70.89 59.37 71.45 59.6 71.97 59.83 71.86 60.17 71.77 60.54 71.72 60.91 71.7 61.3 71.1 61.3"/><polygon class="cls-1" points="71.45 59.6 70.89 59.37 71.1 58.95 71.35 58.54 71.63 58.15 71.95 57.8 72.37 58.22 72.78 58.63 72.53 58.91 72.32 59.19 72.14 59.51 71.97 59.83 71.45 59.6"/><polygon class="cls-1" points="72.37 58.22 71.95 57.8 72.3 57.48 72.69 57.21 73.1 56.95 73.52 56.75 73.75 57.3 73.98 57.83 73.66 57.99 73.33 58.17 73.06 58.38 72.78 58.63 72.37 58.22"/><polygon class="cls-1" points="73.75 57.3 73.52 56.75 73.98 56.59 74.46 56.47 74.94 56.4 75.45 56.38 75.45 56.95 75.45 57.55 75.06 57.57 74.69 57.62 74.32 57.71 73.98 57.83 73.75 57.3"/><polygon class="cls-1" points="40.24 75.82 40.7 75.84 41.14 75.91 41.56 76 41.97 76.17 42.34 76.35 42.71 76.56 43.05 76.81 43.35 77.09 43.65 77.41 43.9 77.73 44.11 78.1 44.3 78.47 44.43 78.88 44.55 79.3 44.62 79.73 44.64 80.17 44.62 80.63 44.55 81.07 44.43 81.48 44.3 81.9 44.11 82.26 43.9 82.63 43.65 82.98 43.35 83.28 43.05 83.58 42.71 83.83 42.34 84.04 41.97 84.22 41.56 84.36 41.14 84.47 40.7 84.54 40.24 84.56 39.81 84.54 39.37 84.47 38.96 84.36 38.54 84.22 38.17 84.04 37.8 83.83 37.48 83.58 37.16 83.28 36.88 82.98 36.63 82.63 36.42 82.26 36.24 81.9 36.08 81.48 35.99 81.07 35.92 80.63 35.9 80.17 35.92 79.73 35.99 79.3 36.08 78.88 36.24 78.47 36.42 78.1 36.63 77.73 36.88 77.41 37.16 77.09 37.48 76.81 37.8 76.56 38.17 76.35 38.54 76.17 38.96 76 39.37 75.91 39.81 75.84 40.24 75.82"/><polygon class="cls-1" points="40.24 75.82 40.24 75.25 40.75 75.27 41.26 75.34 41.72 75.45 42.18 75.61 41.97 76.17 41.74 76.7 41.4 76.58 41.03 76.49 40.64 76.44 40.24 76.42 40.24 75.82"/><polygon class="cls-1" points="41.97 76.17 42.18 75.61 42.61 75.82 43.03 76.07 43.42 76.35 43.77 76.67 43.35 77.09 42.94 77.5 42.66 77.25 42.38 77.04 41.74 76.7 41.97 76.17"/><polygon class="cls-1" points="43.35 77.09 43.77 76.67 44.09 77.02 44.39 77.39 44.64 77.8 44.85 78.24 44.3 78.47 43.77 78.7 43.4 78.08 43.19 77.78 42.94 77.5 43.35 77.09"/><polygon class="cls-1" points="44.3 78.47 44.85 78.24 45.01 78.7 45.12 79.18 45.21 79.66 45.24 80.17 44.64 80.17 44.06 80.17 44.04 79.78 43.99 79.41 43.77 78.7 44.3 78.47"/><polygon class="cls-1" points="44.64 80.17 45.24 80.17 45.21 80.68 45.12 81.18 45.01 81.67 44.85 82.1 44.3 81.9 43.77 81.67 43.88 81.32 43.99 80.95 44.04 80.56 44.06 80.17 44.64 80.17"/><polygon class="cls-1" points="44.3 81.9 44.85 82.1 44.64 82.54 44.39 82.95 44.09 83.35 43.77 83.69 43.35 83.28 42.94 82.86 43.19 82.59 43.4 82.31 43.77 81.67 44.3 81.9"/><polygon class="cls-1" points="43.35 83.28 43.77 83.69 43.42 84.01 43.03 84.31 42.61 84.56 42.18 84.77 41.97 84.22 41.74 83.69 42.38 83.32 42.66 83.11 42.94 82.86 43.35 83.28"/><polygon class="cls-1" points="41.97 84.22 42.18 84.77 41.74 84.93 41.26 85.05 40.75 85.14 40.24 85.16 40.24 84.56 40.24 83.99 40.64 83.97 41.03 83.92 41.4 83.81 41.74 83.69 41.97 84.22"/><polygon class="cls-1" points="40.24 84.56 40.24 85.16 39.74 85.14 39.26 85.05 38.77 84.93 38.31 84.77 38.54 84.22 38.77 83.69 39.48 83.92 39.85 83.97 40.24 83.99 40.24 84.56"/><polygon class="cls-1" points="38.54 84.22 38.31 84.77 37.87 84.56 37.46 84.31 37.09 84.01 36.75 83.69 37.16 83.28 37.58 82.86 37.85 83.11 38.15 83.32 38.77 83.69 38.54 84.22"/><polygon class="cls-1" points="37.16 83.28 36.75 83.69 36.42 83.35 36.15 82.95 35.9 82.54 35.69 82.1 36.24 81.9 36.77 81.67 37.12 82.31 37.32 82.59 37.58 82.86 37.16 83.28"/><polygon class="cls-1" points="36.24 81.9 35.69 82.1 35.53 81.64 35.41 81.18 35.34 80.68 35.32 80.17 35.9 80.17 36.49 80.17 36.52 80.56 36.56 80.95 36.66 81.32 36.77 81.67 36.24 81.9"/><polygon class="cls-1" points="35.9 80.17 35.32 80.17 35.34 79.66 35.41 79.18 35.53 78.7 35.69 78.24 36.24 78.47 36.77 78.7 36.66 79.04 36.56 79.41 36.52 79.78 36.49 80.17 35.9 80.17"/><polygon class="cls-1" points="36.24 78.47 35.69 78.24 35.9 77.82 36.15 77.41 36.42 77.02 36.75 76.67 37.16 77.09 37.58 77.5 37.32 77.78 37.12 78.05 36.93 78.38 36.77 78.7 36.24 78.47"/><polygon class="cls-1" points="37.16 77.09 36.75 76.67 37.09 76.35 37.48 76.07 37.9 75.82 38.31 75.61 38.54 76.17 38.77 76.7 38.45 76.86 38.13 77.04 37.85 77.25 37.58 77.5 37.16 77.09"/><polygon class="cls-1" points="38.54 76.17 38.31 75.61 38.77 75.45 39.26 75.34 39.74 75.27 40.24 75.25 40.24 75.82 40.24 76.42 39.85 76.44 39.48 76.49 39.12 76.58 38.77 76.7 38.54 76.17"/><polygon class="cls-1" points="40.24 0 40.7 0.02 41.14 0.09 41.56 0.18 41.97 0.34 42.34 0.53 42.71 0.74 43.05 0.99 43.35 1.27 43.65 1.59 43.9 1.91 44.11 2.28 44.3 2.65 44.43 3.06 44.55 3.47 44.62 3.91 44.64 4.35 44.62 4.81 44.55 5.25 44.43 5.66 44.3 6.07 44.11 6.44 43.9 6.81 43.65 7.16 43.35 7.46 43.05 7.75 42.71 8.01 42.34 8.21 41.97 8.4 41.56 8.54 41.14 8.65 40.7 8.72 40.24 8.74 39.81 8.72 39.37 8.65 38.96 8.54 38.54 8.4 38.17 8.21 37.8 8.01 37.48 7.75 37.16 7.46 36.88 7.16 36.63 6.81 36.42 6.44 36.24 6.07 36.08 5.66 35.99 5.25 35.92 4.81 35.9 4.35 35.92 3.91 35.99 3.47 36.08 3.06 36.24 2.65 36.42 2.28 36.63 1.91 36.88 1.59 37.16 1.27 37.48 0.99 37.8 0.74 38.17 0.53 38.54 0.34 38.96 0.18 39.37 0.09 39.81 0.02 40.24 0"/></g></g></svg>