<svg viewBox="0 0 43 46" fill="none" xmlns="http://www.w3.org/2000/svg">
<path d="M18.2022 19.6831C27.0947 19.6831 34.3034 15.7246 34.3034 10.8415C34.3034 5.95849 27.0947 2 18.2022 2C9.30981 2 2.10107 5.95849 2.10107 10.8415C2.10107 15.7246 9.30981 19.6831 18.2022 19.6831Z M21.2855 43.6359C20.2872 43.742 19.2563 43.7975 18.2013 43.7975C9.30909 43.7975 2.1001 39.8391 2.1001 34.9559 M2.10007 34.9559L2 11.5951 M34.3037 28.9273L34.329 11.2189 M33.6561 29.33C32.1465 29.33 30.7527 29.5542 29.6013 30.3645C29.3264 29.2697 28.3425 28.3401 27.1621 28.3401C25.7683 28.3401 24.6385 29.412 24.6385 30.8058C24.6385 30.901 24.6566 30.9637 24.6663 31.0566C24.2997 30.9324 23.8994 30.8552 23.4774 30.8552C21.7291 30.8552 20.3124 32.2249 20.3124 33.9732C20.3124 34.107 19.6818 34.2107 19.6975 34.3409C18.335 35.1753 16.77 36.6487 16.77 38.3632V38.5489C16.77 41.1713 20.2039 44 22.8263 44H35.6733C43.5973 43.9988 43.4972 29.33 33.6561 29.33Z" stroke="white" stroke-width="3" stroke-miterlimit="10" stroke-linecap="round" stroke-linejoin="round"/>
</svg>
