<svg width="56" height="56" viewBox="0 0 56 56" fill="none" xmlns="http://www.w3.org/2000/svg">
<path d="M24.2022 24.6831C33.0947 24.6831 40.3034 20.7246 40.3034 15.8415C40.3034 10.9585 33.0947 7 24.2022 7C15.3098 7 8.10107 10.9585 8.10107 15.8415C8.10107 20.7246 15.3098 24.6831 24.2022 24.6831Z" stroke="white" stroke-width="3" stroke-miterlimit="10" stroke-linecap="round"/>
<path d="M27.2855 48.6359C26.2872 48.742 25.2563 48.7975 24.2013 48.7975C15.3091 48.7975 8.1001 44.8391 8.1001 39.9559" stroke="white" stroke-width="3" stroke-miterlimit="10" stroke-linecap="round"/>
<path d="M8.10007 39.9559L8 16.5951" stroke="white" stroke-width="3" stroke-miterlimit="10" stroke-linecap="round"/>
<path d="M40.3037 33.9273L40.329 16.2189" stroke="white" stroke-width="3" stroke-miterlimit="10" stroke-linecap="round"/>
<path d="M39.6561 34.33C38.1465 34.33 36.7527 34.5542 35.6013 35.3645C35.3264 34.2697 34.3425 33.3401 33.1621 33.3401C31.7683 33.3401 30.6385 34.412 30.6385 35.8058C30.6385 35.901 30.6566 35.9637 30.6663 36.0566C30.2997 35.9324 29.8994 35.8552 29.4774 35.8552C27.7291 35.8552 26.3124 37.2249 26.3124 38.9732C26.3124 39.107 25.6818 39.2107 25.6975 39.3409C24.335 40.1753 22.77 41.6487 22.77 43.3632V43.5489C22.77 46.1713 26.2039 49 28.8263 49H41.6733C49.5973 48.9988 49.4972 34.33 39.6561 34.33Z" stroke="white" stroke-width="3" stroke-miterlimit="10" stroke-linecap="round" stroke-linejoin="round"/>
</svg>
