<svg width="25" height="25" viewBox="0 0 25 25" fill="none" xmlns="http://www.w3.org/2000/svg">
<path fill-rule="evenodd" clip-rule="evenodd" d="M17.8542 12.844C16.7761 12.9859 15.6675 13.2529 14.7956 13.9364C13.8365 14.6476 13.2363 15.7549 13.0075 16.9143C12.6682 18.5847 12.6707 20.2999 12.6074 21.9973C14.8396 21.9668 17.0583 21.1392 18.7337 19.6568C20.7647 17.9154 21.9683 15.2802 21.9999 12.6072C20.6156 12.6443 19.2298 12.6821 17.8542 12.844Z" fill="white"/>
<path fill-rule="evenodd" clip-rule="evenodd" d="M10.8371 14.5186C10.0995 13.6691 9.03012 13.182 7.9404 12.9743C6.31417 12.668 4.65122 12.6666 3.00244 12.6047C3.03518 14.8412 3.8692 17.0599 5.34993 18.7409C7.09255 20.766 9.72593 21.9669 12.3935 22C12.3557 20.6947 12.324 19.3877 12.1847 18.089C12.0469 16.8173 11.7264 15.4858 10.8371 14.5186Z" fill="white"/>
<path fill-rule="evenodd" clip-rule="evenodd" d="M14.2071 10.5281C14.9753 11.3903 16.0865 11.8584 17.2075 12.0534C18.7882 12.3292 20.3992 12.3357 21.9985 12.3939C21.9668 10.2054 21.1685 8.03224 19.7459 6.36687C18.0037 4.27953 15.3234 3.02923 12.6074 3.00122C12.6569 4.48579 12.6758 5.978 12.8897 7.45129C13.053 8.56408 13.4174 9.69688 14.2071 10.5281Z" fill="white"/>
<path fill-rule="evenodd" clip-rule="evenodd" d="M3 12.3847C3.96533 12.3785 4.93103 12.3316 5.89527 12.2719C7.14067 12.1821 8.42499 12.0529 9.55654 11.4832C10.7336 10.8706 11.5912 9.72657 11.9055 8.44317C12.3507 6.66649 12.318 4.81742 12.3936 3C10.5091 3.03783 8.62649 3.6126 7.08465 4.7072C4.58694 6.41076 3.03419 9.36498 3 12.3847Z" fill="white"/>
</svg>
