<svg width="56" height="56" viewBox="0 0 56 56" fill="none" xmlns="http://www.w3.org/2000/svg">
<path d="M44.5628 29.7397C44.7927 30.8573 44.9126 32.0149 44.9126 33.2001C44.9126 42.6092 37.3148 50.2361 27.9414 50.2361C18.5681 50.2361 10.9702 42.6092 10.9702 33.2014C10.9702 32.0726 11.0802 30.9689 11.2888 29.9015" stroke="white" stroke-width="3" stroke-miterlimit="10"/>
<path d="M27.6117 31.3465C22.1529 31.3465 15.8544 30.4547 9.21488 27.7883C7.40943 27.0633 6.52982 25.0052 7.25325 23.1928C7.97543 21.3805 10.0258 20.4975 11.8312 21.2237C28.5463 27.9337 43.1061 21.3667 43.251 21.3002C45.0127 20.4825 47.1055 21.2538 47.9239 23.0197C48.7411 24.7869 47.9864 26.8827 46.2284 27.708C45.7636 27.9262 38.3007 31.3465 27.6117 31.3465Z" stroke="white" stroke-width="3" stroke-miterlimit="10"/>
<path d="M42.9347 20.0321L37.9369 6C37.9369 6 33.4077 7.80356 28.5661 7.80356C22.7787 7.80356 18.5705 6 18.5705 6L13.5728 19.992" stroke="white" stroke-width="3" stroke-miterlimit="10" stroke-linecap="round" stroke-linejoin="round"/>
<path d="M27.8593 32.9606C27.8868 33.1475 27.9005 33.3381 27.9005 33.5325C27.9005 36.12 25.3929 38.2183 22.2993 38.2183C19.2057 38.2183 16.6968 36.12 16.6968 33.5313C16.6968 32.9192 16.8367 32.3348 17.0916 31.798" stroke="white" stroke-width="3" stroke-miterlimit="10" stroke-linecap="round" stroke-linejoin="round"/>
<path d="M39.5963 31.7063C39.6238 31.8932 39.6376 33.338 39.6376 33.5324C39.6376 36.1199 37.1299 38.2182 34.0363 38.2182C30.9427 38.2182 28.4351 36.1199 28.4351 33.5324C28.4351 32.9204 28.575 32.3359 28.8299 31.7991" stroke="white" stroke-width="3" stroke-miterlimit="10" stroke-linecap="round" stroke-linejoin="round"/>
</svg>
