<svg width="56" height="56" viewBox="0 0 56 56" fill="none" xmlns="http://www.w3.org/2000/svg">
<path fill-rule="evenodd" clip-rule="evenodd" d="M19.0495 16.049C20.7067 13.0438 23.9001 11 27.583 11C31.2485 11 34.4319 13.024 36.0967 16.0062C36.1746 16.0022 36.2537 16 36.334 16C39.2794 16 41.667 18.3876 41.667 21.333L41.6669 21.3646C44.2087 22.4122 46 24.91 46 27.833C46 31.6994 42.8664 34.833 39 34.833H36C35.1716 34.833 34.5 34.1614 34.5 33.333C34.5 32.5046 35.1716 31.833 36 31.833H39C41.2096 31.833 43 30.0426 43 27.833C43 25.8738 41.5872 24.2419 39.7209 23.9028C39.3013 23.8266 38.934 23.5754 38.7108 23.212C38.4876 22.8486 38.4297 22.4073 38.5515 21.9986C38.6308 21.7325 38.667 21.5221 38.667 21.333C38.667 20.0444 37.6226 19 36.334 19C36.1436 19 35.9327 19.0363 35.668 19.1157C34.925 19.3386 34.1347 18.9583 33.8453 18.2386C32.8451 15.7511 30.4176 14 27.583 14C24.7034 14 22.2457 15.8087 21.2774 18.3602C21.1314 18.7449 20.8338 19.0527 20.4543 19.2116C20.0748 19.3705 19.6466 19.3666 19.2701 19.2006C18.9766 19.0713 18.6618 19 18.333 19C17.0444 19 16 20.0444 16 21.333C16 21.5407 16.0408 21.7662 16.1274 22.036C16.2545 22.4326 16.2111 22.8642 16.0074 23.2275C15.8038 23.5908 15.4582 23.8531 15.0535 23.9515C13.2982 24.3785 12 25.9558 12 27.833C12 30.0426 13.7904 31.833 16 31.833H21C21.8284 31.833 22.5 32.5046 22.5 33.333C22.5 34.1614 21.8284 34.833 21 34.833H16C12.1336 34.833 9 31.6994 9 27.833C9 25.0371 10.6391 22.6335 13.0035 21.512C13.0012 21.453 13 21.3933 13 21.333C13 18.3876 15.3876 16 18.333 16C18.5767 16 18.8159 16.0169 19.0495 16.049ZM25.5 28.333C26.3284 28.333 27 29.0046 27 29.833V39.333C27 40.1726 26.7513 40.9922 26.2757 41.6374C25.8004 42.2821 25.0221 42.833 24.026 42.833H16.773C16.1177 44.2124 14.7117 45.166 13.083 45.166C10.828 45.166 9 43.338 9 41.083C9 38.828 10.828 37 13.083 37C14.902 37 16.4431 38.1895 16.9711 39.833H23.8774C23.933 39.7448 24 39.5739 24 39.333V29.833C24 29.0046 24.6716 28.333 25.5 28.333ZM12 41.083C12 40.4849 12.4849 40 13.083 40C13.6811 40 14.166 40.4849 14.166 41.083C14.166 41.6811 13.6811 42.166 13.083 42.166C12.4849 42.166 12 41.6811 12 41.083ZM30.5 28.333C31.3284 28.333 32 29.0046 32 29.833V39.333C32 39.5739 32.067 39.7448 32.1226 39.833H39.0289C39.5569 38.1895 41.098 37 42.917 37C45.172 37 47 38.828 47 41.083C47 43.338 45.172 45.166 42.917 45.166C41.2883 45.166 39.8823 44.2124 39.227 42.833H31.974C30.9779 42.833 30.1996 42.2821 29.7243 41.6374C29.2487 40.9922 29 40.1726 29 39.333V29.833C29 29.0046 29.6716 28.333 30.5 28.333ZM41.834 41.083C41.834 40.4849 42.3189 40 42.917 40C43.5151 40 44 40.4849 44 41.083C44 41.6811 43.5151 42.166 42.917 42.166C42.3189 42.166 41.834 41.6811 41.834 41.083Z" fill="white"/>
</svg>
