<svg width="56" height="56" viewBox="0 0 56 56" fill="none" xmlns="http://www.w3.org/2000/svg">
<path fill-rule="evenodd" clip-rule="evenodd" d="M11.4743 10C11.9371 10.0001 12.374 10.2138 12.6581 10.5791L15.8671 14.7051C16.3757 15.359 16.2579 16.3014 15.604 16.81C14.95 17.3186 14.0076 17.2008 13.499 16.5469L13.0001 15.9054V33.0344L20.0934 26.5898C20.597 26.1322 21.3456 26.071 21.9169 26.4407L28.7083 30.8349L43.4404 16.5366C44.0349 15.9597 44.9845 15.9739 45.5615 16.5683C46.1384 17.1628 46.1242 18.1125 45.5298 18.6894L29.9408 33.8194C29.4392 34.3062 28.668 34.3821 28.0812 34.0024L21.2564 29.5865L13.3418 36.7773C13.2365 36.8729 13.1214 36.9507 13.0001 37.011V39.167H43.7193L43.0978 38.5206C42.5236 37.9234 42.5423 36.9739 43.1395 36.3997C43.7366 35.8255 44.6862 35.8441 45.2604 36.4413L49.0814 40.4153C49.4068 40.7538 49.555 41.2252 49.4817 41.6891C49.4084 42.153 49.1221 42.5557 48.7081 42.7774L44.5821 44.9864C43.8517 45.3774 42.9427 45.1023 42.5517 44.372C42.1607 43.6416 42.4358 42.7326 43.1661 42.3416L43.4921 42.167H11.5001C10.6716 42.167 10.0001 41.4954 10.0001 40.667V15.8359L9.68378 16.2423C9.17495 16.8961 8.2325 17.0135 7.57875 16.5047C6.925 15.9959 6.80753 15.0534 7.31636 14.3997L10.2904 10.5787C10.5746 10.2135 11.0115 9.99992 11.4743 10Z" fill="white"/>
</svg>
