<svg width="56" height="56" viewBox="0 0 56 56" fill="none" xmlns="http://www.w3.org/2000/svg">
<path d="M42.9008 28.1361H42.7605C41.2506 28.1361 40.0257 29.3573 40.0257 30.865C40.0257 29.3584 38.8018 28.1361 37.2908 28.1361H37.1506C35.6407 28.1361 34.4157 29.3573 34.4157 30.865C34.4157 29.3584 33.1918 28.1361 31.6808 28.1361H31.5406C30.0307 28.1361 28.8057 29.3573 28.8057 30.865V31.4952H26.5622V16.9439C26.5622 15.0892 25.0556 13.5859 23.1969 13.5859C21.3381 13.5859 19.8315 15.0892 19.8315 16.9439V38.2112V46.0465C19.8315 49.137 22.3432 51.6431 25.4404 51.6431H40.0234C43.1206 51.6431 45.6323 49.137 45.6323 46.0465V39.9596V38.2101V30.8639C45.6345 29.3573 44.4107 28.1361 42.9008 28.1361Z" stroke="white" stroke-width="3" stroke-miterlimit="10" stroke-linecap="round" stroke-linejoin="round"/>
<path d="M15.311 25.7654C12.6714 23.4942 11 20.1329 11 16.3831C11 9.54404 16.5561 4 23.4102 4C30.2642 4 35.8203 9.54404 35.8203 16.3831C35.8203 18.9531 35.0351 21.3407 33.6923 23.3196" stroke="white" stroke-width="3" stroke-miterlimit="10" stroke-linecap="round" stroke-linejoin="round"/>
<path d="M15.79 15.2145C16.0929 11.2801 19.3887 8.18066 23.4091 8.18066C27.1581 8.18066 30.2755 10.8738 30.9261 14.4265" stroke="white" stroke-width="3" stroke-miterlimit="10" stroke-linecap="round" stroke-linejoin="round"/>
</svg>
