<svg width="56" height="56" viewBox="0 0 56 56" fill="none" xmlns="http://www.w3.org/2000/svg">
<path fill-rule="evenodd" clip-rule="evenodd" d="M11.5 14C10.1194 14 9 15.1194 9 16.5V18H15.4297L17.2535 16.3789C17.528 16.1348 17.8826 16 18.25 16H46.95C46.7183 14.859 45.7093 14 44.5 14H11.5ZM9 39.5V21H16C16.3674 21 16.722 20.8652 16.9965 20.6211L18.8203 19H47V39.5C47 40.8806 45.8806 42 44.5 42H11.5C10.1194 42 9 40.8806 9 39.5ZM6 16.5C6 13.4626 8.46257 11 11.5 11H44.5C47.5374 11 50 13.4626 50 16.5V39.5C50 42.5374 47.5374 45 44.5 45H11.5C8.46257 45 6 42.5374 6 39.5V16.5ZM23.7826 25.7059C23.4956 25.3619 23.0698 25.1643 22.6218 25.167C22.1738 25.1698 21.7505 25.3726 21.4677 25.7201L17.9839 30H13C12.1716 30 11.5 30.6716 11.5 31.5C11.5 32.3284 12.1716 33 13 33H18.697C19.1482 33 19.5755 32.7969 19.8603 32.4469L22.6454 29.0254L28.3294 35.8361C28.6204 36.1849 29.0539 36.3829 29.5081 36.3747C29.9623 36.3666 30.3883 36.153 30.6666 35.7939L33.6072 32H37C37.8284 32 38.5 31.3284 38.5 30.5C38.5 29.6716 37.8284 29 37 29H32.872C32.4082 29 31.9705 29.2145 31.6864 29.5811L29.4378 32.4822L23.7826 25.7059Z" fill="white"/>
</svg>
