<svg width="23" height="21" viewBox="0 0 23 21" fill="none" xmlns="http://www.w3.org/2000/svg">
<path fill-rule="evenodd" clip-rule="evenodd" d="M14.3351 4.67387C17.2162 7.12858 17.5619 11.4541 15.1072 14.3352C12.6524 17.2163 8.32692 17.5619 5.44583 15.1072C2.56474 12.6525 2.2191 8.32696 4.67382 5.44588C7.12853 2.56479 11.4541 2.21915 14.3351 4.67387ZM18.4977 14.6907C20.7458 10.6698 19.9207 5.49158 16.2808 2.39032C12.1385 -1.13893 5.91951 -0.641988 2.39027 3.50027C-1.13898 7.64253 -0.642037 13.8615 3.50022 17.3908C7.36683 20.6851 13.043 20.4714 16.6518 17.0592L20.6088 20.4306L22.5544 18.147L18.4977 14.6907Z" fill="#2462BC"/>
</svg>
