<svg width="25" height="25" viewBox="0 0 25 25" fill="none" xmlns="http://www.w3.org/2000/svg">
<path d="M23.8627 4.74562C23.6506 4.26446 23.2059 4 22.6111 4C22.178 4 21.7981 4.13985 21.7537 4.15646C21.6269 4.20562 9.07149 9.076 3.9226 11.2208C3.47108 11.4084 3.17916 11.6722 3.05366 12.0065C2.86132 12.5237 3.22213 13.0554 3.5652 13.2091C4.84407 13.7809 7.50616 14.575 8.34032 14.8187C8.61519 15.7464 9.57621 18.9829 10.023 20.3689C10.1403 20.7296 10.484 20.9456 10.9431 20.9456C11.0106 20.9456 11.0542 20.9408 11.0542 20.9408C11.1777 20.9269 11.2848 20.8625 11.3625 20.7718C11.428 20.6957 11.4737 20.6008 11.4812 20.4949L11.7472 16.5855C12.2506 16.969 12.9838 17.5263 13.7934 18.1411C15.3956 19.3561 17.304 20.7975 18.3714 21.5812C18.7493 21.8595 19.1162 22 19.4613 22C20.2348 22 20.6788 21.3278 20.8241 20.7532C21.7087 17.2577 23.0067 10.6517 23.7822 6.70554L23.952 5.84223C24.0591 5.296 23.967 4.98169 23.8627 4.74562ZM10.8592 15.6342L10.6225 19.1062C10.04 17.2196 9.18471 14.3244 9.17448 14.2891C9.17175 14.2794 9.16288 14.2732 9.15947 14.2635L9.15743 14.2427L18.9737 7.75577C18.9737 7.75577 19.6428 7.28985 19.8972 7.23377C20.2402 7.15762 20.3221 7.29538 20.2607 7.37915C20.0234 7.70315 18.8973 8.68831 18.8973 8.68831L11.072 15.2659V15.2701C10.9506 15.3518 10.8694 15.484 10.8592 15.6342Z" fill="white"/>
</svg>
