<svg width="25" height="25" viewBox="0 0 25 25" fill="none" xmlns="http://www.w3.org/2000/svg">
<path d="M22.8627 4.74562C22.6506 4.26446 22.2059 4 21.6111 4C21.178 4 20.7981 4.13985 20.7537 4.15646C20.6269 4.20562 8.07149 9.076 2.9226 11.2208C2.47108 11.4084 2.17916 11.6722 2.05366 12.0065C1.86132 12.5237 2.22213 13.0554 2.5652 13.2091C3.84407 13.7809 6.50616 14.575 7.34032 14.8187C7.61519 15.7464 8.57621 18.9829 9.02296 20.3689C9.14028 20.7296 9.48404 20.9456 9.94307 20.9456C10.0106 20.9456 10.0542 20.9408 10.0542 20.9408C10.1777 20.9269 10.2848 20.8625 10.3625 20.7718C10.428 20.6957 10.4737 20.6008 10.4812 20.4949L10.7472 16.5855C11.2506 16.969 11.9838 17.5263 12.7934 18.1411C14.3956 19.3561 16.304 20.7975 17.3714 21.5812C17.7493 21.8595 18.1162 22 18.4613 22C19.2348 22 19.6788 21.3278 19.8241 20.7532C20.7087 17.2577 22.0067 10.6517 22.7822 6.70554L22.952 5.84223C23.0591 5.296 22.967 4.98169 22.8627 4.74562ZM9.85917 15.6342L9.6225 19.1062C9.04002 17.2196 8.18471 14.3244 8.17448 14.2891C8.17175 14.2794 8.16288 14.2732 8.15947 14.2635L8.15743 14.2427L17.9737 7.75577C17.9737 7.75577 18.6428 7.28985 18.8972 7.23377C19.2402 7.15762 19.3221 7.29538 19.2607 7.37915C19.0234 7.70315 17.8973 8.68831 17.8973 8.68831L10.072 15.2659V15.2701C9.95057 15.3518 9.8694 15.484 9.85917 15.6342Z" fill="white"/>
</svg>
