<svg width="56" height="56" viewBox="0 0 56 56" fill="none" xmlns="http://www.w3.org/2000/svg">
<path d="M19.3357 45.334C28.9099 45.334 36.6714 37.4242 36.6714 27.667C36.6714 17.9098 28.9099 10 19.3357 10C9.76146 10 2 17.9098 2 27.667C2 37.4242 9.76146 45.334 19.3357 45.334Z" stroke="white" stroke-width="3" stroke-miterlimit="10" stroke-linecap="round"/>
<path d="M47.3354 14.333L45.4396 10.333H41.4136V24.333H54.1698V14.333H47.3354Z" stroke="white" stroke-width="3" stroke-miterlimit="10" stroke-linecap="round" stroke-linejoin="round"/>
<path d="M47.3354 33.333L45.4396 30.333H41.4136V43.333H54.1698V33.333H47.3354Z" stroke="white" stroke-width="3" stroke-miterlimit="10" stroke-linecap="round" stroke-linejoin="round"/>
<path d="M35.5264 34.833V38.333H39.942" stroke="white" stroke-width="3" stroke-miterlimit="10" stroke-linecap="round" stroke-linejoin="round"/>
<path d="M39.942 15.333H35.5264V20.833" stroke="white" stroke-width="3" stroke-miterlimit="10" stroke-linecap="round" stroke-linejoin="round"/>
<path d="M19.3355 36.334C24.0324 36.334 27.84 32.4537 27.84 27.667C27.84 22.8803 24.0324 19 19.3355 19C14.6386 19 10.8311 22.8803 10.8311 27.667C10.8311 32.4537 14.6386 36.334 19.3355 36.334Z" stroke="white" stroke-width="3" stroke-miterlimit="10" stroke-linecap="round"/>
</svg>
