<svg width="56" height="56" viewBox="0 0 56 56" fill="none" xmlns="http://www.w3.org/2000/svg">
<path d="M24.7316 44.9244C17.9811 43.505 12.6767 38.1596 11.3174 31.3871L24.7316 44.9244Z" fill="white"/>
<path d="M24.7316 44.9244C17.9811 43.505 12.6767 38.1596 11.3174 31.3871" stroke="white" stroke-width="3" stroke-miterlimit="10"/>
<path d="M45.2964 31.5016C43.9877 37.7997 39.2617 42.8464 33.145 44.6151L45.2964 31.5016Z" fill="white"/>
<path d="M45.2964 31.5016C43.9877 37.7997 39.2617 42.8464 33.145 44.6151" stroke="white" stroke-width="3" stroke-miterlimit="10"/>
<path d="M32.1816 11.0458C38.7699 12.5444 43.9311 17.7954 45.3009 24.4314L32.1816 11.0458Z" fill="white"/>
<path d="M32.1816 11.0458C38.7699 12.5444 43.9311 17.7954 45.3009 24.4314" stroke="white" stroke-width="3" stroke-miterlimit="10"/>
<path d="M11.3452 24.3864C12.7303 17.7657 17.8905 12.5329 24.4712 11.0419L11.3452 24.3864Z" fill="white"/>
<path d="M11.3452 24.3864C12.7303 17.7657 17.8905 12.5329 24.4712 11.0419" stroke="white" stroke-width="3" stroke-miterlimit="10"/>
<path d="M15.5909 30.5575C15.5909 31.4042 14.9046 32.0905 14.0579 32.0905H8.533C7.68632 32.0905 7 31.4042 7 30.5575V25.0326C7 24.186 7.68632 23.4996 8.533 23.4996H14.0579C14.9046 23.4996 15.5909 24.186 15.5909 25.0326V30.5575Z" stroke="white" stroke-width="3" stroke-miterlimit="10"/>
<path d="M49.0001 30.5575C49.0001 31.4042 48.3138 32.0905 47.4671 32.0905H41.9422C41.0955 32.0905 40.4092 31.4042 40.4092 30.5575V25.0326C40.4092 24.186 41.0955 23.4996 41.9422 23.4996H47.4671C48.3138 23.4996 49.0001 24.186 49.0001 25.0326V30.5575Z" stroke="white" stroke-width="3" stroke-miterlimit="10"/>
<path d="M28.4771 15.8643C31.201 15.8643 33.4092 13.6561 33.4092 10.9321C33.4092 8.20819 31.201 6 28.4771 6C25.7531 6 23.5449 8.20819 23.5449 10.9321C23.5449 13.6561 25.7531 15.8643 28.4771 15.8643Z" stroke="white" stroke-width="3" stroke-miterlimit="10"/>
<path d="M28.4771 50.2279C31.201 50.2279 33.4092 48.0197 33.4092 45.2958C33.4092 42.5718 31.201 40.3636 28.4771 40.3636C25.7531 40.3636 23.5449 42.5718 23.5449 45.2958C23.5449 48.0197 25.7531 50.2279 28.4771 50.2279Z" stroke="white" stroke-width="3" stroke-miterlimit="10"/>
<path d="M32.7725 30.5575C32.7725 31.4042 32.0862 32.0905 31.2395 32.0905H25.7146C24.868 32.0905 24.1816 31.4042 24.1816 30.5575V25.0326C24.1816 24.186 24.868 23.4996 25.7146 23.4996H31.2395C32.0862 23.4996 32.7725 24.186 32.7725 25.0326V30.5575Z" stroke="white" stroke-width="3" stroke-miterlimit="10"/>
</svg>
