<svg width="25" height="25" viewBox="0 0 25 25" fill="none" xmlns="http://www.w3.org/2000/svg">
<path d="M22.8397 7.91213C22.8397 6.40042 21.6279 5.16351 20.1468 5.16351C20.1468 5.16351 14.4121 5 12.4999 5C10.5879 5.00008 4.85316 5.16359 4.85316 5.16359C3.37206 5.16359 2.1602 6.4005 2.1602 7.91221C2.1602 7.91221 2 11.3515 2 12.5C2 13.6486 2.1602 17.0879 2.1602 17.0879C2.1602 18.5996 3.37206 19.8365 4.85316 19.8365C4.85316 19.8365 10.5879 20 12.5 20C14.4121 20 20.1468 19.8365 20.1468 19.8365C21.6279 19.8365 22.8398 18.5996 22.8398 17.0879C22.8398 17.0879 23 13.6515 23 12.5C23 11.3486 22.8397 7.91213 22.8397 7.91213ZM10.4887 15.8515V9.14857L15.7943 12.4996L10.4887 15.8515Z" fill="white"/>
</svg>
