<?xml version="1.0" standalone="no"?>
<!DOCTYPE svg PUBLIC "-//W3C//DTD SVG 20010904//EN"
 "http://www.w3.org/TR/2001/REC-SVG-20010904/DTD/svg10.dtd">
<svg version="1.0" xmlns="http://www.w3.org/2000/svg"
 width="1008.000000pt" height="1008.000000pt" viewBox="0 0 1008.000000 1008.000000"
 preserveAspectRatio="xMidYMid meet">
<metadata>
Created by potrace 1.14, written by Peter Selinger 2001-2017
</metadata>
<g transform="translate(0.000000,1008.000000) scale(0.100000,-0.100000)"
fill="#000000" stroke="none">
<path d="M4925 10069 c-78 -18 -183 -76 -243 -136 -88 -88 -148 -210 -151
-309 -1 -15 -12 -24 -41 -34 -22 -7 -47 -20 -57 -29 -10 -9 -54 -45 -98 -80
-44 -35 -100 -80 -125 -101 -25 -21 -106 -88 -180 -150 -74 -61 -146 -121
-160 -133 -14 -12 -72 -62 -130 -110 -99 -84 -196 -167 -246 -212 -13 -11 -39
-33 -60 -50 -20 -16 -42 -35 -48 -41 -6 -5 -60 -49 -121 -97 -60 -48 -115 -92
-122 -97 -7 -6 -17 -10 -23 -10 -5 0 -10 -6 -10 -14 0 -10 16 -6 58 15 31 15
91 41 132 57 41 16 84 33 95 37 11 5 23 9 28 10 4 2 9 4 12 5 3 1 8 3 13 4 14
4 57 17 77 25 25 10 146 52 160 55 6 2 17 6 25 9 23 9 84 27 90 27 3 -1 32 9
65 20 74 26 345 103 363 103 6 0 12 3 12 7 0 3 8 6 18 7 9 1 60 13 112 27 52
15 103 29 113 31 10 2 26 6 35 9 9 3 31 8 47 11 38 8 60 13 60 15 0 3 132 30
147 30 5 0 6 -4 3 -10 -3 -5 -2 -10 3 -10 5 0 51 -40 101 -90 51 -49 99 -90
107 -90 8 0 14 -4 14 -9 0 -4 14 -12 32 -17 l32 -9 -95 -79 c-52 -43 -103 -86
-114 -95 -103 -83 -125 -105 -121 -118 3 -7 -4 -21 -15 -31 -12 -9 -27 -23
-33 -30 -6 -7 -22 -23 -35 -35 -13 -12 -41 -49 -62 -82 -27 -41 -46 -60 -62
-61 -12 -1 -77 -24 -144 -52 -68 -28 -123 -48 -123 -45 0 3 -6 1 -12 -5 -7 -6
-35 -19 -63 -30 -93 -36 -280 -113 -315 -129 -19 -10 -40 -18 -45 -19 -6 -1
-31 -11 -55 -22 -25 -11 -79 -34 -120 -51 -41 -18 -84 -36 -95 -41 -11 -5 -49
-21 -85 -36 -36 -14 -76 -31 -90 -37 -14 -5 -34 -12 -44 -14 -11 -2 -28 -11
-38 -20 -10 -9 -18 -13 -18 -9 0 4 -9 2 -21 -4 -11 -6 -30 -14 -42 -16 -28 -7
-39 -10 -57 -17 -8 -3 -31 -10 -50 -15 -28 -8 -14 -10 75 -12 61 0 130 -3 155
-5 152 -11 218 -17 245 -20 48 -6 135 -14 210 -20 39 -2 95 -7 125 -10 30 -3
89 -7 130 -10 41 -2 93 -7 115 -10 22 -3 72 -7 111 -9 40 -2 76 -6 82 -10 6
-3 13 -2 17 3 3 6 15 7 28 2 12 -5 25 -9 30 -10 11 -2 9 -15 -10 -61 -6 -14
-40 -99 -76 -190 -36 -91 -71 -178 -78 -195 -7 -16 -13 -34 -15 -40 -2 -5 -21
-55 -43 -110 -36 -92 -52 -132 -56 -145 -1 -3 -5 -14 -10 -25 -4 -11 -25 -63
-45 -115 -20 -52 -41 -104 -45 -115 -4 -11 -9 -24 -11 -30 -4 -17 -114 -298
-129 -332 -8 -17 -15 -34 -15 -37 0 -9 -103 -240 -110 -246 -13 -12 -51 -92
-46 -98 3 -3 6 -1 6 5 0 6 17 29 38 51 20 22 55 62 77 88 22 27 49 57 60 69
19 19 178 200 235 268 14 16 39 44 55 62 17 18 53 59 80 90 28 32 59 68 70 81
70 79 127 142 145 164 12 14 45 52 75 85 29 33 65 76 81 95 16 19 40 46 54 60
14 14 49 55 79 90 30 36 62 72 70 81 9 8 36 40 61 69 25 29 51 60 59 67 7 8
29 32 48 55 l34 41 232 -235 c128 -129 266 -272 307 -318 41 -45 100 -109 131
-141 31 -33 55 -59 52 -59 -2 0 6 -10 19 -23 20 -20 81 -90 141 -161 10 -11
28 -33 40 -47 12 -14 40 -47 62 -74 22 -27 50 -60 63 -73 12 -12 22 -25 22
-27 0 -4 98 -131 140 -182 6 -7 10 -17 10 -23 0 -5 3 -10 8 -10 4 0 16 -16 26
-35 24 -44 51 -70 33 -31 -7 14 -15 26 -19 26 -5 0 -8 5 -8 11 0 5 -13 38 -29
72 -55 118 -98 226 -191 472 -118 313 -390 1007 -411 1047 -13 25 -11 45 4 45
20 1 137 14 157 18 10 2 58 6 106 10 49 3 100 8 114 10 27 4 175 16 250 20
289 16 375 19 495 17 77 0 159 -3 183 -5 60 -5 52 8 -14 22 -53 12 -179 59
-216 81 -10 5 -22 10 -27 10 -5 0 -26 8 -47 17 -22 9 -41 17 -44 18 -3 0 -35
15 -73 33 -37 17 -70 32 -73 32 -3 0 -35 14 -71 30 -35 17 -66 30 -68 30 -3 0
-34 14 -70 30 -36 17 -67 30 -69 30 -3 0 -26 10 -53 22 -26 12 -50 22 -53 23
-3 1 -16 7 -30 12 -14 6 -70 29 -125 51 -55 22 -115 48 -133 57 -18 9 -38 18
-45 19 -7 2 -23 8 -37 13 -83 35 -133 53 -149 53 -10 0 -24 12 -32 28 -8 15
-19 33 -26 40 -7 7 -20 25 -29 40 -9 15 -40 47 -70 72 -29 25 -54 53 -54 63 0
19 -42 67 -59 67 -5 0 -11 3 -13 8 -1 4 -30 29 -63 55 -82 66 -84 67 -137 107
-26 19 -49 41 -52 47 -3 7 14 26 37 42 23 16 57 43 75 60 18 17 35 31 38 31 2
0 12 8 23 18 25 23 72 64 93 80 15 12 30 10 100 -13 46 -14 90 -29 98 -32 8
-3 20 -7 25 -8 6 -1 54 -17 107 -35 54 -17 100 -31 103 -31 2 0 24 -7 47 -15
24 -9 50 -17 58 -19 8 -2 35 -10 60 -18 25 -8 95 -29 155 -47 61 -17 121 -35
135 -40 26 -9 168 -52 185 -56 6 -1 31 -9 56 -18 25 -8 54 -17 65 -19 10 -2
26 -6 34 -9 41 -14 220 -69 225 -69 2 0 28 -9 57 -20 29 -11 58 -21 63 -23 6
-1 32 -12 59 -24 65 -29 67 -28 16 11 -24 17 -80 61 -124 97 -45 35 -90 71
-100 80 -38 30 -141 123 -153 138 -7 9 -13 12 -13 7 0 -5 -6 -2 -12 6 -7 9
-56 51 -108 95 -52 43 -97 82 -100 85 -5 5 -210 178 -335 283 -27 22 -57 49
-67 59 -10 9 -20 17 -23 17 -6 0 -50 36 -87 72 -15 14 -28 25 -28 22 0 -4 -42
31 -80 66 -58 55 -159 110 -200 110 -13 0 -20 11 -26 48 -8 49 -10 59 -14 67
-1 3 -3 8 -4 13 -4 27 -65 131 -95 164 -54 60 -149 127 -196 138 -5 1 -18 6
-28 12 -10 5 -28 12 -40 14 -43 10 -193 12 -232 3z"/>
<path d="M3080 8450 c-9 -6 -10 -10 -3 -10 6 0 15 5 18 10 8 12 4 12 -15 0z"/>
<path d="M2943 8375 c-24 -13 -43 -22 -43 -20 0 2 -24 -7 -52 -19 -29 -13 -55
-24 -58 -24 -3 0 -18 -6 -35 -12 -16 -7 -41 -14 -54 -16 -14 -3 -29 -8 -35
-12 -6 -3 -15 -7 -21 -9 -5 -1 -71 -20 -145 -42 -74 -21 -175 -51 -225 -66
-49 -15 -97 -29 -105 -32 -8 -3 -19 -7 -25 -9 -35 -8 -166 -46 -255 -74 -58
-18 -163 -50 -235 -72 -71 -22 -157 -49 -190 -60 -33 -10 -67 -21 -76 -23 -43
-9 -155 -51 -161 -60 -5 -6 -19 -5 -40 4 -93 37 -126 43 -233 43 -60 0 -117
-2 -125 -4 -8 -3 -35 -10 -59 -17 -58 -17 -165 -82 -219 -134 -42 -41 -112
-143 -111 -161 0 -5 -3 -12 -8 -15 -11 -7 -42 -103 -48 -151 -13 -95 -5 -200
21 -280 16 -47 55 -131 65 -140 3 -3 14 -20 24 -38 11 -17 27 -35 37 -38 10
-3 18 -11 18 -17 0 -7 16 -23 34 -37 19 -14 34 -32 34 -40 1 -17 9 -74 18
-110 3 -14 7 -38 10 -55 3 -16 11 -61 20 -98 8 -38 24 -114 35 -170 11 -56 22
-111 25 -122 8 -40 14 -70 18 -95 2 -14 18 -83 35 -155 18 -71 33 -143 36
-160 2 -16 4 -30 5 -30 1 0 3 -7 5 -15 9 -44 16 -73 21 -97 3 -16 14 -64 24
-108 11 -44 27 -117 35 -162 9 -45 18 -88 19 -95 3 -16 16 -96 20 -120 2 -19
16 -37 16 -22 1 23 13 95 25 159 8 39 17 86 20 105 3 19 17 80 30 135 21 91
27 119 39 180 2 11 11 50 20 86 8 37 17 78 20 90 2 13 13 62 25 109 11 47 23
99 26 115 3 17 7 35 9 42 1 7 5 15 8 18 7 7 74 -84 182 -246 27 -41 52 -76 55
-79 3 -3 11 -14 18 -25 7 -11 27 -44 45 -74 74 -120 91 -149 125 -218 19 -40
37 -73 40 -73 3 0 2 8 -2 18 -13 31 -46 172 -51 212 -1 8 -3 17 -4 20 -4 11
-14 65 -25 128 -2 15 -9 56 -15 92 -6 36 -13 83 -16 105 -2 22 -6 54 -8 70 -5
35 -14 112 -21 175 -2 24 -7 67 -11 95 -8 65 -13 126 -19 200 -2 33 -6 85 -9
115 -3 30 -8 87 -11 125 -3 39 -8 78 -11 87 -3 9 2 31 11 48 14 27 27 34 63
33 6 -1 12 3 12 8 0 5 5 9 11 9 12 0 143 51 224 86 22 10 49 19 59 21 11 2 26
9 34 15 8 7 19 13 26 14 6 1 62 23 125 49 63 27 120 48 128 48 7 0 13 3 13 7
0 5 52 28 80 35 3 1 23 10 45 19 22 10 55 24 73 32 17 8 47 21 66 29 19 8 39
15 45 15 6 0 11 4 11 8 0 5 6 9 13 9 6 0 33 10 59 21 26 12 50 22 53 22 4 0
21 6 38 14 81 37 129 54 212 80 88 27 158 53 110 41 -49 -12 -311 -5 -440 11
-22 3 -65 7 -95 9 -30 3 -89 8 -130 12 -41 4 -101 7 -132 7 -32 1 -58 4 -58 8
0 3 21 24 46 45 25 21 51 43 57 48 14 12 118 97 132 108 6 4 21 17 35 28 14
11 40 33 59 47 19 15 48 39 65 53 25 20 268 217 311 251 6 5 21 18 35 29 14
11 38 30 53 42 42 32 103 87 97 87 -3 0 -24 -11 -47 -25z"/>
<path d="M7210 8343 c8 -3 19 -12 23 -19 4 -8 13 -14 18 -14 6 0 16 -6 23 -12
8 -7 24 -20 36 -28 12 -8 28 -20 34 -25 6 -6 63 -53 126 -105 63 -52 133 -111
154 -130 94 -84 98 -88 186 -160 30 -25 65 -54 77 -65 19 -18 63 -56 137 -118
l28 -24 -33 -1 c-19 0 -61 -3 -94 -5 -33 -3 -103 -9 -155 -12 -52 -3 -108 -8
-125 -10 -110 -16 -409 -25 -462 -15 -24 4 -43 6 -43 4 0 -5 56 -29 210 -88
80 -31 160 -63 178 -71 18 -8 39 -15 47 -15 8 0 15 -4 15 -8 0 -4 21 -14 47
-21 25 -8 58 -20 72 -27 14 -7 103 -42 196 -79 185 -72 188 -73 257 -104 26
-12 55 -21 63 -21 8 0 15 -4 15 -8 0 -4 8 -8 18 -9 10 -1 43 -13 74 -27 31
-14 60 -26 65 -26 4 -1 26 -9 48 -20 22 -11 46 -19 53 -20 7 0 23 -5 35 -12
30 -17 89 -38 107 -38 25 0 52 -54 41 -82 -8 -21 -18 -81 -26 -148 -2 -14 -4
-25 -5 -25 -1 0 -3 -13 -5 -30 -1 -16 -3 -30 -4 -30 -1 0 -4 -20 -6 -45 -4
-42 -7 -69 -20 -165 -3 -22 -7 -53 -9 -70 -4 -35 -25 -196 -31 -240 -2 -16 -7
-57 -10 -89 -3 -32 -7 -62 -9 -65 -2 -3 -7 -45 -10 -93 -3 -48 -8 -93 -11
-100 -2 -7 -6 -35 -9 -63 -3 -27 -7 -59 -10 -70 -2 -11 -7 -40 -11 -65 -9 -57
-13 -76 -19 -103 -3 -13 -1 -11 6 6 7 15 15 27 20 27 4 0 8 5 8 12 0 7 18 38
40 69 22 32 40 60 40 63 0 3 7 14 15 24 35 40 61 72 75 92 8 13 50 70 93 127
42 58 77 109 77 113 0 4 7 11 16 14 8 3 12 10 9 16 -3 5 -2 10 3 10 5 0 21 18
36 40 14 22 31 40 38 40 6 0 9 -2 6 -5 -3 -3 3 -43 13 -88 10 -45 20 -93 22
-107 6 -29 8 -41 43 -185 14 -60 28 -121 30 -134 3 -12 11 -51 19 -85 8 -33
16 -72 19 -86 3 -14 11 -47 16 -75 6 -27 13 -66 16 -85 2 -19 7 -48 11 -65 8
-34 10 -52 12 -95 2 -43 16 -37 18 8 2 20 6 53 9 72 12 69 13 75 17 95 3 11 8
40 13 65 4 25 8 47 9 50 16 65 28 127 27 133 -1 4 3 7 9 7 5 0 8 4 5 8 -3 4
-1 26 4 48 5 21 11 50 14 64 2 14 10 48 16 75 7 28 14 59 16 70 2 11 10 49 20
85 9 36 18 81 21 100 3 19 9 40 14 46 5 6 6 13 3 17 -3 3 -1 21 5 39 6 18 13
48 16 65 3 18 12 62 20 98 9 35 14 68 14 72 -1 4 1 15 4 23 6 16 30 124 33
153 1 9 2 18 3 20 1 1 4 18 7 37 2 19 7 42 10 50 8 17 10 31 12 81 2 29 13 47
62 95 77 78 98 109 143 214 77 180 35 443 -93 584 -67 73 -75 81 -115 107 -79
51 -96 60 -105 54 -6 -3 -10 -2 -10 4 0 17 -110 43 -194 45 -84 3 -175 -12
-236 -38 -34 -14 -41 -13 -165 30 -72 24 -138 44 -147 44 -10 0 -18 5 -18 12
0 6 -3 9 -6 5 -3 -3 -25 1 -47 10 -23 8 -49 16 -57 18 -8 2 -44 13 -80 25 -36
12 -72 23 -80 25 -16 4 -345 103 -368 110 -7 3 -13 4 -15 4 -1 0 -29 10 -62
21 -33 11 -61 20 -63 20 -1 -1 -33 8 -70 19 -361 109 -476 147 -530 175 -17 9
-37 16 -44 15 -9 0 -8 -2 2 -6z"/>
<path d="M6421 5733 c11 -27 24 -57 29 -68 5 -11 21 -49 35 -85 14 -36 30 -74
35 -85 13 -29 104 -249 106 -255 0 -3 5 -16 11 -30 6 -14 32 -76 57 -138 87
-214 97 -237 106 -257 15 -33 43 -99 45 -107 2 -5 4 -10 5 -13 1 -3 3 -8 5
-12 1 -5 6 -19 12 -33 6 -14 20 -47 31 -75 11 -27 28 -68 38 -90 10 -22 19
-44 20 -50 2 -5 24 -59 49 -120 135 -319 178 -432 159 -413 -3 4 -20 2 -37 -3
-34 -10 -82 -20 -107 -23 -9 -1 -21 -5 -28 -10 -6 -4 -12 -5 -12 -3 0 3 -17 1
-37 -4 -65 -16 -70 -17 -104 -23 -19 -3 -45 -8 -59 -11 -14 -3 -50 -9 -80 -15
-30 -6 -66 -13 -80 -16 -49 -11 -115 -24 -145 -29 -16 -2 -41 -7 -55 -10 -14
-3 -38 -7 -55 -9 -16 -2 -41 -6 -55 -10 -40 -9 -82 -17 -122 -21 -21 -2 -50
-6 -65 -9 -29 -6 -60 -11 -128 -21 -23 -3 -50 -7 -60 -9 -11 -2 -45 -7 -75
-11 -66 -8 -106 -14 -140 -20 -28 -5 -120 -16 -165 -20 -16 -2 -63 -6 -104
-10 -63 -6 -172 -12 -235 -14 -11 -1 -17 -3 -14 -6 5 -6 15 -7 118 -20 30 -3
62 -8 70 -10 8 -2 35 -7 60 -10 46 -6 128 -21 280 -49 47 -9 101 -19 120 -22
19 -3 62 -11 95 -19 33 -7 80 -16 105 -19 25 -3 56 -9 70 -12 14 -3 36 -7 50
-10 29 -5 170 -31 215 -39 17 -3 44 -8 60 -10 17 -3 40 -7 53 -10 12 -3 30 -7
40 -9 11 -2 43 -7 73 -11 30 -3 62 -9 72 -12 11 -3 29 -6 40 -8 12 -2 33 -6
47 -9 14 -3 43 -8 65 -11 22 -3 62 -9 88 -15 27 -5 51 -9 55 -9 4 1 10 0 15
-1 12 -4 26 -7 37 -9 6 0 -2 -25 -18 -53 -45 -81 -134 -252 -192 -368 -30 -58
-60 -113 -68 -122 -8 -10 -12 -18 -9 -18 6 0 -60 -132 -173 -346 -36 -68 -69
-124 -80 -134 -3 -3 -9 -12 -15 -21 -5 -10 -21 -32 -33 -50 -13 -19 -15 -25
-5 -14 15 17 75 68 146 125 11 8 24 20 31 25 6 6 67 52 136 103 69 50 132 99
141 107 9 8 19 15 23 15 4 0 12 5 19 11 7 6 77 55 156 110 80 55 152 106 161
114 9 8 20 12 23 8 4 -3 7 -1 7 5 0 7 7 12 16 12 8 0 12 5 9 10 -3 6 1 10 9
10 9 0 16 5 16 10 0 6 3 9 8 8 8 -2 303 192 327 216 10 10 22 13 29 9 14 -10
37 -10 54 0 6 5 12 4 12 -1 0 -12 111 11 181 37 37 15 56 17 65 10 9 -8 53 3
156 37 247 81 288 96 288 108 0 6 -5 27 -11 46 -5 19 -11 44 -13 55 -2 11 -6
29 -9 40 -3 11 -8 31 -11 45 -3 14 -12 52 -21 85 -9 33 -18 69 -21 79 -10 49
-29 92 -46 104 -10 7 -16 17 -14 21 5 7 -8 69 -21 101 -3 8 -6 17 -5 20 0 3
-12 32 -28 65 -19 39 -26 64 -20 75 4 8 11 40 15 70 4 30 8 57 10 60 3 5 15
98 20 155 2 17 4 30 5 30 1 0 3 16 5 35 2 20 6 51 9 70 3 19 8 60 11 90 3 30
8 65 10 78 3 13 8 51 11 85 2 34 6 73 8 87 7 43 14 103 21 165 9 86 21 181 31
245 2 19 7 49 9 65 2 17 7 41 10 55 4 22 12 62 19 95 1 6 6 17 11 25 8 13 7
13 -8 1 -9 -7 -14 -17 -11 -22 3 -5 0 -9 -5 -9 -6 0 -11 -5 -11 -10 0 -13
-111 -183 -131 -200 -3 -3 -19 -25 -36 -50 -17 -25 -41 -55 -52 -67 -12 -12
-21 -25 -21 -28 0 -3 -26 -40 -57 -82 -32 -42 -65 -85 -73 -97 -8 -12 -23 -33
-35 -47 -11 -14 -27 -36 -35 -49 -19 -28 -192 -266 -220 -302 -11 -14 -20 -31
-20 -36 0 -5 -7 -13 -16 -16 -8 -3 -13 -10 -10 -15 3 -5 -1 -11 -8 -14 -9 -4
-24 6 -38 24 -13 16 -39 47 -58 68 -19 20 -60 66 -90 101 -30 35 -66 75 -80
90 -14 15 -56 62 -95 105 -38 43 -83 93 -100 111 -16 17 -66 72 -110 120 -44
48 -93 102 -110 120 -16 17 -56 61 -87 96 -31 36 -74 83 -95 104 -68 72 -137
148 -183 203 -25 29 -57 67 -73 84 -15 18 -57 74 -93 125 -36 50 -68 92 -69
92 -2 0 5 -21 16 -47z"/>
<path d="M3639 5653 c-51 -67 -67 -87 -94 -117 -11 -13 -36 -40 -54 -62 -80
-90 -198 -221 -231 -254 -32 -33 -145 -155 -266 -289 -27 -29 -60 -66 -74 -81
-14 -15 -54 -60 -90 -100 -36 -40 -78 -87 -95 -104 -16 -18 -59 -66 -95 -106
-36 -41 -74 -84 -85 -96 -11 -12 -40 -45 -64 -73 -42 -50 -44 -51 -62 -35 -11
9 -19 23 -19 30 0 7 -4 14 -8 16 -7 2 -166 234 -197 285 -5 10 -15 23 -21 29
-6 7 -26 36 -45 66 -18 29 -36 55 -39 58 -3 3 -57 82 -120 175 -62 94 -117
172 -122 173 -4 2 -8 8 -8 12 0 5 -24 43 -52 85 -29 41 -57 83 -63 92 -12 21
-20 32 -45 63 l-19 25 5 -25 c2 -14 7 -43 9 -65 21 -165 23 -179 25 -185 1 -3
2 -8 1 -13 -1 -4 3 -26 8 -50 5 -23 12 -69 16 -102 3 -33 8 -67 10 -75 2 -8 7
-37 11 -65 3 -27 8 -61 10 -75 2 -14 6 -43 8 -65 3 -22 7 -51 10 -65 5 -26 14
-89 22 -155 3 -22 7 -51 10 -65 3 -14 7 -38 9 -55 3 -37 14 -113 19 -140 3
-19 17 -113 21 -145 1 -8 6 -40 10 -70 5 -30 9 -57 10 -60 0 -3 4 -10 8 -16 4
-7 -6 -41 -22 -75 -34 -74 -59 -156 -55 -181 1 -10 -1 -18 -5 -18 -16 0 -46
-36 -47 -55 -1 -11 -9 -47 -18 -80 -9 -33 -19 -73 -22 -89 -3 -16 -7 -33 -10
-38 -3 -4 -7 -18 -10 -30 -9 -40 -12 -53 -14 -53 -1 0 -4 -11 -5 -25 -2 -14
-6 -34 -9 -45 -2 -11 -5 -28 -5 -39 -1 -13 -4 -16 -13 -9 -7 6 -83 34 -168 63
-148 50 -210 76 -210 85 0 10 -101 509 -120 595 -12 52 -24 104 -26 115 -4 19
-6 31 -19 88 -3 12 -7 33 -10 47 -3 14 -9 40 -14 58 -5 17 -8 32 -6 32 3 0 0
11 -5 26 -6 14 -12 39 -15 57 -3 18 -8 43 -10 57 -3 14 -7 34 -9 45 -2 11 -11
47 -19 80 -15 55 -46 213 -53 260 -1 11 -3 20 -4 20 -1 0 -3 18 -5 40 -4 57
-4 59 -12 51 -7 -7 -8 -11 -18 -86 -3 -25 -8 -52 -11 -61 -2 -10 -6 -30 -9
-45 -5 -40 -31 -162 -56 -269 -11 -49 -23 -100 -25 -113 -3 -13 -16 -76 -30
-140 -14 -64 -27 -125 -29 -135 -2 -9 -6 -21 -9 -26 -3 -5 -8 -24 -11 -42 -4
-33 -7 -49 -19 -99 -3 -14 -8 -36 -10 -50 -3 -14 -18 -90 -35 -170 -16 -80
-32 -158 -35 -174 -3 -16 -10 -52 -16 -80 -5 -28 -11 -61 -13 -73 -2 -12 -6
-25 -10 -29 -3 -4 -2 -15 4 -25 6 -13 6 -19 0 -19 -6 0 -39 -28 -73 -63 -61
-61 -126 -166 -143 -232 -5 -16 -9 -34 -11 -40 -74 -280 89 -597 357 -695 123
-46 259 -49 377 -9 4 1 15 4 25 7 9 2 17 7 17 11 0 8 39 7 60 -2 26 -10 201
-68 218 -72 9 -2 76 -22 147 -45 123 -39 342 -106 375 -115 8 -2 15 -4 15 -5
0 -2 14 -5 75 -20 25 -6 54 -14 65 -19 28 -13 109 -33 116 -29 3 2 12 -2 20
-8 12 -10 74 -28 81 -24 2 1 21 -5 43 -13 22 -8 60 -20 85 -27 25 -7 75 -23
113 -35 37 -13 67 -22 67 -20 0 4 195 -64 255 -89 22 -9 32 -10 22 -3 -11 6
-42 29 -70 50 -29 21 -63 46 -76 55 -13 9 -39 31 -57 47 -19 17 -54 46 -80 65
-25 19 -60 49 -78 65 -18 17 -52 46 -76 65 -24 19 -55 46 -70 60 -15 14 -49
43 -75 65 -27 22 -62 52 -79 67 -17 14 -65 54 -106 88 -41 34 -86 71 -100 83
-14 12 -65 55 -115 97 -49 41 -92 77 -95 80 -3 3 -39 32 -80 65 -81 65 -118
96 -161 135 l-28 25 30 120 c17 66 32 130 33 142 1 13 6 26 9 30 4 3 7 14 7
23 0 54 63 43 278 -49 118 -50 147 -59 186 -56 25 2 46 0 46 -4 0 -8 28 -17
115 -38 11 -2 54 -6 96 -7 62 -2 80 -6 99 -24 13 -12 80 -61 149 -109 69 -48
128 -91 129 -95 2 -4 10 -8 18 -8 8 0 14 -4 14 -10 0 -5 6 -10 14 -10 8 0 16
-3 18 -7 2 -5 64 -49 138 -99 528 -355 645 -439 700 -495 16 -18 30 -29 30
-25 0 7 -39 66 -50 76 -16 14 -168 296 -172 317 0 5 -10 24 -22 43 -12 19 -39
71 -61 115 -22 44 -42 82 -45 85 -3 3 -31 57 -63 120 -32 63 -73 142 -91 175
-57 105 -116 216 -116 219 0 1 6 3 13 4 6 0 21 2 32 5 26 6 111 18 153 23 18
1 36 5 40 8 4 2 35 8 67 12 90 11 100 12 100 14 0 1 9 3 20 4 11 1 36 6 55 9
19 4 53 9 75 12 22 4 51 8 65 11 14 2 41 7 60 10 19 2 46 7 60 10 28 5 57 10
110 18 19 3 44 7 55 10 32 6 109 19 125 21 8 1 29 5 45 8 29 7 75 15 125 22
14 2 35 6 46 9 30 6 87 15 142 22 25 3 49 7 53 10 4 2 29 7 56 10 26 2 73 9
103 14 91 15 205 27 288 31 23 1 42 6 42 10 0 6 -30 12 -120 22 -19 3 -35 5
-35 6 0 2 -11 4 -25 6 -30 4 -466 75 -495 80 -11 2 -29 6 -40 8 -20 4 -76 13
-145 22 -19 3 -46 7 -60 10 -29 6 -83 15 -114 19 -11 2 -37 6 -56 10 -45 8
-86 15 -130 22 -19 3 -46 7 -60 10 -14 2 -47 7 -75 10 -27 3 -53 8 -56 10 -4
2 -24 6 -45 10 -22 3 -50 7 -64 10 -14 2 -44 7 -66 10 -23 2 -53 7 -65 10 -13
2 -40 7 -59 9 -19 3 -44 7 -55 10 -11 2 -42 7 -70 10 -27 3 -63 10 -80 15 -16
5 -51 11 -76 15 l-47 6 11 37 c6 20 14 39 17 42 5 5 9 18 14 45 2 8 25 71 82
220 4 11 8 22 9 25 1 3 4 12 8 20 36 93 89 238 91 247 1 7 5 16 9 19 4 4 7 16
7 26 0 10 4 18 10 18 5 0 9 3 8 8 -2 8 9 49 23 77 19 42 100 241 104 255 3 14
30 78 60 145 8 16 25 57 39 91 33 81 104 233 176 377 32 64 57 117 55 117 -1
0 -22 -26 -46 -57z"/>
<path d="M945 5160 c3 -5 8 -10 11 -10 2 0 4 5 4 10 0 6 -5 10 -11 10 -5 0 -7
-4 -4 -10z"/>
<path d="M9170 5100 c0 -5 5 -10 11 -10 5 0 7 5 4 10 -3 6 -8 10 -11 10 -2 0
-4 -4 -4 -10z"/>
<path d="M9166 4903 c-3 -38 -8 -79 -11 -93 -3 -14 -7 -36 -10 -49 -2 -14 -10
-50 -16 -80 -6 -31 -13 -63 -14 -71 -2 -8 -4 -15 -5 -15 -1 0 -3 -11 -5 -25
-3 -14 -6 -32 -8 -40 -2 -8 -7 -33 -12 -55 -4 -22 -16 -74 -27 -115 -10 -41
-26 -109 -34 -150 -9 -41 -18 -84 -21 -95 -2 -11 -6 -31 -9 -45 -2 -14 -7 -37
-10 -52 -3 -15 -6 -31 -6 -35 0 -5 -4 -19 -9 -32 -5 -13 -11 -38 -14 -55 -2
-17 -7 -40 -9 -51 -18 -71 -55 -239 -61 -275 -2 -14 -7 -41 -11 -60 -3 -19 -7
-42 -9 -50 -14 -94 -19 -101 -80 -119 -22 -7 -47 -15 -55 -18 -112 -41 -210
-75 -230 -79 -14 -3 -29 -9 -34 -14 -7 -7 -2 -52 10 -95 15 -52 56 -217 60
-243 5 -26 1 -37 -13 -47 -10 -7 -77 -62 -148 -121 -72 -60 -150 -125 -174
-144 -24 -19 -48 -40 -55 -45 -6 -6 -38 -33 -71 -60 -33 -28 -65 -54 -71 -60
-6 -5 -33 -29 -60 -52 -27 -23 -62 -53 -79 -68 -16 -14 -50 -43 -75 -63 -25
-20 -47 -40 -50 -43 -7 -8 -85 -75 -138 -117 -22 -19 -50 -41 -60 -50 -71 -62
-189 -161 -228 -191 -6 -5 -36 -25 -67 -46 -31 -21 -57 -40 -57 -42 0 -2 3 -2
8 0 41 24 258 105 297 112 11 2 77 21 146 43 119 38 201 63 225 68 19 3 187
55 244 74 53 18 132 41 183 53 14 4 260 81 437 139 69 22 130 41 135 42 6 1
20 7 32 14 18 10 29 10 56 -2 67 -28 171 -45 250 -41 43 2 81 6 86 9 4 3 22 8
40 11 18 3 43 13 57 21 13 9 24 14 24 10 0 -14 134 78 164 112 6 7 23 25 37
40 29 30 83 112 84 127 1 6 8 26 17 45 32 70 50 237 34 309 -33 144 -76 227
-166 317 -49 48 -70 76 -70 94 0 14 -7 59 -16 100 -8 41 -17 86 -19 100 -3 14
-6 32 -8 40 -2 8 -7 33 -12 55 -11 57 -16 80 -30 145 -4 14 -8 35 -11 48 -2
12 -6 32 -9 45 -2 12 -7 36 -10 52 -6 27 -19 87 -31 140 -7 29 -13 57 -18 83
-3 13 -7 31 -10 40 -3 9 -7 28 -10 42 -3 14 -14 66 -25 115 -19 81 -48 217
-56 255 -2 8 -4 15 -5 15 -1 0 -4 14 -6 30 -2 17 -11 61 -19 98 -15 67 -28
160 -29 205 -2 47 -13 19 -20 -45z"/>
<path d="M5168 3593 c7 -3 16 -2 19 1 4 3 -2 6 -13 5 -11 0 -14 -3 -6 -6z"/>
<path d="M6333 2040 c-34 -33 -67 -60 -72 -60 -5 0 -11 -4 -13 -9 -4 -12 -110
-90 -201 -148 -40 -25 -74 -49 -77 -52 -3 -3 -43 -31 -90 -61 -47 -30 -94 -63
-104 -72 -11 -10 -24 -18 -29 -18 -4 0 -15 -6 -22 -12 -29 -26 -42 -36 -65
-48 -13 -7 -29 -17 -34 -22 -33 -28 -209 -148 -217 -148 -5 0 -9 -4 -9 -10 0
-5 -6 -10 -14 -10 -8 0 -16 -3 -18 -7 -4 -10 -67 -59 -133 -103 -27 -18 -60
-44 -71 -56 -18 -19 -34 -23 -93 -25 -53 -2 -75 2 -84 13 -14 17 -176 135
-224 163 -18 11 -33 23 -33 26 0 4 -9 11 -20 14 -11 3 -26 12 -32 19 -23 22
-249 176 -258 176 -6 0 -10 5 -10 10 0 6 -5 10 -10 10 -6 0 -16 5 -23 10 -7 6
-121 84 -254 174 -132 90 -256 177 -275 194 -53 49 -81 72 -85 72 -8 0 32 -49
40 -50 5 0 5 -4 2 -10 -3 -5 -2 -10 2 -10 5 0 22 -25 38 -55 17 -30 33 -55 38
-55 4 0 7 -4 7 -10 0 -5 29 -63 64 -130 35 -66 61 -120 58 -120 -4 0 -2 -4 3
-8 6 -4 43 -71 83 -149 l72 -143 -37 13 c-81 29 -109 38 -128 42 -11 3 -58 16
-105 30 -47 15 -93 28 -103 30 -9 2 -21 6 -25 9 -5 3 -21 7 -35 10 -30 5 -127
34 -247 72 -41 14 -82 26 -91 28 -9 3 -39 12 -65 21 -27 9 -53 18 -59 19 -12
4 -31 10 -125 47 -61 23 -70 25 -50 9 14 -11 30 -20 37 -20 6 0 13 -3 15 -7 2
-5 30 -28 63 -53 33 -25 62 -47 65 -50 3 -3 57 -48 120 -101 63 -53 126 -106
140 -118 57 -51 79 -69 160 -136 47 -38 97 -81 111 -95 25 -24 82 -71 137
-115 14 -11 46 -38 72 -60 67 -58 83 -71 200 -165 58 -46 107 -87 110 -90 3
-3 30 -25 60 -50 30 -25 58 -49 61 -53 3 -5 9 -8 13 -8 19 3 25 -1 35 -26 6
-16 12 -39 14 -53 7 -47 38 -118 79 -182 35 -55 146 -168 165 -168 7 0 13 -4
13 -10 0 -5 11 -12 25 -16 14 -3 25 -10 25 -16 0 -5 5 -6 10 -3 6 4 16 2 23
-3 45 -37 245 -56 337 -32 25 6 57 14 73 17 15 3 27 9 27 13 0 4 10 10 23 14
46 11 157 94 157 117 0 5 3 8 8 6 4 -3 28 23 53 56 45 61 94 165 103 220 8 50
15 62 43 75 16 7 49 31 74 55 26 23 64 56 85 72 21 17 106 86 189 155 82 68
156 129 163 135 7 5 27 24 45 40 18 17 51 43 72 60 22 16 45 34 51 40 6 5 37
33 69 60 110 94 148 126 160 138 6 7 30 27 53 45 23 19 52 44 65 55 13 12 43
38 66 57 24 19 48 40 54 45 7 6 32 26 57 45 25 19 47 37 50 41 3 4 41 30 85
59 85 55 86 57 15 24 -67 -32 -138 -59 -205 -79 -33 -9 -91 -28 -130 -40 -70
-23 -181 -56 -200 -59 -5 -1 -14 -4 -20 -8 -5 -3 -26 -9 -45 -13 -19 -4 -39
-10 -45 -13 -5 -4 -14 -7 -20 -8 -22 -4 -152 -43 -178 -53 -16 -6 -33 -9 -38
-5 -5 3 -9 0 -9 -5 0 -6 -3 -10 -7 -10 -5 1 -10 0 -13 -1 -5 -2 -18 -5 -55
-14 -11 -2 -32 -9 -46 -14 -38 -15 -40 -7 -13 41 30 53 53 96 93 174 18 34 36
65 42 68 5 4 7 11 4 16 -4 5 -2 9 3 9 4 0 14 16 22 35 8 19 17 35 22 35 4 0 8
4 8 9 0 8 96 188 179 334 11 20 20 37 18 37 -1 0 -30 -27 -64 -60z"/>
</g>
</svg>
