<?xml version="1.0" encoding="utf-8"?>
<!-- Generator: Adobe Illustrator 17.0.0, SVG Export Plug-In . SVG Version: 6.00 Build 0)  -->
<!DOCTYPE svg PUBLIC "-//W3C//DTD SVG 1.1//EN" "http://www.w3.org/Graphics/SVG/1.1/DTD/svg11.dtd">
<svg version="1.1" id="Слой_1" xmlns="http://www.w3.org/2000/svg" xmlns:xlink="http://www.w3.org/1999/xlink" x="0px" y="0px"
	 width="98.408px" height="98.408px" viewBox="0 0 98.408 98.408" enable-background="new 0 0 98.408 98.408" xml:space="preserve">
<g>
	<g>
		
			<circle fill="none" stroke="#1F50A4" stroke-width="3" stroke-linecap="round" stroke-linejoin="round" stroke-miterlimit="10" cx="63.6" cy="63.378" r="17.984"/>
		<g>
			<path fill="none" stroke="#1F50A4" stroke-width="3" stroke-linecap="round" stroke-linejoin="round" stroke-miterlimit="10" d="
				M65.81,52.242h-6.58v10h6.58c2.744,0,4.968-2.256,4.968-5C70.778,54.498,68.554,52.242,65.81,52.242z"/>
			
				<line fill="none" stroke="#1F50A4" stroke-width="3" stroke-linecap="round" stroke-linejoin="round" stroke-miterlimit="10" x1="59.23" y1="62.742" x2="59.23" y2="72.742"/>
			
				<line fill="none" stroke="#1F50A4" stroke-width="3" stroke-linecap="round" stroke-linejoin="round" stroke-miterlimit="10" x1="57.73" y1="68.242" x2="68.73" y2="68.242"/>
		</g>
	</g>
	
		<ellipse fill="none" stroke="#1F50A4" stroke-width="3" stroke-linecap="round" stroke-linejoin="round" stroke-miterlimit="10" cx="45.771" cy="29.934" rx="20.664" ry="12.43"/>
	<path fill="none" stroke="#1F50A4" stroke-width="3" stroke-linecap="round" stroke-linejoin="round" stroke-miterlimit="10" d="
		M54.61,79.394c-2.68,0.764-5.676,1.191-8.838,1.191c-11.413,0-20.664-5.565-20.664-12.43c0-0.332,0.022-0.661,0.064-0.987"/>
	
		<line fill="none" stroke="#1F50A4" stroke-width="3" stroke-linecap="round" stroke-linejoin="round" stroke-miterlimit="10" x1="24.99" y1="30.788" x2="25.223" y2="66.563"/>
	
		<line fill="none" stroke="#1F50A4" stroke-width="3" stroke-linecap="round" stroke-linejoin="round" stroke-miterlimit="10" x1="66.23" y1="29.742" x2="66.23" y2="44.742"/>
	<path fill="none" stroke="#1F50A4" stroke-width="3" stroke-linecap="round" stroke-linejoin="round" stroke-miterlimit="10" d="
		M44.535,61.918c-10.837-0.385-19.428-5.793-19.428-12.408c0-0.332,0.022-0.661,0.064-0.987"/>
</g>
</svg>
