<?xml version="1.0" encoding="utf-8"?>
<!-- Generator: Adobe Illustrator 17.0.0, SVG Export Plug-In . SVG Version: 6.00 Build 0)  -->
<!DOCTYPE svg PUBLIC "-//W3C//DTD SVG 1.1//EN" "http://www.w3.org/Graphics/SVG/1.1/DTD/svg11.dtd">
<svg version="1.1" id="Слой_1" xmlns="http://www.w3.org/2000/svg" xmlns:xlink="http://www.w3.org/1999/xlink" x="0px" y="0px"
	 width="70.866px" height="70.866px" viewBox="0 0 70.866 70.866" enable-background="new 0 0 70.866 70.866" xml:space="preserve">
<g>
	<g>
		<rect x="23.285" y="23.796" fill="none" stroke="#1F50A4" stroke-width="2" stroke-miterlimit="10" width="23.5" height="29"/>
		<rect x="30.535" y="43.421" fill="none" stroke="#1F50A4" stroke-width="2" stroke-miterlimit="10" width="8.917" height="9.25"/>
		<path fill="none" stroke="#1F50A4" stroke-width="2" stroke-miterlimit="10" d="M23.452,52.796c-3.523,0-8,0-8,0v-21
			c0,0,4.202,0,7.667,0"/>
		<path fill="none" stroke="#1F50A4" stroke-width="2" stroke-miterlimit="10" d="M46.452,31.796c3.523,0,8,0,8,0v21
			c0,0-4.202,0-7.667,0"/>
	</g>
	<rect x="20.619" y="20.296" fill="none" stroke="#1F50A4" stroke-width="2" stroke-miterlimit="10" width="29" height="3.5"/>
	<g>
		<path fill="none" stroke="#1F50A4" stroke-width="2" stroke-miterlimit="10" d="M36.452,29.796c2.682,0,5.833,0,5.833,0"/>
		<path fill="none" stroke="#1F50A4" stroke-width="2" stroke-miterlimit="10" d="M27.119,29.796c0,0,2.889,0,5.333,0"/>
	</g>
	<g>
		<path fill="none" stroke="#1F50A4" stroke-width="2" stroke-miterlimit="10" d="M36.452,33.796c2.682,0,5.833,0,5.833,0"/>
		<path fill="none" stroke="#1F50A4" stroke-width="2" stroke-miterlimit="10" d="M27.119,33.796c0,0,2.889,0,5.333,0"/>
	</g>
	<g>
		<path fill="none" stroke="#1F50A4" stroke-width="2" stroke-miterlimit="10" d="M36.452,37.796c2.682,0,5.833,0,5.833,0"/>
		<path fill="none" stroke="#1F50A4" stroke-width="2" stroke-miterlimit="10" d="M27.119,37.796c0,0,2.889,0,5.333,0"/>
	</g>
</g>
</svg>
