<?xml version="1.0" encoding="utf-8"?>
<!-- Generator: Adobe Illustrator 17.0.0, SVG Export Plug-In . SVG Version: 6.00 Build 0)  -->
<!DOCTYPE svg PUBLIC "-//W3C//DTD SVG 1.1//EN" "http://www.w3.org/Graphics/SVG/1.1/DTD/svg11.dtd">
<svg version="1.1" id="Слой_1" xmlns="http://www.w3.org/2000/svg" xmlns:xlink="http://www.w3.org/1999/xlink" x="0px" y="0px"
	 width="98.408px" height="98.408px" viewBox="0 0 98.408 98.408" enable-background="new 0 0 98.408 98.408" xml:space="preserve">
<g>
	<g>
		<path fill="#1F50A4" stroke="#1F50A4" stroke-width="0.5" stroke-miterlimit="10" d="M31.276,58.638h-6.789
			c-0.692,0-1.252,0.56-1.252,1.252v18.602c0,0.692,0.56,1.252,1.252,1.252h6.789c0.692,0,1.252-0.56,1.252-1.252V59.89
			C32.528,59.199,31.968,58.638,31.276,58.638z M30.024,77.241h-4.285V61.143h4.285V77.241z"/>
		<path fill="#1F50A4" stroke="#1F50A4" stroke-width="0.5" stroke-miterlimit="10" d="M87.554,31.448
			c0-0.211-0.057-0.406-0.149-0.581c-0.047-0.195-0.124-0.383-0.266-0.542l-11.57-12.909C75.331,17.151,74.992,17,74.636,17H29.025
			c-0.364,0-0.709,0.158-0.947,0.433L16.413,30.915c-0.421,0.486-0.405,1.212,0.037,1.68l21.038,22.248
			c-1.331,1.695-2.486,3.173-2.911,3.758c-0.056,0.077-0.099,0.159-0.135,0.243c-0.002,0.006-0.004,0.012-0.006,0.018
			c-0.028,0.068-0.052,0.138-0.067,0.208c-0.005,0.025-0.006,0.051-0.01,0.076c-0.009,0.056-0.017,0.111-0.018,0.167
			c0,0.006-0.002,0.011-0.002,0.017l-0.095,18.996c-0.003,0.687,0.548,1.249,1.236,1.258l7.98,0.105
			c0.074,0.014,0.15,0.023,0.227,0.023h1.519h0.017h14.779c2.279,0,3.934-1.74,3.934-4.137c0-0.496-0.088-0.976-0.211-1.405
			c1.933-0.449,3.144-1.654,3.335-3.407c0.227-2.076-0.332-3.346-1.162-4.119c0.631-0.679,1.209-1.575,1.217-2.58
			c0.013-1.508-0.514-2.542-1.193-3.221c0.8-0.893,1.264-2.064,1.264-3.323c0-0.932-0.262-1.801-0.708-2.547l20.047-22.295
			C87.11,32.571,87.554,32.063,87.554,31.448z M62.22,52.539l-3.925-0.046l6.16-19.793h18.684L64.696,53.21
			C63.965,52.786,63.121,52.539,62.22,52.539z M52.262,43.621c-0.582-1.652-2.773-4.55-4.605-5.169
			c-0.881-0.297-2.471-0.395-3.78,0.019L41.973,32.7h19.859l-6.15,19.763l-3.618-0.042C52.427,50.065,52.968,45.622,52.262,43.621z
			 M39.052,52.852L19.996,32.7h19.34l2.461,7.459c0.017,0.053,0.051,0.095,0.074,0.143c-0.242,0.899-0.042,2.027,0.201,3.374
			c0.342,1.899,0.769,4.262-0.276,5.65C41.266,50.029,40.192,51.401,39.052,52.852z M28.763,20.469l9.164,9.727h-17.58
			L28.763,20.469z M51.853,20.571l8.691,9.625H42.68L51.853,20.571z M54.264,19.504h18.198l-9.292,9.863L54.264,19.504z
			 M40.3,29.063l-9.006-9.559h18.116L40.3,29.063z M65.83,30.196l9.138-9.698l8.692,9.698H65.83z M63.434,62.223
			c0.122,0.016,1.191,0.203,1.177,1.82c-0.004,0.418-0.865,1.3-1.601,1.779c-0.42,0.27-0.639,0.764-0.558,1.257
			c0.081,0.493,0.448,0.89,0.932,1.011c0.743,0.186,1.394,0.509,1.186,2.402c-0.13,1.192-1.732,1.37-2.675,1.37
			c-0.46,0-0.882,0.252-1.101,0.656c-0.219,0.404-0.198,0.896,0.053,1.281c0.006,0.009,0.585,0.933,0.585,1.777
			c0,0.491-0.139,1.633-1.429,1.633H45.239l-8.485-0.111l0.087-17.343c0.662-0.877,2.087-2.69,3.471-4.453
			c1.455-1.852,2.829-3.601,3.484-4.47c1.703-2.262,1.147-5.348,0.74-7.601c-0.135-0.747-0.335-1.857-0.26-2.234
			c0.364-0.284,1.817-0.43,2.579-0.172c0.843,0.284,2.607,2.387,3.045,3.629c0.533,1.51-0.051,6.306-0.545,8.973
			c-0.067,0.363,0.03,0.738,0.264,1.023c0.235,0.285,0.583,0.452,0.953,0.457l11.633,0.135c1.366,0,2.477,1.111,2.477,2.477
			c0,1.017-0.609,1.92-1.553,2.3c-0.528,0.213-0.846,0.754-0.775,1.319C62.426,61.703,62.87,62.149,63.434,62.223z"/>
	</g>
</g>
</svg>
