<?xml version="1.0" encoding="utf-8"?>
<!-- Generator: Adobe Illustrator 17.0.0, SVG Export Plug-In . SVG Version: 6.00 Build 0)  -->
<!DOCTYPE svg PUBLIC "-//W3C//DTD SVG 1.1//EN" "http://www.w3.org/Graphics/SVG/1.1/DTD/svg11.dtd">
<svg version="1.1" id="Слой_1" xmlns="http://www.w3.org/2000/svg" xmlns:xlink="http://www.w3.org/1999/xlink" x="0px" y="0px"
	 width="98.408px" height="98.408px" viewBox="0 0 98.408 98.408" enable-background="new 0 0 98.408 98.408" xml:space="preserve">
<g>
	<g>
		
			<circle fill="none" stroke="#1F50A4" stroke-width="3" stroke-linecap="round" stroke-linejoin="round" stroke-miterlimit="10" cx="52.799" cy="22.052" r="7.052"/>
		<path fill="none" stroke="#1F50A4" stroke-width="3" stroke-linecap="round" stroke-linejoin="round" stroke-miterlimit="10" d="
			M62.23,41.884c0,1.855-1.503,3.358-3.358,3.358H46.588c-1.855,0-3.358-1.503-3.358-3.358V35.6c0-1.855,1.503-3.358,3.358-3.358
			h12.284c1.855,0,3.358,1.503,3.358,3.358V41.884z"/>
	</g>
	<g>
		
			<circle fill="none" stroke="#1F50A4" stroke-width="3" stroke-linecap="round" stroke-linejoin="round" stroke-miterlimit="10" cx="29.426" cy="57.111" r="7.052"/>
		<path fill="none" stroke="#1F50A4" stroke-width="3" stroke-linecap="round" stroke-linejoin="round" stroke-miterlimit="10" d="
			M38.23,76.884c0,1.855-1.503,3.358-3.358,3.358H22.588c-1.855,0-3.358-1.503-3.358-3.358V70.6c0-1.855,1.503-3.358,3.358-3.358
			h12.284c1.855,0,3.358,1.503,3.358,3.358V76.884z"/>
	</g>
	<g>
		
			<circle fill="none" stroke="#1F50A4" stroke-width="3" stroke-linecap="round" stroke-linejoin="round" stroke-miterlimit="10" cx="73.668" cy="57.111" r="7.052"/>
		<path fill="none" stroke="#1F50A4" stroke-width="3" stroke-linecap="round" stroke-linejoin="round" stroke-miterlimit="10" d="
			M82.23,76.884c0,1.855-1.503,3.358-3.358,3.358H66.588c-1.855,0-3.358-1.503-3.358-3.358V70.6c0-1.855,1.503-3.358,3.358-3.358
			h12.284c1.855,0,3.358,1.503,3.358,3.358V76.884z"/>
	</g>
	
		<polyline fill="none" stroke="#1F50A4" stroke-width="3" stroke-linecap="round" stroke-linejoin="round" stroke-miterlimit="10" points="
		47.234,65.084 52.521,59.798 57.39,65.084 	"/>
	
		<line fill="none" stroke="#1F50A4" stroke-width="3" stroke-linecap="round" stroke-linejoin="round" stroke-miterlimit="10" x1="52.23" y1="59.742" x2="52.23" y2="46.742"/>
</g>
</svg>
