<?xml version="1.0" encoding="utf-8"?>
<!-- Generator: Adobe Illustrator 24.0.0, SVG Export Plug-In . SVG Version: 6.00 Build 0)  -->
<svg version="1.1" id="Слой_1" xmlns="http://www.w3.org/2000/svg" xmlns:xlink="http://www.w3.org/1999/xlink" x="0px" y="0px"
	 viewBox="0 0 324.1 86.8" style="enable-background:new 0 0 324.1 86.8;" xml:space="preserve">
<style type="text/css">
	.st0{fill:#FFFFFF;}
	.st1{font-family:'Georgia-Bold';}
	.st2{font-size:68.06px;}
	.st3{fill-rule:evenodd;clip-rule:evenodd;fill:#FFFFFF;}
</style>
<title>logo-white</title>
<g id="Слой_2_1_">
	<g id="Слой_1-2">
		<text transform="matrix(1 0 0 1 90.8835 64.585)" class="st0 st1 st2">HOMS</text>
		<path class="st3" d="M38.5,10.8L38.5,10.8L38.5,10.8h-0.2l-0.2,0.1h-0.3l-0.3,0.1L37.2,11l-0.4,0.2l-0.4,0.1L36,11.4l-1,0.3
			l-1,0.3l-1.1,0.3l-1.2,0.3l-1.2,0.4L28,13.7l-1.2,0.4l-1.1,0.4l-1,0.4l-0.9,0.4l0.8-0.5l0.4-0.3l0.4-0.3l0.5-0.4l0.5-0.4l0.6-0.4
			l0.6-0.5l0.7-0.6l0.8-0.6l0.9-0.7l1-0.8l0.5-0.4L32,8.9l0.5-0.4L33.1,8l0.6-0.5L34.4,7l0.7-0.6l0.7-0.6l0.5-0.2l0.6-0.1h0.5
			L38,5.6l0.5,0.2l0.5,0.3l0.4,0.4L39.7,7l0.2,0.6L40,8.1v0.5l-0.1,0.5l-0.2,0.5L39.3,10L39,10.4L38.5,10.8z M70.2,25.2l-0.7-0.6
			l-0.7-0.6l-0.7-0.5L67.5,23l-0.6-0.5l-0.6-0.5l-0.5-0.5l-0.5-0.4l-0.9-0.8l-0.9-0.7l-0.8-0.6L62,18.4l-0.6-0.5l-0.5-0.4L60.3,17
			l-0.5-0.4l-0.4-0.3L59,16l-0.9-0.5l-0.9-0.4l-0.5-0.2l-0.5-0.2l-0.6-0.2l-0.6-0.2l-0.7-0.2l-0.8-0.2l-0.8-0.3l-1-0.3L50.7,13
			l-1.2-0.4l-0.6-0.1l-0.7-0.2l-0.7-0.2l-0.7-0.2l-0.8-0.3l-0.8-0.3l-0.9-0.3l-0.9-0.3l-0.5-0.4l-0.4-0.4l-0.3-0.4L42,9.1l-0.1-0.5
			V8.1L42,7.5L42.2,7l0.3-0.5l0.4-0.4l0.5-0.3l0.5-0.2l0.5-0.1h0.5l0.6,0.1L46,5.8l0.7,0.6L47.4,7l0.7,0.5l0.6,0.5l0.6,0.5L49.9,9
			l0.6,0.5L51,9.9l0.9,0.8l0.9,0.8l0.8,0.6l0.7,0.6l0.6,0.5l0.6,0.4l0.5,0.4l0.5,0.4l0.5,0.3l0.4,0.3l0.8,0.5l0.9,0.4l0.5,0.2
			l0.5,0.2l0.6,0.2l0.6,0.2l0.7,0.2l0.8,0.2l0.8,0.2l1,0.3l1.1,0.3l1.2,0.4l0.7,0.2l0.7,0.2l0.7,0.2l0.7,0.2l0.8,0.3l0.8,0.3
			l0.9,0.3l0.9,0.3l0.5,0.3l0.4,0.4l0.3,0.5l0.2,0.5l0.1,0.5V23l-0.1,0.5l-0.2,0.5l-0.3,0.5l-0.4,0.4l-0.4,0.3l-0.5,0.2l-0.6,0.1
			h-0.5l-0.6-0.1L70.2,25.2z M72.5,57l0.2-0.8l0.2-0.8l0.2-0.8l0.2-0.7l0.2-0.7l0.2-0.7l0.3-1.2l0.2-1.1l0.2-1l0.2-0.9l0.2-0.8
			l0.2-0.7l0.2-0.6l0.1-0.6l0.1-0.5l0.1-0.5l0.1-0.5V43v-0.9l-0.1-0.5l-0.1-0.5L75,40.6L74.9,40l-0.2-0.7l-0.2-0.7l-0.2-0.8
			l-0.2-0.9l-0.2-1l-0.2-1.1l-0.3-1.2l-0.2-0.7l-0.2-0.7L73,31.4l-0.1-0.7l-0.2-0.8L72.5,29l0.1-0.6l0.2-0.5l0.2-0.5l0.4-0.4
			l0.4-0.3l0.5-0.2l0.5-0.2l0.6-0.1l0.6,0.1l0.5,0.2l0.5,0.2l0.4,0.3l0.4,0.4l0.3,0.5l0.2,0.5l0.1,0.6l-0.2,0.9l-0.2,0.8l-0.2,0.8
			l-0.2,0.7l-0.2,0.7l-0.1,0.6l-0.3,1.3l-0.3,1.1l-0.2,1l-0.2,0.9L76,38.6l-0.2,0.7L75.7,40l-0.1,0.6l-0.1,0.5l-0.1,0.5l-0.1,0.5V43
			v0.9l0.1,0.5l0.1,0.5l0.1,0.5l0.1,0.6l0.1,0.6l0.2,0.7l0.2,0.8l0.2,0.9l0.2,1l0.3,1.1l0.3,1.2l0.1,0.7l0.2,0.7l0.2,0.7l0.2,0.8
			l0.2,0.8l0.2,0.8L78,57.5l-0.2,0.5l-0.3,0.5l-0.4,0.4l-0.4,0.3l-0.5,0.3l-0.5,0.2l-0.6,0.1l-0.6-0.1l-0.5-0.2l-0.5-0.3l-0.4-0.3
			L73,58.5l-0.2-0.5l-0.2-0.5L72.5,57z M43.5,75.1l0.9-0.3l0.9-0.3l0.8-0.3l0.8-0.2l0.7-0.2l0.7-0.2l0.7-0.2l0.7-0.2l1.2-0.3l1-0.3
			l0.9-0.3l0.9-0.3l0.8-0.2l0.7-0.2l0.6-0.2l0.6-0.2l0.5-0.2l0.5-0.2l0.9-0.4l0.8-0.5l0.4-0.3l0.5-0.3l0.5-0.4l0.5-0.4l0.6-0.5
			l0.6-0.5l0.7-0.6l0.8-0.7l0.8-0.7l0.9-0.8l0.5-0.4l0.5-0.5l0.6-0.5l0.6-0.5l0.6-0.5l0.7-0.5l0.7-0.6l0.7-0.6l0.5-0.2l0.6-0.1h0.5
			l0.5,0.1l0.5,0.2l0.4,0.3l0.4,0.4l0.3,0.5l0.2,0.5l0.1,0.6v0.5L74.3,64l-0.2,0.5L73.8,65l-0.4,0.4l-0.5,0.3L72,66l-0.9,0.3
			l-0.8,0.2l-0.8,0.3l-0.7,0.2l-0.7,0.2l-0.7,0.2l-0.7,0.2l-1.2,0.3l-1.1,0.3l-1,0.3l-0.9,0.3L61.9,69l-0.7,0.2l-0.6,0.2L60,69.6
			l-0.5,0.2L59,70l-0.8,0.4l-0.8,0.5l-0.4,0.3l-0.4,0.3L56,71.8l-0.5,0.4l-0.6,0.5l-0.6,0.5l-0.7,0.6l-0.8,0.7L52,75.3L51,76
			l-0.5,0.4L50,76.9l-0.6,0.5l-0.6,0.5l-0.6,0.5l-0.7,0.5l-0.7,0.6L46,80.1l-0.5,0.2L45,80.4h-0.6l-0.5-0.1l-0.5-0.2L43,79.8
			l-0.4-0.4L42.3,79L42,78.5l-0.1-0.6v-0.5l0.1-0.5l0.2-0.5l0.3-0.4l0.4-0.4L43.5,75.1z M11.7,60.8l0.7,0.6l0.7,0.6l0.7,0.6l0.6,0.5
			l0.6,0.5l0.6,0.5l0.5,0.4l0.5,0.4l1,0.8l0.9,0.7l0.8,0.7l0.7,0.6l0.6,0.5l0.6,0.4l0.5,0.4l0.5,0.4l0.5,0.3l0.4,0.3l0.9,0.5
			L23,70.1l-0.5-0.2L22,69.7l-0.6-0.2l-0.6-0.2l-0.7-0.2l-0.8-0.2l-0.9-0.3l-1-0.3L16.4,68l-1.2-0.3l-0.6-0.2l-0.7-0.2L13.2,67
			l-0.8-0.2l-0.8-0.3l-0.8-0.2L10,66.1l-0.9-0.3l-0.5-0.3l-0.4-0.4l-0.3-0.4l-0.2-0.5l-0.1-0.5v-0.5l0.1-0.5L7.9,62l0.3-0.5l0.4-0.4
			l0.4-0.3l0.5-0.2l0.5-0.1h0.5l0.6,0.1L11.7,60.8z M23.9,70.4l0.9,0.4l0.5,0.2l0.5,0.2l0.6,0.2l0.6,0.2l0.7,0.2l0.8,0.2l0.9,0.2
			l1,0.3l1.1,0.3l1.2,0.3l0.7,0.2l0.7,0.2l0.7,0.2l0.7,0.2l0.8,0.2l0.8,0.2l0.9,0.3l0.9,0.3l0.5,0.3l0.4,0.4l0.3,0.4l0.2,0.5
			l0.1,0.5v0.5L40,78.4l-0.2,0.5l-0.3,0.5l-0.4,0.4L38.7,80l-0.5,0.2l-0.5,0.1h-0.5l-0.6-0.1L36,80l-0.7-0.6l-0.7-0.6l-0.7-0.5
			l-0.7-0.5l-0.6-0.5L32,76.9l-0.6-0.4L31,76L30,75.2l-0.8-0.7l-0.8-0.7l-0.7-0.6l-0.6-0.5l-0.6-0.5L26,71.9l-0.5-0.4l-0.4-0.3
			l-0.4-0.3L23.9,70.4z M9.4,28.8l-0.2,0.9l-0.2,0.9L9,31.3l-0.2,0.7l-0.2,0.7l-0.1,0.7l-0.3,1.3L8,35.8l-0.2,1l-0.2,0.9l-0.2,0.8
			l-0.2,0.7L7,39.9l-0.1,0.6L6.9,41l-0.1,0.5L6.7,42v0.9v0.9l0.1,0.5l0.1,0.5l0.1,0.5L7,45.9l0.1,0.7l0.2,0.7l0.2,0.8L7.7,49L8,50
			l0.3,1.1l0.3,1.3l0.1,0.7l0.2,0.7L9,54.5l0.1,0.8l0.2,0.8L9.4,57v0.6l-0.2,0.5L9,58.6L8.7,59l-0.4,0.3l-0.5,0.3l-0.5,0.2l-0.6,0.1
			l-0.6-0.1l-0.5-0.2l-0.5-0.3L4.7,59l-0.3-0.4l-0.2-0.5L4,57.6l-0.1-0.5L4,56.2l0.2-0.8l0.2-0.8l0.2-0.8l0.2-0.7l0.2-0.7l0.3-1.3
			l0.3-1.1l0.2-1l0.2-0.9L6,47.4l0.2-0.7L6.3,46l0.1-0.6l0.1-0.5l0.1-0.5l0.1-0.5v-0.9v-0.9l-0.1-0.5L6.5,41l-0.1-0.5l-0.1-0.6
			l-0.1-0.7L6,38.5l-0.2-0.8l-0.2-0.9l-0.2-1l-0.3-1.1l-0.2-1.3l-0.1-0.7L4.6,32l-0.2-0.7l-0.2-0.8L4,29.7l-0.2-0.9l0.1-0.6l0.2-0.5
			l0.2-0.5l0.3-0.4l0.4-0.3l0.5-0.2l0.5-0.2l0.6-0.1l0.6,0.1l0.5,0.2l0.5,0.2l0.4,0.4L9,27.3l0.2,0.5l0.2,0.5L9.4,28.8z M23.9,15.4
			L23.9,15.4L11.7,25l-0.5,0.2l-0.6,0.1h-0.5l-0.5-0.1l-0.5-0.2l-0.4-0.3l-0.4-0.4l-0.3-0.5l-0.2-0.5l-0.1-0.6v-0.5l0.1-0.5l0.2-0.5
			l0.3-0.5l0.4-0.4l0.5-0.3l0.9-0.3l0.9-0.3l0.8-0.3l0.8-0.2l0.7-0.2l0.7-0.2l0.7-0.2l0.6-0.2l1.2-0.3l1.1-0.3l1-0.3l0.9-0.3
			l0.8-0.2l0.7-0.2l0.6-0.2l0.6-0.2l0.5-0.2l0.5-0.2L23.9,15.4z"/>
		<path class="st3" d="M10.4,21.1l0.8,0H12l0.7,0h0.7l1.3,0.1l1.2,0.1l1.1,0.1l1,0.1l0.9,0.1l0.8,0.1h0.7H21h0.6h0.5h0.5H23l0.8-0.1
			L23,21.9L22.6,22l-0.5,0.2l-0.5,0.2l-0.5,0.2l-0.6,0.2L19.9,23l-0.8,0.5l-0.8,0.3l-0.9,0.4l-1,0.4l-1.1,0.5l-1.2,0.4l-0.6,0.3
			l-0.7,0.3L12,26.4l-0.8,0.3h-0.6l-0.5-0.1l-0.5-0.2l-0.4-0.3l-0.4-0.4l-0.3-0.4l-0.2-0.5l-0.1-0.6v-0.6l0.1-0.5l0.2-0.5l0.3-0.5
			L9,21.8l0.4-0.3l0.5-0.3L10.4,21.1z M45.7,17.1l0.8,0.3l0.7,0.3l0.7,0.3l0.7,0.3l1.2,0.5l1.1,0.4l1,0.4l0.9,0.4l0.8,0.3l0.7,0.3
			l0.7,0.3l0.6,0.2l0.5,0.2l0.5,0.2l0.4,0.1l0.4,0.1l0.8,0.2l-0.9-0.1h-0.9h-1h-1.1L52,22l-1.2,0l-1,0.1l-1,0.1l-1,0.1L47,22.4
			l-0.8,0.1l-0.3,0h-0.3h-0.3l-0.2,0H45h-0.1h-0.1l0,0l-0.5,0l-0.5-0.2L43.3,22L43,21.5l-0.3-0.5l-0.2-0.5L42.4,20v-0.6l0.2-0.5
			l0.2-0.5l0.3-0.4l0.4-0.4l0.5-0.3l0.5-0.2l0.5-0.1L45.7,17.1z M58.2,22l0.8,0.1h0.5h0.5h0.5H61l0.6,0h0.7l0.8-0.1l0.9-0.1l1-0.1
			l1.1-0.1l1.2-0.2h1.3h0.7h0.8h0.8l0.8,0l0.5,0.2l0.5,0.2l0.4,0.3l0.3,0.4l0.3,0.5l0.2,0.5l0.1,0.5l0,0.4l-0.2,0.5l-0.2,0.5
			L73.1,26l-0.4,0.4l-0.5,0.3l-0.5,0.2l-0.5,0.1h-0.6L58.2,22z M23.9,21.9l0.8-0.2l0.4-0.1l0.5-0.2l0.5-0.1l0.5-0.2l0.6-0.2l0.6-0.3
			l0.7-0.3l0.8-0.3l0.9-0.4l1-0.4l1.1-0.5l1.2-0.5l0.7-0.3l0.7-0.3l0.7-0.3l0.8-0.3H37l0.5,0.1l0.5,0.2l0.5,0.3l0.4,0.4l0.3,0.4
			l0.2,0.5l0.2,0.5V20l-0.1,0.5l-0.2,0.5l-0.3,0.5l-0.4,0.4l-0.4,0.3l-0.5,0.3l-0.6,0.1h-0.8l-0.8-0.1h-0.8l-0.7,0l-1.3-0.1
			l-1.2-0.1l-1.1-0.1l-1-0.1L28.7,22L27.9,22l-0.7-0.1h-0.6h-0.6h-0.5h-0.9H23.9z"/>
		<path class="st3" d="M43.7,10.5l-0.7,0.5l-0.7,0.6l-0.7,0.6L41,12.8l2.8,2.2v0.6l-0.2,0.5l-0.2,0.5L43,17l-0.4,0.3l-0.5,0.3
			l-0.5,0.1l-0.6,0.1h-0.6l-0.6-0.3l-0.5-0.3L39,17l-0.3-0.4L38.4,16l-0.1-0.5L38.2,15l2.8-2.2l-0.4-0.1l-0.3-0.2L40,12.2l-0.3-0.3
			l-0.3-0.3l-0.3-0.3l-0.4-0.4l-0.5-0.4V10l0.2-0.5L38.6,9l0.3-0.4l0.4-0.4L39.8,8l0.5-0.2l0.6-0.1h0.6L42,7.9l0.5,0.2l0.4,0.3
			l0.4,0.4l0.3,0.5l0.2,0.5L43.7,10.5z M18.5,49.7l0.7-0.8l0.6-0.7l0.6-0.7l0.6-0.7l0.6-0.6l0.6-0.6l0.5-0.6l0.5-0.5l0.5-0.5
			l0.5-0.5l0.8-0.9l0.7-0.8l0.7-0.7l0.6-0.7l0.6-0.6l0.5-0.5l0.4-0.5l0.4-0.5l0.4-0.5l0.6-0.9l-0.5,0.8l-0.5,0.9l-0.5,1l-0.5,1.1
			l-1,2.2l-0.9,2.3l-0.5,1.1l-0.4,1.1l-0.4,1l-0.4,0.9L24,50.2l-0.3,0.7l-0.1,0.3l-0.1,0.3l-0.1,0.3l-0.1,0.2l17.5,2.8h1l1.2-0.1
			l1.2-0.1l1.3-0.1l1.3-0.2l1.3-0.2l2.6-0.4l1.3-0.2l1.2-0.2l1.1-0.2l1-0.2l1-0.2l0.4-0.1l0.4-0.1l0.4-0.1l0.3-0.1l0.3-0.1h0.2
			l-6.4-15.5l-0.6-0.9l-0.6-0.9l-0.7-0.9l-0.8-1l-1.7-2l-0.9-1l-0.9-0.9l-0.8-0.9l-0.8-0.9l-0.8-0.8l-0.7-0.7l-0.3-0.3l-0.3-0.2
			l-0.3-0.3L41.7,25l-0.2-0.2l-0.2-0.2l-0.2-0.1L41,24.4L29.9,37l0.5-0.9l0.3-0.5l0.3-0.5l0.3-0.6l0.3-0.7l0.3-0.7l0.3-0.8l0.4-0.9
			l0.4-1l0.5-1.1l0.3-0.6l0.2-0.6l0.3-0.7l0.3-0.7l0.3-0.8l0.3-0.8l0.3-0.8l0.4-0.9l0.4-0.9l0.4-1l0.3-0.5l0.4-0.4l0.5-0.3l0.5-0.1
			l0.5-0.1h0.5l0.5,0.2l0.5,0.3l0.4,0.3l0.3,0.4l0.4-0.4l0.4-0.3l0.5-0.3l0.5-0.1l0.5,0l0.5,0.1l0.5,0.2l0.4,0.3l0.4,0.4l0.3,0.5
			l0.4,1l0.4,0.9l0.3,0.9l0.3,0.8l0.3,0.8l0.3,0.8l0.3,0.7l0.3,0.7l0.3,0.6l0.3,0.6l0.4,1.1l0.4,1l0.3,0.9l0.3,0.8l0.3,0.7l0.3,0.7
			l0.3,0.6l0.2,0.6l0.3,0.5l0.5,0.9l0.6,0.9l0.3,0.4l0.4,0.5l0.4,0.5l0.5,0.5l0.5,0.6l0.6,0.6l0.7,0.7l0.7,0.8l0.8,0.9l0.5,0.5
			l0.5,0.5l0.5,0.5l0.5,0.6l0.5,0.6l0.6,0.6l0.6,0.7l0.6,0.7l0.7,0.7l0.7,0.8l0.3,0.5l0.2,0.5v0.5l-0.1,0.5l-0.2,0.5l-0.3,0.5
			l-0.4,0.4l-0.5,0.4L62,53.7l-0.5,0.2l0.1,0.3l0.1,0.3v0.3v0.3l-0.1,0.6l-0.2,0.5l-0.3,0.5L60.9,57l-0.4,0.3L60,57.6l-0.5,0.2h-0.6
			l-1.1-0.2l-1-0.2l-1-0.2l-1-0.2L53.9,57L53,56.8l-0.8-0.2l-0.7-0.1l-0.7-0.1l-0.7-0.1l-0.7-0.1l-0.6-0.1l-1.2-0.2l-1-0.2l-1-0.1
			l-0.8-0.2l-0.8-0.1l-0.7-0.1L42.7,55L42.1,55H41h-1.1L39.2,55l-0.7,0.1l-0.7,0.1l-0.8,0.1l-0.8,0.1l-0.9,0.2l-1,0.2L33.1,56
			l-0.6,0.1l-0.7,0.1l-0.7,0.1l-0.8,0.1l-0.8,0.1l-0.8,0.1l-0.9,0.2L27,57L26,57.1l-1,0.2L24,57.5l-1.1,0.2l-0.6-0.1l-0.5-0.2
			l-0.5-0.3l-0.4-0.3l-0.3-0.4l-0.3-0.5l-0.2-0.5v-0.6v-0.5l0.1-0.4l-0.4-0.1l-0.4-0.2l-0.4-0.3l-0.4-0.4l-0.3-0.5l-0.2-0.5
			l-0.1-0.5v-0.5l0.1-0.5L18.5,49.7z"/>
		<polygon class="st3" points="10.8,27.5 10.8,27.5 10.8,27.6 10.8,27.7 10.8,27.9 10.9,28.1 10.9,28.3 10.9,28.6 10.9,29 11,29.7 
			11.1,30.5 11.1,31.4 11.3,32.4 11.5,34.5 11.7,35.5 11.8,36.5 12,37.4 12.2,38.3 12.4,39 12.5,39.4 12.6,39.7 19.7,49.8 
			19.8,50.4 19.9,50.9 19.8,51.5 19.6,52 19.4,52.4 19,52.8 18.6,53.2 18.1,53.4 17.5,53.6 17,53.6 16.4,53.6 15.9,53.4 15.5,53.2 
			15,52.8 14.7,52.4 14.4,51.9 12.6,39.7 12.3,39 11.9,38.2 11.4,37.4 10.9,36.5 9.8,34.8 9.2,34 8.5,33.2 8,32.5 7.4,31.8 
			6.9,31.2 6.5,30.6 6.3,30.4 6.1,30.2 6,30 5.8,29.8 5.7,29.7 5.7,29.6 5.6,29.6 5.6,29.5 5.4,29 5.4,28.4 5.5,27.9 5.6,27.4 
			5.9,26.9 6.2,26.5 6.7,26.2 7.2,25.9 7.7,25.7 8.3,25.7 8.8,25.8 9.3,25.9 9.8,26.2 10.2,26.5 10.5,27 		"/>
		<path class="st3" d="M76.3,29.7l-0.4,0.6l-0.4,0.6L74.7,32L74,33l-0.7,0.9l-0.6,0.8l-0.5,0.7L71.7,36l-0.4,0.6l-0.4,0.5l-0.4,0.5
			L70.3,38L70,38.3l-0.2,0.4L69.6,39l-0.3,0.7L69,40.5l-0.1,0.4l-0.1,0.4l-0.1,0.5l-0.1,0.5l-0.1,0.5l-0.1,0.6l-0.1,0.7l-0.1,0.8
			l-0.1,0.9l-0.1,1L68,47.9L67.9,49l-0.2,1.3L67.6,51l-0.1,0.7l-0.3,0.5l-0.3,0.4L66.4,53L66,53.3l-0.5,0.2l-0.6,0.1h-0.6l-0.5-0.2
			l-0.5-0.3l-0.4-0.4l-0.4-0.4l-0.3-0.5l-0.2-0.5L62,50.8l0-0.6l0.2-0.5l0.4-0.6l0.4-0.6l0.8-1.1l0.7-1l0.7-0.9l0.6-0.8l0.5-0.7
			l0.5-0.7l0.4-0.6l0.4-0.5l0.3-0.5l0.3-0.4l0.3-0.4l0.3-0.4l0.2-0.3l0.3-0.7l0.3-0.7l0.1-0.4l0.1-0.4l0.1-0.5l0.1-0.5l0.1-0.6
			L70,36l0.1-0.7l0.1-0.8l0.1-0.9l0.1-1l0.1-1.1l0.2-1.2l0.2-1.3l0.1-0.7l0.1-0.7l0.3-0.5l0.3-0.4l0.4-0.4l0.5-0.3l0.5-0.2l0.5-0.1
			h0.6l0.5,0.2l0.5,0.3l0.4,0.3l0.4,0.4l0.2,0.5l0.2,0.5l0.1,0.5v0.6L76.3,29.7z M68.3,54.3l0.2,0.9l0.3,0.9l0.5,1.9l3.6-1.2
			l0.5,0.3l0.4,0.4l0.3,0.4l0.2,0.5l0.1,0.5v0.5L74.2,60L74,60.5L73.7,61l-0.4,0.4l-0.4,0.3l-0.5,0.2L71.8,62h-0.5l-0.6-0.1
			l-0.5-0.2l-1-3.7L69,58l-0.2,0.1l-0.3,0.1l-0.2,0.1l-0.2,0.1l-0.2,0l-0.1,0.1l-0.2,0.1l-0.3,0.1L67,58.7l-0.4,0.1L66.2,59
			l-0.5,0.2l-0.5-0.3l-0.4-0.4L64.5,58l-0.2-0.5L64.2,57v-0.5l0.1-0.5l0.2-0.5l0.3-0.5l0.4-0.4l0.5-0.3l0.5-0.2l0.5-0.1h0.5l0.5,0.1
			L68.3,54.3z"/>
		<path class="st3" d="M62.5,59.7L62.5,59.7L62.5,59.7l-0.2,0.1l-0.2,0.1L62,60l-0.2,0.1l-0.3,0.2l-0.3,0.2l-0.7,0.4l-0.8,0.5
			L59,61.9l-0.9,0.6l-1.8,1.2l-0.9,0.6l-0.8,0.6l-0.8,0.6l-0.7,0.6l-0.6,0.5l-0.2,0.3L52.2,67l0.5-0.6l0.3-0.4l0.2-0.4l0.3-0.4
			l0.2-0.5l0.3-0.5l0.3-0.6l0.3-0.7l0.4-0.7l0.4-0.8l0.5-0.9l0.5-1l0.6-1l0.3-0.6l0.3-0.6l0.4-0.7l0.4-0.7l0.5-0.5l0.5-0.3l0.5-0.2
			l0.5-0.1h0.5l0.5,0.1l0.5,0.2l0.5,0.3l0.4,0.4l0.3,0.5l0.2,0.5l0.1,0.5v0.5l-0.1,0.5l-0.2,0.5L62.5,59.7z M16.2,59.2l-0.3-0.1
			L15.5,59L15,58.8l-0.5-0.2l-0.4-0.2l-0.3-0.1l-0.3-0.1L13,58h-0.4l-0.9,3.7l-0.5,0.2L10.7,62h-0.5l-0.5-0.1l-0.5-0.2l-0.4-0.3
			l-0.4-0.4l-0.3-0.5l-0.2-0.5l-0.1-0.5V59l0.1-0.5L7.9,58l0.3-0.4l0.4-0.4L9,56.8l3.6,1.2v-0.2v-0.2l0.1-0.2v-0.2l0.1-0.2v-0.1
			v-0.2v-0.2l0.1-0.3l0.1-0.3l0.1-0.4l0.1-0.5l0.1-0.6l0.5-0.2l0.6-0.1h0.5l0.5,0.1l0.5,0.2l0.4,0.3l0.4,0.4l0.3,0.5l0.2,0.5
			l0.1,0.5v0.5l-0.1,0.5l-0.2,0.5l-0.1,0.4l-0.4,0.4L16.2,59.2z M36.1,78.3l-0.4-0.7L35.4,77L35,76.3l-0.3-0.6l-0.6-1.1l-0.5-1
			l-0.5-0.9l-0.4-0.8l-0.4-0.7l-0.3-0.7L31.6,70l-0.3-0.5L31,68.9l-0.2-0.4l-0.2-0.4l-0.3-0.3l-0.5-0.7l0.6,0.6l0.3,0.3l0.4,0.3
			l0.4,0.3l0.5,0.3l0.5,0.3l0.6,0.4l0.6,0.4l0.7,0.4l0.8,0.5l0.8,0.6l0.9,0.6l1,0.7l0.6,0.4l0.6,0.4l0.6,0.4l0.7,0.4l0.3,0.4
			l0.3,0.6l0.1,0.5v0.5l-0.1,0.5l-0.2,0.5l-0.3,0.5l-0.4,0.4l-0.5,0.3l-0.5,0.2l-0.5,0.1H38l-0.5-0.1L37,79l-0.5-0.3L36.1,78.3z
			 M29.9,67.2l-0.6-0.6L29,66.3L28.6,66l-0.4-0.3l-0.4-0.3l-0.5-0.4l-0.6-0.4l-0.6-0.4l-0.7-0.5l-0.8-0.5l-0.9-0.6l-0.9-0.6
			l-1.1-0.7l-0.6-0.4l-0.6-0.4L20,60.2l-0.6-0.4L19,59.3l-0.2-0.5l-0.1-0.5v-0.5l0.1-0.5l0.2-0.5l0.3-0.5l0.4-0.4l0.4-0.3l0.5-0.2
			l0.5-0.1h0.6l0.5,0.1l0.5,0.2l0.5,0.3l0.4,0.4l0.4,0.7l0.4,0.7l0.4,0.6l0.3,0.6l0.6,1.1l0.5,1l0.5,0.9l0.4,0.8l0.4,0.7l0.3,0.7
			l0.3,0.6l0.3,0.5l0.3,0.5l0.2,0.4l0.3,0.4l0.3,0.4L29.9,67.2z M52.2,67.1L52.2,67.1l-6.3,11.1l-0.4,0.4L45,78.9l-0.5,0.2L44,79.2
			h-0.5L43,79.1l-0.5-0.2L42,78.5l-0.4-0.4l-0.3-0.5L41.1,77L41,76.5V76l0.1-0.5l0.2-0.5l0.3-0.4l0.6-0.4l0.6-0.4l0.6-0.4l0.6-0.4
			l1-0.7l0.9-0.6l0.8-0.6l0.8-0.5l0.7-0.4l0.6-0.4l0.6-0.4l0.5-0.3l0.5-0.3l0.4-0.3l0.3-0.3l0.3-0.3L52.2,67.1z"/>
		<polygon class="st3" points="41,15 41.5,15 41.9,15.1 42.3,15.2 42.7,15.3 43,15.5 43.4,15.7 43.7,16 44,16.2 44.3,16.5 
			44.6,16.8 44.8,17.2 44.9,17.6 45.1,18 45.2,18.4 45.3,18.8 45.3,19.2 45.3,19.7 45.2,20.1 45.1,20.5 44.9,20.9 44.8,21.3 
			44.6,21.6 44.3,22 44,22.2 43.7,22.5 43.4,22.8 43,23 42.7,23.2 42.3,23.3 41.9,23.4 41.5,23.5 41,23.5 40.6,23.5 40.2,23.4 
			39.8,23.3 39.3,23.2 39,23 38.6,22.8 38.3,22.5 38,22.2 37.7,22 37.5,21.6 37.3,21.3 37.1,20.9 37,20.5 36.9,20.1 36.8,19.7 
			36.8,19.2 36.8,18.8 36.9,18.4 37,18 37.1,17.6 37.3,17.2 37.5,16.8 37.7,16.5 38,16.2 38.3,16 38.6,15.7 39,15.5 39.3,15.3 
			39.8,15.2 40.2,15.1 40.6,15 		"/>
		<polygon class="st3" points="41,15 41,14.4 41.5,14.5 42,14.5 42.4,14.6 42.9,14.8 42.7,15.3 42.5,15.8 42.1,15.7 41.8,15.6 
			41.4,15.6 41,15.6 		"/>
		<polygon class="st3" points="42.7,15.3 42.9,14.8 43.3,15 43.7,15.2 44.1,15.5 44.4,15.8 44,16.2 43.6,16.6 43.4,16.4 43.1,16.2 
			42.5,15.8 		"/>
		<polygon class="st3" points="44,16.2 44.4,15.8 44.7,16.2 45,16.5 45.3,16.9 45.5,17.3 44.9,17.6 44.4,17.8 44.1,17.2 43.9,16.9 
			43.6,16.6 		"/>
		<polygon class="st3" points="44.9,17.6 45.5,17.3 45.6,17.8 45.8,18.3 45.8,18.7 45.9,19.2 45.3,19.2 44.7,19.2 44.7,18.8 
			44.7,18.5 44.4,17.8 		"/>
		<polygon class="st3" points="45.3,19.2 45.9,19.2 45.8,19.7 45.8,20.2 45.6,20.7 45.5,21.1 44.9,20.9 44.4,20.7 44.5,20.3 
			44.7,20 44.7,19.6 44.7,19.2 		"/>
		<polygon class="st3" points="44.9,20.9 45.5,21.1 45.3,21.5 45,21.9 44.7,22.3 44.4,22.6 44,22.2 43.6,21.8 43.9,21.6 44.1,21.3 
			44.4,20.7 		"/>
		<polygon class="st3" points="44,22.2 44.4,22.6 44.1,23 43.7,23.3 43.3,23.5 42.9,23.7 42.7,23.2 42.5,22.6 43.1,22.3 43.4,22.1 
			43.6,21.8 		"/>
		<polygon class="st3" points="42.7,23.2 42.9,23.7 42.5,23.9 42,24 41.5,24.1 41,24.1 41,23.5 41,22.9 41.4,22.9 41.8,22.9 
			42.1,22.8 42.5,22.6 		"/>
		<polygon class="st3" points="41,23.5 41,24.1 40.5,24.1 40,24 39.6,23.9 39.1,23.7 39.3,23.2 39.6,22.6 40.3,22.9 40.6,22.9 
			41,22.9 		"/>
		<polygon class="st3" points="39.3,23.2 39.1,23.7 38.7,23.5 38.3,23.3 37.9,23 37.6,22.6 38,22.2 38.4,21.8 38.7,22.1 39,22.3 
			39.6,22.6 		"/>
		<polygon class="st3" points="38,22.2 37.6,22.6 37.3,22.3 37,21.9 36.8,21.5 36.6,21.1 37.1,20.9 37.6,20.7 38,21.3 38.2,21.6 
			38.4,21.8 		"/>
		<polygon class="st3" points="37.1,20.9 36.6,21.1 36.4,20.7 36.3,20.2 36.2,19.7 36.2,19.2 36.8,19.2 37.4,19.2 37.4,19.6 
			37.4,20 37.5,20.3 37.6,20.7 		"/>
		<polygon class="st3" points="36.8,19.2 36.2,19.2 36.2,18.7 36.3,18.3 36.4,17.8 36.6,17.3 37.1,17.6 37.6,17.8 37.5,18.1 
			37.4,18.5 37.4,18.8 37.4,19.2 		"/>
		<polygon class="st3" points="37.1,17.6 36.6,17.3 36.8,16.9 37,16.5 37.3,16.2 37.6,15.8 38,16.2 38.4,16.6 38.2,16.9 38,17.2 
			37.8,17.5 37.6,17.8 		"/>
		<polygon class="st3" points="38,16.2 37.6,15.8 37.9,15.5 38.3,15.2 38.7,15 39.1,14.8 39.3,15.3 39.6,15.8 39.3,16 38.9,16.2 
			38.7,16.4 38.4,16.6 		"/>
		<polygon class="st3" points="39.3,15.3 39.1,14.8 39.6,14.6 40,14.5 40.5,14.5 41,14.4 41,15 41,15.6 40.6,15.6 40.3,15.6 
			39.9,15.7 39.6,15.8 		"/>
		<polygon class="st3" points="18.6,50.5 19,50.5 19.5,50.6 19.9,50.7 20.3,50.8 20.6,51 21,51.2 21.3,51.5 21.6,51.7 21.9,52.1 
			22.2,52.4 22.4,52.7 22.5,53.1 22.7,53.5 22.8,53.9 22.9,54.3 22.9,54.7 22.9,55.2 22.8,55.6 22.7,56 22.5,56.4 22.4,56.8 
			22.2,57.1 21.9,57.5 21.6,57.8 21.3,58.1 21,58.3 20.6,58.5 20.3,58.7 19.9,58.8 19.5,58.9 19,59 18.6,59 18.2,59 17.7,58.9 
			17.3,58.8 16.9,58.7 16.6,58.5 16.2,58.3 15.9,58.1 15.6,57.8 15.3,57.5 15.1,57.1 14.9,56.8 14.7,56.4 14.5,56 14.5,55.6 
			14.4,55.2 14.4,54.7 14.4,54.3 14.5,53.9 14.5,53.5 14.7,53.1 14.9,52.7 15.1,52.4 15.3,52.1 15.6,51.7 15.9,51.5 16.2,51.2 
			16.6,51 16.9,50.8 17.3,50.7 17.7,50.6 18.2,50.5 		"/>
		<polygon class="st3" points="18.6,50.5 18.6,50 19.1,50 19.6,50 20,50.2 20.5,50.3 20.3,50.8 20.1,51.4 19.7,51.3 19.4,51.2 
			19,51.1 18.6,51.1 		"/>
		<polygon class="st3" points="20.3,50.8 20.5,50.3 20.9,50.5 21.3,50.8 21.7,51 22,51.3 21.6,51.7 21.2,52.1 20.9,51.9 20.7,51.7 
			20.1,51.4 		"/>
		<polygon class="st3" points="21.6,51.7 22,51.3 22.3,51.7 22.6,52 22.9,52.4 23.1,52.9 22.5,53.1 22,53.3 21.7,52.7 21.5,52.4 
			21.2,52.1 		"/>
		<polygon class="st3" points="22.5,53.1 23.1,52.9 23.2,53.3 23.3,53.8 23.4,54.3 23.5,54.7 22.9,54.7 22.3,54.7 22.3,54.4 
			22.2,54 22,53.3 		"/>
		<polygon class="st3" points="22.9,54.7 23.5,54.7 23.4,55.2 23.3,55.7 23.2,56.2 23.1,56.6 22.5,56.4 22,56.2 22.1,55.9 
			22.2,55.5 22.3,55.1 22.3,54.7 		"/>
		<polygon class="st3" points="22.5,56.4 23.1,56.6 22.9,57.1 22.6,57.5 22.3,57.8 22,58.2 21.6,57.8 21.2,57.4 21.5,57.1 
			21.7,56.8 22,56.2 		"/>
		<polygon class="st3" points="21.6,57.8 22,58.2 21.7,58.5 21.3,58.8 20.9,59 20.5,59.2 20.3,58.7 20.1,58.2 20.7,57.8 20.9,57.6 
			21.2,57.4 		"/>
		<polygon class="st3" points="20.3,58.7 20.5,59.2 20.1,59.4 19.6,59.5 19.1,59.6 18.6,59.6 18.6,59 18.6,58.5 19,58.4 19.4,58.4 
			19.7,58.3 20.1,58.2 		"/>
		<polygon class="st3" points="18.6,59 18.6,59.6 18.1,59.6 17.6,59.5 17.2,59.4 16.7,59.2 16.9,58.7 17.2,58.2 17.9,58.4 
			18.2,58.4 18.6,58.5 		"/>
		<polygon class="st3" points="16.9,58.7 16.7,59.2 16.3,59 15.9,58.8 15.5,58.5 15.2,58.2 15.6,57.8 16,57.4 16.3,57.6 16.6,57.8 
			17.2,58.2 		"/>
		<polygon class="st3" points="15.6,57.8 15.2,58.2 14.9,57.8 14.6,57.5 14.4,57.1 14.2,56.6 14.7,56.4 15.2,56.2 15.6,56.8 
			15.8,57.1 16,57.4 		"/>
		<polygon class="st3" points="14.7,56.4 14.2,56.6 14,56.2 13.9,55.7 13.8,55.2 13.8,54.7 14.4,54.7 15,54.7 15,55.1 15,55.5 
			15.1,55.9 15.2,56.2 		"/>
		<polygon class="st3" points="14.4,54.7 13.8,54.7 13.8,54.3 13.9,53.8 14,53.3 14.2,52.9 14.7,53.1 15.2,53.3 15.1,53.6 15,54 
			15,54.4 15,54.7 		"/>
		<polygon class="st3" points="14.7,53.1 14.2,52.9 14.4,52.5 14.6,52.1 14.9,51.7 15.2,51.3 15.6,51.7 16,52.1 15.8,52.4 
			15.6,52.7 15.4,53 15.2,53.3 		"/>
		<polygon class="st3" points="15.6,51.7 15.2,51.3 15.5,51 15.9,50.8 16.3,50.5 16.7,50.3 16.9,50.8 17.2,51.4 16.9,51.5 
			16.5,51.7 16.3,51.9 16,52.1 		"/>
		<polygon class="st3" points="16.9,50.8 16.7,50.3 17.2,50.2 17.6,50 18.1,50 18.6,50 18.6,50.5 18.6,51.1 18.2,51.1 17.9,51.2 
			17.5,51.3 17.2,51.4 		"/>
		<polygon class="st3" points="63.2,50.4 63.7,50.4 64.1,50.5 64.5,50.6 64.9,50.7 65.3,50.9 65.6,51.1 66,51.4 66.3,51.6 
			66.5,51.9 66.8,52.3 67,52.6 67.2,53 67.3,53.4 67.4,53.8 67.5,54.2 67.5,54.6 67.5,55.1 67.4,55.5 67.3,55.9 67.2,56.3 67,56.7 
			66.8,57 66.5,57.4 66.3,57.7 66,57.9 65.6,58.2 65.3,58.4 64.9,58.6 64.5,58.7 64.1,58.8 63.7,58.9 63.2,58.9 62.8,58.9 
			62.4,58.8 62,58.7 61.6,58.6 61.2,58.4 60.9,58.2 60.5,57.9 60.2,57.7 60,57.4 59.7,57 59.5,56.7 59.3,56.3 59.2,55.9 59.1,55.5 
			59,55.1 59,54.6 59,54.2 59.1,53.8 59.2,53.4 59.3,53 59.5,52.6 59.7,52.3 60,51.9 60.2,51.6 60.5,51.4 60.9,51.1 61.2,50.9 
			61.6,50.7 62,50.6 62.4,50.5 62.8,50.4 		"/>
		<polygon class="st3" points="63.2,50.4 63.2,49.8 63.7,49.9 64.2,49.9 64.7,50 65.1,50.2 64.9,50.7 64.7,51.3 64.4,51.1 64,51.1 
			63.6,51 63.2,51 		"/>
		<polygon class="st3" points="64.9,50.7 65.1,50.2 65.5,50.4 65.9,50.6 66.3,50.9 66.7,51.2 66.3,51.6 65.9,52 65.6,51.8 
			65.3,51.6 64.7,51.3 		"/>
		<polygon class="st3" points="66.3,51.6 66.7,51.2 67,51.6 67.3,51.9 67.5,52.3 67.7,52.8 67.2,53 66.7,53.2 66.3,52.6 66.1,52.3 
			65.9,52 		"/>
		<polygon class="st3" points="67.2,53 67.7,52.8 67.9,53.2 68,53.7 68.1,54.1 68.1,54.6 67.5,54.6 66.9,54.6 66.9,54.3 66.9,53.9 
			66.7,53.2 		"/>
		<polygon class="st3" points="67.5,54.6 68.1,54.6 68.1,55.1 68,55.6 67.9,56.1 67.7,56.5 67.2,56.3 66.7,56.1 66.8,55.8 
			66.9,55.4 66.9,55 66.9,54.6 		"/>
		<polygon class="st3" points="67.2,56.3 67.7,56.5 67.5,56.9 67.3,57.3 67,57.7 66.7,58.1 66.3,57.7 65.9,57.3 66.1,57 66.3,56.7 
			66.7,56.1 		"/>
		<polygon class="st3" points="66.3,57.7 66.7,58.1 66.3,58.4 65.9,58.7 65.5,58.9 65.1,59.1 64.9,58.6 64.7,58.1 65.3,57.7 
			65.6,57.5 65.9,57.3 		"/>
		<polygon class="st3" points="64.9,58.6 65.1,59.1 64.7,59.3 64.2,59.4 63.7,59.5 63.2,59.5 63.2,58.9 63.2,58.3 63.6,58.3 
			64,58.3 64.4,58.2 64.7,58.1 		"/>
		<polygon class="st3" points="63.2,58.9 63.2,59.5 62.7,59.5 62.3,59.4 61.8,59.3 61.4,59.1 61.6,58.6 61.8,58.1 62.5,58.3 
			62.9,58.3 63.2,58.3 		"/>
		<polygon class="st3" points="61.6,58.6 61.4,59.1 60.9,58.9 60.5,58.7 60.2,58.4 59.8,58.1 60.2,57.7 60.6,57.3 60.9,57.5 
			61.2,57.7 61.8,58.1 		"/>
		<polygon class="st3" points="60.2,57.7 59.8,58.1 59.5,57.7 59.2,57.3 59,56.9 58.8,56.5 59.3,56.3 59.9,56.1 60.2,56.7 60.4,57 
			60.6,57.3 		"/>
		<polygon class="st3" points="59.3,56.3 58.8,56.5 58.6,56.1 58.5,55.6 58.5,55.1 58.4,54.6 59,54.6 59.6,54.6 59.6,55 59.7,55.4 
			59.7,55.8 59.9,56.1 		"/>
		<polygon class="st3" points="59,54.6 58.4,54.6 58.5,54.1 58.5,53.7 58.6,53.2 58.8,52.8 59.3,53 59.9,53.2 59.7,53.5 59.7,53.9 
			59.6,54.3 59.6,54.6 		"/>
		<polygon class="st3" points="59.3,53 58.8,52.8 59,52.4 59.2,51.9 59.5,51.6 59.8,51.2 60.2,51.6 60.6,52 60.4,52.3 60.2,52.6 
			60,52.9 59.9,53.2 		"/>
		<polygon class="st3" points="60.2,51.6 59.8,51.2 60.2,50.9 60.5,50.6 60.9,50.4 61.4,50.2 61.6,50.7 61.8,51.3 61.5,51.4 
			61.2,51.6 60.9,51.8 60.6,52 		"/>
		<polygon class="st3" points="61.6,50.7 61.4,50.2 61.8,50 62.3,49.9 62.7,49.9 63.2,49.8 63.2,50.4 63.2,51 62.9,51 62.5,51.1 
			62.1,51.1 61.8,51.3 		"/>
		<polygon class="st3" points="75.3,20.5 75.7,20.5 76.1,20.6 76.5,20.7 76.9,20.8 77.3,21 77.6,21.2 78,21.5 78.3,21.7 78.6,22 
			78.8,22.4 79,22.7 79.2,23.1 79.3,23.5 79.4,23.9 79.5,24.3 79.5,24.7 79.5,25.2 79.4,25.6 79.3,26 79.2,26.4 79,26.8 78.8,27.1 
			78.6,27.5 78.3,27.7 78,28 77.6,28.3 77.3,28.5 76.9,28.7 76.5,28.8 76.1,28.9 75.7,29 75.3,29 74.8,29 74.4,28.9 74,28.8 
			73.6,28.7 73.2,28.5 72.9,28.3 72.6,28 72.3,27.7 72,27.5 71.7,27.1 71.5,26.8 71.4,26.4 71.2,26 71.1,25.6 71,25.2 71,24.7 
			71,24.3 71.1,23.9 71.2,23.5 71.4,23.1 71.5,22.7 71.7,22.4 72,22 72.3,21.7 72.6,21.5 72.9,21.2 73.2,21 73.6,20.8 74,20.7 
			74.4,20.6 74.8,20.5 		"/>
		<polygon class="st3" points="75.3,20.5 75.3,19.9 75.7,20 76.2,20 76.7,20.1 77.1,20.3 76.9,20.8 76.7,21.3 76.4,21.2 76,21.1 
			75.6,21.1 75.3,21.1 		"/>
		<polygon class="st3" points="76.9,20.8 77.1,20.3 77.6,20.5 78,20.7 78.3,21 78.7,21.3 78.3,21.7 77.9,22.1 77.6,21.9 77.3,21.7 
			76.7,21.3 		"/>
		<polygon class="st3" points="78.3,21.7 78.7,21.3 79,21.7 79.3,22 79.5,22.4 79.7,22.8 79.2,23.1 78.7,23.3 78.3,22.7 78.1,22.4 
			77.9,22.1 		"/>
		<polygon class="st3" points="79.2,23.1 79.7,22.8 79.9,23.3 80,23.8 80.1,24.2 80.1,24.7 79.5,24.7 79,24.7 78.9,24.3 78.9,24 
			78.7,23.3 		"/>
		<polygon class="st3" points="79.5,24.7 80.1,24.7 80.1,25.2 80,25.7 79.9,26.2 79.7,26.6 79.2,26.4 78.7,26.2 78.8,25.8 
			78.9,25.5 78.9,25.1 79,24.7 		"/>
		<polygon class="st3" points="79.2,26.4 79.7,26.6 79.5,27 79.3,27.4 79,27.8 78.7,28.2 78.3,27.7 77.9,27.3 78.1,27.1 78.3,26.8 
			78.7,26.2 		"/>
		<polygon class="st3" points="78.3,27.7 78.7,28.2 78.3,28.5 78,28.8 77.6,29 77.1,29.2 76.9,28.7 76.7,28.2 77.3,27.8 77.6,27.6 
			77.9,27.3 		"/>
		<polygon class="st3" points="76.9,28.7 77.1,29.2 76.7,29.4 76.2,29.5 75.7,29.6 75.3,29.6 75.3,29 75.3,28.4 75.6,28.4 76,28.4 
			76.4,28.3 76.7,28.2 		"/>
		<polygon class="st3" points="75.3,29 75.3,29.6 74.8,29.6 74.3,29.5 73.8,29.4 73.4,29.2 73.6,28.7 73.8,28.2 74.5,28.4 
			74.9,28.4 75.3,28.4 		"/>
		<polygon class="st3" points="73.6,28.7 73.4,29.2 72.9,29 72.5,28.8 72.2,28.5 71.9,28.2 72.3,27.7 72.7,27.3 72.9,27.6 
			73.2,27.8 73.8,28.2 		"/>
		<polygon class="st3" points="72.3,27.7 71.9,28.2 71.5,27.8 71.3,27.4 71,27 70.8,26.6 71.4,26.4 71.9,26.2 72.2,26.8 72.4,27.1 
			72.7,27.3 		"/>
		<polygon class="st3" points="71.4,26.4 70.8,26.6 70.7,26.2 70.6,25.7 70.5,25.2 70.5,24.7 71,24.7 71.6,24.7 71.6,25.1 
			71.7,25.5 71.8,25.8 71.9,26.2 		"/>
		<polygon class="st3" points="71,24.7 70.5,24.7 70.5,24.2 70.6,23.8 70.7,23.3 70.8,22.8 71.4,23.1 71.9,23.3 71.8,23.6 71.7,24 
			71.6,24.3 71.6,24.7 		"/>
		<polygon class="st3" points="71.4,23.1 70.8,22.8 71,22.4 71.3,22 71.5,21.7 71.9,21.3 72.3,21.7 72.7,22.1 72.4,22.4 72.2,22.7 
			72,23 71.9,23.3 		"/>
		<polygon class="st3" points="72.3,21.7 71.9,21.3 72.2,21 72.6,20.7 73,20.5 73.4,20.3 73.6,20.8 73.8,21.3 73.5,21.5 73.2,21.7 
			72.9,21.9 72.7,22.1 		"/>
		<polygon class="st3" points="73.6,20.8 73.4,20.3 73.8,20.1 74.3,20 74.8,20 75.3,19.9 75.3,20.5 75.3,21.1 74.9,21.1 74.5,21.1 
			74.2,21.2 73.8,21.3 		"/>
		<polygon class="st3" points="6.6,20.3 7.1,20.3 7.5,20.4 7.9,20.5 8.3,20.7 8.7,20.8 9,21 9.4,21.3 9.7,21.6 10,21.9 10.2,22.2 
			10.4,22.5 10.6,22.9 10.7,23.3 10.8,23.7 10.9,24.1 10.9,24.5 10.9,25 10.8,25.4 10.7,25.8 10.6,26.2 10.4,26.6 10.2,26.9 
			10,27.3 9.7,27.6 9.4,27.9 9,28.1 8.7,28.3 8.3,28.5 7.9,28.6 7.5,28.7 7.1,28.8 6.6,28.8 6.2,28.8 5.8,28.7 5.4,28.6 5,28.5 
			4.6,28.3 4.3,28.1 4,27.9 3.6,27.6 3.4,27.3 3.1,26.9 2.9,26.6 2.8,26.2 2.6,25.8 2.5,25.4 2.4,25 2.4,24.5 2.4,24.1 2.5,23.7 
			2.6,23.3 2.8,22.9 2.9,22.5 3.1,22.2 3.4,21.9 3.6,21.6 4,21.3 4.3,21 4.6,20.8 5,20.7 5.4,20.5 5.8,20.4 6.2,20.3 		"/>
		<polygon class="st3" points="6.6,20.3 6.6,19.8 7.1,19.8 7.6,19.8 8.1,20 8.5,20.1 8.3,20.7 8.1,21.2 7.8,21.1 7.4,21 7,20.9 
			6.6,20.9 		"/>
		<polygon class="st3" points="8.3,20.7 8.5,20.1 9,20.3 9.4,20.6 9.7,20.8 10.1,21.1 9.7,21.6 9.3,22 9,21.7 8.7,21.5 8.1,21.2 		
			"/>
		<polygon class="st3" points="9.7,21.6 10.1,21.1 10.4,21.5 10.7,21.8 10.9,22.2 11.1,22.7 10.6,22.9 10.1,23.1 9.7,22.5 9.5,22.2 
			9.3,22 		"/>
		<polygon class="st3" points="10.6,22.9 11.1,22.7 11.3,23.1 11.4,23.6 11.5,24.1 11.5,24.5 10.9,24.5 10.4,24.5 10.3,24.2 
			10.3,23.8 10.1,23.1 		"/>
		<polygon class="st3" points="10.9,24.5 11.5,24.5 11.5,25 11.4,25.5 11.3,26 11.1,26.4 10.6,26.2 10.1,26 10.2,25.7 10.3,25.3 
			10.3,24.9 10.4,24.5 		"/>
		<polygon class="st3" points="10.6,26.2 11.1,26.4 10.9,26.9 10.7,27.3 10.4,27.6 10.1,28 9.7,27.6 9.3,27.2 9.5,26.9 9.7,26.6 
			10.1,26 		"/>
		<polygon class="st3" points="9.7,27.6 10.1,28 9.7,28.3 9.4,28.6 9,28.8 8.5,29 8.3,28.5 8.1,28 8.7,27.6 9,27.4 9.3,27.2 		"/>
		<polygon class="st3" points="8.3,28.5 8.5,29 8.1,29.2 7.6,29.3 7.1,29.4 6.6,29.4 6.6,28.8 6.6,28.3 7,28.2 7.4,28.2 7.8,28.1 
			8.1,28 		"/>
		<polygon class="st3" points="6.6,28.8 6.6,29.4 6.2,29.4 5.7,29.3 5.2,29.2 4.8,29 5,28.5 5.2,28 5.9,28.2 6.3,28.2 6.6,28.3 		
			"/>
		<polygon class="st3" points="5,28.5 4.8,29 4.3,28.8 3.9,28.6 3.6,28.3 3.2,28 3.6,27.6 4,27.2 4.3,27.4 4.6,27.6 5.2,28 		"/>
		<polygon class="st3" points="3.6,27.6 3.2,28 2.9,27.6 2.7,27.3 2.4,26.9 2.2,26.4 2.8,26.2 3.3,26 3.6,26.6 3.8,26.9 4,27.2 		
			"/>
		<polygon class="st3" points="2.8,26.2 2.2,26.4 2.1,26 1.9,25.5 1.9,25 1.9,24.5 2.4,24.5 3,24.5 3,24.9 3.1,25.3 3.2,25.7 
			3.3,26 		"/>
		<polygon class="st3" points="2.4,24.5 1.9,24.5 1.9,24.1 1.9,23.6 2.1,23.1 2.2,22.7 2.8,22.9 3.3,23.1 3.2,23.5 3.1,23.8 3,24.2 
			3,24.5 		"/>
		<polygon class="st3" points="2.8,22.9 2.2,22.7 2.4,22.3 2.7,21.9 2.9,21.5 3.2,21.1 3.6,21.6 4,22 3.8,22.2 3.6,22.5 3.4,22.8 
			3.3,23.1 		"/>
		<polygon class="st3" points="3.6,21.6 3.2,21.1 3.6,20.8 4,20.6 4.4,20.3 4.8,20.1 5,20.7 5.2,21.2 4.9,21.3 4.6,21.5 4.3,21.7 
			4,22 		"/>
		<polygon class="st3" points="5,20.7 4.8,20.1 5.2,20 5.7,19.8 6.2,19.8 6.6,19.8 6.6,20.3 6.6,20.9 6.3,20.9 5.9,21 5.5,21.1 
			5.2,21.2 		"/>
		<polygon class="st3" points="6.6,57 7.1,57.1 7.5,57.1 7.9,57.2 8.3,57.4 8.7,57.5 9,57.7 9.4,58 9.7,58.3 10,58.6 10.2,58.9 
			10.4,59.2 10.6,59.6 10.7,60 10.8,60.4 10.9,60.8 10.9,61.3 10.9,61.7 10.8,62.1 10.7,62.5 10.6,62.9 10.4,63.3 10.2,63.7 10,64 
			9.7,64.3 9.4,64.6 9,64.8 8.7,65 8.3,65.2 7.9,65.3 7.5,65.4 7.1,65.5 6.6,65.5 6.2,65.5 5.8,65.4 5.4,65.3 5,65.2 4.6,65 
			4.3,64.8 4,64.6 3.6,64.3 3.4,64 3.1,63.7 2.9,63.3 2.8,62.9 2.6,62.5 2.5,62.1 2.4,61.7 2.4,61.3 2.4,60.8 2.5,60.4 2.6,60 
			2.8,59.6 2.9,59.2 3.1,58.9 3.4,58.6 3.6,58.3 4,58 4.3,57.7 4.6,57.5 5,57.4 5.4,57.2 5.8,57.1 6.2,57.1 		"/>
		<polygon class="st3" points="6.6,57 6.6,56.5 7.1,56.5 7.6,56.6 8.1,56.7 8.5,56.8 8.3,57.4 8.1,57.9 7.8,57.8 7.4,57.7 7,57.6 
			6.6,57.6 		"/>
		<polygon class="st3" points="8.3,57.4 8.5,56.8 9,57 9.4,57.3 9.7,57.5 10.1,57.9 9.7,58.3 9.3,58.7 9,58.4 8.7,58.2 8.1,57.9 		
			"/>
		<polygon class="st3" points="9.7,58.3 10.1,57.9 10.4,58.2 10.7,58.6 10.9,59 11.1,59.4 10.6,59.6 10.1,59.8 9.7,59.2 9.5,58.9 
			9.3,58.7 		"/>
		<polygon class="st3" points="10.6,59.6 11.1,59.4 11.3,59.8 11.4,60.3 11.5,60.8 11.5,61.3 10.9,61.3 10.4,61.3 10.3,60.9 
			10.3,60.5 10.1,59.8 		"/>
		<polygon class="st3" points="10.9,61.3 11.5,61.3 11.5,61.8 11.4,62.2 11.3,62.7 11.1,63.1 10.6,62.9 10.1,62.7 10.2,62.4 
			10.3,62 10.3,61.6 10.4,61.3 		"/>
		<polygon class="st3" points="10.6,62.9 11.1,63.1 10.9,63.6 10.7,64 10.4,64.3 10.1,64.7 9.7,64.3 9.3,63.9 9.5,63.6 9.7,63.3 
			10.1,62.7 		"/>
		<polygon class="st3" points="9.7,64.3 10.1,64.7 9.7,65 9.4,65.3 9,65.5 8.5,65.7 8.3,65.2 8.1,64.7 8.7,64.3 9,64.1 9.3,63.9 		
			"/>
		<polygon class="st3" points="8.3,65.2 8.5,65.7 8.1,65.9 7.6,66 7.1,66.1 6.6,66.1 6.6,65.5 6.6,65 7,65 7.4,64.9 7.8,64.8 
			8.1,64.7 		"/>
		<polygon class="st3" points="6.6,65.5 6.6,66.1 6.2,66.1 5.7,66 5.2,65.9 4.8,65.7 5,65.2 5.2,64.7 5.9,64.9 6.3,65 6.6,65 		"/>
		<polygon class="st3" points="5,65.2 4.8,65.7 4.3,65.5 3.9,65.3 3.6,65 3.2,64.7 3.6,64.3 4,63.9 4.3,64.1 4.6,64.3 5.2,64.7 		
			"/>
		<polygon class="st3" points="3.6,64.3 3.2,64.7 2.9,64.3 2.7,64 2.4,63.6 2.2,63.1 2.8,62.9 3.3,62.7 3.6,63.3 3.8,63.6 4,63.9 		
			"/>
		<polygon class="st3" points="2.8,62.9 2.2,63.1 2.1,62.7 1.9,62.2 1.9,61.8 1.9,61.3 2.4,61.3 3,61.3 3,61.6 3.1,62 3.2,62.4 
			3.3,62.7 		"/>
		<polygon class="st3" points="2.4,61.3 1.9,61.3 1.9,60.8 1.9,60.3 2.1,59.8 2.2,59.4 2.8,59.6 3.3,59.8 3.2,60.2 3.1,60.5 3,60.9 
			3,61.3 		"/>
		<polygon class="st3" points="2.8,59.6 2.2,59.4 2.4,59 2.7,58.6 2.9,58.2 3.2,57.9 3.6,58.3 4,58.7 3.8,58.9 3.6,59.2 3.4,59.5 
			3.3,59.8 		"/>
		<polygon class="st3" points="3.6,58.3 3.2,57.9 3.6,57.5 4,57.3 4.4,57 4.8,56.8 5,57.4 5.2,57.9 4.9,58 4.6,58.2 4.3,58.4 
			4,58.7 		"/>
		<polygon class="st3" points="5,57.4 4.8,56.8 5.2,56.7 5.7,56.6 6.2,56.5 6.6,56.5 6.6,57 6.6,57.6 6.3,57.6 5.9,57.7 5.5,57.8 
			5.2,57.9 		"/>
		<polygon class="st3" points="75.3,56.9 75.7,57 76.1,57 76.5,57.1 76.9,57.3 77.3,57.5 77.6,57.7 78,57.9 78.3,58.2 78.6,58.5 
			78.8,58.8 79,59.2 79.2,59.5 79.3,59.9 79.4,60.3 79.5,60.7 79.5,61.2 79.5,61.6 79.4,62 79.3,62.4 79.2,62.8 79,63.2 78.8,63.6 
			78.6,63.9 78.3,64.2 78,64.5 77.6,64.7 77.3,64.9 76.9,65.1 76.5,65.2 76.1,65.4 75.7,65.4 75.3,65.4 74.8,65.4 74.4,65.4 
			74,65.2 73.6,65.1 73.2,64.9 72.9,64.7 72.6,64.5 72.3,64.2 72,63.9 71.7,63.6 71.5,63.2 71.4,62.8 71.2,62.4 71.1,62 71,61.6 
			71,61.2 71,60.7 71.1,60.3 71.2,59.9 71.4,59.5 71.5,59.2 71.7,58.8 72,58.5 72.3,58.2 72.6,57.9 72.9,57.7 73.2,57.5 73.6,57.3 
			74,57.1 74.4,57 74.8,57 		"/>
		<polygon class="st3" points="75.3,56.9 75.3,56.4 75.7,56.4 76.2,56.5 76.7,56.6 77.1,56.7 76.9,57.3 76.7,57.8 76.4,57.7 
			76,57.6 75.6,57.5 75.3,57.5 		"/>
		<polygon class="st3" points="76.9,57.3 77.1,56.7 77.6,56.9 78,57.2 78.3,57.5 78.7,57.8 78.3,58.2 77.9,58.6 77.6,58.3 
			77.3,58.1 76.7,57.8 		"/>
		<polygon class="st3" points="78.3,58.2 78.7,57.8 79,58.1 79.3,58.5 79.5,58.9 79.7,59.3 79.2,59.5 78.7,59.7 78.3,59.1 
			78.1,58.8 77.9,58.6 		"/>
		<polygon class="st3" points="79.2,59.5 79.7,59.3 79.9,59.7 80,60.2 80.1,60.7 80.1,61.2 79.5,61.2 79,61.2 78.9,60.8 78.9,60.4 
			78.7,59.7 		"/>
		<polygon class="st3" points="79.5,61.2 80.1,61.2 80.1,61.7 80,62.2 79.9,62.6 79.7,63.1 79.2,62.8 78.7,62.6 78.8,62.3 
			78.9,61.9 78.9,61.6 79,61.2 		"/>
		<polygon class="st3" points="79.2,62.8 79.7,63.1 79.5,63.5 79.3,63.9 79,64.3 78.7,64.6 78.3,64.2 77.9,63.8 78.1,63.5 
			78.3,63.3 78.7,62.6 		"/>
		<polygon class="st3" points="78.3,64.2 78.7,64.6 78.3,64.9 78,65.2 77.6,65.4 77.1,65.6 76.9,65.1 76.7,64.6 77.3,64.2 77.6,64 
			77.9,63.8 		"/>
		<polygon class="st3" points="76.9,65.1 77.1,65.6 76.7,65.8 76.2,65.9 75.7,66 75.3,66 75.3,65.4 75.3,64.9 75.6,64.9 76,64.8 
			76.4,64.7 76.7,64.6 		"/>
		<polygon class="st3" points="75.3,65.4 75.3,66 74.8,66 74.3,65.9 73.8,65.8 73.4,65.6 73.6,65.1 73.8,64.6 74.5,64.8 74.9,64.9 
			75.3,64.9 		"/>
		<polygon class="st3" points="73.6,65.1 73.4,65.6 72.9,65.4 72.5,65.2 72.2,64.9 71.9,64.6 72.3,64.2 72.7,63.8 72.9,64 
			73.2,64.2 73.8,64.6 		"/>
		<polygon class="st3" points="72.3,64.2 71.9,64.6 71.5,64.3 71.3,63.9 71,63.5 70.8,63.1 71.4,62.8 71.9,62.6 72.2,63.3 
			72.4,63.5 72.7,63.8 		"/>
		<polygon class="st3" points="71.4,62.8 70.8,63.1 70.7,62.6 70.6,62.2 70.5,61.7 70.5,61.2 71,61.2 71.6,61.2 71.6,61.6 
			71.7,61.9 71.8,62.3 71.9,62.6 		"/>
		<polygon class="st3" points="71,61.2 70.5,61.2 70.5,60.7 70.6,60.2 70.7,59.7 70.8,59.3 71.4,59.5 71.9,59.7 71.8,60.1 
			71.7,60.4 71.6,60.8 71.6,61.2 		"/>
		<polygon class="st3" points="71.4,59.5 70.8,59.3 71,58.9 71.3,58.5 71.5,58.1 71.9,57.8 72.3,58.2 72.7,58.6 72.4,58.8 
			72.2,59.1 72,59.4 71.9,59.7 		"/>
		<polygon class="st3" points="72.3,58.2 71.9,57.8 72.2,57.5 72.6,57.2 73,56.9 73.4,56.7 73.6,57.3 73.8,57.8 73.5,57.9 
			73.2,58.1 72.9,58.3 72.7,58.6 		"/>
		<polygon class="st3" points="73.6,57.3 73.4,56.7 73.8,56.6 74.3,56.5 74.8,56.4 75.3,56.4 75.3,56.9 75.3,57.5 74.9,57.5 
			74.5,57.6 74.2,57.7 73.8,57.8 		"/>
		<polygon class="st3" points="41,75.3 41.5,75.3 41.9,75.4 42.3,75.5 42.7,75.6 43,75.8 43.4,76 43.7,76.3 44,76.5 44.3,76.8 
			44.6,77.2 44.8,77.5 44.9,77.9 45.1,78.3 45.2,78.7 45.3,79.1 45.3,79.5 45.3,80 45.2,80.4 45.1,80.8 44.9,81.2 44.8,81.6 
			44.6,81.9 44.3,82.3 44,82.5 43.7,82.8 43.4,83.1 43,83.3 42.7,83.5 42.3,83.6 41.9,83.7 41.5,83.8 41,83.8 40.6,83.8 40.2,83.7 
			39.8,83.6 39.3,83.5 39,83.3 38.6,83.1 38.3,82.8 38,82.5 37.7,82.3 37.5,81.9 37.3,81.6 37.1,81.2 37,80.8 36.9,80.4 36.8,80 
			36.8,79.5 36.8,79.1 36.9,78.7 37,78.3 37.1,77.9 37.3,77.5 37.5,77.2 37.7,76.8 38,76.5 38.3,76.3 38.6,76 39,75.8 39.3,75.6 
			39.8,75.5 40.2,75.4 40.6,75.3 		"/>
		<polygon class="st3" points="41,75.3 41,74.7 41.5,74.8 42,74.8 42.4,74.9 42.9,75.1 42.7,75.6 42.5,76.1 42.1,76 41.8,75.9 
			41.4,75.9 41,75.9 		"/>
		<polygon class="st3" points="42.7,75.6 42.9,75.1 43.3,75.3 43.7,75.5 44.1,75.8 44.4,76.1 44,76.5 43.6,76.9 43.4,76.7 
			43.1,76.5 42.5,76.1 		"/>
		<polygon class="st3" points="44,76.5 44.4,76.1 44.7,76.5 45,76.8 45.3,77.2 45.5,77.6 44.9,77.9 44.4,78.1 44.1,77.5 43.9,77.2 
			43.6,76.9 		"/>
		<polygon class="st3" points="44.9,77.9 45.5,77.6 45.6,78.1 45.8,78.6 45.8,79 45.9,79.5 45.3,79.5 44.7,79.5 44.7,79.1 
			44.7,78.8 44.4,78.1 		"/>
		<polygon class="st3" points="45.3,79.5 45.9,79.5 45.8,80 45.8,80.5 45.6,81 45.5,81.4 44.9,81.2 44.4,81 44.5,80.6 44.7,80.3 
			44.7,79.9 44.7,79.5 		"/>
		<polygon class="st3" points="44.9,81.2 45.5,81.4 45.3,81.8 45,82.2 44.7,82.6 44.4,82.9 44,82.5 43.6,82.1 43.9,81.9 44.1,81.6 
			44.4,81 		"/>
		<polygon class="st3" points="44,82.5 44.4,82.9 44.1,83.3 43.7,83.6 43.3,83.8 42.9,84 42.7,83.5 42.5,82.9 43.1,82.6 43.4,82.4 
			43.6,82.1 		"/>
		<polygon class="st3" points="42.7,83.5 42.9,84 42.5,84.2 42,84.3 41.5,84.4 41,84.4 41,83.8 41,83.2 41.4,83.2 41.8,83.2 
			42.1,83.1 42.5,82.9 		"/>
		<polygon class="st3" points="41,83.8 41,84.4 40.5,84.4 40,84.3 39.6,84.2 39.1,84 39.3,83.5 39.6,82.9 40.3,83.2 40.6,83.2 
			41,83.2 		"/>
		<polygon class="st3" points="39.3,83.5 39.1,84 38.7,83.8 38.3,83.6 37.9,83.3 37.6,82.9 38,82.5 38.4,82.1 38.7,82.4 39,82.6 
			39.6,82.9 		"/>
		<polygon class="st3" points="38,82.5 37.6,82.9 37.3,82.6 37,82.2 36.8,81.8 36.6,81.4 37.1,81.2 37.6,81 38,81.6 38.2,81.9 
			38.4,82.1 		"/>
		<polygon class="st3" points="37.1,81.2 36.6,81.4 36.4,81 36.3,80.5 36.2,80 36.2,79.5 36.8,79.5 37.4,79.5 37.4,79.9 37.4,80.3 
			37.5,80.6 37.6,81 		"/>
		<polygon class="st3" points="36.8,79.5 36.2,79.5 36.2,79 36.3,78.6 36.4,78.1 36.6,77.6 37.1,77.9 37.6,78.1 37.5,78.4 
			37.4,78.8 37.4,79.1 37.4,79.5 		"/>
		<polygon class="st3" points="37.1,77.9 36.6,77.6 36.8,77.2 37,76.8 37.3,76.5 37.6,76.1 38,76.5 38.4,76.9 38.2,77.2 38,77.5 
			37.8,77.8 37.6,78.1 		"/>
		<polygon class="st3" points="38,76.5 37.6,76.1 37.9,75.8 38.3,75.5 38.7,75.3 39.1,75.1 39.3,75.6 39.6,76.1 39.3,76.3 
			38.9,76.5 38.7,76.7 38.4,76.9 		"/>
		<polygon class="st3" points="39.3,75.6 39.1,75.1 39.6,74.9 40,74.8 40.5,74.8 41,74.7 41,75.3 41,75.9 40.6,75.9 40.3,75.9 
			39.9,76 39.6,76.1 		"/>
		<polygon class="st3" points="41,1.5 41.5,1.6 41.9,1.6 42.3,1.7 42.7,1.9 43,2.1 43.4,2.3 43.7,2.5 44,2.8 44.3,3.1 44.6,3.4 
			44.8,3.8 44.9,4.1 45.1,4.5 45.2,4.9 45.3,5.3 45.3,5.8 45.3,6.2 45.2,6.6 45.1,7 44.9,7.4 44.8,7.8 44.6,8.2 44.3,8.5 44,8.8 
			43.7,9.1 43.4,9.3 43,9.5 42.7,9.7 42.3,9.8 41.9,10 41.5,10 41,10 40.6,10 40.2,10 39.8,9.8 39.3,9.7 39,9.5 38.6,9.3 38.3,9.1 
			38,8.8 37.7,8.5 37.5,8.2 37.3,7.8 37.1,7.4 37,7 36.9,6.6 36.8,6.2 36.8,5.8 36.8,5.3 36.9,4.9 37,4.5 37.1,4.1 37.3,3.8 
			37.5,3.4 37.7,3.1 38,2.8 38.3,2.5 38.6,2.3 39,2.1 39.3,1.9 39.8,1.7 40.2,1.6 40.6,1.6 		"/>
	</g>
</g>
</svg>
