<svg xmlns="http://www.w3.org/2000/svg" viewBox="0 0 320.79 83.69"><defs><style>.cls-1{font-size:68.06px;font-family:Georgia-Bold, Georgia;font-weight:700;}.cls-1,.cls-2{fill:#fff;}.cls-2{fill-rule:evenodd;}</style></defs><title>logo-white</title><g id="Слой_2" data-name="Слой 2"><g id="Слой_1-2" data-name="Слой 1"><text class="cls-1" transform="translate(89.03 63.05)">HOMS</text><path class="cls-2" d="M36.64,9.23h0l-.09,0-.13,0-.2.05-.25,0-.27.07-.34.09L35,9.63l-.41.09-.44.11-1,.25-1.05.29L31,10.68,29.79,11l-1.21.35-2.44.81-1.16.4-1.1.43-1,.45-.89.42.83-.49.42-.29.43-.32.47-.35.51-.43.56-.45.63-.51.67-.58.76-.65.85-.7,1-.8.52-.43.54-.45L30.69,7l.6-.49L31.92,6l.67-.54.7-.56L34,4.28l.52-.2L35.08,4l.53,0,.54.11.49.2.45.29.4.38.32.47L38,6l.11.56v.53L38,7.57l-.2.49-.32.45-.38.4ZM68.38,23.69l-.73-.61-.7-.56L66.28,22l-.65-.51L65,21l-.56-.47L63.91,20l-.52-.43-.94-.8-.87-.72-.76-.65-.67-.58-.63-.52L59,15.87l-.52-.4L58,15.09l-.44-.31-.43-.29L56.27,14l-.87-.4-.49-.2-.52-.2L53.83,13l-.62-.21-.7-.22-.78-.22-.85-.25-1-.29-1.08-.31-1.18-.36L47,11l-.67-.2-.72-.23-.74-.22-.78-.25-.83-.27-.87-.26-.9-.29L41,8.91l-.38-.38-.31-.45-.21-.51L40,7.05l0-.53L40.13,6l.23-.52L40.67,5l.38-.38.45-.29L42,4.1,42.53,4h.54l.56.11.51.2.74.58.69.59.68.53.64.52L47.5,7l.56.47.56.47.51.43.94.78L51,9.9l.76.62.69.59.61.53.56.45.51.43.47.35.45.34.42.29.83.49.87.41.5.2.51.2.56.18.63.2.69.22.79.23.85.24,1,.29,1.07.32,1.19.36.65.17.67.21.72.22.74.22.78.25.83.27.87.27.89.29.47.31.39.4.31.45.2.5.09.53,0,.54-.11.54-.22.51-.32.47-.38.4-.45.3-.51.22L70,24l-.54,0-.56-.11Zm2.26,31.74.18-.85.16-.81.16-.78.15-.74.16-.7.16-.67.27-1.23.24-1.12.23-1,.22-.9.18-.81.15-.74.16-.64.11-.59.09-.53.09-.52.05-.47,0-.87,0-.9-.05-.47-.09-.49-.09-.54-.11-.6-.16-.65-.15-.72-.18-.8-.22-.92-.23-1-.24-1.12L71.61,32l-.16-.68-.16-.69-.15-.74L71,29.15l-.16-.81-.18-.85.07-.56.16-.54.24-.47.36-.42.41-.34.47-.24.53-.16.56-.07.56.07.54.16.47.24.4.34.36.42.25.47.15.54.07.56-.18.85-.16.81-.15.78-.16.74-.16.69L75.3,32,75,33.27l-.27,1.12-.22,1-.2.92-.18.8-.18.72-.13.65-.12.6-.11.54-.07.49-.06.47,0,.9,0,.87.06.47.07.52.11.53.12.59.13.64.18.74.18.81.2.9.22,1L75,49.65l.27,1.23.13.67.16.7.16.74.15.78.16.81.18.85-.07.56-.15.53-.25.47-.36.41-.4.35-.47.25-.54.16-.56.06-.56-.06L72.35,58l-.47-.25-.41-.35L71.11,57l-.24-.47L70.71,56Zm-29,18.15.89-.29.88-.27.8-.25.79-.24.74-.23.71-.22.67-.2.65-.2,1.19-.34L50,71l.94-.29.88-.25.76-.22.69-.23.63-.18.58-.2.52-.18.47-.2.87-.42.83-.5.42-.29.45-.31.47-.38L59,67l.56-.47.63-.52.69-.56.76-.65.85-.71.94-.81.52-.42.54-.45.58-.47.6-.49.63-.52.67-.54.7-.58.73-.58L68.9,59l.56-.12.54,0,.51.09.51.22.45.29.38.4.32.47.22.52.11.56,0,.53-.09.52-.2.49-.31.45-.39.4-.47.32-.89.29-.87.27-.81.24-.78.25-.74.22-.72.23-.67.2-.65.18-1.18.35-1.06.32-1,.27-.87.27-.76.22-.7.2-.62.2-.56.2-.52.18-.49.2-.85.41-.83.49-.43.29-.44.34-.47.35-.52.41-.56.47-.62.51-.68.58L51,73l-.85.72-1,.78-.51.43-.54.45-.58.47-.61.49-.62.51-.68.54-.69.58-.74.58-.51.23-.54.11-.56,0-.52-.09-.49-.2-.45-.32-.4-.38-.31-.47-.23-.51-.11-.56,0-.54.09-.51.21-.52.31-.45.38-.38ZM9.87,59.28l.74.58.69.58L12,61l.64.51.59.49.58.48.54.44.51.43,1,.78.85.72.76.65.7.58.63.51.56.45.51.43.47.36.45.31.42.29.85.49-.87-.4-.49-.2-.52-.18-.56-.2-.62-.18-.72-.23-.76-.22L16.59,67l-1-.26-1.07-.32-1.19-.33-.65-.21-.67-.2-.69-.2-.76-.22-.79-.25L9,64.81l-.87-.27-.9-.29-.47-.32-.38-.38-.31-.45-.21-.51-.08-.52,0-.53L5.86,61l.23-.52L6.4,60l.38-.4.45-.29.51-.23L8.26,59H8.8l.56.11ZM22,68.9l.88.43.47.18.51.2.58.18.61.2.69.22.79.23.85.24,1,.27,1.07.31,1.19.34.65.2.67.2.72.2.73.23.79.24L35,73l.88.27.89.29.47.31.38.38.32.45.2.52.11.51v.54l-.11.56-.2.51-.32.47-.38.38-.44.32-.52.2-.51.11h-.54l-.56-.11-.52-.2-.74-.59-.69-.55L32,76.85l-.65-.52-.6-.49-.56-.47-.56-.45-.52-.42-.94-.81L27.33,73l-.78-.65-.67-.58-.63-.52-.56-.47-.52-.4L23.7,70l-.44-.33-.43-.3ZM7.59,27.29l-.18.85L7.25,29l-.15.78-.16.74-.16.72-.13.67-.27,1.25-.27,1.12-.22,1-.2.92-.18.8-.18.74-.14.65-.11.6L5,39.51,4.9,40l-.07.47,0,.89,0,.9.07.47.07.51.11.54.11.6.14.67.18.72.18.83.2.9.22,1,.27,1.12.27,1.26.13.67.16.69.16.76.15.79.16.8.18.88,0,.56-.18.53-.24.47-.34.41-.4.35-.49.25-.52.16-.56.06-.56-.06-.53-.16-.47-.25-.43-.35-.34-.41-.24-.47-.16-.53L2,55.52l.18-.88.16-.8.16-.79.15-.76.16-.69L3,50.93l.27-1.26.27-1.12.23-1,.2-.9.18-.83.18-.72.13-.67.11-.6.11-.54.07-.51.07-.47,0-.9,0-.89L4.7,40l-.07-.52L4.52,39l-.11-.6-.13-.65L4.1,37l-.18-.8-.2-.92-.23-1-.27-1.12L3,31.88l-.13-.67-.16-.72-.15-.74L2.35,29l-.16-.83L2,27.29l.07-.56.16-.54.24-.47.34-.4L3.25,25l.47-.24.53-.16.56-.07.56.07.52.16.49.24.4.36.34.4.24.47.18.54ZM22,13.88h0L9.87,23.51l-.51.22-.56.11-.54,0-.52-.09-.51-.22-.45-.29-.38-.41-.31-.47-.23-.51-.11-.56,0-.54.08-.51.21-.52.31-.45.38-.38.47-.31.9-.29L9,18l.82-.25.79-.24.74-.23.71-.2.67-.2.63-.2,1.19-.34L15.6,16l1-.29.85-.25.79-.22.69-.2.63-.2.56-.21.51-.17.5-.21Z"/><path class="cls-2" d="M8.55,19.61l.83.05.78,0,.74.05.72,0,1.32.11,1.18.09,1.08.07,1,.09.87.07.79.09.69,0,.63,0,.56,0,.51,0h.47l.45,0,.83-.07-.81.18-.42.11-.47.16-.47.16-.54.22-.58.23-.65.26L17.3,22l-.8.34-.9.38-1,.4-1.09.45L12.27,24l-.65.27-.7.27-.74.29-.76.29-.58,0-.54-.07-.51-.18-.45-.27-.4-.38-.34-.43-.24-.49-.14-.56,0-.58.07-.54.2-.51.27-.45.36-.4L7.52,20,8,19.75Zm35.26-4,.76.29.74.29.67.3.67.26,1.21.5,1.09.44,1,.43.87.38.81.34.72.31.65.27.58.22.53.23.48.17.44.14.43.13.83.18-.88-.09-.94,0-1,0-1.07,0-2.22.11L49,20.51,48,20.6l-1,.09-1,.09-.85.09-.76.08-.32.05-.29,0-.27,0-.2.05-.18,0H43l-.09,0h0L42.37,21l-.49-.23-.42-.33L41.1,20l-.27-.47L40.65,19l-.09-.54,0-.58.16-.54.23-.49.33-.42.4-.36.47-.27.52-.2.54-.07ZM56.3,20.46l.82.09.45,0,.47,0h.52l.56,0,.62-.05.7,0,.78-.07.87-.07,1-.06,1.07-.09L65.32,20,66.64,20l.69,0,.76,0,.76,0,.83-.05.54.16.49.22.43.34.35.4.27.47.18.51.09.54L72,23l-.16.54-.22.49-.34.45-.4.36-.47.27-.52.18-.53.06-.56,0ZM22,20.35l.83-.18.42-.11.45-.16.49-.15.54-.23.58-.22.65-.27.72-.29.8-.34.9-.38,1-.4,1.12-.45,1.21-.49.67-.27.7-.27.74-.29.76-.29.56,0,.53.07.52.2.47.27.4.35.34.43.22.49.16.54,0,.58-.07.54-.2.51L37.2,20l-.36.41-.42.33-.49.25-.56.13-.83,0L33.78,21,33,21l-.7-.05L31,20.82l-1.18-.09-1.08-.09-1-.07-.87-.09-.79-.06-.69-.07-.63,0-.56,0-.54,0h-.91Z"/><path class="cls-2" d="M41.88,9l-.65.54-.69.58-.7.58-.73.54,2.82,2.19,0,.56-.18.54-.24.47-.34.42-.4.34-.5.27-.51.15-.56.07-.56,0L38.05,16l-.47-.25-.42-.33L36.82,15l-.27-.49L36.4,14l-.07-.56,2.78-2.24-.39-.14-.33-.18-.27-.22-.29-.25-.29-.29-.34-.33-.4-.38L36.28,9l0-.56.18-.54.25-.47.33-.4.4-.36.5-.24.51-.16.56-.07.58,0,.52.18.49.24.4.34.36.4.25.49.15.52ZM16.63,48.15l.7-.78.64-.72.63-.71.61-.68.58-.62.56-.61.51-.56.49-.53.47-.52.47-.49.83-.9.74-.78.7-.72.58-.65.56-.6.47-.54.44-.49.39-.47.35-.45.61-.87-.47.83-.47.92-.49,1L26,39.27l-1,2.19-.92,2.26-.45,1.07-.4,1.08-.38,1-.36.94-.31.85-.29.74-.11.33-.12.31-.08.27-.09.23,17.52,2.84,1.05,0,1.15-.07,1.2-.09,1.28-.13,1.3-.18,1.32-.18,2.64-.4,1.28-.23,1.23-.22,1.14-.23,1-.2,1-.2.43-.09.4-.07.36-.09.34-.06.27-.07.24,0L50.27,35.41l-.56-.87-.64-.92-.74-.94-.81-1-1.7-2-.87-1-.88-.94-.85-.9-.8-.85-.79-.76-.69-.69-.31-.34L40.34,24l-.27-.27-.25-.24-.2-.2-.18-.18L39.28,23l-.11-.11L28,35.46l.53-.92.25-.51.25-.54.27-.6.26-.68.32-.73.31-.83.36-.92.4-1,.45-1.14.25-.61.24-.65.27-.69.29-.72.32-.76.31-.78.33-.83.36-.87.38-.92.41-1,.35-.45.41-.36.47-.27.51-.15.54-.07.54,0,.53.16.52.25.42.33.34.38.36-.38.42-.33.52-.25.51-.13.54-.05.54.07.51.18L43,19l.41.35.35.45.41,1,.38.9.33.87.34.83.33.78.3.76.29.72.26.67.25.65.25.63.44,1.12.41,1,.33.91.34.81.29.74.27.67.27.58.24.56.25.5.54.91.6.88.34.44.38.47.42.5.47.53.54.59.6.64.68.72.73.81.83.87.45.49.47.52.52.53.51.56.54.61.58.62.6.68.63.69.65.74.69.76.25.51.16.52,0,.54-.07.53-.15.52-.27.47-.36.4-.45.36-.47.22-.49.16.13.29.09.31,0,.32,0,.33-.07.56-.15.52-.25.49-.36.4-.4.34-.49.25-.52.17-.58,0-1.1-.18-1-.18-1-.16-1-.17-.89-.16-.88-.14-.83-.15L49.69,55,49,54.89l-.71-.13-.67-.12-.63-.11-1.16-.22-1-.18L43.81,54,43,53.79l-.77-.11-.69-.11-.65-.07-.63-.07-1.14,0-1.14,0-.6.07-.65.07-.72.09-.76.11-.85.13-.94.16-1.05.18-1.17.2-.62.11-.67.11-.7.12-.76.13-.76.11-.83.13-.87.16-.92.14-.94.15-1,.16-1.07.16-1.1.15L20.39,56l-.51-.16-.5-.25-.4-.35-.33-.41-.25-.47-.18-.54,0-.56,0-.47.11-.42-.42-.13L17.5,52l-.44-.33-.36-.43-.25-.47-.18-.51-.06-.54,0-.54.14-.51Z"/><polygon class="cls-2" points="8.95 25.95 8.95 25.97 8.95 26.06 8.98 26.17 8.98 26.35 9 26.55 9.02 26.8 9.04 27.09 9.07 27.42 9.13 28.16 9.2 28.99 9.29 29.91 9.4 30.89 9.65 32.93 9.8 33.94 9.98 34.95 10.16 35.86 10.34 36.74 10.56 37.5 10.68 37.83 10.79 38.15 17.8 48.28 17.95 48.82 18 49.38 17.93 49.92 17.75 50.44 17.5 50.91 17.15 51.31 16.72 51.64 16.23 51.91 15.67 52.07 15.13 52.11 14.59 52.05 14.08 51.89 13.61 51.62 13.18 51.28 12.85 50.84 12.58 50.34 10.79 38.15 10.45 37.43 10.05 36.65 9.58 35.84 9.07 35.01 7.9 33.31 7.3 32.48 6.69 31.7 6.11 30.94 5.57 30.24 5.08 29.62 4.63 29.08 4.43 28.83 4.25 28.63 4.12 28.45 3.98 28.3 3.87 28.16 3.81 28.07 3.76 28.03 3.74 28 3.58 27.45 3.56 26.91 3.63 26.37 3.78 25.86 4.05 25.39 4.39 24.96 4.81 24.63 5.33 24.36 5.87 24.2 6.42 24.18 6.96 24.25 7.45 24.4 7.92 24.67 8.35 25.01 8.69 25.43 8.95 25.95"/><path class="cls-2" d="M74.45,28.18l-.43.61-.42.58-.76,1.08-.72,1-.65.87-.58.78-.54.72-.47.63-.42.58-.38.49-.36.47-.29.43-.27.38-.22.38-.21.33-.31.7-.25.71-.08.39-.09.42-.09.47-.07.52-.09.55-.07.63-.09.72-.09.78-.11.87-.11,1-.14,1.07L66,47.46l-.18,1.32-.11.69-.11.74-.27.52-.34.42-.42.36-.47.25-.52.17L63,52l-.56,0-.53-.16-.5-.27L61,51.17l-.36-.42-.25-.47-.15-.52-.07-.53.05-.56.15-.54.43-.6.42-.59L62,45.87l.72-1,.65-.88.58-.78.54-.69.47-.65.42-.56.38-.52.34-.45.31-.42.25-.38.25-.38.2-.34.31-.69.25-.72.09-.38.09-.42.06-.47.09-.52.07-.56.09-.62.07-.72.11-.79.09-.87.13-1L68.7,30l.15-1.18L69,27.54l.11-.7.12-.74.27-.49.33-.42.4-.36.47-.25.52-.16.54-.06.56,0,.53.16.49.27.43.33.36.41.24.47.18.51.07.54,0,.56Zm-8,24.54.22.89.25.92.47,1.88L71,55.18l.47.31.39.41.29.44.2.52.11.51v.54l-.11.56-.23.52-.31.47-.4.38-.45.29-.49.2-.52.11h-.53l-.56-.11-.52-.23-1-3.69-.2.07-.16.07-.27.09-.22.06-.23.09-.15.05L66,56.9l-.23.07-.26.09-.32.09-.38.13-.47.16-.54.18-.47-.31-.38-.41-.29-.44-.2-.5-.11-.53v-.54l.11-.54.23-.51.31-.47.4-.38.45-.29.49-.21.54-.11h.54l.53.11Z"/><path class="cls-2" d="M60.68,58.13l0,0-.07,0-.11.07-.16.09-.2.13-.22.14-.27.18-.29.18-.65.42-.76.49-.81.56-.87.58-1.77,1.21-.87.63-.83.6-.76.59-.69.56-.59.49-.24.25-.2.2.49-.63.25-.36.24-.38.25-.42.24-.47.3-.54.31-.58.33-.68.38-.73.43-.81.47-.92.54-1L55.11,57l.34-.61.33-.6.36-.67.38-.67L57,54l.46-.27.5-.18.53-.09.54,0,.52.14.51.22.45.34.38.42.29.47.18.49.09.54,0,.54-.14.51-.22.52Zm-46.33-.42L14,57.58l-.32-.12-.56-.24L12.62,57l-.38-.18-.33-.14-.34-.11-.38-.09-.42,0-.92,3.69-.52.23-.53.11H8.26l-.54-.11-.49-.21-.45-.29-.4-.38-.31-.47-.23-.51L5.75,58v-.54l.09-.51.2-.52L6.33,56l.39-.4.47-.31,3.58,1.23,0-.2,0-.18.05-.23,0-.2.07-.22,0-.14,0-.18,0-.22.09-.27.07-.33.11-.43.14-.49.13-.58.52-.23.56-.09h.53l.54.09.49.2.45.3.4.38.32.47.22.51.11.54v.54l-.11.53-.2.5L15.2,57l-.38.41Zm19.9,19.05-.38-.67-.36-.65-.36-.63-.31-.6-.61-1.1-.53-1-.5-.89-.42-.83-.38-.72L30.06,69l-.31-.58-.29-.54-.27-.47L28.94,67l-.24-.38-.25-.34L28,65.63l.56.56.31.27.36.29.4.29.45.32.49.33.56.36.61.43.69.44.78.52L34,70l.94.62,1,.72.56.38.58.4.61.43.65.45.33.45L39,74l.13.52,0,.53-.09.54-.18.51-.27.47-.38.43-.45.34-.52.22-.51.13-.54,0-.53-.09-.5-.18-.47-.27ZM28,65.63l-.56-.56-.32-.29-.35-.27-.41-.29-.44-.31-.5-.36-.56-.36-.62-.4-.67-.47-.79-.51-.85-.56L21,60.62,19.9,59.9l-.56-.38-.58-.4-.61-.43-.65-.44-.33-.45-.23-.52-.13-.51,0-.54.09-.54.18-.49.27-.47.38-.42.44-.34.52-.24.51-.14.56,0,.52.09.53.18.47.27.43.38.38.67.36.67.36.6.31.61.6,1.09.54,1,.47.92.43.81.4.73.34.65.31.61.27.51.27.47.24.43.25.38.25.36Zm22.34-.06h0L44.07,76.71l-.42.38-.47.3-.49.17-.54.09-.54,0-.51-.13-.52-.23-.45-.33-.38-.43L39.46,76l-.18-.49L39.19,75l0-.53.13-.52.22-.51.34-.45.63-.45.6-.43.58-.42.56-.38,1-.72.94-.62.85-.59.79-.51.67-.45.63-.42.56-.36.49-.34.45-.31.38-.31.35-.27.32-.29Z"/><polygon class="cls-2" points="39.15 13.46 39.6 13.48 40.02 13.55 40.42 13.63 40.83 13.79 41.19 13.97 41.55 14.17 41.88 14.42 42.17 14.69 42.46 15 42.71 15.31 42.91 15.67 43.09 16.03 43.22 16.43 43.34 16.84 43.4 17.26 43.42 17.69 43.4 18.14 43.34 18.56 43.22 18.96 43.09 19.37 42.91 19.72 42.71 20.08 42.46 20.42 42.17 20.71 41.88 21 41.55 21.25 41.19 21.45 40.83 21.63 40.42 21.76 40.02 21.87 39.6 21.94 39.15 21.96 38.72 21.94 38.3 21.87 37.9 21.76 37.49 21.63 37.13 21.45 36.78 21.25 36.46 21 36.15 20.71 35.88 20.42 35.63 20.08 35.43 19.72 35.26 19.37 35.1 18.96 35.01 18.56 34.94 18.14 34.92 17.69 34.94 17.26 35.01 16.84 35.1 16.43 35.26 16.03 35.43 15.67 35.63 15.31 35.88 15 36.15 14.69 36.46 14.42 36.78 14.17 37.13 13.97 37.49 13.79 37.9 13.63 38.3 13.55 38.72 13.48 39.15 13.46"/><polygon class="cls-2" points="39.15 13.46 39.15 12.9 39.64 12.92 40.13 12.99 40.58 13.1 41.03 13.25 40.83 13.79 40.6 14.31 40.27 14.2 39.91 14.11 39.53 14.06 39.15 14.04 39.15 13.46"/><polygon class="cls-2" points="40.83 13.79 41.03 13.25 41.45 13.46 41.86 13.7 42.24 13.97 42.58 14.28 42.17 14.69 41.77 15.09 41.5 14.84 41.23 14.64 40.6 14.31 40.83 13.79"/><polygon class="cls-2" points="42.17 14.69 42.58 14.28 42.89 14.62 43.18 14.98 43.42 15.38 43.63 15.81 43.09 16.03 42.58 16.25 42.22 15.65 42.02 15.36 41.77 15.09 42.17 14.69"/><polygon class="cls-2" points="43.09 16.03 43.63 15.81 43.78 16.25 43.9 16.72 43.98 17.19 44.01 17.69 43.42 17.69 42.87 17.69 42.84 17.31 42.8 16.95 42.58 16.25 43.09 16.03"/><polygon class="cls-2" points="43.42 17.69 44.01 17.69 43.98 18.18 43.9 18.67 43.78 19.14 43.63 19.57 43.09 19.37 42.58 19.14 42.69 18.81 42.8 18.45 42.84 18.07 42.87 17.69 43.42 17.69"/><polygon class="cls-2" points="43.09 19.37 43.63 19.57 43.42 19.99 43.18 20.39 42.89 20.78 42.58 21.11 42.17 20.71 41.77 20.3 42.02 20.04 42.22 19.77 42.58 19.14 43.09 19.37"/><polygon class="cls-2" points="42.17 20.71 42.58 21.11 42.24 21.43 41.86 21.72 41.45 21.96 41.03 22.16 40.83 21.63 40.6 21.11 41.23 20.75 41.5 20.55 41.77 20.3 42.17 20.71"/><polygon class="cls-2" points="40.83 21.63 41.03 22.16 40.6 22.32 40.13 22.43 39.64 22.52 39.15 22.54 39.15 21.96 39.15 21.4 39.53 21.38 39.91 21.34 40.27 21.22 40.6 21.11 40.83 21.63"/><polygon class="cls-2" points="39.15 21.96 39.15 22.54 38.66 22.52 38.19 22.43 37.72 22.32 37.27 22.16 37.49 21.63 37.72 21.11 38.41 21.34 38.77 21.38 39.15 21.4 39.15 21.96"/><polygon class="cls-2" points="37.49 21.63 37.27 22.16 36.84 21.96 36.44 21.72 36.08 21.43 35.75 21.11 36.15 20.71 36.55 20.3 36.82 20.55 37.11 20.75 37.72 21.11 37.49 21.63"/><polygon class="cls-2" points="36.15 20.71 35.75 21.11 35.43 20.78 35.16 20.39 34.92 19.99 34.72 19.57 35.26 19.37 35.77 19.14 36.1 19.77 36.31 20.04 36.55 20.3 36.15 20.71"/><polygon class="cls-2" points="35.26 19.37 34.72 19.57 34.56 19.12 34.45 18.67 34.38 18.18 34.36 17.69 34.92 17.69 35.5 17.69 35.52 18.07 35.57 18.45 35.66 18.81 35.77 19.14 35.26 19.37"/><polygon class="cls-2" points="34.92 17.69 34.36 17.69 34.38 17.19 34.45 16.72 34.56 16.25 34.72 15.81 35.26 16.03 35.77 16.25 35.66 16.59 35.57 16.95 35.52 17.31 35.5 17.69 34.92 17.69"/><polygon class="cls-2" points="35.26 16.03 34.72 15.81 34.92 15.4 35.16 15 35.43 14.62 35.75 14.28 36.15 14.69 36.55 15.09 36.31 15.36 36.1 15.63 35.93 15.94 35.77 16.25 35.26 16.03"/><polygon class="cls-2" points="36.15 14.69 35.75 14.28 36.08 13.97 36.46 13.7 36.87 13.46 37.27 13.25 37.49 13.79 37.72 14.31 37.4 14.46 37.09 14.64 36.82 14.84 36.55 15.09 36.15 14.69"/><polygon class="cls-2" points="37.49 13.79 37.27 13.25 37.72 13.1 38.19 12.99 38.66 12.92 39.15 12.9 39.15 13.46 39.15 14.04 38.77 14.06 38.41 14.11 38.05 14.2 37.72 14.31 37.49 13.79"/><polygon class="cls-2" points="16.74 48.98 17.19 49 17.62 49.07 18.02 49.16 18.42 49.31 18.78 49.49 19.14 49.7 19.47 49.94 19.77 50.21 20.06 50.52 20.3 50.84 20.5 51.2 20.68 51.55 20.82 51.96 20.93 52.36 21 52.78 21.02 53.21 21 53.66 20.93 54.08 20.82 54.49 20.68 54.89 20.5 55.25 20.3 55.61 20.06 55.94 19.77 56.23 19.47 56.52 19.14 56.77 18.78 56.97 18.42 57.15 18.02 57.28 17.62 57.4 17.19 57.46 16.74 57.49 16.32 57.46 15.89 57.4 15.49 57.28 15.09 57.15 14.73 56.97 14.37 56.77 14.06 56.52 13.74 56.23 13.47 55.94 13.23 55.61 13.03 55.25 12.85 54.89 12.69 54.49 12.6 54.08 12.54 53.66 12.51 53.21 12.54 52.78 12.6 52.36 12.69 51.96 12.85 51.55 13.03 51.2 13.23 50.84 13.47 50.52 13.74 50.21 14.06 49.94 14.37 49.7 14.73 49.49 15.09 49.31 15.49 49.16 15.89 49.07 16.32 49 16.74 48.98"/><polygon class="cls-2" points="16.74 48.98 16.74 48.42 17.24 48.44 17.73 48.51 18.18 48.62 18.62 48.78 18.42 49.31 18.2 49.83 17.86 49.72 17.5 49.63 17.12 49.58 16.74 49.56 16.74 48.98"/><polygon class="cls-2" points="18.42 49.31 18.62 48.78 19.05 48.98 19.45 49.23 19.83 49.49 20.17 49.81 19.77 50.21 19.36 50.61 19.09 50.37 18.82 50.17 18.2 49.83 18.42 49.31"/><polygon class="cls-2" points="19.77 50.21 20.17 49.81 20.48 50.14 20.77 50.5 21.02 50.91 21.22 51.33 20.68 51.55 20.17 51.78 19.81 51.17 19.61 50.88 19.36 50.61 19.77 50.21"/><polygon class="cls-2" points="20.68 51.55 21.22 51.33 21.38 51.78 21.49 52.25 21.58 52.72 21.6 53.21 21.02 53.21 20.46 53.21 20.44 52.83 20.39 52.47 20.17 51.78 20.68 51.55"/><polygon class="cls-2" points="21.02 53.21 21.6 53.21 21.58 53.7 21.49 54.2 21.38 54.66 21.22 55.09 20.68 54.89 20.17 54.66 20.28 54.33 20.39 53.97 20.44 53.59 20.46 53.21 21.02 53.21"/><polygon class="cls-2" points="20.68 54.89 21.22 55.09 21.02 55.52 20.77 55.92 20.48 56.3 20.17 56.63 19.77 56.23 19.36 55.83 19.61 55.56 19.81 55.29 20.17 54.66 20.68 54.89"/><polygon class="cls-2" points="19.77 56.23 20.17 56.63 19.83 56.95 19.45 57.24 19.05 57.49 18.62 57.69 18.42 57.15 18.2 56.63 18.82 56.28 19.09 56.08 19.36 55.83 19.77 56.23"/><polygon class="cls-2" points="18.42 57.15 18.62 57.69 18.2 57.84 17.73 57.96 17.24 58.05 16.74 58.07 16.74 57.49 16.74 56.93 17.12 56.9 17.5 56.86 17.86 56.75 18.2 56.63 18.42 57.15"/><polygon class="cls-2" points="16.74 57.49 16.74 58.07 16.25 58.05 15.78 57.96 15.31 57.84 14.86 57.69 15.09 57.15 15.31 56.63 16 56.86 16.36 56.9 16.74 56.93 16.74 57.49"/><polygon class="cls-2" points="15.09 57.15 14.86 57.69 14.44 57.49 14.04 57.24 13.68 56.95 13.34 56.63 13.74 56.23 14.15 55.83 14.41 56.08 14.71 56.28 15.31 56.63 15.09 57.15"/><polygon class="cls-2" points="13.74 56.23 13.34 56.63 13.03 56.3 12.76 55.92 12.51 55.52 12.31 55.09 12.85 54.89 13.36 54.66 13.7 55.29 13.9 55.56 14.15 55.83 13.74 56.23"/><polygon class="cls-2" points="12.85 54.89 12.31 55.09 12.15 54.64 12.04 54.2 11.97 53.7 11.95 53.21 12.51 53.21 13.1 53.21 13.12 53.59 13.16 53.97 13.25 54.33 13.36 54.66 12.85 54.89"/><polygon class="cls-2" points="12.51 53.21 11.95 53.21 11.97 52.72 12.04 52.25 12.15 51.78 12.31 51.33 12.85 51.55 13.36 51.78 13.25 52.11 13.16 52.47 13.12 52.83 13.1 53.21 12.51 53.21"/><polygon class="cls-2" points="12.85 51.55 12.31 51.33 12.51 50.93 12.76 50.52 13.03 50.14 13.34 49.81 13.74 50.21 14.15 50.61 13.9 50.88 13.7 51.15 13.52 51.47 13.36 51.78 12.85 51.55"/><polygon class="cls-2" points="13.74 50.21 13.34 49.81 13.68 49.49 14.06 49.23 14.46 48.98 14.86 48.78 15.09 49.31 15.31 49.83 15 49.99 14.68 50.17 14.41 50.37 14.15 50.61 13.74 50.21"/><polygon class="cls-2" points="15.09 49.31 14.86 48.78 15.31 48.62 15.78 48.51 16.25 48.44 16.74 48.42 16.74 48.98 16.74 49.56 16.36 49.58 16 49.63 15.65 49.72 15.31 49.83 15.09 49.31"/><polygon class="cls-2" points="61.38 48.87 61.83 48.89 62.25 48.96 62.65 49.05 63.06 49.2 63.41 49.38 63.77 49.58 64.11 49.83 64.4 50.1 64.69 50.41 64.94 50.73 65.14 51.08 65.32 51.44 65.45 51.84 65.56 52.25 65.63 52.67 65.65 53.1 65.63 53.55 65.56 53.97 65.45 54.38 65.32 54.78 65.14 55.13 64.94 55.49 64.69 55.83 64.4 56.12 64.11 56.41 63.77 56.66 63.41 56.86 63.06 57.04 62.65 57.17 62.25 57.28 61.83 57.35 61.38 57.37 60.95 57.35 60.53 57.28 60.12 57.17 59.72 57.04 59.36 56.86 59.01 56.66 58.69 56.41 58.38 56.12 58.11 55.83 57.86 55.49 57.66 55.13 57.48 54.78 57.33 54.38 57.24 53.97 57.17 53.55 57.15 53.1 57.17 52.67 57.24 52.25 57.33 51.84 57.48 51.44 57.66 51.08 57.86 50.73 58.11 50.41 58.38 50.1 58.69 49.83 59.01 49.58 59.36 49.38 59.72 49.2 60.12 49.05 60.53 48.96 60.95 48.89 61.38 48.87"/><polygon class="cls-2" points="61.38 48.87 61.38 48.31 61.87 48.33 62.36 48.4 62.81 48.51 63.26 48.67 63.06 49.2 62.83 49.72 62.5 49.61 62.14 49.52 61.76 49.47 61.38 49.45 61.38 48.87"/><polygon class="cls-2" points="63.06 49.2 63.26 48.67 63.68 48.87 64.09 49.11 64.47 49.38 64.8 49.7 64.4 50.1 64 50.5 63.73 50.26 63.46 50.05 62.83 49.72 63.06 49.2"/><polygon class="cls-2" points="64.4 50.1 64.8 49.7 65.12 50.03 65.41 50.39 65.65 50.79 65.85 51.22 65.32 51.44 64.8 51.67 64.44 51.06 64.24 50.77 64 50.5 64.4 50.1"/><polygon class="cls-2" points="65.32 51.44 65.85 51.22 66.01 51.67 66.12 52.14 66.21 52.61 66.23 53.1 65.65 53.1 65.09 53.1 65.07 52.72 65.03 52.36 64.8 51.67 65.32 51.44"/><polygon class="cls-2" points="65.65 53.1 66.23 53.1 66.21 53.59 66.12 54.08 66.01 54.55 65.85 54.98 65.32 54.78 64.8 54.55 64.91 54.22 65.03 53.86 65.07 53.48 65.09 53.1 65.65 53.1"/><polygon class="cls-2" points="65.32 54.78 65.85 54.98 65.65 55.4 65.41 55.81 65.12 56.19 64.8 56.52 64.4 56.12 64 55.72 64.24 55.45 64.44 55.18 64.8 54.55 65.32 54.78"/><polygon class="cls-2" points="64.4 56.12 64.8 56.52 64.47 56.84 64.09 57.13 63.68 57.37 63.26 57.58 63.06 57.04 62.83 56.52 63.46 56.16 63.73 55.96 64 55.72 64.4 56.12"/><polygon class="cls-2" points="63.06 57.04 63.26 57.58 62.83 57.73 62.36 57.84 61.87 57.93 61.38 57.96 61.38 57.37 61.38 56.81 61.76 56.79 62.14 56.75 62.5 56.63 62.83 56.52 63.06 57.04"/><polygon class="cls-2" points="61.38 57.37 61.38 57.96 60.88 57.93 60.41 57.84 59.94 57.73 59.5 57.58 59.72 57.04 59.94 56.52 60.64 56.75 61 56.79 61.38 56.81 61.38 57.37"/><polygon class="cls-2" points="59.72 57.04 59.5 57.58 59.07 57.37 58.67 57.13 58.31 56.84 57.98 56.52 58.38 56.12 58.78 55.72 59.05 55.96 59.34 56.16 59.94 56.52 59.72 57.04"/><polygon class="cls-2" points="58.38 56.12 57.98 56.52 57.66 56.19 57.39 55.81 57.15 55.4 56.95 54.98 57.48 54.78 58 54.55 58.33 55.18 58.53 55.45 58.78 55.72 58.38 56.12"/><polygon class="cls-2" points="57.48 54.78 56.95 54.98 56.79 54.53 56.68 54.08 56.61 53.59 56.59 53.1 57.15 53.1 57.73 53.1 57.75 53.48 57.8 53.86 57.89 54.22 58 54.55 57.48 54.78"/><polygon class="cls-2" points="57.15 53.1 56.59 53.1 56.61 52.61 56.68 52.14 56.79 51.67 56.95 51.22 57.48 51.44 58 51.67 57.89 52 57.8 52.36 57.75 52.72 57.73 53.1 57.15 53.1"/><polygon class="cls-2" points="57.48 51.44 56.95 51.22 57.15 50.82 57.39 50.41 57.66 50.03 57.98 49.7 58.38 50.1 58.78 50.5 58.53 50.77 58.33 51.04 58.15 51.35 58 51.67 57.48 51.44"/><polygon class="cls-2" points="58.38 50.1 57.98 49.7 58.31 49.38 58.69 49.11 59.09 48.87 59.5 48.67 59.72 49.2 59.94 49.72 59.63 49.88 59.32 50.05 59.05 50.26 58.78 50.5 58.38 50.1"/><polygon class="cls-2" points="59.72 49.2 59.5 48.67 59.94 48.51 60.41 48.4 60.88 48.33 61.38 48.31 61.38 48.87 61.38 49.45 61 49.47 60.64 49.52 60.28 49.61 59.94 49.72 59.72 49.2"/><polygon class="cls-2" points="73.4 18.96 73.84 18.98 74.27 19.05 74.67 19.14 75.08 19.3 75.43 19.48 75.79 19.68 76.13 19.93 76.42 20.19 76.71 20.51 76.96 20.82 77.16 21.18 77.34 21.54 77.47 21.94 77.58 22.34 77.65 22.77 77.67 23.19 77.65 23.64 77.58 24.07 77.47 24.47 77.34 24.87 77.16 25.23 76.96 25.59 76.71 25.92 76.42 26.21 76.13 26.51 75.79 26.75 75.43 26.95 75.08 27.13 74.67 27.27 74.27 27.38 73.84 27.45 73.4 27.47 72.97 27.45 72.55 27.38 72.14 27.27 71.74 27.13 71.38 26.95 71.03 26.75 70.71 26.51 70.4 26.21 70.13 25.92 69.88 25.59 69.68 25.23 69.5 24.87 69.35 24.47 69.26 24.07 69.19 23.64 69.17 23.19 69.19 22.77 69.26 22.34 69.35 21.94 69.5 21.54 69.68 21.18 69.88 20.82 70.13 20.51 70.4 20.19 70.71 19.93 71.03 19.68 71.38 19.48 71.74 19.3 72.14 19.14 72.55 19.05 72.97 18.98 73.4 18.96"/><polygon class="cls-2" points="73.4 18.96 73.4 18.4 73.89 18.43 74.38 18.49 74.83 18.6 75.28 18.76 75.08 19.3 74.85 19.81 74.52 19.7 74.16 19.61 73.78 19.57 73.4 19.55 73.4 18.96"/><polygon class="cls-2" points="75.08 19.3 75.28 18.76 75.7 18.96 76.11 19.21 76.49 19.48 76.82 19.79 76.42 20.19 76.02 20.6 75.75 20.35 75.48 20.15 74.85 19.81 75.08 19.3"/><polygon class="cls-2" points="76.42 20.19 76.82 19.79 77.14 20.13 77.43 20.48 77.67 20.89 77.87 21.31 77.34 21.54 76.82 21.76 76.46 21.16 76.26 20.86 76.02 20.6 76.42 20.19"/><polygon class="cls-2" points="77.34 21.54 77.87 21.31 78.03 21.76 78.14 22.23 78.23 22.7 78.25 23.19 77.67 23.19 77.11 23.19 77.09 22.81 77.05 22.45 76.82 21.76 77.34 21.54"/><polygon class="cls-2" points="77.67 23.19 78.25 23.19 78.23 23.69 78.14 24.18 78.03 24.65 77.87 25.07 77.34 24.87 76.82 24.65 76.93 24.31 77.05 23.95 77.09 23.57 77.11 23.19 77.67 23.19"/><polygon class="cls-2" points="77.34 24.87 77.87 25.07 77.67 25.5 77.43 25.9 77.14 26.28 76.82 26.62 76.42 26.21 76.02 25.81 76.26 25.54 76.46 25.27 76.82 24.65 77.34 24.87"/><polygon class="cls-2" points="76.42 26.21 76.82 26.62 76.49 26.93 76.11 27.22 75.7 27.47 75.28 27.67 75.08 27.13 74.85 26.62 75.48 26.26 75.75 26.06 76.02 25.81 76.42 26.21"/><polygon class="cls-2" points="75.08 27.13 75.28 27.67 74.85 27.83 74.38 27.94 73.89 28.03 73.4 28.05 73.4 27.47 73.4 26.91 73.78 26.89 74.16 26.84 74.52 26.73 74.85 26.62 75.08 27.13"/><polygon class="cls-2" points="73.4 27.47 73.4 28.05 72.91 28.03 72.44 27.94 71.97 27.83 71.52 27.67 71.74 27.13 71.97 26.62 72.66 26.84 73.02 26.89 73.4 26.91 73.4 27.47"/><polygon class="cls-2" points="71.74 27.13 71.52 27.67 71.09 27.47 70.69 27.22 70.33 26.93 70 26.62 70.4 26.21 70.8 25.81 71.07 26.06 71.36 26.26 71.97 26.62 71.74 27.13"/><polygon class="cls-2" points="70.4 26.21 70 26.62 69.68 26.28 69.41 25.9 69.17 25.5 68.97 25.07 69.5 24.87 70.02 24.65 70.35 25.27 70.56 25.54 70.8 25.81 70.4 26.21"/><polygon class="cls-2" points="69.5 24.87 68.97 25.07 68.81 24.63 68.7 24.18 68.63 23.69 68.61 23.19 69.17 23.19 69.75 23.19 69.77 23.57 69.82 23.95 69.91 24.31 70.02 24.65 69.5 24.87"/><polygon class="cls-2" points="69.17 23.19 68.61 23.19 68.63 22.7 68.7 22.23 68.81 21.76 68.97 21.31 69.5 21.54 70.02 21.76 69.91 22.1 69.82 22.45 69.77 22.81 69.75 23.19 69.17 23.19"/><polygon class="cls-2" points="69.5 21.54 68.97 21.31 69.17 20.91 69.41 20.51 69.68 20.13 70 19.79 70.4 20.19 70.8 20.6 70.56 20.86 70.35 21.13 70.17 21.45 70.02 21.76 69.5 21.54"/><polygon class="cls-2" points="70.4 20.19 70 19.79 70.33 19.48 70.71 19.21 71.11 18.96 71.52 18.76 71.74 19.3 71.97 19.81 71.65 19.97 71.34 20.15 71.07 20.35 70.8 20.6 70.4 20.19"/><polygon class="cls-2" points="71.74 19.3 71.52 18.76 71.97 18.6 72.44 18.49 72.91 18.43 73.4 18.4 73.4 18.96 73.4 19.55 73.02 19.57 72.66 19.61 72.3 19.7 71.97 19.81 71.74 19.3"/><polygon class="cls-2" points="4.79 18.78 5.24 18.81 5.66 18.87 6.07 18.96 6.47 19.12 6.83 19.3 7.18 19.5 7.52 19.75 7.81 20.02 8.1 20.33 8.35 20.64 8.55 21 8.73 21.36 8.86 21.76 8.98 22.16 9.04 22.59 9.07 23.01 9.04 23.46 8.98 23.89 8.86 24.29 8.73 24.69 8.55 25.05 8.35 25.41 8.1 25.75 7.81 26.04 7.52 26.33 7.18 26.57 6.83 26.77 6.47 26.95 6.07 27.09 5.66 27.2 5.24 27.27 4.79 27.29 4.37 27.27 3.94 27.2 3.54 27.09 3.13 26.95 2.78 26.77 2.42 26.57 2.1 26.33 1.79 26.04 1.52 25.75 1.28 25.41 1.07 25.05 0.9 24.69 0.74 24.29 0.65 23.89 0.58 23.46 0.56 23.01 0.58 22.59 0.65 22.16 0.74 21.76 0.9 21.36 1.07 21 1.28 20.64 1.52 20.33 1.79 20.02 2.1 19.75 2.42 19.5 2.78 19.3 3.13 19.12 3.54 18.96 3.94 18.87 4.37 18.81 4.79 18.78"/><polygon class="cls-2" points="4.79 18.78 4.79 18.22 5.28 18.25 5.78 18.31 6.22 18.43 6.67 18.58 6.47 19.12 6.25 19.63 5.91 19.52 5.55 19.43 5.17 19.39 4.79 19.37 4.79 18.78"/><polygon class="cls-2" points="6.47 19.12 6.67 18.58 7.1 18.78 7.5 19.03 7.88 19.3 8.21 19.61 7.81 20.02 7.41 20.42 7.14 20.17 6.87 19.97 6.25 19.63 6.47 19.12"/><polygon class="cls-2" points="7.81 20.02 8.21 19.61 8.53 19.95 8.82 20.3 9.07 20.71 9.27 21.13 8.73 21.36 8.21 21.58 7.86 20.98 7.66 20.69 7.41 20.42 7.81 20.02"/><polygon class="cls-2" points="8.73 21.36 9.27 21.13 9.42 21.58 9.54 22.05 9.63 22.52 9.65 23.01 9.07 23.01 8.51 23.01 8.48 22.63 8.44 22.28 8.21 21.58 8.73 21.36"/><polygon class="cls-2" points="9.07 23.01 9.65 23.01 9.63 23.51 9.54 24 9.42 24.47 9.27 24.89 8.73 24.69 8.21 24.47 8.33 24.13 8.44 23.77 8.48 23.39 8.51 23.01 9.07 23.01"/><polygon class="cls-2" points="8.73 24.69 9.27 24.89 9.07 25.32 8.82 25.72 8.53 26.1 8.21 26.44 7.81 26.04 7.41 25.63 7.66 25.36 7.86 25.09 8.21 24.47 8.73 24.69"/><polygon class="cls-2" points="7.81 26.04 8.21 26.44 7.88 26.75 7.5 27.04 7.1 27.29 6.67 27.49 6.47 26.95 6.25 26.44 6.87 26.08 7.14 25.88 7.41 25.63 7.81 26.04"/><polygon class="cls-2" points="6.47 26.95 6.67 27.49 6.25 27.65 5.78 27.76 5.28 27.85 4.79 27.87 4.79 27.29 4.79 26.73 5.17 26.71 5.55 26.66 5.91 26.55 6.25 26.44 6.47 26.95"/><polygon class="cls-2" points="4.79 27.29 4.79 27.87 4.3 27.85 3.83 27.76 3.36 27.65 2.91 27.49 3.13 26.95 3.36 26.44 4.05 26.66 4.41 26.71 4.79 26.73 4.79 27.29"/><polygon class="cls-2" points="3.13 26.95 2.91 27.49 2.48 27.29 2.08 27.04 1.72 26.75 1.39 26.44 1.79 26.04 2.19 25.63 2.46 25.88 2.75 26.08 3.36 26.44 3.13 26.95"/><polygon class="cls-2" points="1.79 26.04 1.39 26.44 1.07 26.1 0.81 25.72 0.56 25.32 0.36 24.89 0.9 24.69 1.41 24.47 1.75 25.09 1.95 25.36 2.19 25.63 1.79 26.04"/><polygon class="cls-2" points="0.9 24.69 0.36 24.89 0.2 24.45 0.09 24 0.02 23.51 0 23.01 0.56 23.01 1.14 23.01 1.16 23.39 1.21 23.77 1.3 24.13 1.41 24.47 0.9 24.69"/><polygon class="cls-2" points="0.56 23.01 0 23.01 0.02 22.52 0.09 22.05 0.2 21.58 0.36 21.13 0.9 21.36 1.41 21.58 1.3 21.92 1.21 22.28 1.16 22.63 1.14 23.01 0.56 23.01"/><polygon class="cls-2" points="0.9 21.36 0.36 21.13 0.56 20.73 0.81 20.33 1.07 19.95 1.39 19.61 1.79 20.02 2.19 20.42 1.95 20.69 1.75 20.95 1.57 21.27 1.41 21.58 0.9 21.36"/><polygon class="cls-2" points="1.79 20.02 1.39 19.61 1.72 19.3 2.1 19.03 2.51 18.78 2.91 18.58 3.13 19.12 3.36 19.63 3.04 19.79 2.73 19.97 2.46 20.17 2.19 20.42 1.79 20.02"/><polygon class="cls-2" points="3.13 19.12 2.91 18.58 3.36 18.43 3.83 18.31 4.3 18.25 4.79 18.22 4.79 18.78 4.79 19.37 4.41 19.39 4.05 19.43 3.69 19.52 3.36 19.63 3.13 19.12"/><polygon class="cls-2" points="4.79 55.49 5.24 55.52 5.66 55.58 6.07 55.67 6.47 55.83 6.83 56.01 7.18 56.21 7.52 56.46 7.81 56.73 8.1 57.04 8.35 57.35 8.55 57.71 8.73 58.07 8.86 58.47 8.98 58.87 9.04 59.3 9.07 59.72 9.04 60.17 8.98 60.6 8.86 61 8.73 61.4 8.55 61.76 8.35 62.12 8.1 62.45 7.81 62.75 7.52 63.04 7.18 63.28 6.83 63.48 6.47 63.66 6.07 63.8 5.66 63.91 5.24 63.98 4.79 64 4.37 63.98 3.94 63.91 3.54 63.8 3.13 63.66 2.78 63.48 2.42 63.28 2.1 63.04 1.79 62.75 1.52 62.45 1.28 62.12 1.07 61.76 0.9 61.4 0.74 61 0.65 60.6 0.58 60.17 0.56 59.72 0.58 59.3 0.65 58.87 0.74 58.47 0.9 58.07 1.07 57.71 1.28 57.35 1.52 57.04 1.79 56.73 2.1 56.46 2.42 56.21 2.78 56.01 3.13 55.83 3.54 55.67 3.94 55.58 4.37 55.52 4.79 55.49"/><polygon class="cls-2" points="4.79 55.49 4.79 54.93 5.28 54.96 5.78 55.02 6.22 55.13 6.67 55.29 6.47 55.83 6.25 56.34 5.91 56.23 5.55 56.14 5.17 56.1 4.79 56.08 4.79 55.49"/><polygon class="cls-2" points="6.47 55.83 6.67 55.29 7.1 55.49 7.5 55.74 7.88 56.01 8.21 56.32 7.81 56.73 7.41 57.13 7.14 56.88 6.87 56.68 6.25 56.34 6.47 55.83"/><polygon class="cls-2" points="7.81 56.73 8.21 56.32 8.53 56.66 8.82 57.02 9.07 57.42 9.27 57.84 8.73 58.07 8.21 58.29 7.86 57.69 7.66 57.4 7.41 57.13 7.81 56.73"/><polygon class="cls-2" points="8.73 58.07 9.27 57.84 9.42 58.29 9.54 58.76 9.63 59.23 9.65 59.72 9.07 59.72 8.51 59.72 8.48 59.34 8.44 58.98 8.21 58.29 8.73 58.07"/><polygon class="cls-2" points="9.07 59.72 9.65 59.72 9.63 60.22 9.54 60.71 9.42 61.18 9.27 61.6 8.73 61.4 8.21 61.18 8.33 60.84 8.44 60.48 8.48 60.1 8.51 59.72 9.07 59.72"/><polygon class="cls-2" points="8.73 61.4 9.27 61.6 9.07 62.03 8.82 62.43 8.53 62.81 8.21 63.15 7.81 62.75 7.41 62.34 7.66 62.08 7.86 61.81 8.21 61.18 8.73 61.4"/><polygon class="cls-2" points="7.81 62.75 8.21 63.15 7.88 63.46 7.5 63.75 7.1 64 6.67 64.2 6.47 63.66 6.25 63.15 6.87 62.79 7.14 62.59 7.41 62.34 7.81 62.75"/><polygon class="cls-2" points="6.47 63.66 6.67 64.2 6.25 64.36 5.78 64.47 5.28 64.56 4.79 64.58 4.79 64 4.79 63.44 5.17 63.42 5.55 63.37 5.91 63.26 6.25 63.15 6.47 63.66"/><polygon class="cls-2" points="4.79 64 4.79 64.58 4.3 64.56 3.83 64.47 3.36 64.36 2.91 64.2 3.13 63.66 3.36 63.15 4.05 63.37 4.41 63.42 4.79 63.44 4.79 64"/><polygon class="cls-2" points="3.13 63.66 2.91 64.2 2.48 64 2.08 63.75 1.72 63.46 1.39 63.15 1.79 62.75 2.19 62.34 2.46 62.59 2.75 62.79 3.36 63.15 3.13 63.66"/><polygon class="cls-2" points="1.79 62.75 1.39 63.15 1.07 62.81 0.81 62.43 0.56 62.03 0.36 61.6 0.9 61.4 1.41 61.18 1.75 61.81 1.95 62.08 2.19 62.34 1.79 62.75"/><polygon class="cls-2" points="0.9 61.4 0.36 61.6 0.2 61.16 0.09 60.71 0.02 60.22 0 59.72 0.56 59.72 1.14 59.72 1.16 60.1 1.21 60.48 1.3 60.84 1.41 61.18 0.9 61.4"/><polygon class="cls-2" points="0.56 59.72 0 59.72 0.02 59.23 0.09 58.76 0.2 58.29 0.36 57.84 0.9 58.07 1.41 58.29 1.3 58.63 1.21 58.98 1.16 59.34 1.14 59.72 0.56 59.72"/><polygon class="cls-2" points="0.9 58.07 0.36 57.84 0.56 57.44 0.81 57.04 1.07 56.66 1.39 56.32 1.79 56.73 2.19 57.13 1.95 57.4 1.75 57.66 1.57 57.98 1.41 58.29 0.9 58.07"/><polygon class="cls-2" points="1.79 56.73 1.39 56.32 1.72 56.01 2.1 55.74 2.51 55.49 2.91 55.29 3.13 55.83 3.36 56.34 3.04 56.5 2.73 56.68 2.46 56.88 2.19 57.13 1.79 56.73"/><polygon class="cls-2" points="3.13 55.83 2.91 55.29 3.36 55.13 3.83 55.02 4.3 54.96 4.79 54.93 4.79 55.49 4.79 56.08 4.41 56.1 4.05 56.14 3.69 56.23 3.36 56.34 3.13 55.83"/><polygon class="cls-2" points="73.4 55.4 73.84 55.43 74.27 55.49 74.67 55.58 75.08 55.74 75.43 55.92 75.79 56.12 76.13 56.37 76.42 56.63 76.71 56.95 76.96 57.26 77.16 57.62 77.34 57.98 77.47 58.38 77.58 58.78 77.65 59.21 77.67 59.63 77.65 60.08 77.58 60.51 77.47 60.91 77.34 61.31 77.16 61.67 76.96 62.03 76.71 62.37 76.42 62.66 76.13 62.95 75.79 63.19 75.43 63.4 75.08 63.57 74.67 63.71 74.27 63.82 73.84 63.89 73.4 63.91 72.97 63.89 72.55 63.82 72.14 63.71 71.74 63.57 71.38 63.4 71.03 63.19 70.71 62.95 70.4 62.66 70.13 62.37 69.88 62.03 69.68 61.67 69.5 61.31 69.35 60.91 69.26 60.51 69.19 60.08 69.17 59.63 69.19 59.21 69.26 58.78 69.35 58.38 69.5 57.98 69.68 57.62 69.88 57.26 70.13 56.95 70.4 56.63 70.71 56.37 71.03 56.12 71.38 55.92 71.74 55.74 72.14 55.58 72.55 55.49 72.97 55.43 73.4 55.4"/><polygon class="cls-2" points="73.4 55.4 73.4 54.84 73.89 54.87 74.38 54.93 74.83 55.05 75.28 55.2 75.08 55.74 74.85 56.26 74.52 56.14 74.16 56.05 73.78 56.01 73.4 55.99 73.4 55.4"/><polygon class="cls-2" points="75.08 55.74 75.28 55.2 75.7 55.4 76.11 55.65 76.49 55.92 76.82 56.23 76.42 56.63 76.02 57.04 75.75 56.79 75.48 56.59 74.85 56.26 75.08 55.74"/><polygon class="cls-2" points="76.42 56.63 76.82 56.23 77.14 56.57 77.43 56.93 77.67 57.33 77.87 57.75 77.34 57.98 76.82 58.2 76.46 57.6 76.26 57.31 76.02 57.04 76.42 56.63"/><polygon class="cls-2" points="77.34 57.98 77.87 57.75 78.03 58.2 78.14 58.67 78.23 59.14 78.25 59.63 77.67 59.63 77.11 59.63 77.09 59.25 77.05 58.9 76.82 58.2 77.34 57.98"/><polygon class="cls-2" points="77.67 59.63 78.25 59.63 78.23 60.13 78.14 60.62 78.03 61.09 77.87 61.52 77.34 61.31 76.82 61.09 76.93 60.75 77.05 60.4 77.09 60.02 77.11 59.63 77.67 59.63"/><polygon class="cls-2" points="77.34 61.31 77.87 61.52 77.67 61.94 77.43 62.34 77.14 62.72 76.82 63.06 76.42 62.66 76.02 62.25 76.26 61.98 76.46 61.72 76.82 61.09 77.34 61.31"/><polygon class="cls-2" points="76.42 62.66 76.82 63.06 76.49 63.37 76.11 63.66 75.7 63.91 75.28 64.11 75.08 63.57 74.85 63.06 75.48 62.7 75.75 62.5 76.02 62.25 76.42 62.66"/><polygon class="cls-2" points="75.08 63.57 75.28 64.11 74.85 64.27 74.38 64.38 73.89 64.47 73.4 64.49 73.4 63.91 73.4 63.35 73.78 63.33 74.16 63.28 74.52 63.17 74.85 63.06 75.08 63.57"/><polygon class="cls-2" points="73.4 63.91 73.4 64.49 72.91 64.47 72.44 64.38 71.97 64.27 71.52 64.11 71.74 63.57 71.97 63.06 72.66 63.28 73.02 63.33 73.4 63.35 73.4 63.91"/><polygon class="cls-2" points="71.74 63.57 71.52 64.11 71.09 63.91 70.69 63.66 70.33 63.37 70 63.06 70.4 62.66 70.8 62.25 71.07 62.5 71.36 62.7 71.97 63.06 71.74 63.57"/><polygon class="cls-2" points="70.4 62.66 70 63.06 69.68 62.72 69.41 62.34 69.17 61.94 68.97 61.52 69.5 61.31 70.02 61.09 70.35 61.72 70.56 61.98 70.8 62.25 70.4 62.66"/><polygon class="cls-2" points="69.5 61.31 68.97 61.52 68.81 61.07 68.7 60.62 68.63 60.13 68.61 59.63 69.17 59.63 69.75 59.63 69.77 60.02 69.82 60.4 69.91 60.75 70.02 61.09 69.5 61.31"/><polygon class="cls-2" points="69.17 59.63 68.61 59.63 68.63 59.14 68.7 58.67 68.81 58.2 68.97 57.75 69.5 57.98 70.02 58.2 69.91 58.54 69.82 58.9 69.77 59.25 69.75 59.63 69.17 59.63"/><polygon class="cls-2" points="69.5 57.98 68.97 57.75 69.17 57.35 69.41 56.95 69.68 56.57 70 56.23 70.4 56.63 70.8 57.04 70.56 57.31 70.35 57.58 70.17 57.89 70.02 58.2 69.5 57.98"/><polygon class="cls-2" points="70.4 56.63 70 56.23 70.33 55.92 70.71 55.65 71.11 55.4 71.52 55.2 71.74 55.74 71.97 56.26 71.65 56.41 71.34 56.59 71.07 56.79 70.8 57.04 70.4 56.63"/><polygon class="cls-2" points="71.74 55.74 71.52 55.2 71.97 55.05 72.44 54.93 72.91 54.87 73.4 54.84 73.4 55.4 73.4 55.99 73.02 56.01 72.66 56.05 72.3 56.14 71.97 56.26 71.74 55.74"/><polygon class="cls-2" points="39.15 73.76 39.6 73.78 40.02 73.85 40.42 73.94 40.83 74.09 41.19 74.27 41.55 74.47 41.88 74.72 42.17 74.99 42.46 75.3 42.71 75.62 42.91 75.97 43.09 76.33 43.22 76.74 43.34 77.14 43.4 77.56 43.42 77.99 43.4 78.44 43.34 78.86 43.22 79.27 43.09 79.67 42.91 80.03 42.71 80.38 42.46 80.72 42.17 81.01 41.88 81.3 41.55 81.55 41.19 81.75 40.83 81.93 40.42 82.06 40.02 82.17 39.6 82.24 39.15 82.27 38.72 82.24 38.3 82.17 37.9 82.06 37.49 81.93 37.13 81.75 36.78 81.55 36.46 81.3 36.15 81.01 35.88 80.72 35.63 80.38 35.43 80.03 35.26 79.67 35.1 79.27 35.01 78.86 34.94 78.44 34.92 77.99 34.94 77.56 35.01 77.14 35.1 76.74 35.26 76.33 35.43 75.97 35.63 75.62 35.88 75.3 36.15 74.99 36.46 74.72 36.78 74.47 37.13 74.27 37.49 74.09 37.9 73.94 38.3 73.85 38.72 73.78 39.15 73.76"/><polygon class="cls-2" points="39.15 73.76 39.15 73.2 39.64 73.22 40.13 73.29 40.58 73.4 41.03 73.56 40.83 74.09 40.6 74.61 40.27 74.5 39.91 74.41 39.53 74.36 39.15 74.34 39.15 73.76"/><polygon class="cls-2" points="40.83 74.09 41.03 73.56 41.45 73.76 41.86 74 42.24 74.27 42.58 74.59 42.17 74.99 41.77 75.39 41.5 75.15 41.23 74.94 40.6 74.61 40.83 74.09"/><polygon class="cls-2" points="42.17 74.99 42.58 74.59 42.89 74.92 43.18 75.28 43.42 75.68 43.63 76.11 43.09 76.33 42.58 76.56 42.22 75.95 42.02 75.66 41.77 75.39 42.17 74.99"/><polygon class="cls-2" points="43.09 76.33 43.63 76.11 43.78 76.56 43.9 77.03 43.98 77.5 44.01 77.99 43.42 77.99 42.87 77.99 42.84 77.61 42.8 77.25 42.58 76.56 43.09 76.33"/><polygon class="cls-2" points="43.42 77.99 44.01 77.99 43.98 78.48 43.9 78.97 43.78 79.44 43.63 79.87 43.09 79.67 42.58 79.44 42.69 79.11 42.8 78.75 42.84 78.37 42.87 77.99 43.42 77.99"/><polygon class="cls-2" points="43.09 79.67 43.63 79.87 43.42 80.3 43.18 80.7 42.89 81.08 42.58 81.41 42.17 81.01 41.77 80.61 42.02 80.34 42.22 80.07 42.58 79.44 43.09 79.67"/><polygon class="cls-2" points="42.17 81.01 42.58 81.41 42.24 81.73 41.86 82.02 41.45 82.27 41.03 82.47 40.83 81.93 40.6 81.41 41.23 81.06 41.5 80.85 41.77 80.61 42.17 81.01"/><polygon class="cls-2" points="40.83 81.93 41.03 82.47 40.6 82.62 40.13 82.73 39.64 82.82 39.15 82.85 39.15 82.27 39.15 81.71 39.53 81.68 39.91 81.64 40.27 81.53 40.6 81.41 40.83 81.93"/><polygon class="cls-2" points="39.15 82.27 39.15 82.85 38.66 82.82 38.19 82.73 37.72 82.62 37.27 82.47 37.49 81.93 37.72 81.41 38.41 81.64 38.77 81.68 39.15 81.71 39.15 82.27"/><polygon class="cls-2" points="37.49 81.93 37.27 82.47 36.84 82.27 36.44 82.02 36.08 81.73 35.75 81.41 36.15 81.01 36.55 80.61 36.82 80.85 37.11 81.06 37.72 81.41 37.49 81.93"/><polygon class="cls-2" points="36.15 81.01 35.75 81.41 35.43 81.08 35.16 80.7 34.92 80.3 34.72 79.87 35.26 79.67 35.77 79.44 36.1 80.07 36.31 80.34 36.55 80.61 36.15 81.01"/><polygon class="cls-2" points="35.26 79.67 34.72 79.87 34.56 79.42 34.45 78.97 34.38 78.48 34.36 77.99 34.92 77.99 35.5 77.99 35.52 78.37 35.57 78.75 35.66 79.11 35.77 79.44 35.26 79.67"/><polygon class="cls-2" points="34.92 77.99 34.36 77.99 34.38 77.5 34.45 77.03 34.56 76.56 34.72 76.11 35.26 76.33 35.77 76.56 35.66 76.89 35.57 77.25 35.52 77.61 35.5 77.99 34.92 77.99"/><polygon class="cls-2" points="35.26 76.33 34.72 76.11 34.92 75.71 35.16 75.3 35.43 74.92 35.75 74.59 36.15 74.99 36.55 75.39 36.31 75.66 36.1 75.93 35.93 76.24 35.77 76.56 35.26 76.33"/><polygon class="cls-2" points="36.15 74.99 35.75 74.59 36.08 74.27 36.46 74 36.87 73.76 37.27 73.56 37.49 74.09 37.72 74.61 37.4 74.77 37.09 74.94 36.82 75.15 36.55 75.39 36.15 74.99"/><polygon class="cls-2" points="37.49 74.09 37.27 73.56 37.72 73.4 38.19 73.29 38.66 73.22 39.15 73.2 39.15 73.76 39.15 74.34 38.77 74.36 38.41 74.41 38.05 74.5 37.72 74.61 37.49 74.09"/><polygon class="cls-2" points="39.15 0 39.6 0.02 40.02 0.09 40.42 0.18 40.83 0.34 41.19 0.52 41.55 0.72 41.88 0.96 42.17 1.23 42.46 1.54 42.71 1.86 42.91 2.22 43.09 2.57 43.22 2.98 43.34 3.38 43.4 3.81 43.42 4.23 43.4 4.68 43.34 5.1 43.22 5.51 43.09 5.91 42.91 6.27 42.71 6.63 42.46 6.96 42.17 7.25 41.88 7.54 41.55 7.79 41.19 7.99 40.83 8.17 40.42 8.3 40.02 8.42 39.6 8.48 39.15 8.51 38.72 8.48 38.3 8.42 37.9 8.3 37.49 8.17 37.13 7.99 36.78 7.79 36.46 7.54 36.15 7.25 35.88 6.96 35.63 6.63 35.43 6.27 35.26 5.91 35.1 5.51 35.01 5.1 34.94 4.68 34.92 4.23 34.94 3.81 35.01 3.38 35.1 2.98 35.26 2.57 35.43 2.22 35.63 1.86 35.88 1.54 36.15 1.23 36.46 0.96 36.78 0.72 37.13 0.52 37.49 0.34 37.9 0.18 38.3 0.09 38.72 0.02 39.15 0"/></g></g></svg>