<svg viewBox="0 0 59 63" fill="#2462BC" xmlns="http://www.w3.org/2000/svg">
  <path d="M27.7999 6.90721H27.7828L27.716 6.92411L27.6155 6.9584L27.4647 6.99269L27.2803 7.02635L27.0792 7.07739L26.8279 7.14597L26.5594 7.21391L26.2577 7.28186L25.9224 7.36719L25.2015 7.55475L24.4136 7.77661L23.5588 8.01473L22.6703 8.27088L21.7651 8.54329L19.938 9.15719L19.0663 9.46389L18.2449 9.78735L17.4738 10.1283L16.8032 10.4524L17.4236 10.0771L17.742 9.85593L18.0606 9.61717L18.4126 9.34411L18.7981 9.02066L19.2172 8.67966L19.6865 8.28763L20.1894 7.84439L20.7594 7.35012L21.3964 6.82156L22.1171 6.20814L22.5027 5.88405L22.905 5.54306L23.3409 5.18531L23.7934 4.81002L24.2627 4.41798L24.7656 4.00904L25.2854 3.58272L25.8383 3.13948L26.2239 2.98621L26.6265 2.90088L27.0287 2.91826L27.4308 3.00311L27.7999 3.15703L28.1353 3.37824L28.4369 3.66804L28.6717 4.02579L28.8224 4.41783L28.9064 4.84415V5.25309L28.8224 5.64513L28.6717 6.02042L28.4369 6.36142L28.1519 6.66812L27.7999 6.90721ZM51.5698 17.9185L51.0169 17.4579L50.4971 17.0322L49.9944 16.6228L49.5077 16.2307L49.0553 15.8387L48.636 15.481L48.2174 15.14L47.8318 14.8165L47.1276 14.2026L46.4741 13.6571L45.9041 13.1629L45.4014 12.7196L44.9319 12.3276L44.5127 11.9699L44.1271 11.6625L43.7753 11.3734L43.4399 11.1346L43.1212 10.9127L42.5015 10.5207L41.8474 10.214L41.479 10.0607L41.0934 9.90745L40.6741 9.77092L40.2045 9.61765L39.6847 9.44683L39.0981 9.27665L38.4613 9.08908L37.7403 8.86786L36.9362 8.6291L36.0473 8.35605L35.5612 8.22016L35.0585 8.06625L34.522 7.89607L33.9685 7.72525L33.3819 7.53816L32.7615 7.33306L32.1081 7.12858L31.4375 6.90737L31.0857 6.6686L30.8007 6.3788L30.5659 6.0378L30.4151 5.64577L30.3477 5.25373L30.3311 4.84479L30.415 4.41846L30.5823 4.02643L30.8172 3.66868L31.1022 3.37872L31.4375 3.1575L31.8231 3.00359L32.2086 2.91874H32.6108L33.03 3.00359L33.4156 3.1575L33.9685 3.60074L34.4883 4.04397L34.991 4.45291L35.4771 4.84495L35.9301 5.2196L36.3494 5.57798L36.768 5.93573L37.1536 6.25982L37.8578 6.85633L38.5113 7.41854L39.0813 7.89591L39.6011 8.33914L40.0535 8.74808L40.4727 9.08908L40.8583 9.41317L41.2101 9.68559L41.5455 9.9411L41.8636 10.163L42.4839 10.5382L43.138 10.845L43.5064 10.9982L43.892 11.1515L44.3113 11.288L44.7807 11.4413L45.3005 11.6115L45.8872 11.7823L46.524 11.9699L47.2449 12.1911L48.0491 12.4298L48.938 12.7029L49.424 12.8388L49.9268 12.9927L50.4632 13.1629L51.0167 13.3331L51.6034 13.5206L52.2237 13.7251L52.8772 13.9302L53.5477 14.1514L53.8995 14.3902L54.1845 14.6969L54.4194 15.0379L54.5701 15.4132L54.6369 15.8221L54.654 16.2311L54.5701 16.6405L54.4027 17.0325L54.1679 17.3903L53.8829 17.697L53.5476 17.9188L53.162 18.089L52.7765 18.1569L52.3743 18.1743L51.955 18.089L51.5698 17.9185ZM53.2629 42.0884L53.3971 41.4408L53.5142 40.8269L53.6318 40.2304L53.7488 39.6682L53.8665 39.1396L53.9835 38.6285L54.1845 37.6905L54.369 36.8385L54.5364 36.0718L54.7044 35.3899L54.8386 34.7761L54.9556 34.2138L55.0727 33.7196L55.1566 33.2763L55.224 32.8669L55.2908 32.4749L55.3246 32.1171L55.3577 31.4527L55.3246 30.7708L55.2908 30.4131L55.224 30.0378L55.1566 29.6289L55.0727 29.1682L54.9556 28.674L54.8386 28.1285L54.7044 27.5151L54.5364 26.8157L54.369 26.0659L54.1845 25.2139L53.9835 24.2764L53.8665 23.7648L53.7488 23.2368L53.6318 22.674L53.5142 22.0775L53.3971 21.4641L53.2629 20.8165L53.3131 20.3902L53.4307 19.9812L53.6147 19.6229L53.8832 19.2994L54.1849 19.0439L54.5367 18.8563L54.9393 18.7367L55.358 18.6857L55.7772 18.7367L56.1794 18.8563L56.5319 19.0439L56.8335 19.2994L57.1014 19.6229L57.2859 19.9812L57.4035 20.3902L57.4537 20.8165L57.3194 21.4641L57.2024 22.0775L57.0848 22.674L56.9678 23.2368L56.8501 23.7648L56.7496 24.2764L56.5485 25.2139L56.3474 26.0659L56.1794 26.8157L56.0287 27.5151L55.8944 28.1285L55.7608 28.674L55.6602 29.1682L55.5763 29.6289L55.4924 30.0378L55.4422 30.4131L55.392 30.7708L55.3754 31.4527L55.392 32.1171L55.4422 32.4749L55.4924 32.8669L55.5763 33.2763L55.6602 33.7196L55.7608 34.2138L55.8944 34.7761L56.0287 35.3899L56.1794 36.0718L56.3474 36.8385L56.5485 37.6905L56.7496 38.6285L56.8501 39.1396L56.9678 39.6682L57.0848 40.2304L57.2024 40.8269L57.3194 41.4408L57.4537 42.0884L57.4035 42.5147L57.2859 42.9236L57.1014 43.2814L56.8335 43.5881L56.5319 43.8611L56.1794 44.0487L55.7772 44.1677L55.358 44.2187L54.9393 44.1677L54.5367 44.0487L54.1849 43.8611L53.8832 43.5881L53.6147 43.2814L53.4307 42.9236L53.3131 42.5147L53.2629 42.0884ZM31.5043 55.912L32.1749 55.6902L32.829 55.4857L33.4322 55.2981L34.0188 55.111L34.5724 54.9402L35.1088 54.77L35.6115 54.6168L36.0976 54.4629L36.9865 54.2074L37.7907 53.9686L38.495 53.7474L39.1484 53.5598L39.7184 53.3896L40.2382 53.2188L40.7077 53.0823L41.1436 52.929L41.5291 52.7925L41.881 52.6392L42.5344 52.3158L43.1548 51.9405L43.4735 51.7192L43.8089 51.4805L44.1607 51.1907L44.5297 50.884L44.9484 50.5256L45.4179 50.1336L45.9377 49.7079L46.5072 49.2136L47.1447 48.6681L47.8483 48.0542L48.2338 47.7308L48.636 47.3898L49.0719 47.0314L49.5249 46.6568L49.9944 46.2647L50.4971 45.8553L51.0169 45.4121L51.5698 44.9688L51.9553 44.7987L52.3746 44.7133L52.7768 44.7307L53.1623 44.7987L53.5479 44.9688L53.8832 45.1907L54.1682 45.4974L54.403 45.8551L54.5704 46.2472L54.6543 46.6735L54.6372 47.0824L54.5704 47.4745L54.4197 47.8498L54.1849 48.1908L53.8999 48.4975L53.548 48.7362L52.8775 48.9575L52.224 49.1626L51.6203 49.3497L51.0337 49.5372L50.4808 49.708L49.9439 49.8782L49.4411 50.0315L48.9551 50.168L48.0668 50.4411L47.2785 50.6798L46.5582 50.8843L45.9041 51.0888L45.3341 51.259L44.8143 51.4122L44.3453 51.5661L43.926 51.7194L43.5405 51.8553L43.172 52.0092L42.5346 52.3159L41.9148 52.6906L41.5961 52.9124L41.2608 53.1679L40.9089 53.441L40.5234 53.7477L40.1041 54.1054L39.6347 54.4975L39.132 54.9407L38.562 55.435L37.9251 55.9804L37.2042 56.577L36.8187 56.9011L36.4165 57.242L35.9806 57.5998L35.5282 57.9751L35.0588 58.3671L34.5556 58.7761L34.0364 59.2193L33.4829 59.6625L33.0973 59.8333L32.6952 59.9182L32.2759 59.9013L31.8903 59.8333L31.5219 59.6794L31.1865 59.4413L30.8849 59.1515L30.6501 58.7931L30.4821 58.4011L30.3987 57.9754L30.4153 57.566L30.4821 57.1746L30.6329 56.7825L30.8677 56.4415L31.1527 56.1517L31.5043 55.912ZM7.75139 45.0199L8.30461 45.4636L8.82426 45.9068L9.32714 46.3158L9.81323 46.7078L10.2491 47.0824L10.685 47.4408L11.0873 47.7818L11.4729 48.1053L12.1936 48.7018L12.8306 49.2473L13.4006 49.7415L13.9203 50.1848L14.3896 50.5768L14.8087 50.9178L15.1942 51.2419L15.5462 51.5149L15.8814 51.7531L16.2 51.9749L16.837 52.3496L16.1832 52.0429L15.8144 51.8896L15.4289 51.7531L15.0098 51.5998L14.5405 51.4633L14.004 51.2931L13.434 51.1229L12.7803 50.9353L12.0595 50.7309L11.2549 50.4921L10.3664 50.2366L9.88036 50.0827L9.37749 49.9294L8.85783 49.7761L8.28783 49.606L7.70119 49.4184L7.09778 49.2308L6.44401 49.0264L5.77346 48.8045L5.42149 48.5664L5.13648 48.2766L4.90183 47.9356L4.75078 47.5429L4.68365 47.1509L4.66686 46.7414L4.75078 46.3156L4.91846 45.9236L5.15311 45.5658L5.43811 45.2585L5.77346 45.0373L6.15901 44.8664L6.54456 44.7816H6.94673L7.36584 44.8664L7.75139 45.0199ZM16.8368 52.3493L17.4906 52.6733L17.8426 52.8099L18.2281 52.9631L18.664 53.0997L19.1165 53.2529L19.6362 53.4231L20.2228 53.5939L20.8598 53.7815L21.5805 53.986L22.3852 54.2247L23.2736 54.4802L23.7597 54.6335L24.2626 54.7868L24.799 54.9401L25.3521 55.1109L25.9387 55.298L26.5424 55.4855L27.1959 55.69L27.8664 55.9119L28.2182 56.1506L28.5033 56.4404L28.7381 56.7814L28.8888 57.1735L28.9727 57.5649V57.9743L28.8888 58.4L28.7381 58.792L28.5033 59.1504L28.2182 59.4402L27.8835 59.6783L27.498 59.8322L27.1124 59.9171H26.7098L26.2911 59.8322L25.9056 59.6783L25.3521 59.2351L24.8326 58.8094L24.3297 58.4L23.8436 58.0079L23.3911 57.6333L22.972 57.2755L22.5529 56.9345L22.1673 56.6104L21.4632 55.997L20.8262 55.4685L20.2396 54.9742L19.7367 54.531L19.2674 54.1389L18.8483 53.7812L18.4627 53.4738L18.1108 53.2014L17.7754 52.9459L17.4568 52.7241L16.8368 52.3493ZM6.04153 20.6623L5.90742 21.3105L5.79009 21.9406L5.67276 22.5378L5.55544 23.1L5.43811 23.6455L5.33757 24.1566L5.13633 25.1115L4.93508 25.9635L4.76756 26.7309L4.61667 27.4296L4.48256 28.043L4.34845 28.6059L4.24791 29.1001L4.16415 29.5601L4.08039 29.9695L4.03004 30.3616L3.97985 30.7193L3.96306 31.4012L3.97985 32.083L4.03004 32.4407L4.08039 32.8328L4.16415 33.2417L4.24791 33.7017L4.34845 34.2134L4.48256 34.7588L4.61667 35.3896L4.76756 36.0715L4.93508 36.8555L5.13633 37.7076L5.33757 38.6618L5.43811 39.1735L5.55544 39.7014L5.67276 40.281L5.79009 40.8775L5.90742 41.4914L6.04153 42.1558L6.00796 42.5822L5.87385 42.9911L5.68939 43.3495L5.43796 43.6562L5.13617 43.9286L4.76741 44.1162L4.38186 44.2358L3.96275 44.2868L3.54364 44.2358L3.14131 44.1162L2.78933 43.9286L2.47076 43.6562L2.21932 43.3495L2.03486 42.9911L1.91754 42.5822L1.86719 42.1558L2.0013 41.4914L2.11862 40.8775L2.23595 40.281L2.35328 39.7014L2.4706 39.1735L2.57115 38.6618L2.77239 37.7076L2.97347 36.8555L3.14115 36.0715L3.29204 35.3896L3.42615 34.7588L3.56026 34.2134L3.66081 33.7017L3.74457 33.2417L3.82848 32.8328L3.87868 32.4407L3.92903 32.083L3.96259 31.4012L3.92903 30.7193L3.87868 30.3616L3.82848 29.9695L3.74457 29.5601L3.66081 29.1001L3.56026 28.6059L3.42615 28.043L3.29204 27.4296L3.14115 26.7309L2.97347 25.9635L2.77239 25.1115L2.57115 24.1566L2.4706 23.6455L2.35328 23.1L2.23595 22.5378L2.11862 21.9406L2.0013 21.3105L1.86719 20.6623L1.91754 20.2366L2.03486 19.8272L2.21932 19.4694L2.47076 19.1627L2.78933 18.8897L3.14131 18.7026L3.54364 18.583L3.96275 18.5319L4.38186 18.583L4.76741 18.7026L5.13617 18.8897L5.43796 19.1627L5.68939 19.4694L5.87385 19.8272L6.00796 20.2366L6.04153 20.6623ZM16.8034 10.4526L7.75139 17.782L7.36584 17.9522L6.94673 18.0376L6.5444 18.0207L6.15885 17.9522L5.77331 17.782L5.43796 17.5601L5.15295 17.2534L4.9183 16.8957L4.75078 16.5036L4.66702 16.0773L4.6838 15.6684L4.75078 15.2763L4.90167 14.8843L5.13633 14.5433L5.42133 14.2535L5.77331 14.0147L6.44386 13.7935L7.08084 13.589L7.70104 13.4015L8.28767 13.2139L8.84089 13.0437L9.37733 12.8898L9.8802 12.7365L10.3495 12.5833L11.2379 12.3278L12.0426 12.089L12.7633 11.8678L13.4003 11.6802L13.9869 11.5094L14.5066 11.3561L14.9759 11.2029L15.395 11.0496L15.7806 10.9131L16.1493 10.7598L16.8034 10.4526Z M6.76248 14.8164L7.38267 14.8501L7.96946 14.8844L8.52269 14.9187L9.05912 14.9523L10.0481 15.0376L10.9365 15.1056L11.7412 15.1566L12.4619 15.2252L13.1157 15.2762L13.7023 15.3442L14.222 15.3785L14.6913 15.4128L15.1104 15.4464L15.4959 15.4638H15.8479L16.1831 15.4464L16.8033 15.3954L16.1999 15.5319L15.8813 15.6172L15.5293 15.7362L15.1773 15.8558L14.775 16.026L14.3391 16.1968L13.853 16.4013L13.3166 16.6225L12.7132 16.878L12.0426 17.1678L11.2883 17.4752L10.4669 17.8162L9.5449 18.1908L9.05881 18.3953L8.53915 18.6004L7.98593 18.8216L7.41593 19.0435L6.98003 19.0604L6.5777 19.0094L6.19216 18.8728L5.85696 18.6684L5.55517 18.3786L5.30374 18.0545L5.11928 17.6798L5.01874 17.2535L5.00195 16.8103L5.0523 16.4013L5.2032 16.0093L5.40428 15.6683L5.6725 15.3616L5.99107 15.1054L6.35983 14.9183L6.76248 14.8164ZM33.1644 11.7479L33.7339 11.9698L34.2874 12.191L34.7901 12.4129L35.2933 12.6173L36.1981 12.9926L37.0195 13.333L37.7741 13.6571L38.4276 13.9469L39.0313 14.2024L39.5677 14.4411L40.0538 14.6456L40.4897 14.8164L40.8919 14.9866L41.2443 15.1231L41.5797 15.2254L41.8978 15.3276L42.5182 15.4641L41.8641 15.3955L41.1604 15.3619L40.3893 15.3445L39.5845 15.3619L37.9252 15.4467L37.0873 15.4978L36.2824 15.5664L35.5285 15.6343L34.8076 15.7029L34.1701 15.7708L33.6006 15.8388L33.3658 15.8731L33.1476 15.89L32.9465 15.9074L32.7958 15.941L32.6615 15.9584H32.578L32.5106 15.9753H32.494L32.0918 15.8563L31.7227 15.6855L31.404 15.43L31.1361 15.1233L30.935 14.7655L30.8007 14.3735L30.7333 13.9641L30.767 13.5209L30.8846 13.1119L31.052 12.7366L31.3033 12.4132L31.6049 12.1401L31.9574 11.9356L32.3429 11.7824L32.7451 11.7313L33.1644 11.7479ZM42.518 15.464L43.1384 15.5319L43.4737 15.5488L43.8255 15.5319H44.2111L44.6303 15.4976L45.0993 15.464L45.6191 15.4297L46.2058 15.3786L46.8599 15.3276L47.5808 15.2766L48.3849 15.2086L49.2738 15.14L50.2626 15.089L50.7824 15.0547L51.3525 15.0211L51.922 14.9868L52.5423 14.9525L52.9445 15.0721L53.3136 15.2423L53.6323 15.4978L53.9002 15.8051L54.1013 16.1629L54.2356 16.5549L54.303 16.9639L54.2693 17.4071L54.1517 17.8165L53.9843 18.1912L53.733 18.5322L53.4314 18.8052L53.0789 19.0097L52.6934 19.1462L52.2912 19.1972L51.872 19.1799L42.518 15.464ZM16.8036 15.3786L17.424 15.2421L17.7424 15.1568L18.0777 15.0378L18.4465 14.9188L18.8488 14.748L19.2847 14.5778L19.7708 14.3734L20.3072 14.1515L20.9107 13.896L21.5812 13.6062L22.3186 13.2993L23.1566 12.9583L24.0618 12.583L24.5647 12.3786L25.0845 12.1741L25.6374 11.9522L26.2074 11.731L26.6267 11.7141L27.0289 11.7651L27.4144 11.9184L27.7662 12.1229L28.0679 12.3953L28.3198 12.7194L28.4871 13.0947L28.6042 13.5036L28.6213 13.9469L28.5711 14.3558L28.4203 14.7478L28.2186 15.1056L27.9507 15.4129L27.632 15.6684L27.2635 15.856L26.8443 15.9582L26.2242 15.924L25.6542 15.8897L25.0847 15.856L24.5649 15.8217L23.5759 15.7364L22.6875 15.6684L21.8828 15.5999L21.1621 15.5488L20.5083 15.4809L19.9217 15.4298L19.402 15.3788L18.9327 15.3445L18.5136 15.3276L18.1113 15.3107H17.7593H17.4241L16.8036 15.3786Z M31.7224 6.71966L31.2363 7.1286L30.7165 7.57183L30.1967 8.01506L29.6438 8.42448L31.7561 10.0949L31.7224 10.5206L31.5881 10.93L31.4037 11.2877L31.1524 11.6112L30.8507 11.8673L30.4817 12.0718L30.0961 12.1908L29.6775 12.2418L29.2582 12.2082L28.856 12.0716L28.5036 11.8841L28.1855 11.6286L27.9342 11.3219L27.7325 10.9466L27.6155 10.5545L27.5653 10.1282L29.6439 8.42401L29.3589 8.32177L29.1076 8.18524L28.9066 8.01443L28.6884 7.82734L28.4708 7.60548L28.2189 7.34997L27.9173 7.06017L27.5317 6.73608L27.5655 6.31039L27.6994 5.90129L27.8839 5.54355L28.1351 5.23684L28.4368 4.96379L28.8059 4.77622L29.1914 4.65724L29.61 4.6062L30.0459 4.64049L30.4315 4.77638L30.8006 4.96395L31.102 5.2193L31.3706 5.52664L31.5544 5.90129L31.672 6.29333L31.7224 6.71966ZM12.8137 36.5485L13.3334 35.952L13.8194 35.4065L14.2888 34.8611L14.7413 34.3499L15.1772 33.8725L15.5963 33.4126L15.9818 32.9862L16.3506 32.5773L16.7026 32.1852L17.0546 31.81L17.6749 31.1281L18.2281 30.5316L18.7478 29.9861L19.1837 29.4919L19.6028 29.0319L19.9548 28.6225L20.29 28.2478L20.575 27.8894L20.8432 27.5484L21.2959 26.884L20.9439 27.5148L20.5919 28.2135L20.2231 28.9802L19.8544 29.7818L19.1336 31.4522L18.4463 33.1738L18.1111 33.9915L17.8093 34.8099L17.5243 35.5772L17.2561 36.2927L17.0215 36.9402L16.8036 37.5031L16.7198 37.7586L16.6361 37.9974L16.5689 38.2018L16.5018 38.372L29.6275 40.5368L30.4152 40.5199L31.2703 40.4689L32.1751 40.4009L33.1308 40.2987L34.1029 40.1622L35.0922 40.0256L37.0697 39.7189L38.0254 39.5481L38.9474 39.3779L39.8025 39.2071L40.5903 39.0538L41.3111 38.9006L41.6299 38.8326L41.9315 38.7816L42.1994 38.713L42.4513 38.662L42.6524 38.6109L42.8369 38.5773L38.0091 26.8499L37.5898 26.1854L37.1037 25.486L36.5508 24.7705L35.9471 24.0208L34.6733 22.5204L34.0192 21.7874L33.3657 21.0719L32.7289 20.39L32.1252 19.7425L31.5386 19.1629L31.0187 18.6343L30.7839 18.3788L30.5664 18.1743L30.3653 17.9699L30.1808 17.7823L30.0301 17.629L29.8958 17.4925L29.7788 17.3903L29.6949 17.3049L21.2967 26.8845L21.699 26.1857L21.8834 25.7937L22.0679 25.3843L22.2691 24.9243L22.4702 24.4131L22.7049 23.8503L22.9395 23.2195L23.2078 22.5207L23.5095 21.7366L23.8447 20.8677L24.0292 20.4071L24.2137 19.9128L24.4147 19.3843L24.6326 18.8388L24.8673 18.2597L25.1019 17.6625L25.3532 17.0324L25.6217 16.3673L25.9067 15.6685L26.2084 14.9355L26.4763 14.5945L26.7785 14.3221L27.1303 14.117L27.5159 13.998L27.9181 13.947L28.3207 13.9639L28.7229 14.0835L29.1084 14.2706L29.4265 14.5267L29.6784 14.8165L29.9463 14.5267L30.2651 14.2706L30.6506 14.0835L31.0362 13.9813L31.4383 13.947L31.8405 13.998L32.226 14.1345L32.5785 14.339L32.8801 14.6114L33.148 14.9524L33.4503 15.6854L33.7347 16.3673L33.9866 17.0324L34.2378 17.6625L34.4891 18.2597L34.7073 18.8388L34.9249 19.3843L35.1259 19.8959L35.3104 20.3902L35.4949 20.8676L35.8302 21.7196L36.1318 22.5036L36.3831 23.2024L36.6344 23.8163L36.8526 24.3785L37.0537 24.8897L37.2548 25.3329L37.4392 25.7592L37.6237 26.1345L38.0259 26.8333L38.4788 27.4977L38.7301 27.8387L39.0151 28.1971L39.3332 28.5718L39.685 28.9807L40.0877 29.4244L40.5401 29.9187L41.0432 30.4641L41.5961 31.0776L42.2165 31.7427L42.5519 32.1173L42.9037 32.5093L43.2892 32.9183L43.6748 33.3446L44.0769 33.8052L44.5128 34.2821L44.9658 34.7938L45.4348 35.3217L45.9209 35.8845L46.4407 36.4641L46.6252 36.8562L46.7422 37.2476L46.7593 37.657L46.7091 38.0659L46.5915 38.458L46.3904 38.8157L46.1218 39.1231L45.7871 39.3955L45.4347 39.5663L45.0662 39.6853L45.1668 39.9071L45.2336 40.1453L45.2673 40.384L45.2839 40.6395L45.2337 41.0659L45.1167 41.4579L44.9323 41.8332L44.6637 42.1399L44.3621 42.3954L43.993 42.583L43.6081 42.7195L43.1722 42.7532L42.3508 42.6173L41.5624 42.4807L40.8084 42.3611L40.0875 42.2252L39.417 42.1056L38.7629 42.0034L38.1432 41.8844L37.5732 41.7822L37.0196 41.6799L36.4832 41.5777L35.9805 41.4924L35.511 41.407L34.6394 41.2368L33.8683 41.1003L33.1646 40.9638L32.5278 40.8448L31.9578 40.7595L31.438 40.6741L30.9519 40.6231L30.4825 40.5721L29.6279 40.5378L28.7728 40.5552L28.3204 40.6062L27.8343 40.6572L27.2974 40.7252L26.7279 40.8105L26.0904 40.9128L25.3868 41.0317L24.5989 41.1683L23.7273 41.3215L23.2579 41.4069L22.7551 41.4922L22.2354 41.5775L21.6654 41.6798L21.0954 41.7646L20.4752 41.8668L19.8214 41.9865L19.1341 42.0887L18.43 42.2077L17.6757 42.3273L16.871 42.4463L16.0496 42.5659L15.6305 42.5149L15.2449 42.3952L14.8762 42.2077L14.5744 41.9353L14.3229 41.6286L14.1385 41.2702L14.0044 40.8612L13.9708 40.4349L14.0044 40.0772L14.0881 39.7531L13.7696 39.6508L13.4678 39.4807L13.1326 39.2251L12.8644 38.9011L12.6799 38.5433L12.5458 38.1513L12.4956 37.7423L12.5292 37.3329L12.6297 36.9409L12.8137 36.5485Z M7.06433 19.6401V19.657V19.725L7.08111 19.8103V19.9468L7.0979 20.1001L7.11468 20.2877L7.13131 20.5091L7.14809 20.7646L7.19844 21.3274L7.24879 21.9582L7.31577 22.657L7.39968 23.4067L7.58399 24.9581L7.70131 25.7248L7.83542 26.4922L7.96953 27.1909L8.10364 27.856L8.27132 28.435L8.35508 28.6911L8.439 28.9292L13.6857 36.6508L13.8031 37.0602L13.8366 37.4861L13.7863 37.8955L13.6522 38.2875L13.4679 38.6453L13.1995 38.952L12.8811 39.2075L12.5123 39.4126L12.0932 39.5317L11.6909 39.566L11.2887 39.5148L10.903 39.3952L10.551 39.1907L10.2325 38.9352L9.98102 38.5942L9.77994 38.219L8.439 28.9292L8.18756 28.3839L7.88577 27.7874L7.53364 27.174L7.14809 26.5432L6.27646 25.2479L5.82393 24.6173L5.37126 24.0208L4.93536 23.441L4.53303 22.9125L4.16427 22.4351L3.82907 22.0262L3.67818 21.8386L3.54407 21.6852L3.44353 21.5486L3.34298 21.4297L3.25907 21.3274L3.20887 21.2595L3.17531 21.2252L3.15852 21.2078L3.0412 20.7821L3.02441 20.3732L3.07476 19.9636L3.19209 19.5716L3.39333 19.2138L3.64477 18.8897L3.96318 18.6342L4.34873 18.4297L4.75106 18.3106L5.17017 18.2932L5.5725 18.3443L5.94126 18.464L6.29324 18.6683L6.61181 18.924L6.86325 19.2481L7.06433 19.6401Z M56.1127 21.3443L55.794 21.8049L55.4759 22.2481L54.9059 23.0659L54.3694 23.7989L53.8833 24.464L53.4474 25.0605L53.0453 25.606L52.6928 26.0833L52.3747 26.5266L52.0897 26.9012L51.8212 27.2589L51.6036 27.583L51.4025 27.8728L51.2346 28.1626L51.0838 28.4181L50.849 28.9467L50.6646 29.4922L50.5977 29.782L50.5309 30.1054L50.4635 30.4638L50.4133 30.8559L50.3465 31.2815L50.2963 31.7589L50.2288 32.3044L50.162 32.9009L50.0781 33.566L49.9946 34.299L49.8935 35.1167L49.7764 36.0206L49.6422 37.026L49.5587 37.5546L49.4748 38.1168L49.2737 38.5088L49.0218 38.8329L48.7037 39.1054L48.3519 39.2929L47.9664 39.4294L47.5637 39.4805L47.1451 39.4462L46.7424 39.3272L46.374 39.1227L46.0553 38.8497L45.7873 38.5256L45.6029 38.1678L45.4852 37.7758L45.4351 37.3669L45.4688 36.9405L45.5858 36.5316L45.9045 36.0716L46.2232 35.6284L46.7928 34.81L47.3292 34.077L47.8153 33.4125L48.2512 32.8154L48.6538 32.2875L49.0057 31.7932L49.3244 31.3669L49.6094 30.9748L49.8607 30.6338L50.0955 30.3104L50.2795 30.0206L50.4639 29.7308L50.6147 29.4753L50.8495 28.9467L51.0339 28.4012L51.1008 28.1114L51.1682 27.7873L51.2184 27.4296L51.2852 27.0376L51.3354 26.6112L51.4029 26.1344L51.4531 25.5889L51.5365 24.9917L51.6039 24.3273L51.7045 23.5775L51.805 22.7591L51.922 21.8559L52.0563 20.85L52.1402 20.3214L52.2241 19.7592L52.4252 19.3839L52.6765 19.0605L52.9781 18.7874L53.33 18.6003L53.7155 18.4807L54.1181 18.4297L54.5368 18.464L54.9394 18.583L55.3079 18.7874L55.6266 19.0436L55.8945 19.3503L56.079 19.708L56.2132 20.1001L56.2634 20.509L56.2297 20.9353L56.1127 21.3443ZM50.1281 40.0259L50.2961 40.7078L50.4806 41.4065L50.8324 42.8383L53.548 41.9008L53.8998 42.1396L54.1848 42.4463L54.403 42.7873L54.5537 43.1793L54.6372 43.5713V43.9803L54.5537 44.4066L54.3857 44.7986L54.1509 45.1564L53.8493 45.4462L53.514 45.668L53.1455 45.8213L52.76 45.9066H52.3573L51.9387 45.8213L51.5531 45.6505L50.8322 42.8381L50.6815 42.8892L50.5639 42.9402L50.3628 43.0088L50.1954 43.0598L50.0274 43.1278L49.9104 43.1621L49.7761 43.2131L49.6088 43.2642L49.4071 43.3321L49.1729 43.4007L48.8879 43.5029L48.5354 43.6219L48.1333 43.7584L47.7814 43.5197L47.4964 43.213L47.2782 42.872L47.1275 42.4967L47.0441 42.0877V41.6788L47.1275 41.2694L47.2955 40.8773L47.5303 40.5196L47.8319 40.2298L48.1673 40.0086L48.5357 39.8553L48.9384 39.77H49.3406L49.7427 39.8553L50.1281 40.0259Z M45.8032 44.1509L45.7866 44.1678L45.7364 44.2021L45.6525 44.2531L45.5348 44.3211L45.3841 44.4233L45.2167 44.5255L45.0156 44.6621L44.7975 44.7986L44.3114 45.1227L43.7414 45.4973L43.1381 45.9237L42.484 46.3669L41.16 47.2875L40.5059 47.7644L39.8862 48.225L39.3162 48.6682L38.7964 49.0939L38.3605 49.4692L38.176 49.6568L38.0253 49.81L38.3944 49.3327L38.5788 49.0603L38.7628 48.7705L38.9473 48.4464L39.1317 48.0886L39.3499 47.6797L39.5841 47.2365L39.836 46.7248L40.1204 46.1626L40.4391 45.5487L40.7909 44.8499L41.1936 44.0826L41.6295 43.2473L41.8808 42.7874L42.132 42.3274L42.4006 41.8157L42.685 41.3046L43.0037 41.0148L43.3555 40.8103L43.7246 40.6738L44.1267 40.6058L44.5294 40.6227L44.9149 40.725L45.3005 40.8958L45.6352 41.1513L45.9202 41.4747L46.1384 41.8331L46.2727 42.2078L46.3395 42.6172L46.3229 43.0261L46.2223 43.4182L46.0543 43.8102L45.8032 44.1509ZM11.1038 43.8268L10.8188 43.7246L10.5841 43.6392L10.165 43.4521L9.81302 43.3156L9.52802 43.1791L9.27658 43.0768L9.02515 42.9915L8.74014 42.9236L8.42157 42.8893L7.73424 45.7016L7.3487 45.8725L6.94653 45.9578H6.5442L6.14187 45.8725L5.7731 45.7192L5.43775 45.4973L5.13597 45.2075L4.90131 44.8498L4.73364 44.4578L4.6665 44.0314V43.6225L4.73364 43.2304L4.88453 42.8384L5.1024 42.4974L5.3874 42.1907L5.73938 41.9519L8.42142 42.8894L8.45498 42.7362L8.47177 42.5996L8.50533 42.4295L8.5389 42.2762L8.58925 42.1054L8.62282 42.0031L8.65638 41.8666L8.68995 41.6964L8.75693 41.492L8.80728 41.2364L8.89104 40.9124L8.99158 40.5371L9.09212 40.0938L9.47767 39.9237L9.89678 39.8557H10.2991L10.7014 39.9237L11.0702 40.0769L11.4054 40.2988L11.7072 40.5879L11.9418 40.9463L12.1094 41.3384L12.1933 41.7473V42.1562L12.1094 42.5657L11.9585 42.9403L11.7406 43.2813L11.4556 43.588L11.1038 43.8268ZM26.0063 58.3323L25.7213 57.8211L25.4527 57.3268L25.1848 56.8495L24.95 56.3895L24.4975 55.5542L24.0952 54.7869L23.7264 54.1051L23.4078 53.4743L23.1228 52.9288L22.8714 52.4176L22.6367 51.9744L22.4189 51.5654L22.2176 51.2071L22.0332 50.8836L21.8487 50.5938L21.6642 50.3383L21.2955 49.8609L21.7146 50.2873L21.9492 50.4917L22.2175 50.7129L22.5192 50.9348L22.8544 51.1736L23.2232 51.4291L23.6423 51.7015L24.0948 52.0256L24.6145 52.3666L25.2011 52.7586L25.838 53.1843L26.5422 53.6617L27.3133 54.2071L27.732 54.4969L28.1679 54.8036L28.6208 55.1277L29.1069 55.4687L29.3582 55.8097L29.5256 56.2018L29.6267 56.5938L29.6434 57.0027L29.5766 57.4117L29.4423 57.8037L29.2412 58.1621L28.9562 58.4856L28.6208 58.7411L28.2353 58.9119L27.8498 59.0141L27.4476 59.031L27.0449 58.9631L26.6765 58.8266L26.324 58.6221L26.0063 58.3323ZM21.2956 49.8609L20.8765 49.4346L20.6419 49.2134L20.3736 49.0089L20.0719 48.787L19.7367 48.5483L19.3679 48.2759L18.9488 48.0028L18.4795 47.6961L17.9766 47.3384L17.39 46.9463L16.753 46.52L16.0489 46.0426L15.261 45.4972L14.8419 45.2074L14.406 44.9007L13.9533 44.5766L13.4672 44.2362L13.2158 43.8952L13.0481 43.5032L12.9476 43.1111L12.9308 42.7017L12.9979 42.2928L13.132 41.9175L13.3331 41.5597L13.6181 41.2363L13.9533 40.9801L14.3389 40.7931L14.7244 40.6908L15.1435 40.6734L15.5291 40.742L15.9314 40.8779L16.2834 41.0824L16.602 41.3722L16.887 41.8838L17.1552 42.395L17.4234 42.855L17.658 43.3156L18.1107 44.1509L18.5131 44.9176L18.865 45.6169L19.1836 46.2304L19.4854 46.7932L19.7368 47.2875L19.9715 47.7475L20.1727 48.1395L20.3738 48.4973L20.5583 48.8213L20.7427 49.1111L20.9272 49.3836L21.2956 49.8609ZM38.025 49.8099L33.365 58.298L33.0463 58.5878L32.6945 58.8096L32.3254 58.9462L31.9232 59.0141L31.5211 58.9972L31.1355 58.8943L30.75 58.7242L30.4146 58.4686L30.1296 58.1446L29.9114 57.7868L29.7778 57.4115L29.7103 57.0026L29.7274 56.5936L29.828 56.2016L29.9954 55.8096L30.2466 55.4686L30.7161 55.1276L31.1685 54.8035L31.6044 54.48L32.0236 54.1902L32.7947 53.6448L33.499 53.1674L34.1358 52.7242L34.7224 52.3321L35.2252 51.9911L35.6946 51.6677L36.1139 51.3946L36.4823 51.1391L36.8177 50.9003L37.1027 50.6616L37.3712 50.4571L37.6054 50.2359L38.025 49.8099Z M29.6779 10.1284L30.0131 10.1458L30.3313 10.197L30.6328 10.2649L30.9351 10.3839L31.203 10.5205L31.4715 10.6737L31.7228 10.8615L31.9403 11.0658L32.1585 11.3045L32.3431 11.5433L32.4939 11.8163L32.6281 12.0886L32.7287 12.3953L32.812 12.7026L32.8623 13.0261L32.8794 13.3502L32.8623 13.6912L32.812 14.0146L32.7287 14.322L32.6281 14.6287L32.4939 14.901L32.3431 15.174L32.1585 15.4295L31.9403 15.6515L31.7228 15.8727L31.4715 16.0603L31.203 16.2137L30.9351 16.3503L30.6328 16.4523L30.3313 16.5378L30.0131 16.5889L29.6779 16.6058L29.3591 16.5889L29.0403 16.5378L28.7388 16.4523L28.4372 16.3503L28.1686 16.2137L27.9007 16.0603L27.6661 15.8727L27.4313 15.6515L27.2302 15.4295L27.0457 15.174L26.8948 14.901L26.7607 14.6287L26.6435 14.322L26.5767 14.0146L26.5259 13.6912L26.5093 13.3502L26.5259 13.0261L26.5767 12.7026L26.6435 12.3953L26.7607 12.0886L26.8948 11.8163L27.0457 11.5433L27.2302 11.3045L27.4313 11.0658L27.6661 10.8615L27.9007 10.6737L28.1686 10.5205L28.4372 10.3839L28.7388 10.2649L29.0403 10.197L29.3591 10.1458L29.6779 10.1284Z M29.6777 10.1285V9.70264L30.046 9.71954L30.4151 9.77074L30.7505 9.85607L31.0857 9.97505L30.9349 10.384L30.7669 10.776L30.5156 10.6913L30.2471 10.6228L29.9627 10.5891L29.6777 10.5716V10.1285Z M30.9346 10.384L31.0853 9.9751L31.4036 10.1285L31.7057 10.3161L31.9902 10.5206L32.2421 10.7593L31.9399 11.0659L31.6382 11.3732L31.4373 11.1857L31.2362 11.0322L30.7666 10.7761L30.9346 10.384Z M31.9403 11.0658L32.2426 10.7593L32.4767 11.0148L32.6949 11.2878L32.8794 11.5944L33.0303 11.9186L32.6281 12.0887L32.2426 12.2595L31.974 11.7989L31.8233 11.5776L31.6387 11.3732L31.9403 11.0658Z M32.6277 12.0887L33.0299 11.9187L33.1469 12.2595L33.231 12.6173L33.2978 12.9752L33.3149 13.3503H32.879H32.4597L32.4433 13.0605L32.4095 12.7875L32.2422 12.2595L32.6277 12.0887Z M32.879 13.3501H33.3149L33.2978 13.7247L33.231 14.1L33.1469 14.4578L33.0299 14.7819L32.6277 14.6286L32.2422 14.4578L32.3255 14.2023L32.4095 13.9299L32.4433 13.6399L32.4597 13.3501H32.879Z M32.6281 14.6288L33.0303 14.7821L32.8794 15.1056L32.6949 15.4129L32.4767 15.7027L32.2426 15.9582L31.9403 15.6517L31.6387 15.3443L31.8233 15.1398L31.974 14.9354L32.2426 14.458L32.6281 14.6288Z M31.9399 15.6516L32.2421 15.9581L31.9902 16.1969L31.7057 16.4183L31.4036 16.6058L31.0853 16.7591L30.9346 16.3503L30.7666 15.9581L31.2362 15.6852L31.4373 15.5318L31.6382 15.3442L31.9399 15.6516Z M30.9349 16.3504L31.0857 16.7592L30.7669 16.8784L30.4151 16.9637L30.046 17.0323L29.6777 17.049V16.606V16.1796L29.9627 16.1627L30.2471 16.1284L30.5156 16.0431L30.7669 15.9583L30.9349 16.3504Z M29.6776 16.606V17.049L29.3085 17.0323L28.9567 16.9637L28.6043 16.8784L28.2695 16.7592L28.4369 16.3504L28.6043 15.9583L29.1241 16.1284L29.3924 16.1627L29.6776 16.1796V16.606Z M28.4369 16.3503L28.2696 16.7591L27.9508 16.6058L27.6492 16.4183L27.3807 16.1969L27.1294 15.9581L27.431 15.6516L27.7327 15.3442L27.9342 15.5318L28.1519 15.6852L28.6043 15.9581L28.4369 16.3503Z M27.4311 15.6517L27.1295 15.9582L26.8947 15.7027L26.6936 15.4129L26.5091 15.1056L26.3584 14.7821L26.7606 14.6288L27.1461 14.458L27.3974 14.9354L27.5488 15.1398L27.7327 15.3443L27.4311 15.6517Z M26.7605 14.6286L26.3584 14.7819L26.2412 14.4409L26.1573 14.1L26.1071 13.7247L26.0898 13.3501H26.5091H26.945L26.9615 13.6399L26.9952 13.9299L27.0626 14.2023L27.1461 14.4578L26.7605 14.6286Z M26.5091 13.3503H26.0898L26.1071 12.9752L26.1573 12.6173L26.2412 12.2595L26.3584 11.9187L26.7605 12.0887L27.1461 12.2595L27.0626 12.515L26.9952 12.7875L26.9615 13.0605L26.945 13.3503H26.5091Z M26.7606 12.0887L26.3584 11.9186L26.5091 11.6113L26.6936 11.3046L26.8947 11.0148L27.1295 10.7593L27.4311 11.0658L27.7327 11.3732L27.5488 11.5776L27.3974 11.7821L27.2638 12.0207L27.1461 12.2595L26.7606 12.0887Z M27.431 11.0659L27.1294 10.7593L27.3807 10.5206L27.6658 10.3161L27.9673 10.1285L28.2696 9.9751L28.4369 10.384L28.6043 10.7761L28.3701 10.8957L28.1353 11.0322L27.9342 11.1857L27.7327 11.3732L27.431 11.0659Z M28.4369 10.384L28.2695 9.97505L28.6043 9.85607L28.9567 9.77074L29.3085 9.71954L29.6776 9.70264V10.1285V10.5716L29.3924 10.5891L29.1241 10.6228L28.8562 10.6913L28.6043 10.776L28.4369 10.384Z M12.8978 37.1792L13.233 37.1959L13.5515 37.2471L13.8533 37.3157L14.155 37.4347L14.4232 37.5712L14.6914 37.7245L14.9428 37.9122L15.1609 38.1165L15.3787 38.3553L15.563 38.5941L15.7139 38.8665L15.848 39.1394L15.9486 39.4461L16.0325 39.7528L16.0827 40.0769L16.0995 40.401L16.0827 40.742L16.0325 41.0654L15.9486 41.3721L15.848 41.6795L15.7139 41.9517L15.563 42.2248L15.3787 42.4803L15.1609 42.7017L14.9428 42.9235L14.6914 43.1111L14.4232 43.2645L14.155 43.4011L13.8533 43.5031L13.5515 43.588L13.233 43.6392L12.8978 43.6566L12.5792 43.6392L12.2608 43.588L11.959 43.5031L11.6574 43.4011L11.389 43.2645L11.1209 43.1111L10.8861 42.9235L10.6515 42.7017L10.4504 42.4803L10.2659 42.2248L10.115 41.9517L9.98093 41.6795L9.8636 41.3721L9.79663 41.0654L9.74628 40.742L9.72949 40.401L9.74628 40.0769L9.79663 39.7528L9.8636 39.4461L9.98093 39.1394L10.115 38.8665L10.2659 38.5941L10.4504 38.3553L10.6515 38.1165L10.8861 37.9122L11.1209 37.7245L11.389 37.5712L11.6574 37.4347L11.959 37.3157L12.2608 37.2471L12.5792 37.1959L12.8978 37.1792Z M12.8975 37.1793V36.7529L13.2662 36.7703L13.635 36.8215L13.9703 36.9068L14.3055 37.0258L14.1546 37.4348L13.987 37.8268L13.7355 37.7421L13.4675 37.6735L13.1825 37.6392L12.8975 37.6223V37.1793Z M14.155 37.4348L14.3059 37.0259L14.6244 37.1793L14.9261 37.3669L15.2111 37.5713L15.4625 37.8101L15.1609 38.1167L14.8591 38.4234L14.6579 38.2364L14.4568 38.0825L13.9873 37.8269L14.155 37.4348Z M15.1607 38.1166L15.4623 37.8101L15.697 38.0656L15.915 38.3386L16.0993 38.6452L16.2502 38.9688L15.8478 39.1394L15.4623 39.3096L15.1941 38.8496L15.0433 38.6284L14.8589 38.4233L15.1607 38.1166Z M15.8479 39.1394L16.2503 38.9688L16.3676 39.3096L16.4515 39.668L16.5185 40.0259L16.5353 40.401H16.0994H15.6803L15.6636 40.1112L15.6301 39.8382L15.4624 39.3096L15.8479 39.1394Z M16.0994 40.4011H16.5353L16.5185 40.7758L16.4515 41.1511L16.3676 41.5088L16.2503 41.8329L15.8479 41.6796L15.4624 41.5088L15.5463 41.2533L15.6301 40.9802L15.6636 40.6909L15.6803 40.4011H16.0994Z M15.8478 41.6796L16.2502 41.8329L16.0993 42.1563L15.915 42.4637L15.697 42.7528L15.4623 43.009L15.1607 42.7018L14.8589 42.3951L15.0433 42.1906L15.1941 41.9862L15.4623 41.5088L15.8478 41.6796Z M15.1609 42.7017L15.4625 43.0089L15.2111 43.247L14.9261 43.469L14.6244 43.6566L14.3059 43.8099L14.155 43.4011L13.9873 43.0089L14.4568 42.736L14.6579 42.5826L14.8591 42.395L15.1609 42.7017Z M14.1546 43.4012L14.3055 43.81L13.987 43.9292L13.635 44.0145L13.2662 44.0824L12.8975 44.0998V43.6567V43.2304L13.1825 43.2135L13.4675 43.1792L13.7355 43.0939L13.987 43.009L14.1546 43.4012Z M12.8978 43.6567V44.0998L12.5291 44.0824L12.1769 44.0145L11.8249 43.9292L11.4897 43.81L11.6574 43.4012L11.8249 43.009L12.3446 43.1792L12.6128 43.2135L12.8978 43.2304V43.6567Z M11.6573 43.4011L11.4896 43.8099L11.171 43.6566L10.8694 43.469L10.6012 43.247L10.3496 43.0089L10.6514 42.7017L10.9532 42.395L11.1543 42.5826L11.3723 42.736L11.8248 43.0089L11.6573 43.4011Z M10.6513 42.7018L10.3495 43.009L10.1149 42.7528L9.91381 42.4637L9.72935 42.1563L9.57861 41.8329L9.98079 41.6796L10.3665 41.5088L10.6179 41.9862L10.7687 42.1906L10.9531 42.3951L10.6513 42.7018Z M9.98094 41.6796L9.57877 41.8329L9.46144 41.4919L9.37752 41.1511L9.32717 40.7758L9.31055 40.4011H9.7295H10.1654L10.1822 40.6909L10.2157 40.9802L10.2827 41.2533L10.3666 41.5088L9.98094 41.6796Z M9.7295 40.401H9.31055L9.32717 40.0259L9.37752 39.668L9.46144 39.3096L9.57877 38.9688L9.98094 39.1394L10.3666 39.3096L10.2827 39.5659L10.2157 39.8382L10.1822 40.1112L10.1654 40.401H9.7295Z M9.98079 39.1394L9.57861 38.9688L9.72935 38.6621L9.91381 38.3554L10.1149 38.0656L10.3495 37.8101L10.6513 38.1166L10.9531 38.4233L10.7687 38.6284L10.6179 38.8329L10.4838 39.0715L10.3665 39.3096L9.98079 39.1394Z M10.6514 38.1167L10.3496 37.8101L10.6012 37.5713L10.886 37.3669L11.1878 37.1793L11.4896 37.0259L11.6573 37.4348L11.8248 37.8269L11.5902 37.9465L11.3555 38.0825L11.1543 38.2364L10.9532 38.4234L10.6514 38.1167Z M11.6574 37.4348L11.4897 37.0258L11.8249 36.9068L12.1769 36.8215L12.5291 36.7703L12.8978 36.7529V37.1793V37.6223L12.6128 37.6392L12.3446 37.6735L12.0764 37.7421L11.8249 37.8268L11.6574 37.4348Z M46.3234 37.094L46.6587 37.1115L46.9768 37.1626L47.2785 37.2305L47.5806 37.3501L47.8485 37.4862L48.117 37.6395L48.3683 37.827L48.5858 38.0315L48.8042 38.2703L48.9886 38.509L49.1394 38.7819L49.2736 39.0543L49.3742 39.361L49.4576 39.6682L49.5078 39.9918L49.5249 40.3159L49.5078 40.6569L49.4576 40.9804L49.3742 41.2876L49.2736 41.5943L49.1394 41.8667L48.9886 42.1397L48.8042 42.3952L48.5858 42.6171L48.3683 42.8385L48.117 43.026L47.8485 43.1793L47.5806 43.3158L47.2785 43.4181L46.9768 43.5034L46.6587 43.5546L46.3234 43.5713L46.0047 43.5546L45.6859 43.5034L45.3843 43.4181L45.0827 43.3158L44.8141 43.1793L44.5464 43.026L44.3116 42.8385L44.0768 42.6171L43.8757 42.3952L43.6912 42.1397L43.5405 41.8667L43.4062 41.5943L43.2891 41.2876L43.2222 40.9804L43.172 40.6569L43.1548 40.3159L43.172 39.9918L43.2222 39.6682L43.2891 39.361L43.4062 39.0543L43.5405 38.7819L43.6912 38.509L43.8757 38.2703L44.0768 38.0315L44.3116 37.827L44.5464 37.6395L44.8141 37.4862L45.0827 37.3501L45.3843 37.2305L45.6859 37.1626L46.0047 37.1115L46.3234 37.094Z M46.3232 37.0939V36.6682L46.6917 36.6851L47.0606 36.7362L47.396 36.8216L47.7313 36.9406L47.5804 37.35L47.4124 37.7422L47.1612 37.6568L46.8928 37.5882L46.6082 37.5545L46.3232 37.5371V37.0939Z M47.5806 37.3499L47.7315 36.9404L48.0496 37.0937L48.3517 37.2814L48.6362 37.4859L48.8881 37.7245L48.5859 38.0312L48.2844 38.3386L48.0833 38.1508L47.8822 37.9976L47.4126 37.742L47.5806 37.3499Z M48.5856 38.0313L48.8879 37.7246L49.1227 37.9803L49.3403 38.2532L49.5247 38.5599L49.6756 38.884L49.2734 39.0541L48.8879 39.225L48.6194 38.7643L48.4686 38.543L48.2842 38.3387L48.5856 38.0313Z M49.2732 39.0542L49.6754 38.884L49.7924 39.225L49.8765 39.5828L49.9433 39.9405L49.9604 40.3158H49.5245H49.1053L49.0888 40.026L49.0551 39.753L48.8877 39.225L49.2732 39.0542Z M49.5245 40.3157H49.9604L49.9433 40.6908L49.8765 41.0655L49.7924 41.4232L49.6754 41.7475L49.2732 41.594L48.8877 41.4232L48.9711 41.1677L49.0551 40.8953L49.0888 40.6055L49.1053 40.3157H49.5245Z M49.2734 41.5939L49.6756 41.7473L49.5247 42.0714L49.3403 42.378L49.1227 42.6679L48.8879 42.9234L48.5856 42.6167L48.2842 42.3096L48.4686 42.1051L48.6194 41.9006L48.8879 41.4231L49.2734 41.5939Z M48.5859 42.617L48.8881 42.9237L48.6362 43.1625L48.3517 43.3837L48.0496 43.5712L47.7315 43.7247L47.5806 43.3157L47.4126 42.9237L47.8822 42.6506L48.0833 42.4974L48.2844 42.3098L48.5859 42.617Z M47.5804 43.3156L47.7313 43.7246L47.4124 43.8442L47.0606 43.929L46.6917 43.9976L46.3232 44.0144V43.5711V43.1448L46.6082 43.1281L46.8928 43.0938L47.1612 43.0089L47.4124 42.9236L47.5804 43.3156Z M46.3231 43.5711V44.0144L45.954 43.9976L45.6022 43.929L45.2498 43.8442L44.915 43.7246L45.0824 43.3156L45.2498 42.9236L45.7696 43.0938L46.0381 43.1281L46.3231 43.1448V43.5711Z M45.0824 43.3157L44.9151 43.7247L44.5963 43.5712L44.2947 43.3837L44.0263 43.1625L43.7749 42.9237L44.0765 42.617L44.3782 42.3098L44.5797 42.4974L44.7974 42.6506L45.2498 42.9237L45.0824 43.3157Z M44.0766 42.6167L43.775 42.9234L43.5403 42.6679L43.3393 42.378L43.1546 42.0714L43.0039 41.7473L43.4061 41.5939L43.7916 41.4231L44.0435 41.9006L44.1943 42.1051L44.3783 42.3096L44.0766 42.6167Z M43.4059 41.594L43.0037 41.7475L42.8867 41.4065L42.8027 41.0655L42.7525 40.6908L42.7358 40.3157H43.1545H43.5904L43.6075 40.6055L43.6406 40.8953L43.708 41.1677L43.7915 41.4232L43.4059 41.594Z M43.1545 40.3158H42.7358L42.7525 39.9405L42.8027 39.5828L42.8867 39.225L43.0037 38.884L43.4059 39.0542L43.7915 39.225L43.708 39.4805L43.6406 39.753L43.6075 40.026L43.5904 40.3158H43.1545Z M43.4061 39.0541L43.0039 38.884L43.1546 38.5773L43.3393 38.2701L43.5403 37.9803L43.775 37.7246L44.0766 38.0313L44.3783 38.3387L44.1943 38.543L44.0435 38.7474L43.9093 38.9862L43.7916 39.225L43.4061 39.0541Z M44.0765 38.0312L43.7749 37.7245L44.0263 37.4859L44.3113 37.2814L44.613 37.0937L44.9151 36.9404L45.0824 37.3499L45.2498 37.742L45.0156 37.861L44.7808 37.9976L44.5797 38.1508L44.3782 38.3386L44.0765 38.0312Z M45.0824 37.35L44.915 36.9406L45.2498 36.8216L45.6022 36.7362L45.954 36.6851L46.3231 36.6682V37.0939V37.5371L46.0381 37.5545L45.7696 37.5882L45.5017 37.6568L45.2498 37.7422L45.0824 37.35Z M55.3247 14.3223L55.66 14.339L55.9781 14.3902L56.2798 14.4582L56.5819 14.5778L56.8498 14.7137L57.1183 14.8676L57.3696 15.0547L57.5873 15.2596L57.8055 15.4977L57.9899 15.7365L58.1408 16.0096L58.2749 16.282L58.3755 16.5892L58.4589 16.8959L58.5098 17.2193L58.5264 17.5434L58.5098 17.8844L58.4589 18.2085L58.3755 18.5152L58.2749 18.8219L58.1408 19.0948L57.9899 19.3672L57.8055 19.6229L57.5873 19.8447L57.3696 20.066L57.1183 20.2537L56.8498 20.407L56.5819 20.5435L56.2798 20.6457L55.9781 20.731L55.66 20.7822L55.3247 20.799L55.006 20.7822L54.6879 20.731L54.3856 20.6457L54.084 20.5435L53.8161 20.407L53.5477 20.2537L53.3129 20.066L53.0781 19.8447L52.877 19.6229L52.6925 19.3672L52.5418 19.0948L52.4075 18.8219L52.2904 18.5152L52.2235 18.2085L52.1733 17.8844L52.1562 17.5434L52.1733 17.2193L52.2235 16.8959L52.2904 16.5892L52.4075 16.282L52.5418 16.0096L52.6925 15.7365L52.877 15.4977L53.0781 15.2596L53.3129 15.0547L53.5477 14.8676L53.8161 14.7137L54.084 14.5778L54.3856 14.4582L54.6879 14.3902L55.006 14.339L55.3247 14.3223Z M55.3247 14.3221V13.8958L55.6932 13.9125L56.0621 13.9637L56.3974 14.049L56.7328 14.1682L56.5819 14.5776L56.4141 14.9696L56.1626 14.8843L55.8942 14.8164L55.6097 14.7821L55.3247 14.7652V14.3221Z M56.5819 14.5776L56.7328 14.1682L57.0509 14.3221L57.3531 14.5091L57.6382 14.7135L57.8894 14.9523L57.5873 15.2595L57.2857 15.5662L57.0846 15.3786L56.8835 15.2253L56.4141 14.9697L56.5819 14.5776Z M57.5873 15.2593L57.8894 14.9521L58.1242 15.2083L58.3417 15.4807L58.5263 15.7874L58.6771 16.1115L58.2749 16.2817L57.8894 16.4523L57.621 15.9919L57.4701 15.7705L57.2856 15.566L57.5873 15.2593Z M58.2752 16.282L58.6774 16.1118L58.7945 16.4527L58.8785 16.8106L58.9459 17.1683L58.9624 17.5434H58.5266H58.1074L58.0907 17.2536L58.057 16.9812L57.8896 16.4527L58.2752 16.282Z M58.5266 17.5432H58.9624L58.9459 17.9185L58.8785 18.2932L58.7945 18.6515L58.6774 18.975L58.2752 18.8217L57.8896 18.6515L57.9731 18.3954L58.057 18.123L58.0907 17.8332L58.1074 17.5432H58.5266Z M58.2749 18.8215L58.6771 18.9748L58.5263 19.2989L58.3417 19.6056L58.1242 19.8954L57.8894 20.1511L57.5873 19.8444L57.2856 19.5377L57.4701 19.3326L57.621 19.1283L57.8894 18.6514L58.2749 18.8215Z M57.5873 19.8445L57.8894 20.1513L57.6382 20.3899L57.3531 20.6112L57.0509 20.7988L56.7328 20.9521L56.5819 20.5433L56.4141 20.1513L56.8835 19.8782L57.0846 19.7249L57.2857 19.5378L57.5873 19.8445Z M56.5819 20.5432L56.7328 20.9519L56.4141 21.0717L56.0621 21.1564L55.6932 21.225L55.3247 21.2419V20.7987V20.373L55.6097 20.3554L55.8942 20.3213L56.1626 20.2365L56.4141 20.1511L56.5819 20.5432Z M55.3251 20.7987V21.2419L54.9561 21.225L54.6042 21.1564L54.2523 21.0717L53.917 20.9519L54.0844 20.5432L54.2523 20.1511L54.7715 20.3213L55.0401 20.3554L55.3251 20.373V20.7987Z M54.0842 20.5433L53.9169 20.9521L53.5981 20.7988L53.2965 20.6112L53.0281 20.3899L52.7769 20.1513L53.0783 19.8445L53.3806 19.5378L53.5817 19.7249L53.7992 19.8782L54.2522 20.1513L54.0842 20.5433Z M53.0781 19.8444L52.7766 20.1511L52.5418 19.8954L52.3407 19.6056L52.1563 19.2989L52.0054 18.9748L52.4075 18.8215L52.7931 18.6514L53.045 19.1283L53.1959 19.3326L53.3803 19.5377L53.0781 19.8444Z M52.4079 18.8217L52.0057 18.975L51.8887 18.6342L51.8046 18.2932L51.7544 17.9185L51.7378 17.5432H52.1566H52.5923L52.6096 17.8332L52.6427 18.123L52.7101 18.3954L52.7934 18.6515L52.4079 18.8217Z M52.1566 17.5434H51.7378L51.7544 17.1683L51.8046 16.8106L51.8887 16.4527L52.0057 16.1118L52.4079 16.282L52.7934 16.4527L52.7101 16.7083L52.6427 16.9812L52.6096 17.2536L52.5923 17.5434H52.1566Z M52.4075 16.2817L52.0054 16.1115L52.1563 15.8048L52.3407 15.4975L52.5418 15.2083L52.7766 14.9521L53.0781 15.2593L53.3803 15.566L53.1959 15.7705L53.045 15.975L52.9107 16.2137L52.7931 16.4523L52.4075 16.2817Z M53.0783 15.2595L52.7769 14.9523L53.0281 14.7135L53.3131 14.5091L53.6148 14.3221L53.9169 14.1682L54.0842 14.5776L54.2522 14.9697L54.0174 15.0888L53.7828 15.2253L53.5817 15.3786L53.3806 15.5662L53.0783 15.2595Z M54.0844 14.5776L53.917 14.1682L54.2523 14.049L54.6042 13.9637L54.9561 13.9125L55.3251 13.8958V14.3221V14.7652L55.0401 14.7821L54.7715 14.8164L54.5036 14.8843L54.2523 14.9696L54.0844 14.5776Z M3.94596 14.1858L4.28115 14.2027L4.59972 14.2537L4.90151 14.3223L5.20314 14.4413L5.47136 14.5778L5.73958 14.7311L5.99101 14.9188L6.20904 15.1233L6.42691 15.3619L6.61137 15.6L6.7621 15.8731L6.89621 16.1461L6.99691 16.4527L7.08067 16.7594L7.13087 17.0835L7.14765 17.4071L7.13087 17.7479L7.08067 18.072L6.99691 18.3787L6.89621 18.6854L6.7621 18.9585L6.61137 19.2309L6.42691 19.487L6.20904 19.7083L5.99101 19.9301L5.73958 20.1172L5.47136 20.2705L5.20314 20.407L4.90151 20.5092L4.59972 20.5946L4.28115 20.6458L3.94596 20.6625L3.62754 20.6458L3.30898 20.5946L3.00719 20.5092L2.70556 20.407L2.43734 20.2705L2.16912 20.1172L1.93447 19.9301L1.69982 19.7083L1.49857 19.487L1.31411 19.2309L1.16338 18.9585L1.02927 18.6854L0.911942 18.3787L0.844808 18.072L0.794615 17.7479L0.777832 17.4071L0.794615 17.0835L0.844808 16.7594L0.911942 16.4527L1.02927 16.1461L1.16338 15.8731L1.31411 15.6L1.49857 15.3619L1.69982 15.1233L1.93447 14.9188L2.16912 14.7311L2.43734 14.5778L2.70556 14.4413L3.00719 14.3223L3.30898 14.2537L3.62754 14.2027L3.94596 14.1858Z M3.94629 14.1856V13.7593L4.31505 13.776L4.68381 13.8272L5.01917 13.9126L5.35436 14.0323L5.20347 14.4411L5.03595 14.8331L4.78451 14.7478L4.51629 14.6799L4.23129 14.6456L3.94629 14.6288V14.1856Z M5.20316 14.441L5.35406 14.0322L5.67263 14.1855L5.97426 14.3731L6.25926 14.5775L6.5107 14.8163L6.20907 15.123L5.90728 15.4296L5.70619 15.242L5.50495 15.0887L5.03564 14.833L5.20316 14.441Z M6.20901 15.1231L6.51064 14.8164L6.74545 15.0719L6.96332 15.3443L7.14762 15.6517L7.29852 15.9751L6.89619 16.1459L6.51064 16.3161L6.24242 15.856L6.09169 15.6341L5.90723 15.4297L6.20901 15.1231Z M6.89629 16.1462L7.29862 15.9753L7.41594 16.3163L7.49986 16.6741L7.56684 17.0325L7.58362 17.4071H7.14772H6.72877L6.71199 17.1172L6.67842 16.8449L6.51074 16.3163L6.89629 16.1462Z M7.14772 17.4067H7.58362L7.56684 17.7819L7.49986 18.1565L7.41594 18.5149L7.29862 18.8384L6.89629 18.6851L6.51074 18.5149L6.5945 18.2594L6.67842 17.9863L6.71199 17.6965L6.72877 17.4067H7.14772Z M6.89619 18.6851L7.29852 18.8383L7.14762 19.1626L6.96332 19.4691L6.74545 19.7589L6.51064 20.0146L6.20901 19.7079L5.90723 19.4012L6.09169 19.1967L6.24242 18.9918L6.51064 18.5149L6.89619 18.6851Z M6.20907 19.7081L6.5107 20.0148L6.25926 20.2535L5.97426 20.4754L5.67263 20.6623L5.35406 20.8162L5.20316 20.4068L5.03564 20.0148L5.50495 19.7424L5.70619 19.5891L5.90728 19.4014L6.20907 19.7081Z M5.20347 20.4067L5.35436 20.8161L5.03595 20.9352L4.68381 21.0206L4.31505 21.0885L3.94629 21.1054V20.6622V20.2365L4.23129 20.2191L4.51629 20.1855L4.78451 20.1L5.03595 20.0146L5.20347 20.4067Z M3.94616 20.6622V21.1054L3.5774 21.0885L3.22542 21.0206L2.87328 20.9352L2.53809 20.8161L2.70576 20.4067L2.87328 20.0146L3.39309 20.1855L3.66116 20.2191L3.94616 20.2365V20.6622Z M2.70597 20.4068L2.53829 20.8162L2.21972 20.6623L1.91809 20.4754L1.64987 20.2535L1.39844 20.0148L1.70022 19.7081L2.00185 19.4014L2.2031 19.5891L2.42097 19.7424L2.87349 20.0148L2.70597 20.4068Z M1.69983 19.7079L1.39804 20.0146L1.16339 19.7589L0.962149 19.4691L0.777846 19.1626L0.626953 18.8383L1.02928 18.6851L1.41483 18.5149L1.66626 18.9918L1.81716 19.1967L2.00146 19.4012L1.69983 19.7079Z M1.02944 18.6851L0.627106 18.8384L0.50978 18.4975L0.425863 18.1565L0.37567 17.7819L0.358887 17.4067H0.777999H1.21374L1.23052 17.6965L1.26409 17.9863L1.33122 18.2594L1.41498 18.5149L1.02944 18.6851Z M0.777999 17.4071H0.358887L0.37567 17.0325L0.425863 16.6741L0.50978 16.3163L0.627106 15.9753L1.02944 16.1462L1.41498 16.3163L1.33122 16.5718L1.26409 16.8449L1.23052 17.1172L1.21374 17.4071H0.777999Z M1.02928 16.1459L0.626953 15.9751L0.777846 15.6684L0.962149 15.3617L1.16339 15.0719L1.39804 14.8164L1.69983 15.1231L2.00146 15.4297L1.81716 15.6341L1.66626 15.8386L1.53215 16.0774L1.41483 16.3161L1.02928 16.1459Z M1.70022 15.123L1.39844 14.8163L1.64987 14.5775L1.93488 14.3731L2.23651 14.1855L2.53829 14.0322L2.70597 14.441L2.87349 14.833L2.63883 14.9522L2.40418 15.0887L2.2031 15.242L2.00185 15.4296L1.70022 15.123Z M2.70576 14.4411L2.53809 14.0323L2.87328 13.9126L3.22542 13.8272L3.5774 13.776L3.94616 13.7593V14.1856V14.6288L3.66116 14.6456L3.39309 14.6799L3.12472 14.7478L2.87328 14.8331L2.70576 14.4411Z M3.94596 42.1394L4.28115 42.1561L4.59972 42.2073L4.90151 42.2759L5.20314 42.3949L5.47136 42.5314L5.73958 42.6847L5.99101 42.8724L6.20904 43.0767L6.42691 43.3155L6.61137 43.5543L6.7621 43.8267L6.89621 44.0996L6.99691 44.4063L7.08067 44.713L7.13087 45.0371L7.14765 45.3605L7.13087 45.7015L7.08067 46.0256L6.99691 46.3323L6.89621 46.639L6.7621 46.9119L6.61137 47.1843L6.42691 47.4405L6.20904 47.6619L5.99101 47.8837L5.73958 48.0708L5.47136 48.2247L5.20314 48.3606L4.90151 48.4629L4.59972 48.5482L4.28115 48.5992L3.94596 48.6168L3.62754 48.5992L3.30898 48.5482L3.00719 48.4629L2.70556 48.3606L2.43734 48.2247L2.16912 48.0708L1.93447 47.8837L1.69982 47.6619L1.49857 47.4405L1.31411 47.1843L1.16338 46.9119L1.02927 46.639L0.911942 46.3323L0.844808 46.0256L0.794615 45.7015L0.777832 45.3605L0.794615 45.0371L0.844808 44.713L0.911942 44.4063L1.02927 44.0996L1.16338 43.8267L1.31411 43.5543L1.49857 43.3155L1.69982 43.0767L1.93447 42.8724L2.16912 42.6847L2.43734 42.5314L2.70556 42.3949L3.00719 42.2759L3.30898 42.2073L3.62754 42.1561L3.94596 42.1394Z M3.94629 42.1397V41.7134L4.31505 41.7308L4.68381 41.782L5.01917 41.8667L5.35436 41.9863L5.20347 42.3952L5.03595 42.7873L4.78451 42.7019L4.51629 42.634L4.23129 42.5997L3.94629 42.5828V42.1397Z M5.20316 42.395L5.35406 41.9861L5.67263 42.1395L5.97426 42.3271L6.25926 42.5315L6.5107 42.7703L6.20907 43.0769L5.90728 43.3836L5.70619 43.196L5.50495 43.0427L5.03564 42.7871L5.20316 42.395Z M6.20901 43.0768L6.51064 42.7703L6.74545 43.0258L6.96332 43.2982L7.14762 43.6054L7.29852 43.929L6.89619 44.0996L6.51064 44.2698L6.24242 43.8098L6.09169 43.588L5.90723 43.3835L6.20901 43.0768Z M6.89629 44.0996L7.29862 43.929L7.41594 44.2698L7.49986 44.6282L7.56684 44.9861L7.58362 45.3606H7.14772H6.72877L6.71199 45.0714L6.67842 44.7984L6.51074 44.2698L6.89629 44.0996Z M7.14772 45.3606H7.58362L7.56684 45.7359L7.49986 46.1112L7.41594 46.4689L7.29862 46.793L6.89629 46.6391L6.51074 46.4689L6.5945 46.2134L6.67842 45.9404L6.71199 45.6506L6.72877 45.3606H7.14772Z M6.89619 46.6392L7.29852 46.7931L7.14762 47.1165L6.96332 47.4232L6.74545 47.713L6.51064 47.9687L6.20901 47.662L5.90723 47.3553L6.09169 47.1508L6.24242 46.9464L6.51064 46.469L6.89619 46.6392Z M6.20907 47.6619L6.5107 47.9686L6.25926 48.2072L5.97426 48.4293L5.67263 48.6168L5.35406 48.7701L5.20316 48.3607L5.03564 47.9686L5.50495 47.6962L5.70619 47.5428L5.90728 47.3552L6.20907 47.6619Z M5.20347 48.3608L5.35436 48.7702L5.03595 48.8894L4.68381 48.9747L4.31505 49.0426L3.94629 49.06V48.6169V48.1906L4.23129 48.1737L4.51629 48.1394L4.78451 48.0541L5.03595 47.9688L5.20347 48.3608Z M3.94616 48.6169V49.06L3.5774 49.0426L3.22542 48.9747L2.87328 48.8894L2.53809 48.7702L2.70576 48.3608L2.87328 47.9688L3.39309 48.1394L3.66116 48.1737L3.94616 48.1906V48.6169Z M2.70597 48.3607L2.53829 48.7701L2.21972 48.6168L1.91809 48.4293L1.64987 48.2072L1.39844 47.9686L1.70022 47.6619L2.00185 47.3552L2.2031 47.5428L2.42097 47.6962L2.87349 47.9686L2.70597 48.3607Z M1.69983 47.662L1.39804 47.9687L1.16339 47.713L0.962149 47.4232L0.777846 47.1165L0.626953 46.7931L1.02928 46.6392L1.41483 46.469L1.66626 46.9464L1.81716 47.1508L2.00146 47.3553L1.69983 47.662Z M1.02944 46.6391L0.627106 46.793L0.50978 46.452L0.425863 46.1112L0.37567 45.7359L0.358887 45.3606H0.777999H1.21374L1.23052 45.6506L1.26409 45.9404L1.33122 46.2134L1.41498 46.4689L1.02944 46.6391Z M0.777999 45.3606H0.358887L0.37567 44.9861L0.425863 44.6282L0.50978 44.2698L0.627106 43.929L1.02944 44.0996L1.41498 44.2698L1.33122 44.5255L1.26409 44.7984L1.23052 45.0714L1.21374 45.3606H0.777999Z M1.02928 44.0996L0.626953 43.929L0.777846 43.6223L0.962149 43.3156L1.16339 43.0258L1.39804 42.7703L1.69983 43.0768L2.00146 43.3835L1.81716 43.588L1.66626 43.7931L1.53215 44.0312L1.41483 44.2698L1.02928 44.0996Z M1.70022 43.0769L1.39844 42.7703L1.64987 42.5315L1.93488 42.3271L2.23651 42.1395L2.53829 41.9861L2.70597 42.395L2.87349 42.7871L2.63883 42.9067L2.40418 43.0427L2.2031 43.196L2.00185 43.3836L1.70022 43.0769Z M2.70576 42.3952L2.53809 41.9863L2.87328 41.8667L3.22542 41.782L3.5774 41.7308L3.94616 41.7134V42.1397V42.5828L3.66116 42.5997L3.39309 42.634L3.12472 42.7019L2.87328 42.7873L2.70576 42.3952Z M55.3247 42.0718L55.66 42.0885L55.9781 42.1397L56.2798 42.2077L56.5819 42.3273L56.8498 42.4638L57.1183 42.6171L57.3696 42.8042L57.5873 43.0091L57.8055 43.2472L57.9899 43.486L58.1408 43.7591L58.2749 44.0315L58.3755 44.3387L58.4589 44.6454L58.5098 44.9688L58.5264 45.2929L58.5098 45.6339L58.4589 45.958L58.3755 46.2647L58.2749 46.5714L58.1408 46.8443L57.9899 47.1167L57.8055 47.3724L57.5873 47.5943L57.3696 47.8155L57.1183 48.003L56.8498 48.1565L56.5819 48.293L56.2798 48.3952L55.9781 48.4806L55.66 48.5316L55.3247 48.5485L55.006 48.5316L54.6879 48.4806L54.3856 48.3952L54.084 48.293L53.8161 48.1565L53.5477 48.003L53.3129 47.8155L53.0781 47.5943L52.877 47.3724L52.6925 47.1167L52.5418 46.8443L52.4075 46.5714L52.2904 46.2647L52.2235 45.958L52.1733 45.6339L52.1562 45.2929L52.1733 44.9688L52.2235 44.6454L52.2904 44.3387L52.4075 44.0315L52.5418 43.7591L52.6925 43.486L52.877 43.2472L53.0781 43.0091L53.3129 42.8042L53.5477 42.6171L53.8161 42.4638L54.084 42.3273L54.3856 42.2077L54.6879 42.1397L55.006 42.0885L55.3247 42.0718Z M55.3247 42.0716V41.6453L55.6932 41.662L56.0621 41.7132L56.3974 41.7985L56.7328 41.9177L56.5819 42.3271L56.4141 42.7191L56.1626 42.6338L55.8942 42.5659L55.6097 42.5316L55.3247 42.5147V42.0716Z M56.5819 42.3271L56.7328 41.9177L57.0509 42.0716L57.3531 42.2586L57.6382 42.4637L57.8894 42.7018L57.5873 43.009L57.2857 43.3157L57.0846 43.1281L56.8835 42.9747L56.4141 42.7192L56.5819 42.3271Z M57.5873 43.0088L57.8894 42.7017L58.1242 42.9578L58.3417 43.2302L58.5263 43.5369L58.6771 43.861L58.2749 44.0312L57.8894 44.2019L57.621 43.7412L57.4701 43.52L57.2856 43.3156L57.5873 43.0088Z M58.2752 44.0315L58.6774 43.8613L58.7945 44.2022L58.8785 44.5601L58.9459 44.9178L58.9624 45.2929H58.5266H58.1074L58.0907 45.0031L58.057 44.7307L57.8896 44.2022L58.2752 44.0315Z M58.5266 45.2927H58.9624L58.9459 45.668L58.8785 46.0427L58.7945 46.401L58.6774 46.7245L58.2752 46.5712L57.8896 46.401L57.9731 46.1449L58.057 45.8725L58.0907 45.5827L58.1074 45.2927H58.5266Z M58.2749 46.5711L58.6771 46.7243L58.5263 47.0484L58.3417 47.3551L58.1242 47.6449L57.8894 47.9006L57.5873 47.5939L57.2856 47.2872L57.4701 47.0821L57.621 46.8778L57.8894 46.4009L58.2749 46.5711Z M57.5873 47.5941L57.8894 47.9008L57.6382 48.1394L57.3531 48.3607L57.0509 48.5483L56.7328 48.7016L56.5819 48.2928L56.4141 47.9008L56.8835 47.6277L57.0846 47.4744L57.2857 47.2874L57.5873 47.5941Z M56.5819 48.2929L56.7328 48.7017L56.4141 48.8215L56.0621 48.9062L55.6932 48.9748L55.3247 48.9917V48.5484V48.1227L55.6097 48.1052L55.8942 48.0711L56.1626 47.9862L56.4141 47.9009L56.5819 48.2929Z M55.3251 48.5484V48.9917L54.9561 48.9748L54.6042 48.9062L54.2523 48.8215L53.917 48.7017L54.0844 48.2929L54.2523 47.9009L54.7715 48.0711L55.0401 48.1052L55.3251 48.1227V48.5484Z M54.0842 48.2928L53.9169 48.7016L53.5981 48.5483L53.2965 48.3607L53.0281 48.1394L52.7769 47.9008L53.0783 47.5941L53.3806 47.2874L53.5817 47.4744L53.7992 47.6277L54.2522 47.9008L54.0842 48.2928Z M53.0781 47.5939L52.7766 47.9006L52.5418 47.6449L52.3407 47.3551L52.1563 47.0484L52.0054 46.7243L52.4075 46.5711L52.7931 46.4009L53.045 46.8778L53.1959 47.0821L53.3803 47.2872L53.0781 47.5939Z M52.4079 46.5712L52.0057 46.7245L51.8887 46.3835L51.8046 46.0427L51.7544 45.668L51.7378 45.2927H52.1566H52.5923L52.6096 45.5827L52.6427 45.8725L52.7101 46.1449L52.7934 46.401L52.4079 46.5712Z M52.1566 45.2929H51.7378L51.7544 44.9178L51.8046 44.5601L51.8887 44.2022L52.0057 43.8613L52.4079 44.0315L52.7934 44.2022L52.7101 44.4578L52.6427 44.7307L52.6096 45.0031L52.5923 45.2929H52.1566Z M52.4075 44.0312L52.0054 43.861L52.1563 43.5543L52.3407 43.247L52.5418 42.9578L52.7766 42.7017L53.0781 43.0088L53.3803 43.3156L53.1959 43.52L53.045 43.7245L52.9107 43.9633L52.7931 44.2019L52.4075 44.0312Z M53.0783 43.009L52.7769 42.7018L53.0281 42.4637L53.3131 42.2586L53.6148 42.0716L53.9169 41.9177L54.0842 42.3271L54.2522 42.7192L54.0174 42.8383L53.7828 42.9747L53.5817 43.1281L53.3806 43.3157L53.0783 43.009Z M54.0844 42.3271L53.917 41.9177L54.2523 41.7985L54.6042 41.7132L54.9561 41.662L55.3251 41.6453V42.0716V42.5147L55.0401 42.5316L54.7715 42.5659L54.5036 42.6338L54.2523 42.7191L54.0844 42.3271Z M29.6779 56.0483L30.0131 56.0652L30.3313 56.1163L30.6328 56.1842L30.9351 56.3038L31.203 56.4404L31.4715 56.5938L31.7228 56.7814L31.9403 56.9858L32.1585 57.2246L32.3431 57.4627L32.4939 57.7356L32.6281 58.008L32.7287 58.3154L32.812 58.6219L32.8623 58.946L32.8794 59.2696L32.8623 59.6105L32.812 59.9347L32.7287 60.2413L32.6281 60.548L32.4939 60.821L32.3431 61.0935L32.1585 61.349L31.9403 61.5708L31.7228 61.7922L31.4715 61.9798L31.203 62.133L30.9351 62.2696L30.6328 62.3718L30.3313 62.4571L30.0131 62.5083L29.6779 62.5251L29.3591 62.5083L29.0403 62.4571L28.7388 62.3718L28.4372 62.2696L28.1686 62.133L27.9007 61.9798L27.6661 61.7922L27.4313 61.5708L27.2302 61.349L27.0457 61.0935L26.8948 60.821L26.7607 60.548L26.6435 60.2413L26.5767 59.9347L26.5259 59.6105L26.5093 59.2696L26.5259 58.946L26.5767 58.6219L26.6435 58.3154L26.7607 58.008L26.8948 57.7356L27.0457 57.4627L27.2302 57.2246L27.4313 56.9858L27.6661 56.7814L27.9007 56.5938L28.1686 56.4404L28.4372 56.3038L28.7388 56.1842L29.0403 56.1163L29.3591 56.0652L29.6779 56.0483Z M29.6777 56.0486V55.6223L30.046 55.6392L30.4151 55.6903L30.7505 55.7756L31.0857 55.8954L30.9349 56.3041L30.7669 56.6963L30.5156 56.6108L30.2471 56.5429L29.9627 56.5086L29.6777 56.4919V56.0486Z M30.9346 56.304L31.0853 55.8953L31.4036 56.0485L31.7057 56.2356L31.9902 56.4406L32.2421 56.6787L31.9399 56.986L31.6382 57.2927L31.4373 57.105L31.2362 56.9517L30.7666 56.6962L30.9346 56.304Z M31.9403 56.9861L32.2426 56.6787L32.4767 56.9349L32.6949 57.2073L32.8794 57.514L33.0303 57.8381L32.6281 58.0083L32.2426 58.1791L31.974 57.7191L31.8233 57.4971L31.6387 57.2928L31.9403 56.9861Z M32.6277 58.0081L33.0299 57.8379L33.1469 58.1789L33.231 58.5366L33.2978 58.8944L33.3149 59.2697H32.879H32.4597L32.4433 58.9799L32.4095 58.7075L32.2422 58.1789L32.6277 58.0081Z M32.879 59.2698H33.3149L33.2978 59.6449L33.231 60.0196L33.1469 60.3779L33.0299 60.7015L32.6277 60.5481L32.2422 60.3779L32.3255 60.1218L32.4095 59.8494L32.4433 59.5596L32.4597 59.2698H32.879Z M32.6281 60.5481L33.0303 60.7015L32.8794 61.0256L32.6949 61.3322L32.4767 61.6221L32.2426 61.8777L31.9403 61.5709L31.6387 61.2642L31.8233 61.0599L31.974 60.8548L32.2426 60.3779L32.6281 60.5481Z M31.9399 61.5711L32.2421 61.8778L31.9902 62.1166L31.7057 62.3384L31.4036 62.5254L31.0853 62.6788L30.9346 62.2698L30.7666 61.8778L31.2362 61.6054L31.4373 61.4515L31.6382 61.2644L31.9399 61.5711Z M30.9349 62.2697L31.0857 62.6787L30.7669 62.7983L30.4151 62.8836L30.046 62.9516L29.6777 62.9685V62.5252V62.0995L29.9627 62.0822L30.2471 62.0485L30.5156 61.963L30.7669 61.8777L30.9349 62.2697Z M29.6776 62.5252V62.9685L29.3085 62.9516L28.9567 62.8836L28.6043 62.7983L28.2695 62.6787L28.4369 62.2697L28.6043 61.8777L29.1241 62.0485L29.3924 62.0822L29.6776 62.0995V62.5252Z M28.4369 62.2698L28.2696 62.6788L27.9508 62.5254L27.6492 62.3384L27.3807 62.1166L27.1294 61.8778L27.431 61.5711L27.7327 61.2644L27.9342 61.4515L28.1519 61.6054L28.6043 61.8778L28.4369 62.2698Z M27.4311 61.5709L27.1295 61.8777L26.8947 61.6221L26.6936 61.3322L26.5091 61.0256L26.3584 60.7015L26.7606 60.5481L27.1461 60.3779L27.3974 60.8548L27.5488 61.0599L27.7327 61.2642L27.4311 61.5709Z M26.7605 60.5481L26.3584 60.7015L26.2412 60.3606L26.1573 60.0196L26.1071 59.6449L26.0898 59.2698H26.5091H26.945L26.9615 59.5596L26.9952 59.8494L27.0626 60.1218L27.1461 60.3779L26.7605 60.5481Z M26.5091 59.2697H26.0898L26.1071 58.8944L26.1573 58.5366L26.2412 58.1789L26.3584 57.8379L26.7605 58.0081L27.1461 58.1789L27.0626 58.4344L26.9952 58.7075L26.9615 58.9799L26.945 59.2697H26.5091Z M26.7606 58.0083L26.3584 57.8381L26.5091 57.5314L26.6936 57.2248L26.8947 56.9349L27.1295 56.6787L27.4311 56.9861L27.7327 57.2928L27.5488 57.4971L27.3974 57.7016L27.2638 57.9403L27.1461 58.1791L26.7606 58.0083Z M27.431 56.986L27.1294 56.6787L27.3807 56.4406L27.6658 56.2356L27.9673 56.0485L28.2696 55.8953L28.4369 56.304L28.6043 56.6962L28.3701 56.8152L28.1353 56.9517L27.9342 57.105L27.7327 57.2927L27.431 56.986Z M28.4369 56.3041L28.2695 55.8954L28.6043 55.7756L28.9567 55.6903L29.3085 55.6392L29.6776 55.6223V56.0486V56.4919L29.3924 56.5086L29.1241 56.5429L28.8562 56.6108L28.6043 56.6963L28.4369 56.3041Z M29.4611 0L29.7964 0.0169064L30.1145 0.0679444L30.4162 0.135889L30.7183 0.255509L30.9862 0.392036L31.2547 0.545469L31.506 0.733034L31.7237 0.937505L31.9419 1.17611L32.1263 1.41423L32.2771 1.68729L32.4113 1.9597L32.5119 2.26689L32.5953 2.57359L32.6455 2.89768L32.6628 3.2213L32.6455 3.56214L32.5953 3.88623L32.5119 4.19293L32.4113 4.49964L32.2771 4.77269L32.1263 5.04511L31.9419 5.30062L31.7237 5.52248L31.506 5.74369L31.2547 5.93142L30.9862 6.08469L30.7183 6.22122L30.4162 6.32345L30.1145 6.40878L29.7964 6.45998L29.4611 6.47673L29.1424 6.45998L28.8236 6.40878L28.522 6.32345L28.2204 6.22122L27.952 6.08469L27.6841 5.93142L27.4493 5.74369L27.2145 5.52248L27.0134 5.30062L26.8289 5.04511L26.6782 4.77269L26.5439 4.49964L26.4267 4.19293L26.3599 3.88623L26.3091 3.56214L26.2925 3.2213L26.3091 2.89768L26.3599 2.57359L26.4267 2.26689L26.5439 1.9597L26.6782 1.68729L26.8289 1.41423L27.0134 1.17611L27.2145 0.937505L27.4493 0.733034L27.6841 0.545469L27.952 0.392036L28.2204 0.255509L28.522 0.135889L28.8236 0.0679444L29.1424 0.0169064L29.4611 0Z" />
</svg>
