<?xml version="1.0" encoding="utf-8"?>
<!-- Generator: Adobe Illustrator 24.1.1, SVG Export Plug-In . SVG Version: 6.00 Build 0)  -->
<svg version="1.1" id="Слой_1" xmlns="http://www.w3.org/2000/svg" xmlns:xlink="http://www.w3.org/1999/xlink" x="0px" y="0px"
	 viewBox="0 0 764 1024" style="enable-background:new 0 0 764 1024;" xml:space="preserve">
<g id="icomoon-ignore">
</g>
<g>
	<path d="M732.3,345.5c-0.1,0-0.1,0-0.2,0c-9.1-0.1-16.4-7.6-16.3-16.8l1.5-113.8c0.1-9.1,7.5-16.3,16.5-16.3c0.1,0,0.1,0,0.2,0
		c9.1,0.1,16.4,7.6,16.3,16.8l-1.5,113.8C748.7,338.2,741.3,345.5,732.3,345.5z"/>
</g>
<g>
	<path d="M379.5,407.8c-96.9,0-188.3-20-257.3-56.5C49.9,313.2,10.1,261.2,10.1,205.1S49.9,96.9,122.3,58.8
		c69-36.4,160.4-56.5,257.3-56.5c96.9,0,188.3,20,257.3,56.5C709.1,96.9,749,148.9,749,205.1s-39.8,108.1-112.2,146.3
		C567.8,387.8,476.4,407.8,379.5,407.8z M379.5,35.4C287.9,35.4,202,54.1,137.7,88c-61,32.2-94.5,73.7-94.5,117s33.6,84.9,94.5,117
		c64.3,33.9,150.2,52.6,241.8,52.6S557,356,621.4,322.1c61-32.2,94.5-73.7,94.5-117s-33.6-84.9-94.5-117
		C557,54.1,471.2,35.4,379.5,35.4z"/>
</g>
<g>
	<path d="M380.4,527.5c-88.4,0-173.8-17.1-240.4-48.2C71.4,447.4,26.9,402.7,14.6,353.5c-2.2-8.9,3.2-17.8,12-20.1
		c8.9-2.2,17.8,3.2,20.1,12c9.9,39.4,48,76.3,107.3,104c62.3,29.1,142.8,45.1,226.4,45.1c89.9,0,174.6-18.2,238.4-51.3
		c60.6-31.4,95-72.2,97-115c0.4-9.1,8.2-16.2,17.3-15.8c9.1,0.4,16.2,8.2,15.8,17.3c-2.5,55.1-43.3,105.8-114.8,142.9
		C565.6,508,475.5,527.5,380.4,527.5z"/>
</g>
<g>
	<path d="M31.1,369.3c-8.9,0-16.3-7.1-16.5-16.1l-4.3-148.7c-0.3-9.1,6.9-16.7,16.1-17c9.1-0.3,16.7,6.9,17,16.1l4.3,148.7
		c0.3,9.1-6.9,16.7-16.1,17C31.4,369.3,31.2,369.3,31.1,369.3z"/>
</g>
<g>
	<path d="M561.1,407.6c-11.9,0-21.5,7.1-21.5,16.5s9.6,15.7,21.5,15.7s21.3-6.9,21.3-15.7S572.9,407.6,561.1,407.6z"/>
</g>
<g>
	<path d="M732.3,593.5c-0.1,0-0.1,0-0.2,0c-9.1-0.1-16.4-7.6-16.3-16.8l1.5-113.8c0.1-9.1,7.6-16.4,16.8-16.3
		c9.1,0.1,16.4,7.6,16.3,16.8l-1.5,113.8C748.7,586.3,741.3,593.5,732.3,593.5z"/>
</g>
<g>
	<path d="M379.5,655.7c-97,0-188.3-20-257.1-56.2C50.1,561.4,10.3,509.4,10.3,453h33.1c0,43.6,33.6,85.2,94.5,117.3
		c64.1,33.8,150,52.4,241.7,52.4c90.4,0,175.4-18.2,239.4-51.3c60.7-31.4,95.1-72.1,96.8-114.7l33,1.3
		C744.4,568.8,582.2,655.7,379.5,655.7z"/>
</g>
<g>
	<path d="M380.4,775.6c-88.4,0-173.8-17.1-240.4-48.2C71.4,695.5,26.9,650.8,14.6,601.5c-2.2-8.9,3.2-17.8,12-20.1
		c8.9-2.2,17.8,3.2,20.1,12c9.9,39.4,48,76.3,107.3,104c62.3,29.1,142.8,45.1,226.4,45.1c89.9,0,174.6-18.2,238.4-51.3
		c60.6-31.4,95-72.2,97-115c0.4-9.1,8.1-16.2,17.3-15.8c9.1,0.4,16.2,8.2,15.8,17.3c-2.5,55.1-43.3,105.8-114.8,142.9
		C565.6,756.1,475.5,775.6,380.4,775.6z"/>
</g>
<g>
	<path d="M31.1,617.3c-8.9,0-16.3-7.1-16.5-16.1l-4.3-148.7c-0.3-9.1,6.9-16.7,16.1-17c9.1-0.3,16.7,6.9,17,16.1l4.3,148.7
		c0.3,9.1-6.9,16.7-16.1,17C31.4,617.3,31.2,617.3,31.1,617.3z"/>
</g>
<g>
	<path d="M561.1,655.7c-11.9,0-21.5,7.1-21.5,16.5s9.6,16.5,21.5,16.5s21.3-6.9,21.3-16.5S572.9,655.7,561.1,655.7z"/>
</g>
<g>
	<path d="M732.3,841.6c-0.1,0-0.1,0-0.2,0c-9.1-0.1-16.4-7.6-16.3-16.8l1.5-113.8c0.1-9.1,7.6-16.4,16.8-16.3
		c9.1,0.1,16.4,7.6,16.3,16.8l-1.5,113.8C748.7,834.3,741.3,841.6,732.3,841.6z"/>
</g>
<g>
	<path d="M379.5,903.8c-97,0-188.3-20-257.1-56.2C50.1,809.5,10.3,757.5,10.3,701h33.1c0,43.6,33.6,85.2,94.5,117.3
		c64.1,33.8,150,52.4,241.7,52.4c90.4,0,175.4-18.2,239.4-51.3c60.7-31.4,95.1-72.1,96.8-114.7l33,1.3
		C744.4,816.9,582.2,903.8,379.5,903.8z"/>
</g>
<g>
	<rect x="380.4" y="498.6" width="3.8" height="33.1"/>
</g>
<g>
	<path d="M380.4,1023.7c-88.4,0-173.8-17.1-240.4-48.2C71.4,943.6,26.9,898.8,14.6,849.6c-2.2-8.9,3.2-17.8,12-20.1
		c8.9-2.2,17.8,3.2,20.1,12c9.9,39.4,48,76.3,107.3,104c62.3,29.1,142.8,45.1,226.4,45.1c89.9,0,174.6-18.2,238.4-51.3
		c60.6-31.4,95-72.2,97-115c0.4-9.1,8.1-16.2,17.3-15.8c9.1,0.4,16.2,8.2,15.8,17.3c-2.5,55.1-43.3,105.8-114.8,142.9
		C565.6,1004.1,475.5,1023.7,380.4,1023.7z"/>
</g>
<g>
	<path d="M31.1,865.4c-8.9,0-16.3-7.1-16.5-16.1l-4.3-148.7c-0.3-9.1,6.9-16.7,16.1-17c9.1-0.3,16.7,6.9,17,16.1l4.3,148.7
		c0.3,9.1-6.9,16.7-16.1,17C31.4,865.4,31.2,865.4,31.1,865.4z"/>
</g>
<g>
	<path d="M561.1,903.8c-11.9,0-21.5,7.1-21.5,16.5s9.6,16.5,21.5,16.5s21.3-6.9,21.3-16.5S572.9,903.8,561.1,903.8z"/>
</g>
</svg>
