<?xml version="1.0" encoding="utf-8"?>
<!-- Generator: Adobe Illustrator 24.1.1, SVG Export Plug-In . SVG Version: 6.00 Build 0)  -->
<svg version="1.1" id="Слой_1" xmlns="http://www.w3.org/2000/svg" xmlns:xlink="http://www.w3.org/1999/xlink" x="0px" y="0px"
	 viewBox="0 0 823 944" style="enable-background:new 0 0 823 944;" xml:space="preserve">
<g id="icomoon-ignore">
</g>
<g>
	<path d="M264.5,930.8c-6.8,0-13.6-0.3-19.6-0.8l-8.8-0.7l-11.8-36.3c-3.5-0.6-6.9-1.4-10.2-2.1l-23.6,29.1l-10.8-3.3
		c-20.8-7.3-41.2-17.7-58.8-29.8l-7.2-5l7.5-37.8c-2.4-2-4.8-4.1-7.1-6.3l-27.7,9.6L82,835.3l-9.9,8.7c-1-1.1-2-2.3-3-3.4
		l-10.3-11.8l0.6-0.2c-9.5-12.6-17.9-26.2-25.3-40.9l-4.1-8.1l25.5-28.3c-0.5-1.4-1-2.7-1.4-4c-0.5-1.4-1-2.8-1.5-4.3l-28.4-5.1
		l2-11.2l-12.4,2.5c-1.2-5.4-2.2-10.9-3-16.4l-0.8-4.6l0.2,0c-1.5-11-2.2-22.2-2.2-33.4c0-5.4,0.2-10.7,0.5-15.5l0.6-9.2l36.3-11
		c0.5-3.3,1.1-6.5,1.7-9.6l-28-24.2l3-10.4c6.9-21,16.8-41.5,28.6-59.4l5-7.5l36.6,7.6c2.2-2.8,4.5-5.5,6.9-8.2l-9.9-27.6l12.3-4.4
		l-9-9.7c0.6-0.6,1.3-1.2,1.9-1.8l13-12l0.3,0.7c11.9-9.4,24.6-17.7,38.6-25.2l8.2-4.4l28.1,25.2c3-1.2,6-2.3,9.3-3.4
		c0.9-0.3,1.8-0.7,2.7-1l5.1-28.6l11.1,2l-2.6-12.3c5.5-1.3,11.1-2.3,16.8-3.2l4.3-0.8l0,0.2c11.5-1.6,23.2-2.4,34.9-2.4
		c3.9,0,7.8,0.1,11.3,0.3l9,0.4l12.2,35.4c5,0.7,10,1.6,14.7,2.6l24.1-28.9l10.6,3.1c20.1,6.8,39.7,16.4,56.8,27.6l7.6,5l-7.7,36.7
		c4.2,3.4,8.3,6.9,12.3,10.5l27.2-9.9l4.4,12l10-8.6c1.2,1.3,2.3,2.7,3.4,4l9.4,11l-0.5,0.2c9,12,16.9,24.8,24,38.8l4.2,8.2
		l-25.2,28.1c1.1,2.7,2,5.3,2.9,7.9c0.8,2.4,1.6,5,2.4,7.7l27.9,4.4l-1.8,11.3l12.5-2.3c1,5.2,1.9,10.5,2.6,15.8l0.7,4.3l-0.2,0
		c1.2,10.1,1.8,20.3,1.8,30.5c0,5.3-0.2,10.5-0.4,15.2l-0.5,8.8l-36,12.5c-0.9,5.5-2,10.9-3.2,16l28.5,24l-3.4,10.7
		c-7.2,19.6-17.1,38.8-28.6,55.5l-5,7.3l-37.1-7.9c-3.1,3.7-6.4,7.4-9.8,10.9l9.6,26.7l-12,4.4l8.5,10c-1.3,1.1-2.7,2.3-4,3.4
		l-11,9.3l-0.2-0.5c-12.4,9.1-25.7,17-40.2,24l-8.1,3.9l-28.3-25.5c-0.5,0.2-1,0.4-1.6,0.5c-3.5,1.3-7,2.4-10.6,3.4l-4.9,27.9
		l-11.3-2l2.2,12.5c-5.1,1-10.3,1.8-15.6,2.5l-4.9,0.8l0-0.2C283.5,930.3,274,930.8,264.5,930.8z M255.8,904
		c2.9,0.1,5.8,0.2,8.7,0.2c11.1,0,22.3-0.8,33.2-2.4L304,866l8.6-2c5.7-1.3,10.7-2.8,15.7-4.6l0,0l0.7-0.2c2.9-0.9,5.6-2,8.2-3
		l7.8-3.2l27.2,24.4c12.4-6.5,23.7-13.9,34.4-22.3l-12.3-33.9l6.2-6c6.6-6.3,12.7-13.2,18.3-20.3l5.4-7.1l35.8,7.6
		c6.9-11,13-22.9,17.9-35.2l-27.6-23.3l2.5-8.3c2.4-8,4.4-17.7,5.7-27.4l1-9.3l34.7-12c0-1.6,0-3.2,0-4.8c0-11.7-0.9-23.4-2.6-34.8
		l-35.5-5.6l-2.2-8.4c-1.4-5.4-2.8-10-4.3-14.3c-1.5-4.3-3.2-8.8-5.4-13.7l-3.5-7.9l24.3-27.1c-6.6-12-14-23-22.3-33.3l-34,12.3
		l-6-5.9c-6.8-6.7-14.1-13-21.8-18.7l-7.5-5.4l7.5-35.4c-11.3-6.7-23.6-12.6-36.3-17.4l-23.4,28l-8.2-2.2
		c-7.8-2.1-17.1-3.8-26.3-4.8l-9.4-0.8l-11.8-34.2c-0.4,0-0.8,0-1.1,0c-13.4,0-26.7,1.2-39.8,3.5l-6.4,36l-8.2,2.2
		c-2.9,0.8-5.9,1.7-8.9,2.8l-0.4,0.1c-1.7,0.6-3.3,1.1-4.8,1.7l-11.6,4.8l-5.1-11.6l-7.9,8.8l-20.3-18.3
		c-12.1,7.1-23.1,14.9-33.5,23.8l12.4,34.5l-5.7,6c-5.4,5.6-10.4,11.6-15.1,17.9l-5.3,7.5l-35.5-7.4c-7.2,12.1-13.5,25.2-18.4,38.8
		l27,23.4l-2,7.9c-1.6,6.4-3,14.2-3.8,22l-0.9,9.7l-35.2,10.6c0,1.5,0,3.1,0,4.6c0,12.9,1.1,25.7,3.2,38.3l35.8,6.4l2.2,8.1
		c1,3.7,2.1,7.3,3.3,10.5c1.2,3.3,2.6,7,4.1,10.9l3,7.7l-24.2,26.8c7,12.9,15,24.6,24,35.7l34.7-12l5.9,5.9
		c5.3,5.2,10.9,10.2,16.7,14.8l6.9,5.3l-7.2,36.4c11.9,7.5,24.8,14,38.2,19.2l22.9-28.3l8.5,2.4c6.3,1.8,14.2,3.5,22.2,4.8l9.5,1.2
		L255.8,904z"/>
</g>
<g>
	<path d="M264.6,753c-43,0-78-35-78-78s35-78,78-78s78,35,78,78S307.6,753,264.6,753z M264.6,623.6c-28.3,0-51.4,23.1-51.4,51.4
		s23.1,51.4,51.4,51.4c28.3,0,51.4-23.1,51.4-51.4S292.9,623.6,264.6,623.6z"/>
</g>
<g>
	<path d="M554.1,519.2c-6.8,0-13.7-0.3-19.8-0.8l-8.8-0.7l-11.8-36.2c-3.6-0.6-7.1-1.4-10.5-2.2l-24,28.6l-10.7-3.4
		c-21-7.7-40.7-17.9-58.5-30.3l-7.2-5.1l8-37.1c-2.4-2-4.7-4-6.9-6.1l-27.1,9.8l-4.4-12.1l-9.9,8.7c-1.1-1.3-2.3-2.6-3.4-3.9
		l-9.7-11.1l0.6-0.2c-9.6-12.7-18-26.3-25.5-41.2l-4-8.1l25.4-28.7c-0.5-1.4-1-2.9-1.5-4.4c-0.5-1.4-0.9-2.7-1.3-4l-28.6-5.1l2-11.1
		l-12.4,2.4c-1.2-5.5-2.2-11.1-3-16.8l-0.7-4.1l0.2,0c-1.5-11.2-2.2-22.5-2.2-33.9c0-5.2,0.1-10.3,0.4-14.9l0.6-9.1l36.1-11.7
		c0.5-3,1.1-5.9,1.7-8.7L308,193.5l3-10.5c6.9-21,16.8-41.6,28.6-59.4l5-7.6l36.7,7.9c2.2-2.8,4.5-5.5,6.9-8.1l-9.9-27.6l12.3-4.4
		l-8.9-9.7c0.5-0.5,1-0.9,1.5-1.4l13.5-12.3l0.3,0.7c12.2-9.6,25.4-17.9,39.8-25.4l8.2-4.2l27.9,25.1c3-1.2,6.2-2.3,9.5-3.4l2.5-0.8
		l5.1-28.7l11.1,2l-2.6-12.3c5.5-1.2,11.1-2.3,16.6-3.2l4.4-0.8l0,0.2c11.5-1.6,23.2-2.4,34.9-2.4c3.9,0,7.8,0.1,11.3,0.3l9.2,0.4
		l11.6,35.6c5,0.7,9.9,1.6,14.6,2.6l24.3-28.3l10.5,3.1c20.1,6.8,39.7,16.4,56.8,27.6l7.6,5L692.5,90c4.2,3.3,8.3,6.8,12.2,10.4
		L737,88l5.2,2.6l-5.5,11.1l9.3-8.3c0.9,1,1.9,2.1,2.8,3.2l42.6,48.4l-13.4-6.7c1.5,2.6,2.9,5.3,4.3,8.1l4.2,8.2l-25.3,28.1
		c1,2.6,2,5.2,2.9,7.9c0.9,2.5,1.7,5.1,2.5,7.9l28.1,5l-2,11.3l12.5-2.3c1,5.1,1.9,10.3,2.6,15.5l0.9,5.1l-0.2,0
		c1.1,9.7,1.7,19.5,1.7,29.3c0,5.6-0.2,11.1-0.5,16.1l-0.6,9L773.3,299c-0.9,5.4-2,10.8-3.2,15.8l28.4,24l-3.4,10.7
		c-7.2,20.1-17.2,39.7-28.8,56.8l-5,7.4l-37.1-7.9c-3.1,3.7-6.4,7.4-9.8,10.9l9.6,26.5l-12.1,4.4l8.5,10c-1.3,1.1-2.6,2.3-4,3.4
		l-11,9.3l-0.2-0.6c-12.5,9.2-25.8,17.1-40.4,24.1l-8.1,3.9l-28.2-25.5c-0.9,0.3-1.8,0.6-2.8,1c-2.9,1-6,1.9-9.3,2.9l-4.9,28.1
		l-11.3-2l2.2,12.5c-5.1,1-10.2,1.8-15.3,2.4l-5.1,0.8l0-0.2C572.9,518.7,563.5,519.2,554.1,519.2z M545.2,492.4
		c2.9,0.1,5.9,0.2,8.9,0.2c11.1,0,22.1-0.8,33-2.3l6.2-35.5l8.3-2.2c6.1-1.6,11.2-3.1,15.9-4.7l0.2-0.1c1.8-0.6,3.6-1.3,5.6-2
		c1.3-0.5,2.5-1,3.8-1.4l7.5-2.7l26.7,24.1c12.4-6.5,23.8-13.9,34.5-22.4l-12.3-33.8l6.2-6c6.6-6.3,12.7-13.2,18.3-20.3l5.4-7.1
		l35.7,7.6c7-11.4,13.3-23.7,18.3-36.4l-27.6-23.3l2.5-8.3c2.4-8,4.4-17.7,5.7-27.3l1-9.5l34.6-11.3c0-1.8,0.1-3.6,0.1-5.4
		c0-11.5-0.9-22.9-2.6-34.2l-35.6-6.4l-2.2-8.2c-1.4-5.4-2.8-10-4.3-14.3c-1.6-4.7-3.5-9.3-5.5-14.2l-3.1-7.7l5.5-6.2l18.4-20.5
		c-6.5-11.6-13.8-22.2-22-32.2l-34.1,13.1l-6.1-6.1c-6.7-6.7-14-13-21.6-18.6l-7.6-5.4l7.5-35.5C659,59.2,646.7,53.2,634,48.5
		l-23.5,27.5l-8.1-2.2c-7.7-2.1-17.1-3.8-26.4-4.9l-9.6-0.9l-11.1-34.3c-0.3,0-0.6,0-0.9,0c-13.4,0-26.7,1.2-39.8,3.5l-6.3,35.6
		l-17.6,5.6c-1.9,0.6-3.7,1.3-5.4,1.9l-10.8,4.5l-5.1-11.6l-7.9,8.8l-20.5-18.4c-12.4,7-23.8,14.9-34.4,23.9l12.4,34.4l-5.7,6
		c-5.4,5.7-10.5,11.7-15.3,18l-5.4,7.5l-35.4-7.6c-7.2,12-13.5,25.1-18.4,38.6l28.1,23.7l-2.2,8.2c-1.6,6-3,13.4-4.1,20.8l-1.1,9.5
		l-34.6,11.2c0,1.4,0,2.9,0,4.3c0,13,1.1,26,3.2,38.8l35.9,6.4l2.2,8.1c0.9,3.2,2,6.6,3.3,10.7l0.1,0.3c0.4,1.4,0.9,2.8,1.4,4
		l2.8,6.7l-11.8,5.1l9.2,8.1l-18.8,21.2c7,12.9,14.9,24.6,23.9,35.6l34.2-12.4l6,6.1c5.2,5.2,10.7,10.2,16.5,14.7l7.2,5.3l-7.8,36
		c11.8,7.6,24.8,14.2,38.1,19.6l23.3-27.7l8.4,2.5c6.5,1.9,14.5,3.6,22.3,4.8l9.3,1.1L545.2,492.4z"/>
</g>
<g>
	<path d="M554.3,341.2c-43,0-78-35-78-78s35-78,78-78s78,35,78,78S597.3,341.2,554.3,341.2z M554.3,211.8
		c-28.3,0-51.4,23.1-51.4,51.4c0,28.3,23.1,51.4,51.4,51.4c28.3,0,51.4-23.1,51.4-51.4C605.7,234.8,582.6,211.8,554.3,211.8z"/>
</g>
</svg>
