<svg xmlns="http://www.w3.org/2000/svg" viewBox="0 0 66 68.24"><defs><style>.cls-1{fill:#1f50a4;}</style></defs><title>members</title><g id="Слой_2" data-name="Слой 2"><g id="Слой_1-2" data-name="Слой 1"><path class="cls-1" d="M35.07,17.1a8.55,8.55,0,1,1,8.55-8.55A8.55,8.55,0,0,1,35.07,17.1Zm0-14.1a5.55,5.55,0,1,0,5.55,5.55A5.56,5.56,0,0,0,35.07,3Z"/><path class="cls-1" d="M41.14,33.24H28.86A4.87,4.87,0,0,1,24,28.38V22.1a4.87,4.87,0,0,1,4.86-4.86H41.14A4.87,4.87,0,0,1,46,22.1v6.28A4.87,4.87,0,0,1,41.14,33.24Zm-12.28-13A1.86,1.86,0,0,0,27,22.1v6.28a1.86,1.86,0,0,0,1.86,1.86H41.14A1.86,1.86,0,0,0,43,28.38V22.1a1.86,1.86,0,0,0-1.86-1.86Z"/><path class="cls-1" d="M11.7,52.16a8.55,8.55,0,1,1,8.55-8.55A8.56,8.56,0,0,1,11.7,52.16Zm0-14.1a5.55,5.55,0,1,0,5.55,5.55A5.56,5.56,0,0,0,11.7,38.06Z"/><path class="cls-1" d="M17.14,68.24H4.86A4.87,4.87,0,0,1,0,63.38V57.1a4.87,4.87,0,0,1,4.86-4.86H17.14A4.87,4.87,0,0,1,22,57.1v6.28A4.87,4.87,0,0,1,17.14,68.24Zm-12.28-13A1.86,1.86,0,0,0,3,57.1v6.28a1.86,1.86,0,0,0,1.86,1.86H17.14A1.86,1.86,0,0,0,19,63.38V57.1a1.86,1.86,0,0,0-1.86-1.86Z"/><path class="cls-1" d="M55.94,52.16a8.55,8.55,0,1,1,8.55-8.55A8.55,8.55,0,0,1,55.94,52.16Zm0-14.1a5.55,5.55,0,1,0,5.55,5.55A5.56,5.56,0,0,0,55.94,38.06Z"/><path class="cls-1" d="M61.14,68.24H48.86A4.87,4.87,0,0,1,44,63.38V57.1a4.87,4.87,0,0,1,4.86-4.86H61.14A4.87,4.87,0,0,1,66,57.1v6.28A4.87,4.87,0,0,1,61.14,68.24Zm-12.28-13A1.86,1.86,0,0,0,47,57.1v6.28a1.86,1.86,0,0,0,1.86,1.86H61.14A1.86,1.86,0,0,0,63,63.38V57.1a1.86,1.86,0,0,0-1.86-1.86Z"/><path class="cls-1" d="M39.66,53.08a1.49,1.49,0,0,1-1.1-.48l-3.81-4.14-4.19,4.18a1.49,1.49,0,0,1-2.12,0,1.51,1.51,0,0,1,0-2.12l5.29-5.28a1.56,1.56,0,0,1,1.09-.44,1.52,1.52,0,0,1,1.08.48l4.86,5.29a1.5,1.5,0,0,1-.08,2.12A1.53,1.53,0,0,1,39.66,53.08Z"/><path class="cls-1" d="M34.5,47.74a1.5,1.5,0,0,1-1.5-1.5v-13a1.5,1.5,0,1,1,3,0v13A1.5,1.5,0,0,1,34.5,47.74Z"/></g></g></svg>