<?xml version="1.0" encoding="utf-8"?>
<!-- Generator: Adobe Illustrator 24.1.1, SVG Export Plug-In . SVG Version: 6.00 Build 0)  -->
<svg version="1.1" id="Слой_1" xmlns="http://www.w3.org/2000/svg" xmlns:xlink="http://www.w3.org/1999/xlink" x="0px" y="0px"
	 viewBox="0 0 853 1024" style="enable-background:new 0 0 853 1024;" xml:space="preserve">
<g id="icomoon-ignore">
</g>
<g>
	<path d="M702.9,1024H104.3L0,913.9V147.5c0-28.7,23.4-52.1,52.1-52.1h650.8c28.7,0,52.1,23.4,52.1,52.1v824.4
		C755,1000.6,731.6,1024,702.9,1024z M119.2,989.3h583.7c9.6,0,17.4-7.8,17.4-17.4V147.5c0-9.6-7.8-17.4-17.4-17.4H52.1
		c-9.6,0-17.4,7.8-17.4,17.4v752.6L119.2,989.3z"/>
</g>
<g>
	<polygon points="150.5,1006.6 115.8,1006.6 115.8,924.6 20.3,924.6 20.3,889.8 150.5,889.8 	"/>
</g>
<g>
	<path d="M801.3,928.5h-63.7v-34.7h63.7c9.6,0,17.4-7.8,17.4-17.4V52.1c0-9.6-7.8-17.4-17.4-17.4H150.5c-9.6,0-17.4,7.8-17.4,17.4
		v60.7H98.4V52.1C98.4,23.4,121.8,0,150.5,0h650.8c28.7,0,52.1,23.4,52.1,52.1v824.4C853.4,905.2,830,928.5,801.3,928.5z"/>
</g>
<g>
	<rect x="135.9" y="254.6" width="225.6" height="34.7"/>
</g>
<g>
	<rect x="135.9" y="324" width="225.6" height="34.7"/>
</g>
<g>
	<rect x="135.9" y="393.5" width="225.6" height="34.7"/>
</g>
<g>
	<rect x="144.6" y="561.1" width="436.8" height="34.7"/>
</g>
<g>
	<rect x="144.6" y="630.5" width="436.8" height="34.7"/>
</g>
<g>
	<rect x="144.6" y="700" width="436.8" height="34.7"/>
</g>
</svg>
