<svg xmlns="http://www.w3.org/2000/svg" viewBox="0 0 68.11 68.11"><defs><style>.cls-1{fill:#1f50a4;}</style></defs><title>time</title><g id="Слой_2" data-name="Слой 2"><g id="Слой_1-2" data-name="Слой 1"><path class="cls-1" d="M34.05,68.11A34.06,34.06,0,1,1,68.11,34.05,34.1,34.1,0,0,1,34.05,68.11ZM34.05,3A31.06,31.06,0,1,0,65.11,34.05,31.09,31.09,0,0,0,34.05,3Z"/><path class="cls-1" d="M34.05,60.6A26.55,26.55,0,1,1,60.6,34.05,26.58,26.58,0,0,1,34.05,60.6Zm0-50.09A23.55,23.55,0,1,0,57.6,34.05,23.57,23.57,0,0,0,34.05,10.51Z"/><path class="cls-1" d="M34.23,14.82a1.5,1.5,0,0,1-1.5-1.5v-4a1.5,1.5,0,0,1,3,0v4A1.5,1.5,0,0,1,34.23,14.82Z"/><path class="cls-1" d="M34.23,59.82a1.5,1.5,0,0,1-1.5-1.5v-4a1.5,1.5,0,0,1,3,0v4A1.5,1.5,0,0,1,34.23,59.82Z"/><path class="cls-1" d="M13.73,35.32h-5a1.5,1.5,0,1,1,0-3h5a1.5,1.5,0,0,1,0,3Z"/><path class="cls-1" d="M58.73,35.32h-5a1.5,1.5,0,0,1,0-3h5a1.5,1.5,0,0,1,0,3Z"/><path class="cls-1" d="M34.05,38.27a4.22,4.22,0,1,1,4.22-4.22A4.22,4.22,0,0,1,34.05,38.27Zm0-5.43a1.22,1.22,0,1,0,1.22,1.21A1.22,1.22,0,0,0,34.05,32.84Z"/><path class="cls-1" d="M34.23,32.82a1.5,1.5,0,0,1-1.5-1.5v-11a1.5,1.5,0,0,1,3,0v11A1.5,1.5,0,0,1,34.23,32.82Z"/><path class="cls-1" d="M45.33,49.54A1.51,1.51,0,0,1,44.18,49l-9.6-11.27a1.49,1.49,0,0,1,.17-2.11,1.51,1.51,0,0,1,2.12.16l9.6,11.27a1.51,1.51,0,0,1-1.14,2.48Z"/></g></g></svg>