<svg xmlns="http://www.w3.org/2000/svg" viewBox="0 0 71.95 63.24"><defs><style>.cls-1{fill:#1f50a4;}</style></defs><title>manual</title><g id="Слой_2" data-name="Слой 2"><g id="Слой_1-2" data-name="Слой 1"><path class="cls-1" d="M15.42,41.89H8.63a1.25,1.25,0,0,0-1.25,1.25v18.6A1.25,1.25,0,0,0,8.63,63h6.79a1.25,1.25,0,0,0,1.25-1.25V43.14A1.25,1.25,0,0,0,15.42,41.89Zm-1.25,18.6H9.88V44.39h4.29Z"/><path class="cls-1" d="M15.42,63.24H8.63a1.5,1.5,0,0,1-1.5-1.5V43.14a1.5,1.5,0,0,1,1.5-1.5h6.79a1.5,1.5,0,0,1,1.5,1.5v18.6A1.5,1.5,0,0,1,15.42,63.24ZM8.63,42.14a1,1,0,0,0-1,1v18.6a1,1,0,0,0,1,1h6.79a1,1,0,0,0,1-1V43.14a1,1,0,0,0-1-1Zm5.79,18.6H9.63V44.14h4.79Zm-4.29-.5h3.79V44.64H10.13Z"/><path class="cls-1" d="M71.7,14.7a1.25,1.25,0,0,0-.15-.58,1.11,1.11,0,0,0-.27-.54L59.71.67a1.21,1.21,0,0,0-.93-.42H13.17a1.28,1.28,0,0,0-.95.43L.56,14.17a1.26,1.26,0,0,0,0,1.68l21,22.24c-1.33,1.7-2.48,3.18-2.91,3.76a1.41,1.41,0,0,0-.13.24v0a1.72,1.72,0,0,0-.07.21.22.22,0,0,1,0,.08.86.86,0,0,0,0,.16v0l-.09,19a1.25,1.25,0,0,0,1.23,1.25l8,.11.23,0H44.15a3.9,3.9,0,0,0,3.93-4.13,5.27,5.27,0,0,0-.21-1.41A3.91,3.91,0,0,0,51.2,54,4.6,4.6,0,0,0,50,49.89a4,4,0,0,0,1.22-2.58,4.34,4.34,0,0,0-1.19-3.22,5,5,0,0,0,.55-5.87L70.67,15.93A1.26,1.26,0,0,0,71.7,14.7ZM46.36,35.79l-3.92,0L48.6,16H67.28L48.84,36.46A5,5,0,0,0,46.36,35.79Zm-10-8.92c-.59-1.65-2.78-4.55-4.61-5.17a6.81,6.81,0,0,0-3.78,0L26.12,16H46L39.83,35.71l-3.62,0C36.57,33.31,37.11,28.87,36.41,26.87ZM23.2,36.1,4.14,16H23.48l2.46,7.46a1,1,0,0,0,.08.14,8.09,8.09,0,0,0,.2,3.38c.34,1.9.77,4.26-.28,5.65C25.41,33.28,24.34,34.65,23.2,36.1ZM12.91,3.72l9.16,9.73H4.49ZM36,3.82l8.69,9.63H26.82Zm2.41-1.07h18.2l-9.3,9.87Zm-14,9.56-9-9.56H33.55ZM50,13.45l9.14-9.7,8.69,9.7Zm-2.39,32c.12,0,1.19.21,1.18,1.82,0,.42-.87,1.3-1.61,1.78a1.26,1.26,0,0,0-.55,1.26,1.24,1.24,0,0,0,.93,1c.74.19,1.39.51,1.18,2.4C48.58,54.93,47,55.11,46,55.11a1.26,1.26,0,0,0-1,1.94,3.91,3.91,0,0,1,.59,1.78,1.43,1.43,0,0,1-1.43,1.63H29.38l-8.48-.11L21,43c.66-.87,2.08-2.69,3.47-4.45s2.83-3.6,3.48-4.47c1.7-2.26,1.15-5.35.74-7.6a10.7,10.7,0,0,1-.26-2.23A4,4,0,0,1,31,24.07a8.22,8.22,0,0,1,3,3.63c.54,1.51,0,6.31-.54,9a1.26,1.26,0,0,0,.26,1,1.32,1.32,0,0,0,1,.46l11.63.13a2.48,2.48,0,0,1,.92,4.78,1.26,1.26,0,0,0-.77,1.32A1.24,1.24,0,0,0,47.58,45.47Z"/><path class="cls-1" d="M44.15,63.21H27.83l-.27,0-7.94-.11a1.49,1.49,0,0,1-1.48-1.5l.09-19c0-.09,0-.16,0-.22a.2.2,0,0,1,0-.09,1.83,1.83,0,0,1,.08-.25,1.35,1.35,0,0,1,.17-.32c.43-.59,1.6-2.08,2.78-3.59L.41,16a1.5,1.5,0,0,1,0-2L12,.52A1.51,1.51,0,0,1,13.17,0H58.78A1.5,1.5,0,0,1,59.9.5L71.47,13.41a1.42,1.42,0,0,1,.32.65,1.26,1.26,0,0,1,.16.64,1.52,1.52,0,0,1-1.15,1.46L50.93,38.25a5.31,5.31,0,0,1,.65,2.52,5.19,5.19,0,0,1-1.18,3.31,4.69,4.69,0,0,1,1.11,3.24,4,4,0,0,1-1.12,2.56A5,5,0,0,1,51.45,54a4.12,4.12,0,0,1-3.27,3.56,5.3,5.3,0,0,1,.15,1.23A4.14,4.14,0,0,1,44.15,63.21ZM13.17.5a1,1,0,0,0-.76.35L.75,14.33a1,1,0,0,0,0,1.34L22,38.08l-.13.17c-1.23,1.56-2.47,3.14-2.91,3.75a.85.85,0,0,0-.1.19.94.94,0,0,0-.06.18l-.26,0,.25,0s0,.08,0,.13l-.09,19a1,1,0,0,0,1,1l8,.11.22,0H44.15a3.66,3.66,0,0,0,3.68-3.88,5,5,0,0,0-.2-1.34l-.07-.25.25-.06A3.68,3.68,0,0,0,51,54a4.42,4.42,0,0,0-1.09-3.91l-.18-.17.17-.19A3.65,3.65,0,0,0,51,47.31a4.09,4.09,0,0,0-1.12-3l-.17-.17.16-.17a4.74,4.74,0,0,0,.53-5.58l-.1-.16.13-.13L70.54,15.7l.08,0a1,1,0,0,0,.71-1.45,1.32,1.32,0,0,0-.23-.49L59.53.83A1,1,0,0,0,58.78.5Zm31,60.21H29.38l-8.73-.12.09-17.67.05-.07c.59-.79,1.79-2.31,3.06-3.93l.41-.52c1.38-1.76,2.82-3.59,3.48-4.47,1.64-2.17,1.09-5.2.69-7.4a9.8,9.8,0,0,1-.26-2.33l0-.09.08-.06a4.15,4.15,0,0,1,2.81-.21c.91.3,2.73,2.46,3.2,3.78.62,1.76-.18,7.17-.54,9.1a1,1,0,0,0,.22.82,1,1,0,0,0,.76.37L46.35,38a2.73,2.73,0,0,1,1,5.26,1,1,0,0,0-.62,1.06,1,1,0,0,0,.86.86h0c.15,0,1.41.25,1.4,2.07,0,.58-1,1.53-1.72,2a1,1,0,0,0-.45,1,1,1,0,0,0,.75.81c.78.19,1.6.58,1.37,2.67-.11,1-1.15,1.59-2.92,1.59a1,1,0,0,0-.84,1.55,4.26,4.26,0,0,1,.63,1.92A1.65,1.65,0,0,1,44.15,60.71Zm-23-.61,8.24.11H44.15c1,0,1.18-.75,1.18-1.38a3.73,3.73,0,0,0-.55-1.65A1.5,1.5,0,0,1,46,54.86c.86,0,2.32-.15,2.43-1.15.2-1.83-.44-2-1-2.13A1.5,1.5,0,0,1,47,48.86a3.82,3.82,0,0,0,1.49-1.57c0-1.37-.8-1.55-1-1.57a1.5,1.5,0,0,1-.36-2.88,2.23,2.23,0,0,0-.83-4.3l-11.64-.13a1.51,1.51,0,0,1-1.46-1.78c.53-2.84,1-7.45.56-8.84a8,8,0,0,0-2.89-3.48,4.16,4.16,0,0,0-2.27.09,13.17,13.17,0,0,0,.28,2c.41,2.29,1,5.44-.79,7.79-.67.89-2.1,2.71-3.49,4.48l-.41.52c-1.23,1.57-2.4,3.05-3,3.86ZM48.89,36.78l-.17-.1A4.7,4.7,0,0,0,46.36,36h0L42.1,36l.1-.32,6.22-20H67.84Zm-2.52-1.24a5.28,5.28,0,0,1,2.42.6L66.72,16.2H48.78l-6,19.3Zm-23.16.94-.2-.21L3.56,15.7h20.1l2.62,7.83,0,.09a8.22,8.22,0,0,0,.2,3.26c.35,1.95.79,4.37-.32,5.85-.56.74-1.7,2.2-2.75,3.53ZM4.72,16.2,23.18,35.72l2.56-3.29c1-1.3.56-3.61.23-5.46a8.81,8.81,0,0,1-.22-3.38l-.05-.1L23.3,16.2ZM40,36l-4.09,0,0-.29c.37-2.41.89-6.74.21-8.68h0c-.55-1.56-2.71-4.42-4.45-5a6.44,6.44,0,0,0-3.62,0l-.24.07L25.77,15.7H46.32l-.11.32Zm-3.51-.54,3.14,0,6-19.26H26.46l1.72,5.21a7.13,7.13,0,0,1,3.7.06c1.9.64,4.16,3.62,4.76,5.32h0C37.33,28.75,36.87,32.92,36.5,35.42ZM68.36,13.7h-19L59.12,3.38Zm-17.81-.5H67.24L59.11,4.12Zm-5.3.5h-19L36,3.45Zm-17.84-.5H44.13L36,4.19Zm-4.76.5H3.94l9-10.35ZM5,13.2H21.49L12.92,4.09ZM47.31,13,37.85,2.5H57.19ZM39,3l8.35,9.25L56,3ZM24.44,12.68,14.86,2.5H34.14ZM16,3l8.42,9L33,3Z"/></g></g></svg>