<svg xmlns="http://www.w3.org/2000/svg" viewBox="0 0 59.59 66.86"><defs><style>.cls-1{fill:#1f50a4;}</style></defs><title>cash</title><g id="Слой_2" data-name="Слой 2"><g id="Слой_1-2" data-name="Слой 1"><path class="cls-1" d="M40.11,66.86A19.49,19.49,0,1,1,59.59,47.37,19.51,19.51,0,0,1,40.11,66.86Zm0-36A16.49,16.49,0,1,0,56.59,47.37,16.5,16.5,0,0,0,40.11,30.89Z"/><path class="cls-1" d="M42.32,47.74H35.74a1.5,1.5,0,0,1-1.5-1.5v-10a1.5,1.5,0,0,1,1.5-1.5h6.58a6.5,6.5,0,0,1,0,13Zm-5.08-3h5.08a3.5,3.5,0,0,0,0-7H37.24Z"/><path class="cls-1" d="M35.74,58.24a1.5,1.5,0,0,1-1.5-1.5v-10a1.5,1.5,0,0,1,3,0v10A1.5,1.5,0,0,1,35.74,58.24Z"/><path class="cls-1" d="M45.24,53.74h-11a1.5,1.5,0,0,1,0-3h11a1.5,1.5,0,0,1,0,3Z"/><path class="cls-1" d="M22.28,27.86C9.85,27.86.12,21.74.12,13.93S9.85,0,22.28,0,44.44,6.12,44.44,13.93,34.71,27.86,22.28,27.86ZM22.28,3C11.89,3,3.12,8,3.12,13.93s8.77,10.93,19.16,10.93,19.16-5,19.16-10.93S32.67,3,22.28,3Z"/><path class="cls-1" d="M22.28,66.08C9.85,66.08.12,60,.12,52.15A9.45,9.45,0,0,1,.19,51a1.5,1.5,0,0,1,3,.39,6.84,6.84,0,0,0,0,.79c0,5.93,8.77,10.93,19.16,10.93A30.82,30.82,0,0,0,30.71,62a1.5,1.5,0,1,1,.82,2.88A33.66,33.66,0,0,1,22.28,66.08Z"/><path class="cls-1" d="M1.73,52.06a1.51,1.51,0,0,1-1.5-1.49L0,14.79a1.5,1.5,0,0,1,1.49-1.51h0A1.51,1.51,0,0,1,3,14.77l.23,35.78a1.5,1.5,0,0,1-1.49,1.51Z"/><path class="cls-1" d="M42.74,30.24a1.5,1.5,0,0,1-1.5-1.5v-15a1.5,1.5,0,0,1,3,0v15A1.5,1.5,0,0,1,42.74,30.24Z"/><path class="cls-1" d="M21.05,47.41H21C9.09,47,.12,41,.12,33.51a9.34,9.34,0,0,1,.07-1.18A1.51,1.51,0,0,1,1.87,31a1.51,1.51,0,0,1,1.3,1.68,5.29,5.29,0,0,0,0,.8c0,5.66,8.06,10.55,18,10.91a1.5,1.5,0,0,1-.05,3Z"/></g></g></svg>