<svg xmlns="http://www.w3.org/2000/svg" viewBox="0 0 63 64.17"><defs><style>.cls-1{fill:#1f50a4;}</style></defs><title>doc</title><g id="Слой_2" data-name="Слой 2"><g id="Слой_1-2" data-name="Слой 1"><path class="cls-1" d="M61.5,64H9.5A1.5,1.5,0,0,1,8,62.5V1.5A1.5,1.5,0,0,1,9.5,0h45a1.5,1.5,0,0,1,1.13.51l7,8a1.5,1.5,0,0,1,.37,1v53A1.5,1.5,0,0,1,61.5,64ZM11,61H60V10.06L53.82,3H11Z"/><path class="cls-1" d="M61,13H52.5A1.5,1.5,0,0,1,51,11.5V2a1.5,1.5,0,0,1,3,0v8h7a1.5,1.5,0,0,1,0,3Z"/><path class="cls-1" d="M8.74,64.17A1.66,1.66,0,0,1,8,64c-4.44-.1-8-3.43-8-7.5v-43A1.5,1.5,0,0,1,1.5,12H9a1.5,1.5,0,0,1,0,3H3V56.5C3,59.19,5.7,61,8.21,61h.23a1.61,1.61,0,0,1,1,.34,1.5,1.5,0,0,1-.62,2.83Z"/><path class="cls-1" d="M26.5,57h-7A1.5,1.5,0,0,1,18,55.5v-21A1.5,1.5,0,0,1,19.5,33h7A1.5,1.5,0,0,1,28,34.5v21A1.5,1.5,0,0,1,26.5,57ZM21,54h4V36H21Z"/><path class="cls-1" d="M39.5,57h-8A1.5,1.5,0,0,1,30,55.5v-13A1.5,1.5,0,0,1,31.5,41h8A1.5,1.5,0,0,1,41,42.5v13A1.5,1.5,0,0,1,39.5,57ZM33,54h5V44H33Z"/><path class="cls-1" d="M44,15H18a1.5,1.5,0,0,1,0-3H44a1.5,1.5,0,0,1,0,3Z"/><path class="cls-1" d="M30,21H18a1.5,1.5,0,0,1,0-3H30a1.5,1.5,0,0,1,0,3Z"/></g></g></svg>