<svg xmlns="http://www.w3.org/2000/svg" viewBox="0 0 41 34.5"><defs><style>.cls-1{fill:#1f50a4;}</style></defs><title>hotel</title><g id="Слой_2" data-name="Слой 2"><g id="Слой_1-2" data-name="Слой 1"><path class="cls-1" d="M33.33,34.5H7.83V3.5h25.5Zm-23.5-2h21.5V5.5H9.83Z"/><path class="cls-1" d="M26,34.38H15.08V23.13H26Zm-8.92-2H24V25.13H17.08Z"/><polygon class="cls-1" points="9 34.5 0 34.5 0 11.5 8.67 11.5 8.67 13.5 2 13.5 2 32.5 9 32.5 9 34.5"/><polygon class="cls-1" points="41 34.5 32.33 34.5 32.33 32.5 39 32.5 39 13.5 32 13.5 32 11.5 41 11.5 41 34.5"/><path class="cls-1" d="M36.17,5.5h-31V0h31Zm-29-2h27V2h-27Z"/><rect class="cls-1" x="22" y="9.5" width="5.83" height="2"/><rect class="cls-1" x="12.67" y="9.5" width="5.33" height="2"/><rect class="cls-1" x="22" y="13.5" width="5.83" height="2"/><rect class="cls-1" x="12.67" y="13.5" width="5.33" height="2"/><rect class="cls-1" x="22" y="17.5" width="5.83" height="2"/><rect class="cls-1" x="12.67" y="17.5" width="5.33" height="2"/></g></g></svg>