<svg xmlns="http://www.w3.org/2000/svg" viewBox="0 0 44 28"><defs><style>.cls-1{fill:#1f50a4;}</style></defs><title>operation</title><g id="Слой_2" data-name="Слой 2"><g id="Слой_1-2" data-name="Слой 1"><path class="cls-1" d="M27,11H16V0H27ZM18,9h7V2H18Z"/><polygon class="cls-1" points="6.5 19 4.75 19 4.75 5 17.5 5 17.5 7 6.75 7 6.75 18 6.5 18 6.5 19"/><path class="cls-1" d="M27,28H16V17H27Zm-9-2h7V19H18Z"/><path class="cls-1" d="M11,28H0V17H11ZM2,26H9V19H2Z"/><path class="cls-1" d="M44,28H33V17H44Zm-9-2h7V19H35Z"/><polygon class="cls-1" points="39.5 19 37.75 19 37.75 18 37.5 18 37.5 7 26.75 7 26.75 5 39.5 5 39.5 19"/><rect class="cls-1" x="20.67" y="10.67" width="2" height="6.67"/></g></g></svg>